<?xml version="1.0" encoding="utf-8"?>
<!-- Generator: Adobe Illustrator 22.1.0, SVG Export Plug-In . SVG Version: 6.00 Build 0)  -->
<svg version="1.1" id="レイヤー_1" xmlns="http://www.w3.org/2000/svg" xmlns:xlink="http://www.w3.org/1999/xlink" x="0px"
	 y="0px" viewBox="0 0 500 160" style="enable-background:new 0 0 500 160;" xml:space="preserve">
<g>
	<path d="M153.6,2.2l-58,78.3L78.7,57.8c-0.5-0.7-1.6-0.7-2.1,0L2.4,157.2C2,157.8,1.9,159,3.5,159s3,0,3.6,0s1.2-0.4,1.6-0.9
		l68.9-92.3l14.5,19.4l-52.9,71.3c-1.1,1.6,0.2,2.5,1.1,2.5c1,0,5.2,0,7,0c1.3,0,2-0.7,2.4-1.2l48-64.9l49,65.6
		c0.3,0.3,0.6,0.5,1,0.5c0,0,0,0,0.1,0h6.7c0.7,0,1.3-0.6,1.3-1.3V3C155.9,1.7,154.3,1.2,153.6,2.2z M146.6,27v121.8l-45.3-60.7
		L146.6,27z"/>
	<path d="M253.7,78.5c-0.6,0-2.7,0-3.7,0c-0.7,0-1.1,0.1-1.6,0.7l-17,17V79.8c0-0.7,0.1-1.3-0.7-1.3h-7.2c-0.7,0-1.3,0.6-1.3,1.3
		v77.9c0,0.7,0.6,1.3,1.3,1.3h6.5c0.7,0,1.3-0.6,1.3-1.3v-55l22.9-22.9C254.9,79,254.3,78.5,253.7,78.5z"/>
	<path d="M211.2,78.5c-0.6,0-2.7,0-3.7,0c-0.7,0-1.1,0.1-1.6,0.7l-17,17V79.8c0-0.7-0.6-1.3-1.3-1.3H181c-0.7,0-1.3,0.6-1.3,1.3
		v77.9c0,0.7,0.6,1.3,1.3,1.3h6.5c0.7,0,1.3-0.6,1.3-1.3v-55l22.9-22.9C212.5,79,211.8,78.5,211.2,78.5z"/>
	<path d="M458.6,78.5c-0.5,0-2.6,0-3.1,0c-0.5,0-0.9,0.3-1.2,1l-30.1,66.4c-4.3-9.6-11.5-25.3-17.7-39l12.4-27.2
		c0.3-0.7-0.3-1.2-0.8-1.2c-0.5,0-2.6,0-3.1,0s-0.9,0.3-1.2,1l-9.9,21.8c-5.5-12.1-9.8-21.6-9.9-21.8c-0.3-0.8-0.7-1-1.9-1
		c-1.1,0-5.4,0-6.7,0s-1.6,0.9-1.3,1.6l14.8,32.4l-15.2,33.4c-9-19.8-30-66-30.2-66.4c-0.3-0.8-0.7-1-1.9-1c-1.1,0-5.4,0-6.7,0
		s-1.6,0.9-1.3,1.6l35.5,77.9c0.3,0.7,0.9,1,1.3,1s1.2,0,1.6,0s0.9-0.2,1.2-0.9l18.2-40l18.2,40c0.3,0.7,0.9,1,1.3,1
		c0.4,0,1.2,0,1.6,0s0.9-0.2,1.2-0.9l35.6-78.4C459.7,79,459.1,78.5,458.6,78.5z"/>
	<path d="M498.5,123l-22.8-19.8l22.2-23c0.5-0.5,0.5-1.6-0.1-1.6s-2.3,0-3.2,0c-1.7,0-1.8,0.4-2.8,1.3l-25.1,26.1
		c-0.5,0.5-0.4,1.4,0.1,1.8l23.2,20.2l-24.3,29.2c-0.5,0.6-0.2,1.9,1.1,1.9c1.4,0,1.4,0,2.3,0c1,0,1.2-0.3,1.7-0.8l25.9-31.1
		c0,0,0.1-0.1,0.1-0.1l1.8-2.1C499.2,124.3,499.1,123.5,498.5,123z"/>
	<path d="M297.8,78.5c-22.2,0-40.2,18-40.2,40.2s18,40.2,40.2,40.2c22.2,0,40.2-18,40.2-40.2S320.1,78.5,297.8,78.5z M297.8,149.7
		c-17.1,0-31-13.9-31-31c0-17.1,13.9-31,31-31c17.1,0,31,13.9,31,31C328.8,135.8,314.9,149.7,297.8,149.7z"/>
</g>
</svg>
