<?xml version="1.0" encoding="utf-8"?>
<!-- Generator: Adobe Illustrator 22.1.0, SVG Export Plug-In . SVG Version: 6.00 Build 0)  -->
<svg version="1.1" id="レイヤー_1" xmlns="http://www.w3.org/2000/svg" xmlns:xlink="http://www.w3.org/1999/xlink" x="0px"
	 y="0px" viewBox="0 0 180 70" style="enable-background:new 0 0 180 70;" xml:space="preserve">
<g>
	<path d="M31.2,41.7c0.3,0,0.6-0.1,0.9-0.1l0.3-0.1l0.2,0l1.7-0.2l0.2,0l0.1,0l0.6-0.1l0.1,0l0.1-0.1l0.2,0.1l0.2-0.1h0.2l0.1,0
		l1.2-0.2l0.2-0.1h0.2c0,0,0.1,0,0.2,0l0.6-0.1l0.3-0.1l0.3-0.1h0.3l0.4-0.1l1-0.2l0.1-0.1l0.4-0.1h0.1v-0.1h0.2l0.1-0.1h0.1l0.1,0
		l0,0.2l0,0.1l-0.1,0.1l-0.2-0.1l-1,0.3L40,40.9L39.8,41h-0.1L39.4,41l-0.2,0l0,0.1l-0.2,0h-0.2l-0.1,0.1h-0.2l-0.1,0.1h-0.3
		l-0.8,0.2l-0.2,0.1l-0.1,0l-0.2,0.1h-0.3l-0.6,0.1l-0.1,0l-0.1,0c-1.4,0.2-2.7,0.3-4.1,0.4l-0.8,0.1h-0.1l-0.2,0L30,42.4h-0.7
		L27,42.7h-0.2l-1,0.1h-0.4L25,42.8l-0.2-0.1l-0.3,0.1l0-0.1l-4,0.4l-0.6,0.1l-0.1,0l-0.6,0.1h-0.2l-0.3,0h-0.1l-0.3,0h-0.4
		l-1.8,0.2l-0.1,0.1v-0.1h-0.2l-0.2,0.1h-0.2c-0.2,0-0.4,0-0.5,0l0,0.2l-0.2-0.1h-0.2l-1.1,0.1L12.6,44L12.3,44L12,44l-1.1,0.1
		l-0.3,0.1l-1.1,0.2l-1.4,0.1l-0.8,0.2l-0.5,0.3L6.2,45L6,45.1l0,0l-0.2,0l-0.6,0.2l-0.6-0.2l-0.2-0.3l0-0.1l-0.2-0.2v-0.2l0.1-0.2
		L4.4,44v-0.1l0.1,0l0.2-0.2l0.9-0.1l0.7-0.5l0.4,0L7,43.3l0.1,0L7.2,43l0.5-0.2l0.5,0.1l0.1,0v0h0.1L8.8,43l0.1,0.1l0,0l0.1,0
		l0.9,0l0.2-0.1l0.6,0l0.4-0.1l1-0.1l0.2-0.1h0.3v0h0.2l0.1,0l0,0h0v0l0,0l0.2-0.2l0.2-0.1l0.2,0l0.3,0l0.3,0.1l0.1,0.2v0.1h0.4
		l0.3-0.1l0.4,0.1l0.1-0.1h0.6l0.2,0h0.2l1-0.1l0.2,0.1l0.2-0.1l0.2,0.1l0.2-0.2l0.2,0l0.1,0.1l0.3-0.1l0.3,0h0.3l0.1,0l0.4,0l0.2,0
		l0.4,0h0.1l1.1-0.2l0.1,0l0.1,0l0.5-0.1l0.1,0l0.1-0.1l0.2,0.1l0.2-0.1h0.2l0.1,0v0.2c0.2,0,0.4-0.1,0.6-0.1l0.1-0.1l0.4-0.1h0.6
		l0.4,0l0.2,0.1l1.3-0.1c0.6-0.1,1.3-0.1,2-0.2l1-0.1l0.6-0.1L31.2,41.7z M51.6,14.1h-0.2l-0.2-0.1h-0.1l-0.6-0.2l-0.2-0.1l-0.4-0.1
		l-0.2,0l-0.3,0l-0.8,0L47,13.7l-0.2,0l-0.2-0.1c-0.5,0-1,0-1.4,0l-1.4,0.1l-0.1,0l-0.3-0.1l-0.2,0l-0.1,0l-0.3,0l-0.4,0l-0.3,0
		c-0.2,0-0.4,0-0.5,0l-0.2,0l-0.2,0l-0.8,0.1l-0.3,0.1l-0.1-0.1h0c-0.2,0-0.5,0-0.7,0l-0.1,0L38.7,14l-0.1,0l-0.3,0L37.9,14
		l-0.1-0.1l-1.6,0.2l-0.1,0l-0.4,0.1h-0.3c-0.9,0.1-1.8,0.2-2.6,0.3l-0.3,0l-0.5,0.1h-0.3l-2,0.3l-0.2,0l-0.4,0.2L29,15.2h-0.2
		l-0.4,0h-0.1l-2.5,0.5l-0.2,0.1l-0.4,0.1l-0.1,0l-0.6,0c-0.3,0-0.6,0.1-0.8,0.2l-0.2,0.1l-2.1,0.5l-2.1,0.6l-0.6,0.1L18,17.7
		L16.4,18l-0.1,0.1l-0.1,0l0,0l0,0l0,0l0,0l-0.2,0.3l-0.2,0.2l-0.1,0.1l-0.4,0.1l-0.4,0l-0.2-0.2l-0.1-0.2v-0.1L14,18.6l-0.7,0.2
		l-0.2,0.1l-0.2,0.2l-0.1,0.1l0.1,0.1l-0.1,0.1l-0.1-0.1l-0.1,0.2l0.3,0.3l0.1-0.1l0.1,0.1l0,0.1l0.1,0.1l0.2,0l0.2,0.1l-0.6,0.2
		l0.6,0l0.1,0.1c0.2,0,0.3,0.2,0.1,0.2l-0.6,0.1v0h0l-0.6,0.1L12,20.8l-0.2-0.1l0.2-0.1h-0.4l-0.2,0l-0.3,0l-0.6,0.2H10
		C9.6,21,9.4,21.1,8.8,21c-0.1,0-0.2-0.1-0.2-0.2c0-0.2,0.2-0.5,0.5-0.7l0-0.2l0.1-0.2l0,0l0-0.1l0.1,0l0.2,0l0.2-0.2l0.4-0.2
		l0.9-0.4l1-0.6l0.8-0.1h0.2l0.6-0.2l0.5-0.1l0.6-0.2l0.4-0.3l0.3,0.1l0.2-0.1l0,0h0l0.2-0.1l0.1,0l0.9-0.2v0l0.3-0.2l0.3-0.1l0.1,0
		l0.2,0.1l1.4-0.4l0.1,0l0.7-0.2L21,16h0.2l2.1-0.5h0c0,0,0.1,0,0.1,0h0l0.1,0v0l2-0.4l0.2-0.1l0.5-0.2l0.7-0.1l0.7-0.2l0.3-0.1
		l0.5,0l0.6,0h0.3l0.4-0.1h0.5c0.6-0.1,1.2-0.2,1.8-0.2l0.1-0.1l0.1,0l0,0c1.1-0.2,2.2-0.3,3.3-0.4l0.1-0.1l0-0.1l0.1,0.1l0.1,0.1
		l0.9-0.1l0.1-0.1h0.2l0.2,0l0,0l1.7-0.1l0.2-0.1h0.2l0,0c0.2,0,0.5,0,0.7,0l0,0l0.1-0.1h0.1v0.1l-0.1,0c0.4,0,0.8,0,1.2,0h0.2
		l0-0.1h0.1l0.2,0l0.4,0l0.2,0h0.8l1.5,0l0.2,0h0.2l0.1-0.1l0.3,0.1l0.2-0.1l0.2,0.1h0.6l0.1,0l0.1,0l0,0H47l0.1,0h0.2l0,0l0.2,0
		h0.2l0.2,0l0.2,0l0.3,0l0.9,0l0.2-0.1l0.1,0l0.1,0.1l0.4,0.2l1,0.1l0.2-0.1l0.3,0.1h0.1l0.3,0.1h0.2l0.6,0.1H53l1.2,0.2l0,0
		l0.9,0.2l0,0l0.2,0.1l0.6,0.2l0.6,0.2l0.4,0.2v0c0.1,0,0.1,0,0.2,0.1l0.1,0l0.6,0.2l0,0c0.3,0.1,0.6,0.2,0.9,0.3l0.2,0.1l0.2,0.1
		l0.2,0l0.2,0.2h0l0.1,0.1l1,0.3h0.1l0.1,0v0.1c0.1,0.1,0.1,0.2,0,0.2v0h-0.2l-0.1-0.1h-0.1l0-0.1h0l0,0l-0.4-0.2l-0.1-0.1l-0.9-0.4
		l-0.3-0.1l-0.3,0l-0.2-0.2l-0.3-0.2l-0.7-0.2l-0.6-0.2c-0.1,0-0.1,0-0.2,0l-0.2,0l-0.2-0.1l-0.9-0.2l-0.4-0.1l0,0l-0.1,0l-0.2,0
		l-0.1,0h-0.2l-0.2,0l-0.1,0l-0.1-0.1h0L53,14.3l-0.2,0L51.6,14.1z M9.2,20.5L9.2,20.5L9.2,20.5L9.2,20.5z M31.7,24.8l-0.6,0.8
		l-0.1,0.2l-0.2,0.1h0l-0.3,0.5c-0.1,0.3-0.3,0.6-0.5,0.8l-0.7,1.1l-0.1,0.3l-0.1,0.1h-0.2l-0.7,0.9v0.1l-0.1,0.2L28,30l-0.2,0.2
		l-0.1,0.1l-0.1,0.1h0l-0.1,0.2l-0.3,0.3l-0.4,0.5l-0.1,0.2l-0.1,0.1l-0.1,0.2l-0.2,0.1v0l0,0.2l-0.1,0.1l-0.2,0.1l-0.1,0.1v0.1
		L26,32.5l-0.7,1l-0.2,0.2L25,33.8l-0.1,0c0,0,0,0.1,0,0.1l-0.1,0.2l-0.2,0.2l-0.1,0.1l-0.3,0.4L24.1,35L24,35.1l-0.6,0.7l-0.1,0.1
		L23,36.3v0l-0.1,0.1c-0.2,0.2-0.3,0.4-0.5,0.6l0,0.2l-0.2,0.3l-0.2,0.2L21,38.8L20.9,39l-0.1,0.1l-0.2,0c0,0-0.1,0-0.1,0l-0.1-0.1
		v-0.2l0.1-0.1l0.2-0.2l0.1-0.2l0.1,0l0,0l0-0.1l0.3-0.4v0l0,0l1.2-1.6l0.1-0.2l0.2-0.2l1.6-2v0l0.4-0.5l0-0.1l0.1-0.2l0.2-0.3
		l0.3-0.2l0.1-0.1v0l0.2-0.2l0.2-0.4l0.2-0.2l0.1-0.1l0.7-1l0.1-0.2l0.1-0.1l0.1,0l0.1-0.1l0.5-0.6c0-0.2,0.1-0.2,0.2-0.4l0.1-0.1
		c0,0,0.1-0.1,0.1-0.2c0.2-0.1,0.3-0.5,0.5-0.6l0.8-1.1c0.2-0.3,0.3-0.6,0.4-0.8c0.4-0.4,0.7-0.9,1-1.4l0-0.1l0.4-0.5l0.2-0.4
		c0.2-0.4,0.6-0.8,0.8-1.3l0.7-1l0.1-0.1l0,0v0h0V21l0-0.3l0-0.1l0.2-0.3l0.3-0.2l0.2,0l0.2-0.3l0.6-0.9l0.4-0.6l0.2-0.4l0.2-0.4
		c0-0.2,0.1-0.3,0.1-0.5l0.2-0.3c0-0.6,0.2-1.1,0.7-1.4l0.2-0.4c0.2-0.3,0.6-0.5,1-0.2c0.1,0,0.2,0.1,0.2,0.2L37.6,15l0.2,0.1
		l0.1,0.1l0,0.2l0.1,0v0.1h0l0,0.1l-0.1,0.1l0,0.2l-0.2,0.4l-0.2,0.6l-0.2,0.2L37.1,17l-0.2,0.2l-0.1,0.2l-0.2,0.2l0.1,0v0.2
		l-0.1,0.1h-0.1l0-0.1l0,0.1L36.4,18L36.3,18l0,0.1v0l-0.1,0l-0.4,0.6l-0.1,0.1l-0.2,0.3l-0.1,0.2L35,20.1l-0.1,0.2l-1,1.4l-0.1,0.2
		L33.7,22v0.1l-0.3,0.4l-0.1,0.1l-0.1,0.1l-0.4,0.6l-0.1,0.1l-0.1,0.1l-0.1,0.1l0,0.2l-0.1,0.2l-0.1,0L32.3,24l-0.2,0.2l0,0.2
		L32,24.6L31.7,24.8z"/>
	<path d="M43.6,35l0.1-0.2l0,0l0.2-0.3l0.2-0.4l0.3-0.5l0.1-0.2l0.6-0.9l0.2-0.2l0.1-0.1l0.4-0.6l0.3-0.5l0.3-0.5l0.1-0.4v-0.2h-0.1
		V30l0.1-0.1l-0.1-0.5l0.1-0.6l0.1-0.2l0.2-0.7l0.6-0.4l0.3-0.1l0.3,0.2l0.1,0.2v0.2l0.1-0.1l-0.1,0.1h-0.1l-0.1,0.1L48,28.4
		c0,0,0,0.1,0,0.1c-0.1,0.4-0.3,0.7-0.5,1.1l-0.2,0.8l-0.2,0.3L47,30.9l-0.3,0.4l-0.2,0.4L46.4,32l-0.1,0.3L46,32.5l-0.1,0.1
		l-0.1,0.2v0.1l-0.1,0.1l-0.6,0.9L45,34l-0.4,0.5l-0.2,0.4l-0.6,1l-0.1,0.2l-0.3,0.5v0l-0.1,0.2l-0.1,0l-0.1,0.2L43,37.3
		c0.2-0.1,0.2-0.2,0.3-0.4l0.1-0.1l0,0l0.1-0.2l0.2-0.1l0.1-0.1l0.2-0.2l0.2-0.1l0.3-0.3l0.2-0.1c0.4-0.4,0.8-0.8,1.2-1.1l0.2-0.2
		l0.1-0.1l0.3-0.2l0.2-0.2l0.5-0.3l0.1-0.1l0.7-0.5L48,33c0.3-0.1,0.5-0.3,0.8-0.4c0.2-0.1,0.6-0.3,1-0.2v0l0.6,0l0.2,0.2l0.3,0.3
		l0.1,0.5v0.2l0,0.3l-0.1,0.4l0,0.2v0.2l-0.2,0.8v0.1l0.2,0.3l0.1,0.4l0.1,0.1L51,36.3l-0.1,0.2v0.2l0.1,0.2l0.1,0.1l0.2,0.2
		c0.4,0,1,0,1.5-0.1l0.6-0.2l0.2,0l0.4-0.2l0.2,0l0.6-0.2l0.4-0.2l0.3,0l0.3-0.1l0.5-0.2c0.4-0.2,0.7-0.3,1.1-0.5l0.3-0.2l0.2,0
		l0.7-0.4l0.2-0.2l0.2-0.2l0.3-0.2l0.9-0.4l1-0.6l0.1-0.1l0.4-0.2H62v-0.1h0.1l0.3-0.2l0.1-0.1h0.2l0.1,0.1v0.1l-0.1,0.1L62.5,33
		c-0.5,0.3-1,0.6-1.5,1l-0.2,0.2l-0.2,0.1l-0.2,0.1h-0.1l-0.4,0.2l-0.1,0.1l-0.1,0c0,0-0.1,0-0.1,0.1l-0.1,0.1l-0.2,0.1h0
		c-0.3,0.2-0.6,0.4-1,0.5l-0.5,0.3l-1.3,0.6l-0.1,0l0,0L56,36.8l-0.3,0.2L55.2,37l-0.5,0.2l-0.2,0.1l-0.3,0.1l-0.4,0.1l-0.2,0
		l-0.1,0.1l-0.1,0l-0.1,0c-0.2,0.1-0.5,0.1-0.7,0.1l-0.4,0l-0.2,0.1l-0.1,0l-0.2-0.1l-0.2,0.1l-0.2,0h-0.1c-0.4,0-0.7-0.3-1-0.4
		c-0.2-0.1-0.3-0.2-0.4-0.4l0-0.1c0-0.2,0-0.3,0-0.5v-0.3l0.1-0.4l0.2-0.6h0l0.1-0.1l0.3-1.1h0L50.3,34l0.1-0.2
		c0.1-0.5,0-0.8-0.4-0.9c-0.2,0-0.2-0.1-0.5,0l-0.3,0.2l-0.2,0.2c0,0,0,0-0.1,0l-0.6,0.4l-0.1,0.1L48,33.7l-0.5,0.5l-0.2,0.1
		l-0.1,0.2l-1,0.7l-0.1,0l-0.2,0.2l-0.1,0l-0.1,0.2l-0.2,0.2L45.3,36l-0.2,0.2l-0.2,0.2l-0.1,0.1l-0.1,0.2l-0.3,0.2L44,37.1
		c-0.5,0.5-0.9,0.9-1.4,1.4l-0.1,0.2l0,0l-0.3,0.2c0,0,0,0-0.1,0l0,0.1L42,39l0,0.1v0.1L42,39l-0.1,0.1l-0.2,0l-0.2-0.1l-0.1-0.3
		v-0.6l0.2-0.5l0.2-0.2l0.3-0.3l0.4-0.2v-0.1h0l0.1,0v-0.1l0.1-0.1l0.1-0.2l0.2-0.4l0.2-0.2l0.1-0.2L43.6,35L43.6,35z"/>
	<path d="M74.3,29.9L74.3,29.9l0,0.2l-0.1,0.1l0,0.1l0.1,0.1h0l-0.1,0.4L74,31l-0.2,0.1l-0.3-0.2l-0.5-0.2l-0.2-0.1l-0.1-0.1h-0.1
		l0.1-0.2v-0.2l0.1-0.2l0-0.3v-0.3l-0.1-0.1l0-0.1l-0.2-0.1h-0.2L72.1,29l-0.4,0c-1,0.1-0.6-0.2-1.7,0.2l-0.4,0.2l-0.1,0l-0.9,0.2
		l-0.6,0.3L67.4,30l-0.3,0.2l-0.2,0.1l-0.4,0.1l-0.5,0.2l-0.2,0.1L64.9,31l-0.5,0.3l0,0.1L64,31.7l-0.2,0.2l-0.1,0.1l-0.2,0.1
		l-0.2,0.2l-0.2,0.3l-0.2,0.2l-0.2,0.2L62.4,33c-0.2,0.2-0.3,0.4-0.3,0.6c-0.1,0.3,0,0.1,0.2,0.3l0.1,0.2l0.2,0.1l0.2,0.2l0.1,0.2h0
		c0.2,0.1,0.4,0.2,0.5,0.3l0.4,0.2v0.1l0.5,0.2l0.3,0.1l0.2,0.1h0l0,0l0.8,0.3h0.3l0.2,0.1l0.2,0.2l0,0l0.1,0.1l0.1,0.1l0.6,0.2
		l0.3,0l0.2,0.1h0.6l0.2,0.1l0.4,0.1l0.6,0.1l0.2,0.1l0.5,0.2l0.2,0.3l0.1,0.3l0,0.1l0,0.1L70.1,38l-0.2,0.2l-0.4,0.2h-0.2l-0.2,0.1
		l-0.4,0.1l-0.1,0l-0.3,0l-0.7,0.2l-1.4,0.1h-0.4l-1.2,0.1h-0.4l-0.4,0l-0.5,0L62.9,39l-0.5,0.1l-0.8-0.2h-0.5l-0.3,0l-0.6,0.1h-0.2
		l-0.4,0.1h-0.2l-0.6,0.2l-0.5,0.2l-0.2,0l-0.3,0L57,39.7l-0.1,0l-0.3,0.1l-0.1,0l0,0h-0.1l-0.1,0.1l-0.1,0L56,39.8v-0.1h0l0,0l0,0
		l0.1-0.1l0.1,0h0l0.1-0.1l0.9-0.2l0.3-0.1l0.1,0l0.4-0.1l0.3-0.1h0.1l0.9-0.4h0.3l0.2-0.1l0.5,0.1l0.3,0l0.2-0.1l0.6-0.1l0.5-0.1
		l0.5,0l0.6-0.1l0.1,0h0.4l0.2-0.1l0.1,0c0.2,0,0.3,0,0.5,0l0.3-0.1l0.7-0.1L66,38l0.9,0l0.1,0l0.2-0.1h0.3l0.3-0.2l0.5-0.1
		l-0.2-0.1L68,37.5l-0.3-0.1l-0.4-0.1l-0.5-0.2l0-0.1l-0.1,0h-0.3l-0.2-0.2l-0.8-0.3l-0.1-0.1l-0.2-0.1L64.3,36h0l0,0
		c-0.6-0.2-1.1-0.4-1.3-0.5h0v0l-0.2-0.1l-0.2,0l-0.4-0.2l-0.1,0L62,35h-0.2l-0.3-0.2l-0.4-0.6l0-0.5l0,0.1c0-0.1,0.1-0.2,0.2-0.4
		c0.1-0.1,0.2-0.2,0.2-0.3l0,0l0.4-0.6l0.2-0.2h0.1l0.1-0.2l0.2-0.1l0.2-0.2l0.2-0.1l0.1-0.1l0.3-0.1h0l0.1-0.1l0.2-0.1h0l0.6-0.4
		l0.3-0.2l0.3-0.2l0.1-0.1l0.2-0.2l0.1-0.1l0.1-0.2l0.1-0.1h0.2l0.2,0l0.6-0.2l0.4-0.1l0.2,0l0.1,0l0.5-0.2l0.1-0.1
		c0.5-0.1,0.6-0.2,0.7-0.3l0.2-0.2h0.1l0.3,0l0.2-0.1l0.2,0c0.1,0,0.1,0,0.2,0c0.3-0.1,0.6-0.2,1-0.2l0.2-0.1l0.2-0.1l0.1-0.1h0.4
		l0.2-0.1l0.5,0.1l0.2,0.1h0.1l0,0l0.3,0.1l0.1,0l0.4,0.1l0.3,0.2l0.1,0.1l0.1,0.1c0.1,0.2,0.1,0.3,0.2,0.6h0.1L74.3,29.9L74.3,29.9
		z"/>
	<path d="M85.4,20.4h0.5l0.2-0.2l0.8-1.1L87,19l0.4-0.5l0.2-0.2l0.2-0.3l0.1-0.1l0.3-0.5v-0.1l0.1-0.1l0.1-0.1l0.1-0.1l-0.1,0.1h0
		v-0.1l0.1-0.1l0.1,0v0.1l0.1-0.2l0.2-0.2l0.2-0.2l0-0.1l0.1-0.2l0.4-0.3l0.2-0.3l0.1-0.1l0.1,0l0-0.1v0l0,0v0l0.2-0.4l0.2-0.2
		l0.4,0l0.2,0.4l0,0.4L90.7,16l-0.3,0.3l-0.2,0.3L90,16.9l0,0.2L89,18l-0.3,0.2l-1.2,1.3l-0.7,0.8l0.4,0l0.1-0.1h0.1l0.1,0.1
		l0.8-0.1v-0.1h2.1l0.9-0.1h0.9l0.1,0.1h0.2v0.1l0.8,0.1l0.3-0.1l0.4,0.1l0.5-0.1h0.2l0.3,0l0.4,0.1l0.2,0l0.2,0l0.8,0.2h0.1
		l0.2,0.1h0.4l0.2,0.1l0.7,0.1l0.1,0l0.2,0.2c0.1,0,0.2,0.1,0.4,0.1l0,0l0,0l0.8,0.3l0.1,0l0,0.1h0v0l0.5,0.2h0.1l0.1,0.1
		c0,0,0.1,0.1,0.1,0.1l0.2,0l0.4,0.2l0.1,0.2l0.3,0.2h0.1l0.1,0.1l0,0.1c0.2,0.1,0.3,0.3,0.5,0.4c0,0,0,0,0,0.1l0.1,0l0.2,0.3v0
		l0.1,0.1l0.2,0.1l0.1,0.1l0,0.2l0.1,0.2l0.2,0.6l0,0.2c0,0,0,0.1,0.1,0.1c0,0.1,0,0.2,0,0.2l0,0l-0.1,0.2l-0.2-0.2l0-0.1
		c0-0.1,0-0.1,0-0.2l-0.2-0.4l-0.2-0.6l-0.1-0.1l0,0l-0.2-0.3l-0.2-0.2c0,0,0,0,0-0.1l-0.3-0.3l-0.1-0.1l-0.4-0.3l0,0
		c-0.1,0-0.2-0.1-0.2-0.1l-0.1,0l-0.1,0l-0.2-0.2l-0.2-0.1l-0.2-0.1l-0.1-0.1l0,0h-0.1L99.8,22l-0.5-0.2l-0.6-0.1l-0.2-0.1l-0.4-0.2
		l-0.5-0.1c-0.5-0.1-1-0.2-1.5-0.3l-0.1,0L95.6,21l-0.2,0H95l-0.2,0l-0.6-0.1l-0.3,0l-0.2,0l-0.1,0l-0.4-0.1c-0.2,0-0.5,0-0.7,0
		l-0.1,0l-0.1,0c-0.2,0-0.3,0-0.5,0c-1,0-2,0-3,0l-0.2,0l-0.2,0.1V21h-0.1L88,21.2h-0.1v0.1h-0.1l-0.5,0.2h-1.5
		c-0.2,0.2-0.4,0.5-0.6,0.7l-0.1,0.2L85,22.5c-0.2,0.2-0.4,0.4-0.5,0.6l0,0.1L84,23.7l-0.5,0.7l-0.3,0.3l-0.5,0.6l-0.1,0.1l-1,1.3
		L81.5,27l-0.6,0.8L80.8,28l-0.2,0.2l-0.2,0.3l-0.2,0.4l-0.1,0.2l-0.2,0.2l-0.2,0.2l-0.2,0.2l0,0l-0.1,0.1l-0.1,0.2l-0.5,0.6
		l-0.1,0.4l-1.4,2l-0.5,0.6l-0.6,0.7l-0.2,0.2l-0.3,0.3l-0.2,0.3l-0.1,0.2l-0.3,0.4l-0.2,0.6l-0.2,0.3l-0.4,0.6L74,37.8V38l0,0.2
		l-0.2,0.4l0,0.4l-0.1,0.3l-0.1,0.2l0.1,0.1l0.2,0.1l0.2,0l0.6-0.1l0.2-0.1l0.1-0.1l0.5-0.1l0.3-0.1l0.2-0.1l0.2-0.1l0.2,0l0.3-0.1
		l0.2-0.1h0.1l0.1,0l0.8-0.4l0.6-0.2v0h0.1l0.1-0.2h0.1l0.2-0.1h0.1l0.1-0.1h0.1l0.9-0.4l0.3-0.2l0.1,0l1.4-0.7l0.3-0.2l0.2-0.1
		l0.4-0.2l0.5-0.2h0l0.2-0.2l0.3-0.2l0.4-0.1l0.4-0.2l0.8-0.4v0h0l0.2-0.1l0.1-0.1l0.4-0.2H86v-0.1l0.2,0l0.2-0.1l0.1-0.1l0.2,0
		l0.1,0.2l0,0.1l0,0.1l-0.1,0.1l-0.2,0l-0.1,0.1l-0.8,0.6L85.2,35l-0.3,0.2l-0.5,0.2L84,35.7l-0.3,0.1L83.3,36l-0.2,0.1L83,36.2
		l-0.3,0.2l-0.4,0.2l-0.5,0.2l-0.2,0.1l-0.3,0.2L81,37.2l-0.3,0.1l-0.1,0l-0.2,0.2l-0.2,0.1l-0.2,0l-0.3,0.2l-0.1,0.1l-0.2,0l-0.2,0
		L79.1,38l-0.6,0.3l-0.3,0.2l-0.4,0.2h-0.1l-0.4,0.2l-0.4,0.3l-0.3,0.2l-0.2,0h0l0,0.1l0,0.1l-0.1,0h-0.2l0.1-0.1l-0.1,0l-0.3,0.2
		l-0.1,0.1l-0.9,0.3l-1.1,0.3l-0.4,0l-0.1,0L73,40.4l-0.1,0l-0.2-0.1l-0.1-0.2l-0.1-0.3c0-0.1,0-0.4,0-0.5c0-0.2,0.1-0.6,0.3-0.9
		v-0.1l0.1-0.2l0.1-0.2l0.1-0.1v-0.2l0.1-0.1l0.2-0.2l0.1-0.1l0.2-0.2l0.3-0.6l0.1-0.1l0.1-0.2L74,36l0.1-0.1l0.2-0.2l0.2-0.3
		l0.1-0.2l0.1-0.2l0.2-0.1l0-0.1l0.2-0.2l0.3-0.2l0.2-0.2l0-0.1l0.1-0.2l0.2-0.1l0.4-0.6l0-0.1l0.1-0.1c0.1-0.2,0.2-0.3,0.4-0.5
		l0.2-0.3l0.2-0.3l0.2-0.3l0.2-0.2l0.1-0.1l0.1-0.1l0.1-0.2l0,0c0.1-0.1,0.2-0.2,0.2-0.2l0-0.1l0.1-0.1l0.1-0.1l0.1-0.1v-0.1
		l0.1-0.1v-0.2l0.5-0.6l0.1-0.1c0,0,0,0,0,0l0-0.2l0.3-0.4l0.1-0.1l0.1-0.2l0.2-0.2l1.1-1.6l0.2-0.1l0.5-0.6l0.1-0.1
		c0.1-0.1,0.2-0.3,0.4-0.5l0,0l0.1-0.1h0l0.5-0.6v-0.2l0.5-0.6l0.1-0.1l0.2-0.2l0-0.1l0.7-1l0.2-0.1l0.2-0.2v0l0.1-0.1V22l0.1-0.1
		l0.1,0l0.1-0.1v0l0.1-0.1l0-0.1l0.3-0.4h-0.1l-0.2,0.1l-0.6,0.1l-0.4,0.1l-0.9,0.1l-1,0.1l-0.2,0l-0.3,0l-0.8,0.1l-0.2,0.1
		l-1.6,0.5l-0.3,0.2l-0.1,0.1l-0.4,0.1l-0.4,0l-0.6,0.4l-0.2,0.1l-0.6,0.1l-0.7-0.2l-0.2-0.3l0-0.3l0.1-0.2h0c0-0.1,0-0.1,0.1-0.2
		h0.1l0-0.1v-0.1l0.1,0.1c0.5-0.2,1.1-0.4,1.9-0.6l0.5-0.2l0.5,0l0.2,0.1l1.3-0.2l0.1,0h0l0.8-0.1l0,0h0.1l0.6-0.1l0.1,0h0.2l0,0
		h0.2l0.8-0.2l0.1,0l0.2-0.1h0.2l0.5-0.1l0.1,0l0.2,0c0.2,0,0.3-0.1,0.5-0.1l0,0h0.1H85L85.4,20.4z"/>
	<path d="M94.9,35.6L94.9,35.6l0.1-0.2l0.6-0.7l0.1-0.2l0.1-0.1l0-0.1l0.1-0.1l0.4-0.4l0.1-0.2v-0.1l0,0l0.1-0.3l0,0l-0.2,0h-0.3
		l-0.4,0.1l-0.9,0.3l-0.2,0.1l-0.2,0l-0.9,0.6h0l-0.2,0.2l-0.2,0.1l-0.2,0.1l-0.7,0.3l-0.7,0.4l-0.3,0.1l-0.5,0.2l-0.2,0.1l-0.4,0.2
		L90,36.2l-0.6,0.3l-0.2,0.1l-0.2,0.2l-0.3,0.1L88.5,37l-0.7,0.4l-0.1,0.1l-0.3,0.2h-0.1v0h-0.3l-0.4,0.2h-0.2
		c-0.1,0.1-0.2,0.1-0.3,0.1L86,38.1l-0.6,0.2l-0.1,0l-0.5,0.2l-0.1,0l-0.1,0h-0.1l-0.2,0h0c-0.5,0.1-0.9,0-1-0.4
		c-0.1-0.4,0-0.9,0.2-1.4l0.1-0.4l0.1,0l0-0.1l0.1-0.2L84,36l0.1,0v0l0.1-0.2l0.2-0.3l0.3-0.2l0.1-0.1l0.2-0.4l0.1-0.2l0.2-0.2
		l0.4-0.3l1.4-1.2v0h0l0.4-0.3l0.1-0.1l0.5-0.4l0.2-0.2l0.8-0.6l0,0l0.4-0.4l0.2-0.2l0.1-0.2l0.1,0l0.2,0l0.1-0.1l0.2-0.1l0.1,0
		l0.2,0l0.1-0.1v-0.1l0.2-0.1l1-0.5l0.2-0.2l0.1-0.1l0.2-0.1l0.1,0l0.1,0l0.3-0.1h0.1l0.2-0.1l0.2,0l0.2-0.1l0.2-0.1l0.1,0l0.3,0.1
		l0.2,0h0.2l0.1,0h0.1v0H95l0.1,0.1l0,0.1l0.1,0l0.1,0.2v0.3l-0.1,0.1c0,0.1-0.1,0.2-0.3,0.4c-0.1,0.1-0.2,0-0.2,0l-0.3,0.1l-0.2,0
		h-0.6l-0.5-0.1v0h-0.1v0h-0.1l-0.2,0h-0.2L92,30.4l-0.5,0.2l-0.7,0.3l-0.5,0.2c-0.2,0.1-0.3,0.2-0.5,0.3c0,0,0,0,0,0l-0.3,0.2l0,0
		l-0.1,0l-1.4,1l-0.1,0.1l-0.3,0.3l-0.2,0.2l-0.2,0.1l-0.3,0.2l-0.1,0.1l-0.3,0.3l-0.1,0.1l-0.1,0.1L86,34.7L86,34.7l-0.1,0.1
		l-0.1,0.1L85.7,35l-0.1,0.1h-0.1l-0.1,0.2l-0.1,0.2l-0.1,0.1l-0.2,0.2L85,35.9l-0.3,0.4v0.1l0,0.2l0,0.1v0.1l-0.1,0.1l-0.1,0.1
		l-0.1,0.1l-0.2,0.2l-0.1,0.2v0.1l0,0.1v0.2l0.1,0.1l0.1,0.2l0.1,0.1l0.6-0.2l0.3-0.1l0.4-0.2h0l0.2,0c0.4-0.2,0.8-0.3,1.2-0.5
		l0.2-0.1l0.2-0.1l0.2-0.1h0.2c0.3-0.2,0.7-0.3,1-0.5l0.2-0.1l0.2-0.1v0l0.1,0l0.1-0.1l0.1,0l0.5-0.2l0.2-0.1l0.2-0.1l0.8-0.4
		l0.2-0.2l0.9-0.4l0.2-0.1l0.6-0.3l0.3-0.2l0.6-0.3l0.2-0.1l0.2-0.2l0.2-0.1l0.4-0.2l0.4-0.2l1-0.2h0.4l0.3,0.1l0.2,0.1l0.1,0.1
		c0.1,0,0.2,0.1,0.2,0.2v0l0.1,0v0.1l0,0.1h0.1l0,0.1l0,0l-0.1,0.1l-0.1,0.1l-0.1,0.1l-0.2,0.2c0,0.1-0.1,0.1-0.2,0.2L96.8,34
		l-0.2,0.2l-0.1,0l-0.4,0.4l-0.1,0.1v0l-0.1,0L95.8,35l-0.1,0.1l-0.1,0.1l-0.2,0.3c-0.1,0.1-0.1,0.2-0.1,0.2L95.2,36l0,0
		c-0.1,0.1-0.1,0.2-0.1,0.3c0,0.1,0,0,0.1,0.1c0,0,0.1,0,0.1,0l0.2,0h0.2l0.1,0H96l0.2,0l0.1,0c0.2,0,0.4-0.1,0.7-0.2l0.2-0.1
		l0.2-0.1h0.2l1.1-0.3l0.1-0.1l0.3-0.1v0l0.4-0.1l0.2-0.1l0.1,0l0.1-0.1l1-0.3v-0.1L101,35l0.3-0.1l0.1-0.1l1.5-0.4h0.2l0.8-0.2
		c0,0,0.1,0,0.1,0h0.1l0,0.2l-0.1,0.1h-0.2l-0.5,0.1l-0.4,0.2h-0.1l-0.5,0.1l-0.2,0.1l-0.7,0.3l-0.5,0.2l-0.6,0.2L99.4,36L99.2,36
		l-0.3,0.1l-0.2,0.1l-0.2,0.1h0l-0.2,0.1L98,36.6l-0.1,0l-0.1,0.1l-0.8,0.3V37l0,0l-0.2,0.1l0,0.1l-0.5,0.2l-0.5,0.2l-0.2,0.1l0,0
		l0-0.1l-0.1,0l-0.1,0.1l-0.1,0l0,0l-0.2,0.1h-0.3l-0.1,0h-0.2l-0.2-0.1l-0.1-0.1l-0.1-0.1l0-0.2l0-0.1c0-0.1,0-0.2,0-0.4l0.1-0.2
		l0-0.1l0.2-0.3l0.1-0.2l0.2-0.3L94.9,35.6z"/>
	<path d="M83.4,66.1L83.4,66.1l0-0.3l0.1-0.1v-0.4l0.2-0.3v-0.4l0.1-0.4l0.1-0.2l0.4-0.4l0,0c0,0,0-0.1,0-0.1l0-0.2l0.1-0.2
		c0.3-0.6,0.6-1.3,0.9-1.9l0.1-0.3l0.1-0.2l0.1-0.4l0.1-0.2l0.2-0.3l0.1-0.2l0.1-0.2l0.3-0.3l0.5-0.4l1-1.5l1.2-1.5
		c0.1-0.2,0.2-0.4,0.4-0.6l0-0.1l0.2-0.3l0.4-0.3l0.2-0.4l0.4-0.4l0.3-0.2l0.2-0.2l0.2-0.2l0.2-0.1c0.4-0.4,0.9-1,1.4-1.6l0.3-0.2
		l0.1-0.3l0.4-0.2h0l0.3-0.2l0.8-0.8l0.2-0.3L95,49l0.3-0.3l0.4-0.3l0.2-0.2l0.2-0.2l0.5-0.4l0.8-0.8l0.1-0.2v-0.1h0.1l0.2,0
		c0.7-0.6,1.4-1.2,2-1.7l0-0.1l0.2-0.2l0.1-0.1l0.2-0.1c0.1-0.1,0.2-0.2,0.3-0.2l1.5-1.1l0.1-0.2l0.1-0.1h0.2l0.3-0.2l0.4-0.4
		l0.8-0.5h0c0.7-0.5,1.5-1,2.2-1.5l0.1-0.2l0.3-0.1l1.8-1.1l0.2-0.2h0l0.1-0.1l0-0.2l0.1-0.1l0.2,0l0.1-0.1l0.3-0.3l0.2-0.1l0.3-0.1
		l0.4-0.1l0.3-0.2l0,0l0.6-0.9l0,0c0.1-0.2,0.2-0.4,0.4-0.7l0.6-1l0.1-0.1l0.2-0.5l0.4-0.8h0l0.2-0.6l0.2-0.7v-0.1l-0.1-0.2l0,0
		l-0.1,0h-0.1l-0.2,0l-0.3,0.2l-0.2,0l-0.1,0.1h-0.1l-0.2,0.1l-0.1,0.1l-0.1,0.1l-0.2,0.1l-0.1,0l-0.1,0.1l-0.9,0.6l-0.1,0.1h-0.1
		l-1,0.7l-0.1,0l-0.2,0.1l-0.2,0.1l-0.7,0.4l-0.4,0.3l-1,0.4l-0.1,0.1l-0.1,0.1l-0.2,0.1l-0.2,0.1l0,0l-0.1,0l-1,0.6l-0.2,0.2
		l-0.2,0.1l-0.1,0.1l-0.1,0.2l-0.1,0h-0.2l-0.2,0.1l-0.6,0.1l-0.1,0c-0.6,0.2-1.2,0.4-1.7,0.4c-0.1,0-0.2,0-0.2-0.1l-0.2-0.2
		l-0.1-0.2v-0.2l0.1-0.2l0.1-0.4l0.1-0.1l0-0.1l0.2-0.2c0,0,0-0.1,0.1-0.1c0.1-0.1,0.1-0.1,0.2-0.2h0l0.4-0.5l0.2-0.2l0.6-0.6
		l0.1-0.1l0.1-0.1l0.3-0.3l0,0l0.2-0.2l0-0.1l0.3-0.2l0.3-0.4l0.2-0.2h0.1l0.2-0.2l0.2-0.1l0.3-0.2h0l0.1,0l0.1,0l0.1-0.1h0.1
		c0.4-0.3,0.4-0.3,0.8-0.6l0.2-0.2l0.7-0.4l0.1,0l0.1-0.1l0.3-0.2l0.1-0.1l0.7-0.4l0.2-0.2l0.2-0.2l0.2-0.1l0.2-0.1l0.6-0.1
		c0.9-0.4,1.8-0.8,2-0.7c0.1,0,0.4,0.1,0.5,0.2s0.2,0.3,0.3,0.4c0.1,0.1,0.1,0.9,0,1l-0.1,0.1l0,0.2l-0.1,0.3l-0.1,0.2L113,31
		l0.8-0.2l0.4-0.1h0.2l0.2,0.1l0.1,0.1v0.2l-0.1,0.4l-0.2,0.3l-0.1,0.2l-0.2,0.2l-0.3,0.6l-0.4,0.6l-0.6,1.4l0,0.2l-0.1,0.4
		l-0.3,0.4l-0.2,0.5l-0.1,0.2l-0.2,0.3l0,0l1.8-0.9l0.3-0.2l0.2-0.1l0.6-0.2l0.9-0.4c0.3-0.2,0.7-0.3,1-0.4l0.2-0.1h0.2l0.1-0.1
		l0.8-0.2h0.1c0,0,0.1,0,0.1,0l0.1,0v0l0.4-0.1l0.1-0.1l0,0c0,0,0.1,0,0.1,0l0,0l0.1,0l0.2-0.1l0.2-0.1l0.2,0l0.3-0.1l0.5,0l0.5-0.2
		c0.1,0,0.1,0,0.1,0.1l0.1-0.1h0.1l0.1,0.1l0,0.2l-0.1,0.1l-0.1,0h-0.2L121,34l0,0l-0.1,0.1l-0.4,0.1h-0.1l-0.4,0l-1.1,0.3l-0.2,0.2
		l-0.3,0l-0.3,0.1l-0.6,0.2l-0.2,0.1l-0.7,0.4l-0.2,0.2l-0.6,0.2l-0.4,0.2l-0.6,0.2c-0.6,0.3-1,0.5-1.5,0.8l-0.2,0.2l-0.4,0.2
		l-0.2,0.2l-0.2,0.1h0l-0.7,0.4L111,38l0,0.1l-0.2,0.2l-0.1,0.4l0,0.1l-0.1,0l-0.2,0.2l-0.1,0.1l-0.2,0.2l-0.1,0.2l-0.1,0.1h0
		l-0.4,0.6l-1.8,2.5v0l-0.4,0.6l-0.1,0l-0.2,0.2v0.1l-0.7,0.9h0c-0.2,0.3-0.4,0.6-0.6,0.9l-0.3,0.4l-0.6,0.9l-1.4,1.8l0,0.1h0
		l-0.7,0.9l-0.1,0.1l-0.4,0.6l-1.6,2.1l-0.7,1l-2,2.5c-0.6,0.8-1.3,1.6-2,2.5l-0.1,0.2L94.4,60c-0.5,0.9-1.2,1.6-1.8,2.4
		c-0.4,0.6-1.1,1.1-1.5,1.8l-0.6,0.5l-0.2,0.2L90,65.3c-0.6,0.7-1.3,1.2-1.8,2l-0.2,0.1l-0.3,0.4l-0.4,0.6c0,0,0,0-0.1,0
		c-0.6,0.5-1.2,1-1.9,1.1l-0.6,0.2L84,69.5L84,69.3c-0.3-0.2-0.5-0.5-0.6-1c0,0,0-0.1,0-0.2c-0.1-0.3-0.1-0.6,0-0.9v-0.7l0.1-0.1
		C83.4,66.3,83.4,66.2,83.4,66.1z M107,42.7L107,42.7l0.5-0.7h0v0l0.2-0.3l0.6-0.8l0.3-0.5l1-1.2l0.4-0.7l-0.1,0
		c-0.5,0.2-1,0.5-1.4,0.8l-0.1,0.1l-0.2,0.1l-0.1,0.2l-0.6,0.3l-1.3,0.8l0,0.1h0l-0.1,0.1v0.1l-0.2,0.1l-0.1,0.1h-0.1l-1,0.6
		l-0.2,0.2l-0.2,0l-1.5,1.1l-0.2,0.2h-0.1c-1.4,1.1-2.7,2.2-4,3.3l-0.1,0.1L98,47.1l-0.4,0.2c-1,1-2.1,1.9-3,2.9l-0.1,0.1l-0.2,0.3
		l-0.2,0.2l-0.6,0.6l0,0.1l-0.2,0.2l-0.1,0.1l-0.4,0.5l-0.2,0.2l-0.2,0.1L92,53.2l-1,1.1l-1.1,1.2l-0.6,0.8
		c-0.4,0.5-0.8,0.9-1.1,1.3L88.1,58l-0.4,0.3L87.2,59c0,0,0,0.1,0,0.1c-0.3,0.5-0.6,1-0.8,1.6c-0.7,1.4-1.4,2.9-2,4.4v0l-0.1,0.4
		l-0.1,0.3L84,66v0.2l-0.1,0.2c0,0.1,0,0.1,0,0.2v0.1c-0.1,0.5-0.1,1,0,1.5c0,0.1,0,0.1,0.1,0.2l0.3,0.1c0.5-0.1,0.9-0.3,1.3-0.6
		l0.5-0.4l0.4-0.4l0.8-0.5c0.8-0.6,1.7-1.2,2.5-2.2c0.8-1,2-1.8,4.4-5.2l0,0.1c0.6-0.7,1.1-1.4,1.7-2.1l1.3-1.6
		c0.4-0.6,0.9-1.2,1.4-1.7c0.4-0.5,0.9-1.1,1.3-1.6l0.1-0.2l0.6-0.7l1-1.2l0.4-0.5l0.2-0.2l0.4-0.6l0.4-0.6L103,48l0.1-0.1l0.2-0.2
		l0,0l0.1-0.2h0.1l0,0v-0.1l0.4-0.6l0.1-0.1c0.3-0.5,0.7-1,1-1.5l0.2-0.2l0.2-0.3l0.1-0.2l0.3-0.3L106,44L107,42.7z M106.4,34.8
		L106.4,34.8l0.6-0.4l0.1-0.2l0.1,0h0l0-0.1l0.2-0.1l0.1-0.1h0.2l0.9-0.6l0-0.1h0l0,0h0.1l0.1,0l0.1-0.1l0.1-0.1l0.3-0.2l0.4-0.3
		l0.2-0.1h0.1l0.2-0.1l0.3-0.2l0,0l0-0.1l0.1,0l0,0h0.1l-0.1,0.1l0.1-0.1h0.1l0.1-0.1h0l0.1,0l0.4-0.2v0l0,0l-0.1-0.2v-0.3l0.2-0.3
		l0.1-0.1l0.4-0.3l0.3-0.3l0.1-0.1l0-0.2l0.2-0.2l0-0.2l-0.1-0.2l-0.1-0.1c-0.4,0-1.1,0.2-1.7,0.5l-0.2,0.1l-0.2,0.2l-0.4,0.2
		l-0.2,0.2l-0.2,0.1l-0.4,0.1l-0.4,0.2c-0.2,0.1-0.3,0.2-0.4,0.2c-0.5,0.3-1,0.6-1.5,1l-0.1,0.1l-0.2,0.2l-0.3,0.2l-0.2,0.2
		l-0.6,0.4l-0.6,0.5l-0.6,0.6l-0.6,0.6l0,0.1l-0.1,0.1l-0.2,0.2l-0.1,0.1l-0.6,0.7l-0.2,0.5l-0.1,0.1l-0.1,0.2l-0.1,0.1l0,0.1l0,0.1
		l0.1,0c0.1,0,0.2,0,0.4-0.1c0.2,0,0.4-0.1,0.6-0.2l0.1-0.1l0.2,0l0.1-0.1l0.4-0.2l0.3-0.1c0.2-0.2,0.5-0.3,0.7-0.4l0.1-0.1l0.1-0.1
		l0.2,0l0.3-0.2l0.1-0.1L106.4,34.8z"/>
	<path d="M120.9,35.5l-0.1,0.1l0.2-0.2l0.4-0.3l0.1-0.1l0.1,0h0.1v0l0.2-0.1l-0.1-0.1h0.2l0.6-0.5h0.1l0.5-0.5l0.6-0.3l0.5-0.4
		l0.1-0.1h0l0.6-0.5l0,0l0.9-0.6v0l0.6-0.4l0.2-0.2l0.1,0l0.3-0.2l0.1-0.1h0l0.6-0.4l0.2-0.2l0.2-0.1l0.5-0.2l0.3-0.3l0.3-0.2
		l0.6-0.2l0.3-0.1c0.2-0.1,0.6-0.3,1-0.5l0.2-0.2l0.6-0.2l0.6-0.2l0.1-0.1l0.3-0.2l0.3-0.1l0.2-0.1l0.4,0c0.5-0.2,1-0.2,1.4-0.2
		l0.2-0.1l0.1,0.1c0.2,0.1,0.3,0.2,0.4,0.2c0,0,0.1,0.1,0.1,0.1l0.2,0.2l-0.1,0.8l-0.4,0.7l-0.4,0.1H135l-0.2-0.2v-0.3l-0.2,0.1
		v-0.2l0.1,0l0-0.2l0-0.2l-0.1-0.4l-0.1-0.2l-0.5,0.1l-0.4,0.2l-0.2,0l-0.2,0l-0.3,0.2l-0.2,0l-1.2,0.2c-0.6,0.2-1.1,0.5-1.3,0.6
		l-0.2,0.1l-0.2,0.2l-1.2,0.6l-0.5,0.3L128,31l-0.6,0.3l-0.2,0.1l-0.3,0.2l-0.5,0.3l-0.2,0.2l-0.9,0.6l-1.3,1.1l-0.2,0.3l-0.2,0.2
		l-0.4,0.4l-0.4,0.3l-0.1,0.1l-0.2,0.2l-0.2,0.2l0,0.1l-0.2,0.2l-0.3,0.3l-0.2,0.2l-0.1,0.1l-0.3,0.3l-0.1,0.2l-0.1,0.1l-0.1,0.2
		l-0.3,0.3l-0.5,0.5l-0.2,0.2l-0.1,0.2l-0.2,0.3l-0.1,0.2l0,0.1l-0.1,0.2l-0.2,0.2l-0.5,0.4l-0.3,0.2l-0.3-0.1l-0.2-0.2v0
		c-0.1-0.1-0.1-0.2-0.1-0.3V39l0.1-0.1l0.1-0.4l-0.1,0.1l0-0.1l0.1-0.2l0.1-0.4l0.2-0.3l0-0.1v-0.1l0.1-0.1l0.1-0.2v-0.1L119,37h0.1
		l0.1-0.1l0.4-0.5l0.2-0.3l0.1,0l0.2-0.3l0.2-0.5l0.2-0.2l0.1-0.2l0.3-0.4l0.1-0.1l0.4-0.6v-0.1l0.5-0.6l0.3-0.5l0.1-0.2l0.2-0.3
		l0-0.1l0.1-0.1l0.2-0.3v-0.1l0.2-0.3l0.2,0l0.1,0.1l0.2-0.2l0.1-0.2l0-0.2v-0.1l-0.1-0.1l0.1-0.1l0,0.1l0.1-0.1l0,0l-0.1,0.2
		c-0.2,0.2-0.3,0-0.3-0.2l0.1-0.1v-0.1l0-0.1l0.1-0.2l0-0.1l-0.1-0.1l0,0l-0.2-0.1v-0.1l0.1-0.1l0.1,0h-0.1l0.1,0h-0.1l0-0.1
		l0.1-0.2l0.2,0.1l0.1-0.2V29l0-0.1l-0.1,0l0.2,0v-0.2l0.1,0h0.1l0.1-0.1h0.2l0.2,0l0.2,0l0.1-0.1v-0.1l0.1-0.1l0.1,0h0.1l0.1,0.1
		l0,0l-0.2,0.1c0.2,0.1,0.4,0.2,0.4,0.4l0,0l0,0.1c0,0.4-0.3,0.8-0.6,1.2l0,0.1l-0.3,0.4l-0.2,0l-0.3,0.3l-0.1,0.2l-0.1,0.2h0
		c-0.2,0.2-0.3,0.5-0.5,0.6c0,0,0,0,0,0l-0.2,0.3l-0.1,0.2l-0.1,0.2l-0.3,0.5l-0.2,0.2l-0.1,0.1l-0.2,0.3l-0.4,0.6l-0.2,0.5
		l-0.2,0.3L120.9,35.5L120.9,35.5z"/>
	<path d="M144.7,35.6L144.7,35.6l0.1-0.2l0.6-0.7l0.1-0.2l0.1-0.1l0-0.1l0.1-0.1l0.4-0.4l0.1-0.2v-0.1l0,0l0.1-0.3l0,0l-0.2,0h-0.3
		l-0.4,0.1l-0.9,0.3l-0.2,0.1l-0.2,0l-0.9,0.6h0l-0.2,0.2l-0.2,0.1l-0.2,0.1l-0.7,0.3l-0.7,0.4l-0.3,0.1l-0.5,0.2l-0.2,0.1l-0.4,0.2
		l-0.2,0.1l-0.6,0.3l-0.2,0.1l-0.2,0.2l-0.3,0.1l-0.3,0.1l-0.7,0.4l-0.1,0.1l-0.3,0.2h-0.1v0h-0.3l-0.4,0.2h-0.2
		c-0.1,0.1-0.2,0.1-0.3,0.1l-0.1,0.1l-0.6,0.2l-0.1,0l-0.5,0.2l-0.1,0l-0.1,0h-0.1l-0.2,0h0c-0.5,0.1-0.9,0-1-0.4
		c-0.1-0.4,0-0.9,0.2-1.4l0.1-0.4l0.1,0l0-0.1l0.1-0.2l0.1-0.1l0.1,0v0l0.1-0.2l0.2-0.3l0.3-0.2l0.1-0.1l0.2-0.4l0.1-0.2l0.2-0.2
		l0.4-0.3l1.4-1.2v0h0l0.4-0.3l0.1-0.1l0.5-0.4l0.2-0.2l0.8-0.6l0,0l0.4-0.4l0.2-0.2l0.1-0.2l0.1,0l0.2,0l0.1-0.1l0.2-0.1l0.1,0
		l0.2,0l0.1-0.1v-0.1l0.2-0.1l1-0.5l0.2-0.2l0.1-0.1l0.2-0.1l0.1,0l0.1,0l0.3-0.1h0.1l0.2-0.1l0.2,0l0.2-0.1l0.2-0.1l0.1,0l0.3,0.1
		l0.2,0h0.2l0.1,0h0.1v0h0.1l0.1,0.1l0,0.1l0.1,0l0.1,0.2v0.3l-0.1,0.1c0,0.1-0.1,0.2-0.3,0.4c-0.1,0.1-0.2,0-0.2,0l-0.3,0.1l-0.2,0
		h-0.6l-0.5-0.1v0h-0.1v0h-0.1l-0.2,0h-0.2l-0.4,0.2l-0.5,0.2l-0.7,0.3l-0.5,0.2c-0.2,0.1-0.3,0.2-0.5,0.3c0,0,0,0,0,0l-0.3,0.2l0,0
		l-0.1,0l-1.4,1l-0.1,0.1l-0.3,0.3l-0.2,0.2l-0.2,0.1l-0.3,0.2l-0.1,0.1l-0.3,0.3l-0.1,0.1l-0.1,0.1l-0.4,0.5l-0.1,0.1l-0.1,0.1
		l-0.1,0.1l-0.1,0.1l-0.1,0.1h-0.1l-0.1,0.2l-0.1,0.2l-0.1,0.1l-0.2,0.2l-0.2,0.2l-0.3,0.4v0.1l0,0.2l0,0.1v0.1l-0.1,0.1l-0.1,0.1
		l-0.1,0.1l-0.2,0.2l-0.1,0.2v0.1l0,0.1v0.2l0.1,0.1l0.1,0.2l0.1,0.1l0.6-0.2l0.3-0.1l0.4-0.2h0l0.2,0c0.4-0.2,0.8-0.3,1.2-0.5
		l0.2-0.1l0.2-0.1l0.2-0.1h0.2c0.3-0.2,0.7-0.3,1-0.5l0.2-0.1l0.2-0.1v0l0.1,0l0.1-0.1l0.1,0l0.5-0.2l0.2-0.1l0.2-0.1l0.8-0.4
		l0.2-0.2l0.9-0.4l0.2-0.1l0.6-0.3l0.3-0.2l0.6-0.3l0.2-0.1l0.2-0.2l0.2-0.1l0.4-0.2l0.4-0.2l1-0.2h0.4l0.3,0.1l0.2,0.1l0.1,0.1
		c0.1,0,0.2,0.1,0.2,0.2v0l0.1,0v0.1l0,0.1h0.1l0,0.1l0,0l-0.1,0.1l-0.1,0.1l-0.1,0.1l-0.2,0.2c0,0.1-0.1,0.1-0.2,0.2l-0.2,0.3
		l-0.2,0.2l-0.1,0l-0.4,0.4l-0.1,0.1v0l-0.1,0l-0.2,0.2l-0.1,0.1l-0.1,0.1l-0.2,0.3c-0.1,0.1-0.1,0.2-0.1,0.2L145,36l0,0
		c-0.1,0.1-0.1,0.2-0.1,0.3c0,0.1,0,0,0.1,0.1c0,0,0.1,0,0.1,0l0.2,0h0.2l0.1,0h0.2l0.2,0l0.1,0c0.2,0,0.4-0.1,0.7-0.2l0.2-0.1
		l0.2-0.1h0.2l1.1-0.3l0.1-0.1l0.3-0.1v0l0.4-0.1l0.2-0.1l0.1,0l0.1-0.1l1-0.3v-0.1l0.1,0.1l0.3-0.1l0.1-0.1l1.5-0.4h0.2l0.8-0.2
		c0,0,0.1,0,0.1,0h0.1l0,0.2l-0.1,0.1h-0.2l-0.5,0.1l-0.4,0.2h-0.1l-0.5,0.1l-0.2,0.1l-0.7,0.3l-0.5,0.2l-0.6,0.2l-0.7,0.2L149,36
		l-0.3,0.1l-0.2,0.1l-0.2,0.1h0l-0.2,0.1l-0.2,0.2l-0.1,0l-0.1,0.1l-0.8,0.3V37l0,0l-0.2,0.1l0,0.1l-0.5,0.2l-0.5,0.2l-0.2,0.1l0,0
		l0-0.1l-0.1,0l-0.1,0.1l-0.1,0l0,0l-0.2,0.1h-0.3l-0.1,0h-0.2l-0.2-0.1l-0.1-0.1l-0.1-0.1l0-0.2l0-0.1c0-0.1,0-0.2,0-0.4l0.1-0.2
		l0-0.1l0.2-0.3l0.1-0.2l0.2-0.3L144.7,35.6z"/>
	<path d="M167.4,37.7l-0.1-0.2c0,0-0.1-0.1-0.1-0.1c-0.1-0.1-0.1-0.3-0.1-0.5v-0.1l0.1-0.3l0.2-0.5l0.2-0.3l0.2-0.2l0.3-0.3l0.3-0.5
		l0.2-0.3l0.1-0.1l0-0.1l0.3-0.4l0.1-0.2l0.1-0.2v-0.1l-0.1,0.1H169l-0.2,0.1l-0.1,0l-0.7,0.4l-0.2,0.2l-0.2,0.2l-0.2,0.1l-0.2,0.1
		l-0.6,0.3l-0.1,0.2l-0.4,0.2l-0.2,0.1l-0.6,0.4l-0.6,0.5l-0.1,0.1l-0.1,0.2l-0.2,0.1l-0.1,0c-0.1,0.1-0.2,0.2-0.3,0.2l-0.2,0.1
		l-0.2,0.1l-0.3,0.2l-0.2,0.1c-0.5,0.3-0.9,0.5-1.1,0.5h0v0l-0.2,0l-0.1-0.1l-0.1-0.1l-0.2-0.3c-0.1-0.2-0.1-0.4,0-0.8l0.1-0.6
		l0-0.2l0.2-0.3l0.1-0.1l0.3-0.6l0.1-0.1l0.5-0.6l0.2-0.3l0.1-0.1l0-0.1l0.3-0.3l0.1-0.2l0.1-0.2l0.6-1l0.6-0.9l0.4-0.5l0.6-0.7
		h-0.5l-0.6-0.1l-0.1,0l-0.1,0c0,0,0,0,0,0l-0.5,0.3l-0.4,0.3l-1,0.5l-0.3,0.2l-1.1,0.7l-0.6,0.3l-0.1,0l-0.2,0.2l0,0l-0.1,0.1
		l-0.9,0.6l-0.4,0.3l-0.3,0.3l-0.6,0.6l-0.5,0.3c-0.1,0.1-0.2,0.2-0.3,0.2l-0.2,0.4l-0.1,0.1l-0.2,0.3l-0.2,0.1l-0.1,0.2H156
		l-0.1,0.1h-0.1l-0.1,0.2l-0.1,0l-0.8,0.7l0,0.1l-0.2,0.1l-0.1,0.1l-0.1,0l-0.4,0.3l-0.2,0.2h0l-0.3,0.3V38h-0.1l-0.1,0l-0.3,0.3
		l-0.4,0.3l-0.2,0.2l0,0.1l-0.3,0.3l-0.2,0.2l-0.2,0.3l-0.1,0.2l-0.2,0.1l-0.1,0l0,0l0,0.1l0,0.1l-0.2,0.1l0,0.1v0.1l-0.1,0.1v0.1
		l-0.1,0.1v0l-0.1,0l-0.1,0l-0.1,0.1h0l0,0l-0.2,0.1l-0.4,0.1h-0.1v0l-0.2,0.1h-0.2l-0.2,0l-0.1-0.1l-0.2,0.1l-0.1,0l-0.1-0.2
		l-0.1-0.1l0-0.2l0.1-0.3l0.1-0.1l0,0l0-0.1l0.2-0.1l0.1-0.2l0.3-0.6l0.6-0.7l0,0l0-0.1l0.1,0l0.3-0.5l0.2-0.2l0.2-0.3l0.1-0.1
		l0.1-0.1l0.2-0.3v-0.1l0.2-0.1l0.1-0.2l0.2-0.3l0.6-0.8l0.2-0.2l0.1-0.2l0.6-0.7l0.2-0.2l0.6-0.7l0.4-0.5l0.1-0.2l0.1-0.3l0.1-0.2
		l0.2-0.1l0.2-0.1l0.1-0.2l0.1-0.1v-0.1l0-0.1l0.1-0.1v-0.1l0.1-0.2h0l0,0l0,0l0.1-0.1l0-0.1h0.1v0l0.2-0.2l0.1,0l0.2-0.5l0.2-0.2
		l0.1-0.2l-0.1,0l0.2-0.2l0.1-0.1l0.1-0.1v0l0,0v0h0l0-0.3l0.1-0.3l0.1-0.1l0.2-0.3l0.3-0.2l0.1,0.1v-0.1l0.1-0.1h0.1l0.1-0.1l0.2,0
		l0.3,0h0.2l0.2,0.1l0.1,0.1V28l-0.2,0.2v0.2l-0.1,0.2l-0.2,0.6l-0.5,0.3l-0.3,0.2l0,0l-0.3,0.6v0.1l-0.1,0.2l0,0.2l-0.1,0.2
		l-0.1,0.1l-0.1,0.1l0,0l-0.1,0l0,0.1h-0.1l0,0.1l-0.1,0.1l-0.2,0.2l-0.2,0.4l-0.2,0.2l-0.1,0.3l-0.1,0.1l-0.3,0.2l-0.4,0.5
		l-0.2,0.1l-0.3,0.4v0.1l-0.2,0.2l-0.3,0.4l-0.1,0.3l-0.1,0.2l-0.2,0.3l0,0.1l-0.2,0.2l-0.3,0.3l-0.4,0.5l-0.3,0.5l-0.3,0.4
		l-0.6,0.8l-0.2,0.6l-0.1,0.1l0,0h0.1l0.1-0.1h0.1l0.1,0l0.1-0.1l0.2-0.1l0-0.2l0.2-0.2l0.2-0.1l0.3-0.1l0.3-0.2l0.3-0.3l0.1-0.1
		l0.1,0l0.2-0.2l0.4-0.4l0.7-0.6l0.2-0.2l0.6-0.5l0.2-0.2l0.1-0.1l0.2-0.1l0.4-0.3l0.2-0.3l0.1,0l0.4-0.3l0.3-0.3l0.2-0.1l0-0.1
		l0.6-0.6l0.2-0.1l0.3-0.3l0.1-0.1l0.2-0.1l0.3-0.2l0.2-0.2l0.3-0.3l0.8-0.6l0.2-0.2l0.2-0.2l0.6-0.2l0.4-0.2l0.1-0.2l0.1,0l0.1-0.1
		l0.1,0l0.2-0.2l0.1-0.1l0.2-0.1l0.3-0.2l0.4-0.2l0.5-0.3l0.1-0.1l0.5-0.2l0.9-0.2l0.7-0.3l0.3-0.1l0.2-0.1l0.1-0.1l0.1,0h0.1
		l-0.1,0.1l0.3,0l0.1,0l0.2,0.3l-0.1,0.3l-0.1,0.1c-0.2,0.4-0.6,0.8-0.8,1.1c-0.1,0.1-0.1,0.1-0.2,0.2l-0.2,0.2l-0.2,0.3l-0.5,0.5
		l-0.3,0.4l-0.1,0.1l-0.2,0.3l-0.8,1.4l-0.4,0.6l-0.3,0.7h0v0l-0.3,0.6l-0.1,0.4l-0.1,0.1l-0.1,0.1l-0.1,0.2l0,0.1l0,0.2l0.1,0.2
		l0,0.2l0.1,0.1l0,0.1l0,0l0.5-0.2l0.1,0c0.2-0.1,0.4-0.3,0.6-0.5l0.2-0.2l0.2-0.1c0.2-0.2,0.5-0.4,0.7-0.6l0.4-0.3l0.2-0.2l0.7-0.5
		l1.3-1l0.1-0.2l0.1-0.1l0.2-0.1h0.1c0.1-0.1,0.1-0.1,0.2-0.1l0.1-0.1l0-0.1v0l0.1-0.1l0-0.1v0l0.2-0.1l0,0h0l0.1,0l0.1,0l0.1-0.1
		h0.1l0.2-0.1h0.2l0.2-0.1l0.1,0l0,0l0.2,0l0,0l0.2,0l0.2,0.1l0.1,0.1v0.2l0,0h0l-0.1,0.1l-0.2,0.5v0.1l-0.2,0.4l-0.3,0.4l-0.2,0.5
		l-0.1,0.2l-0.2,0.2l-0.4,0.5l-0.1,0.2l-0.2,0.3l-0.1,0.2l-0.1,0.3l0.1,0.3l0.2,0.2c0.2,0.1,0.6,0.2,1.1,0.1l0.2,0v0
		c0,0,0.1,0,0.1,0l0,0l0.1-0.1l0.4,0l0.3-0.1l0.2-0.1l0.2,0.1l0.1-0.1l0,0l0.2,0l0.6-0.3l0.4-0.2l0.2,0l0.2-0.2h0.1l0.4-0.2l0.2,0
		l0.2-0.1l0.4-0.2l0.4-0.2l0.9-0.4l0.1-0.1l1.1-0.6l0.1-0.1l0.4-0.2l0.2-0.1l0.4-0.2l0.2-0.2l0.1,0l0.1,0.2l0,0.1l-0.2,0.1l-0.1,0
		l-0.2,0.1l-0.1,0.1l-0.1,0.1l-0.2,0l-0.9,0.6l-0.2,0.2h-0.1l-0.4,0.2l-0.3,0.2l-0.2,0.1l-0.1,0.1l-0.1,0l-0.5,0.3l-0.2,0.1
		l-0.2,0.1l-0.2,0.1l-0.1,0.1l-0.1,0.1l-0.3,0.2l-0.1,0l-0.2,0.1l-0.1,0.1l-0.3,0.1l-0.4,0.2l-0.6,0.2l-0.2,0.2l-0.1,0l-0.3,0.1
		c-0.1,0-0.2,0.1-0.3,0.1l-0.1,0l-0.2,0l-0.4,0.1v0h-0.1l-0.2,0.1l-0.2,0h-0.2c-0.2,0.1-0.4,0.1-0.6,0.1h-0.3c-0.1,0-0.2,0-0.4-0.1
		h-0.1L167.4,37.7z"/>
</g>
</svg>
