<?xml version="1.0" encoding="utf-8"?>
<!-- Generator: Adobe Illustrator 22.1.0, SVG Export Plug-In . SVG Version: 6.00 Build 0)  -->
<svg version="1.1" id="レイヤー_1" xmlns="http://www.w3.org/2000/svg" xmlns:xlink="http://www.w3.org/1999/xlink" x="0px"
	 y="0px" viewBox="0 0 180 50" style="enable-background:new 0 0 180 50;" xml:space="preserve">
<style type="text/css">
	.st0{fill:#FFFFFF;}
</style>
<g>
	<path class="st0" d="M18.6,15.9l0.8-0.5l0.1-0.1c0.1,0,0.2-0.1,0.2-0.2l0.2-0.1L20,15l0.5-0.4l0.1-0.1l0.1,0l0.1-0.2l0.2-0.1
		l0.2-0.1l0.2-0.1l0.2-0.2l0-0.1l0.2-0.1l0.5-0.1l0.3-0.3l0.2,0l0.2-0.1v-0.1h0v0.1h0.1l0,0l0.2-0.1l1.9-0.9l0.1-0.1L25,12.3v-0.1
		l0.2-0.1h0.2v0.1l0.5-0.3l0.4-0.2l0.1-0.1l0.3-0.2l0.8-0.2l0.5-0.2l0.3,0l0.2-0.1l0.1,0v-0.1h0v0.1c0.2-0.1,0.6-0.2,0.9-0.3v-0.1
		l0.1-0.2h0.3l0.4-0.1c0.8-0.3,1.6-0.5,2.4-0.8l0.5-0.3l0.6-0.1L35,8.7l0.9-0.2l0.4,0l0.6-0.1h0.7l0.4-0.1l0.5-0.1h0.3
		c0.7-0.1,1.5-0.2,2.2-0.2l0.2,0l0.1-0.1l0,0L41.4,8H42L42,8h0l0.1,0l0.3-0.1L43,7.9h0l0.2,0l0.6-0.1l0.2,0l0.1,0l0.1,0l0,0h0.1
		L44.3,8h0.1c0.7,0,1.4,0.2,1.9,0.4l0.1,0l0.2-0.1l0.1,0l0.1,0.2l0.2,0.1l0.4,0.4l0.4,0.4l0,0.2v0.1c0.1,0.3,0.2,0.6,0.2,0.9
		l0.2,0.4v0.3c-0.1,0.2-0.2,0.2-0.2,0.1l-0.1,0.1l-0.1,0.1c0,0.2-0.1,0.3-0.2,0.4l0,0l0,0.4l-0.2,0.4l-0.5,0.7l-0.7,0.3l-0.2,0
		l0-0.1v-0.3l0.1-0.2c0,0-0.1,0-0.1,0L46,13.3l-0.1,0.1h-0.1c0,0,0,0,0,0l-0.1,0l-0.1-0.2V13l0.1-0.4l0.2-0.4l0-0.2l0.3-0.2l0.1-0.1
		l0.2-0.1v-0.1l0.1-0.2l0-0.2l0.1-0.2l0.2-0.1h0.1v-0.1l-0.1-0.1l-0.1-0.1l-0.1-0.1v-0.1l0-0.1l0-0.2V9.9l0,0l-0.1-0.1l-0.1-0.2
		l-0.2-0.2L46,9.3V9.2l-0.1-0.1c-0.5-0.2-1.1-0.3-1.7-0.3h-0.1L44,8.8l-0.5,0h-0.2L43,8.7l-0.1,0c-0.9,0-1.6,0-2.3,0h0l-1,0.2
		l-0.3,0L38.9,9l-1.1,0.1l-1.1,0.3l-0.5,0l-0.7,0.1h-0.2l-0.6,0.2l-0.2,0.1l-1,0.2L33.1,10l-0.3,0.2l-0.4,0l-0.5,0c0,0-0.1,0-0.1,0
		l-1.3,0.4c-0.5,0.2-1.1,0.4-2,0.8l0,0l-0.4,0.2l-0.2,0h0L27,12.1L27,12.1v0.1h-0.1v-0.1l-2,1l-0.8,0.5l-0.3,0.2L23.4,14l-1.1,0.6
		l-1.1,0.7l-0.4,0.2l-0.7,0.4L19.8,16l-0.5,0.3L19,16.4L18.1,17l-0.3,0.2l-0.3,0.3l-0.4,0.2l0,0l-1.7,1.2L15.3,19l-0.1,0.1l-0.6,0.4
		l-0.2,0.2L14.2,20L14.1,20l-0.4,0.3l-0.1,0.2L13,21l-0.1,0.1c-0.2,0.2-0.6,0.5-0.9,0.8l-0.2,0.3l-0.3,0.2c-0.6,0.6-1.3,1.3-2,2.1
		l-0.3,0.3l-0.8,1.1L8.3,26l-0.2,0.2l-0.5,0.6L7,27.6l-0.3,0.5l-0.4,0.6l-0.2,0.2l-0.4,0.6c-0.3,0.6-0.6,1.1-0.8,1.6l-0.2,0.6
		l-0.1,0.2l-0.1,0.2l0,0l-0.2,0.7l0,0.3l0,0.1v0.2l-0.1,0.4c0,0.2,0,0.4,0,0.6l0,0.2v0.3l0.1,0.3v0.2c0.1,0.2,0.1,0.5,0.2,0.7
		l0.1,0.1l0.1,0.2v0l0.2,0.2l0.2,0.3v0.1l0.2,0.2l0.1,0.1l0.3,0.5c0,0,0.1,0,0.1,0.1l0.3,0l0.1,0.1H6l0,0.2l0.1,0.2l0,0l0.2,0.1
		l0.2,0l0.4-0.1L7,38.4l0.1,0l0.1,0.1l0.2,0.3l0.2,0.2l0.2,0l0.4,0.2l0.1,0.2l0.1,0.1l0.1,0l0.7,0.2l0.2-0.1l0.6,0l0.2,0.2l0.1,0.2
		l2,0.2l0.2,0h0l0.6,0.1l0.8,0.1h0.5l0.3,0.1l0,0h0.1l0.2,0h0.4l2.2-0.2l0.1,0H18c0.2,0,0.3,0,0.5,0l0.3-0.2l0.5-0.1l0.2-0.1
		l0.5,0.1l0.2,0.1h0.2c1-0.1,2-0.3,2.9-0.5l0.2-0.1l0.4-0.1l0.3-0.1l1.2-0.2l1.2-0.4l0.4-0.1l1.1-0.2l0.6-0.2H29l1-0.3l0.4-0.2
		l0.7-0.1l0.2,0l0.3-0.1l1.2-0.3l0.1-0.1l0.8-0.2l0.2-0.1l0.1-0.1l0.2,0l0.5-0.2l0.3-0.1l0.3-0.1l0.2,0l0.3-0.1h0l0.2-0.1l0.8-0.3
		l0.4-0.2l0.2-0.1l0.2-0.1l0.4-0.1l2.4-0.9l0.4-0.2l0.3-0.1l0,0c0.5-0.2,1-0.4,1.5-0.6l0.1-0.1l0.4-0.2l0.1-0.1l0,0h0.2l0.2-0.1
		l0.1,0h0.2l0,0.2v0.2l-0.1,0.1h-0.2l-0.4,0.2l-0.2,0.2l-0.8,0.3l0,0l-0.2,0.1L41,34.4v0l-0.1,0.1l-0.3,0.2l-0.4,0.2L39.9,35h-0.1
		l-0.4,0.2l-0.1,0l-0.3,0.2l-0.1,0.1h0c-0.3,0.1-0.5,0.2-0.7,0.3l-0.2,0.1L37.6,36l-0.2,0.1l-2.1,0.7l-0.1,0.1l-0.8,0.3h-0.2
		l-0.8,0.3l-0.1,0.1c-0.1,0-0.1,0-0.1,0l-0.4,0.2l-0.3,0.1l-0.1,0.1L31.9,38l-0.6,0l-1.7,0.5h0c-0.3,0.1-0.6,0.2-0.9,0.2l-0.2,0.1
		l-0.1,0L28,39h-0.1c0,0,0,0-0.1,0h-0.1l0,0l-0.4,0.1l-0.4,0.1l-0.7,0.2l-0.1-0.1h0l-0.1,0.1l-0.3,0l-0.2,0.1l-0.3,0.1L25,39.9
		L24.9,40L24.8,40l-0.2,0l-0.3,0l-0.3,0h-0.7l-1,0.2v0.1L22,40.4l-0.2-0.1v0c-0.1,0-0.1,0-0.2,0h0l-0.5,0.1L21,40.4l-0.2,0.1
		l-0.3,0.1l-0.8,0l-0.5,0.1l-0.2,0l-0.3,0l0,0.1h-0.6c0,0-0.1,0-0.1,0L17.7,41l-0.3,0L16.7,41l0,0h0c-1,0.1-1.8,0.2-1.8,0.2h0
		l-0.2,0.1L14,41.5l-0.6,0L13,41.6l-0.2-0.1h-0.2l-0.7-0.1l-0.3-0.2h-0.2l-1-0.2l-0.2-0.1l-0.5-0.1l-0.3,0l-0.3-0.2L9,40.4
		c-0.1,0-0.1,0-0.1,0H8.6l-0.2-0.1H8.2l0,0.2H7.9l-0.1,0.1l-0.3-0.1l-0.1-0.1l-0.2-0.1l-0.1,0l-0.1,0l-0.1,0l-0.4-0.2l-0.4-0.3
		l-0.2-0.2v-0.1h0l-0.4-0.2l-0.1,0l-0.2-0.3l-0.1-0.3v-0.2l-0.3-0.4v-0.1h0l-0.2-0.2l-0.1-0.1l-0.1-0.2v0l-0.1-0.1l-0.1-0.1l0-0.1
		l0-0.1C4.2,37,4.1,36.8,4,36.5l-0.1-0.2l0-0.2l-0.1-0.4l0-0.1l0.1-0.4c0-0.8,0-1.6-0.1-2.3v-0.1l0-0.2l0-0.1c0-0.3,0.2-0.6,0.3-1v0
		l0-0.1L4,31.2l0.2-0.3c0.3-0.5,0.6-1,0.8-1.6C5,29.2,5.1,29,5.2,28.9l0-0.1l0.4-0.7l0.1-0.1l0.9-1.3L7.2,26l0.7-0.7l1-1.3L9,23.8
		l0.6-0.6L9.9,23l0.5-0.5l0.2-0.3l0-0.1l0.1-0.1l0.3-0.2l0.2-0.3l0.7-0.6l0.8-0.7l0.3-0.1l0.6-0.5v-0.1l0-0.1l0.2-0.1l0.1-0.1v-0.2
		l0.1-0.1l0.3-0.1l0.7-0.5l0.6-0.4l0.1-0.1l0.3-0.2l0.2-0.2l0.5-0.3l0.6-0.4l0.5-0.3l0.5-0.3l0,0L18.6,15.9z"/>
	<path class="st0" d="M53.3,27.3l-0.1,0.2c0,0.1,0,0.2,0,0.2L53,28.1l-0.2,0.3l-0.3,0.2l-0.3,0.3l-0.1,0.2l-0.2,0.2l-0.2,0.2l-0.1,0
		c-0.5,0.5-1.2,0.9-1.8,1.3v0.1h-0.1L49.4,31v0l-0.1,0.1h-0.1c0,0,0,0-0.1,0v0.1H49l-0.2,0.2h0l-0.2,0.2l-0.2,0.1l-0.1,0.2L48,32
		l-0.1,0l-0.3,0l-0.1,0.1l-0.2,0h-0.1c-0.5,0.2-0.9,0.4-1.4,0.5l-0.1,0.1l-0.1,0l-0.1,0.2l-0.1,0l-0.2-0.1H45l-0.6,0l-0.6-0.1v0
		c0,0-0.1,0-0.1,0c-0.2,0-0.3-0.1-0.5-0.1c-0.1-0.1-0.8-0.4-0.8-0.6v-0.3l-0.1,0l0-0.2l0.2-0.6l0.2-0.5l0.1-0.2l0.4-0.4l0.2-0.2
		l0.1-0.1l0.5-0.4l0.5-0.5l0.1-0.2l0.1-0.1l0.7-0.5l0.2-0.2l0.2,0l0.1-0.1l0.2-0.2l0.1-0.1l0,0.1l0.7-0.6l0.2-0.2l0.1,0l0.3-0.2
		l0.2-0.2l0.3-0.2l0.4-0.2l0.4-0.3l0.2-0.1l0.3-0.2c0.3-0.2,0.6-0.4,0.9-0.6l-0.4-0.1c-0.2,0-0.4,0.1-0.6,0.1l-0.1,0l0,0l-0.1,0
		h-0.4c-0.3,0-0.6,0.1-1,0.1h0l-0.7,0L46.4,25l-0.2-0.1l-0.1-0.2l0-0.2l0.2-0.4l0.2-0.1L47,24l0.3,0l0.2,0.1l0.5,0.1
		c0.5,0,1,0,1.5,0.1l0.3-0.1l0.5,0l0.6-0.1l0.1,0l0.5-0.1c0.1,0,0.2-0.1,0.3-0.2l0.3-0.2l0.2-0.1l0.1,0l0.2-0.1l0.2,0l0.3,0
		c0.2,0,0.4-0.1,0.6,0l0.2,0l0.1,0.1c0.1,0,0.2,0.1,0.3,0.2l0.9-0.1l0,0l0.4-0.1l0.5,0l0.5-0.2l0.2,0l0.3,0h0.6l0.2,0l0.4,0h0
		c0.1,0,0.3,0,0.4,0c0.2,0,0.3,0,0.5,0l0.1,0l0.1,0h0.1l0.1,0.1h0.2l0.2-0.1h0.2l0.3,0h0.1l0.2,0l0.2,0.1H61l0.1,0l0.2,0l0.1,0
		c0.4,0.1,0.7,0.1,0.9,0.2l0.1,0.1h0.1l0.1,0.1c0.2,0.1,0.3,0.2,0.5,0.3h0.1l0.1,0.1l0.2,0.1l0.1,0.2l0.1,0.2v0.1l-0.2,0.2l-0.1,0.2
		l-0.3,0.5L63,25.6v0c0,0-0.1,0.1-0.1,0.1l-0.1,0.2L62.7,26v-0.2l0.1-0.1v-0.1c0-0.1,0.1-0.3,0.2-0.4L63,25l0.2-0.6c0,0,0-0.1,0-0.1
		l-0.1-0.2l-0.3-0.2l-0.2-0.2l-0.5-0.1c-0.7-0.2-1.5-0.2-2-0.2h-0.5l-0.4,0c-0.3,0-0.5,0.1-0.8,0.1c-1.4,0.1-2.3,0.2-3.2,0.3l-0.1,0
		l-0.3,0.1l-0.2,0.1l-0.5,0c-0.5,0.1-1,0.2-1.5,0.2l-0.2,0.1h-0.2l-0.6,0.1l-0.2,0.1c0.3,0.1,0.6,0.2,0.8,0.3h0.1l0.1,0.1l0.1,0
		l0.1,0.1l0.2,0.2l0.4,0.4l0.1,0.2l0.2,0.4l0,0.6C53.4,27,53.4,27.2,53.3,27.3z M52.6,27.1v-0.2l0.1-0.3l0-0.4v0l-0.2-0.3l-0.2-0.2
		l-0.2-0.2l-0.2-0.2l-0.2-0.1l-0.3-0.1l-0.2-0.2L51,25c0,0-0.1,0-0.1,0c-0.4,0.2-0.8,0.6-1.3,0.9l-0.3,0.2l-0.2,0.2L48,26.9
		l-0.3,0.2l-0.2,0.1l-0.6,0.4l0,0l-0.2,0.1l-0.5,0.2l-0.4,0.2l-0.3,0.2l-0.2,0.1L45,29l0,0l-0.3,0.4l-0.3,0.4L44.2,30c0,0,0,0-0.1,0
		c-0.2,0.2-0.4,0.5-0.5,0.8v0.1l0,0.1l-0.1,0.2v0.2l0,0.1l0,0.1c0,0.2,0.1,0.5,0.2,0.6h0.1l0.2,0.1c0.1,0,0.1,0,0.2,0
		c1,0.1,1.2,0,2.2-0.4c0.4-0.1,0.9-0.3,1.3-0.5l0-0.1h0.1l0.4-0.2l0.2-0.2l0.5-0.3l0.1,0h0.1l1-0.6l0.1-0.1l0.1,0
		c0.2-0.2,0.5-0.4,0.7-0.6l0.1-0.1l0.1-0.1l0.2-0.2l0.2-0.2l0.1-0.2l0.1,0l0.1-0.1l0.1-0.1l0.1-0.1H52
		C52.2,27.7,52.5,27.4,52.6,27.1z M53.8,23.8c-0.2-0.1-0.6,0-0.9,0.2L53.8,23.8z"/>
	<path class="st0" d="M60.7,29l0.1-0.2l0,0l0.2-0.3l0.2-0.4l0.3-0.5l0.1-0.2l0.6-0.9l0.2-0.2l0.1-0.1l0.4-0.6l0.3-0.5l0.3-0.5
		l0.1-0.4v-0.2h-0.1V24l0.1-0.1l-0.1-0.5l0.1-0.6l0.1-0.2L64,22l0.6-0.4l0.3-0.1l0.3,0.2l0.1,0.2v0.2l0.1-0.1l-0.1,0.1h-0.1
		l-0.1,0.1l-0.1,0.2c0,0,0,0.1,0,0.1c-0.1,0.4-0.3,0.7-0.5,1.1l-0.2,0.8l-0.2,0.3l-0.2,0.1l-0.3,0.4l-0.2,0.4L63.4,26l-0.1,0.3
		l-0.2,0.2L63,26.6L63,26.8v0.1l-0.1,0.1l-0.6,0.9L62.1,28l-0.4,0.5l-0.2,0.4l-0.6,1l-0.1,0.2l-0.3,0.5v0l-0.1,0.2l-0.1,0l-0.1,0.2
		l-0.1,0.3c0.2-0.1,0.2-0.2,0.3-0.4l0.1-0.1l0,0l0.1-0.2l0.2-0.1l0.1-0.1l0.2-0.2l0.2-0.1l0.3-0.3l0.2-0.1c0.4-0.4,0.8-0.8,1.2-1.1
		l0.2-0.2l0.1-0.1l0.3-0.2l0.2-0.2l0.5-0.3l0.1-0.1l0.7-0.5l0.2-0.1c0.3-0.1,0.5-0.3,0.8-0.4c0.2-0.1,0.6-0.3,1-0.2v0l0.6,0l0.2,0.2
		l0.3,0.3l0.1,0.5v0.2l0,0.3L68,28.3l0,0.2v0.2l-0.2,0.8v0.1l0.2,0.3l0.1,0.4l0.1,0.1l-0.1,0.1L68,30.5v0.2l0.1,0.2l0.1,0.1l0.2,0.2
		c0.4,0,1,0,1.5-0.1l0.6-0.2l0.2,0l0.4-0.2l0.2,0l0.6-0.2l0.4-0.2l0.3,0l0.3-0.1l0.5-0.2c0.4-0.2,0.7-0.3,1.1-0.5l0.3-0.2l0.2,0
		l0.7-0.4l0.2-0.2l0.2-0.2l0.3-0.2l0.9-0.4l1-0.6l0.1-0.1l0.4-0.2h0.1v-0.1h0.1l0.3-0.2l0.1-0.1h0.2l0.1,0.1v0.1l-0.1,0.1L79.6,27
		c-0.5,0.3-1,0.6-1.5,1l-0.2,0.2l-0.2,0.1l-0.2,0.1h-0.1L77,28.6l-0.1,0.1l-0.1,0c0,0-0.1,0-0.1,0.1l-0.1,0.1l-0.2,0.1h0
		c-0.3,0.2-0.6,0.4-1,0.5L75,29.7l-1.3,0.6l-0.1,0l0,0l-0.4,0.3l-0.3,0.2L72.3,31l-0.5,0.2l-0.2,0.1l-0.3,0.1L71,31.5l-0.2,0
		l-0.1,0.1l-0.1,0l-0.1,0c-0.2,0.1-0.5,0.1-0.7,0.1l-0.4,0l-0.2,0.1l-0.1,0l-0.2-0.1l-0.2,0.1l-0.2,0h-0.1c-0.4,0-0.7-0.3-1-0.4
		c-0.2-0.1-0.3-0.2-0.4-0.4l0-0.1c0-0.2,0-0.3,0-0.5v-0.3l0.1-0.4l0.2-0.6h0l0.1-0.1l0.3-1.1h0L67.4,28l0.1-0.2
		c0.1-0.5,0-0.8-0.4-0.9c-0.2,0-0.2-0.1-0.5,0l-0.3,0.2L66,27.1c0,0,0,0-0.1,0l-0.6,0.4l-0.1,0.1l-0.1,0.1l-0.5,0.5l-0.2,0.1
		l-0.1,0.2l-1,0.7l-0.1,0L63,29.4l-0.1,0l-0.1,0.2l-0.2,0.2L62.4,30l-0.2,0.2L62,30.3l-0.1,0.1l-0.1,0.2l-0.3,0.2l-0.3,0.2
		c-0.5,0.5-0.9,0.9-1.4,1.4l-0.1,0.2l0,0l-0.3,0.2c0,0,0,0-0.1,0l0,0.1l-0.1,0l0,0.1v0.1L59.1,33L59,33.2l-0.2,0l-0.2-0.1l-0.1-0.3
		v-0.6l0.2-0.5l0.2-0.2l0.3-0.3l0.4-0.2v-0.1h0l0.1,0v-0.1l0.1-0.1l0.1-0.2l0.2-0.4l0.2-0.2l0.1-0.2L60.7,29L60.7,29z"/>
	<path class="st0" d="M88.4,14.4h0.5l0.2-0.2l0.8-1.1l0.1-0.1l0.4-0.5l0.2-0.2l0.2-0.3l0.1-0.1l0.3-0.5v-0.1l0.1-0.1l0.1-0.1
		l0.1-0.1l-0.1,0.1h0v-0.1l0.1-0.1l0.1,0v0.1l0.1-0.2l0.2-0.2l0.2-0.2l0-0.1l0.1-0.2l0.4-0.3l0.2-0.3l0.1-0.1l0.1,0l0-0.1v0l0,0v0
		l0.2-0.4l0.2-0.2l0.4,0L94,9.3l0,0.4L93.6,10l-0.3,0.3l-0.2,0.3L93,10.9l0,0.2l-1,0.9l-0.3,0.2l-1.2,1.3l-0.7,0.8l0.4,0l0.1-0.1
		h0.1l0.1,0.1l0.8-0.1v-0.1h2.1l0.9-0.1H95l0.1,0.1h0.2v0.1l0.8,0.1l0.3-0.1l0.4,0.1l0.5-0.1h0.2l0.3,0l0.4,0.1l0.2,0l0.2,0l0.8,0.2
		h0.1l0.2,0.1h0.4l0.2,0.1l0.7,0.1l0.1,0l0.2,0.2c0.1,0,0.2,0.1,0.4,0.1l0,0l0,0l0.8,0.3l0.1,0l0,0.1h0v0l0.5,0.2h0.1l0.1,0.1
		c0,0,0.1,0.1,0.1,0.1l0.2,0l0.4,0.2l0.1,0.2l0.3,0.2h0.1l0.1,0.1l0,0.1c0.2,0.1,0.3,0.3,0.5,0.4c0,0,0,0,0,0.1l0.1,0l0.2,0.3v0
		l0.1,0.1l0.2,0.1l0.1,0.1l0,0.2l0.1,0.2l0.2,0.6l0,0.2c0,0,0,0.1,0.1,0.1c0,0.1,0,0.2,0,0.2l0,0l-0.1,0.2l-0.2-0.2l0-0.1
		c0-0.1,0-0.1,0-0.2l-0.2-0.4l-0.2-0.6l-0.1-0.1l0,0l-0.2-0.3l-0.2-0.2c0,0,0,0,0-0.1l-0.3-0.3l-0.1-0.1l-0.4-0.3l0,0
		c-0.1,0-0.2-0.1-0.2-0.1l-0.1,0l-0.1,0l-0.2-0.2l-0.2-0.1l-0.2-0.1l-0.1-0.1l0,0h-0.1l-0.1-0.1l-0.5-0.2l-0.6-0.1l-0.2-0.1
		l-0.4-0.2l-0.5-0.1c-0.5-0.1-1-0.2-1.5-0.3l-0.1,0L98.5,15l-0.2,0h-0.3l-0.2,0l-0.6-0.1l-0.3,0l-0.2,0l-0.1,0l-0.4-0.1
		c-0.2,0-0.5,0-0.7,0l-0.1,0l-0.1,0c-0.2,0-0.3,0-0.5,0c-1,0-2,0-3,0l-0.2,0l-0.2,0.1V15h-0.1L91,15.2h-0.1v0.1h-0.1l-0.5,0.2h-1.5
		c-0.2,0.2-0.4,0.5-0.6,0.7l-0.1,0.2l-0.2,0.2c-0.2,0.2-0.4,0.4-0.5,0.6l0,0.1L87,17.7l-0.5,0.7l-0.3,0.3l-0.5,0.6l-0.1,0.1l-1,1.3
		L84.4,21l-0.6,0.8L83.7,22l-0.2,0.2l-0.2,0.3l-0.2,0.4L83,22.9l-0.2,0.2l-0.2,0.2l-0.2,0.2l0,0l-0.1,0.1l-0.1,0.2l-0.5,0.6
		l-0.1,0.4l-1.4,2l-0.5,0.6L79,28.3l-0.2,0.2l-0.3,0.3l-0.2,0.3l-0.1,0.2L78,29.7l-0.2,0.6l-0.2,0.3l-0.4,0.6l-0.2,0.6V32l0,0.2
		l-0.2,0.4l0,0.4l-0.1,0.3l-0.1,0.2l0.1,0.1l0.2,0.1l0.2,0l0.6-0.1l0.2-0.1l0.1-0.1l0.5-0.1l0.3-0.1l0.2-0.1l0.2-0.1l0.2,0l0.3-0.1
		l0.2-0.1h0.1l0.1,0l0.8-0.4l0.6-0.2v0h0.1l0.1-0.2h0.1l0.2-0.1h0.1l0.1-0.1h0.1l0.9-0.4L83,31l0.1,0l1.4-0.7l0.3-0.2l0.2-0.1
		l0.4-0.2l0.5-0.2h0l0.2-0.2l0.3-0.2l0.4-0.1l0.4-0.2l0.8-0.4v0h0l0.2-0.1l0.1-0.1l0.4-0.2H89v-0.1l0.2,0l0.2-0.1l0.1-0.1l0.2,0
		l0.1,0.2l0,0.1l0,0.1l-0.1,0.1l-0.2,0l-0.1,0.1l-0.8,0.6L88.1,29l-0.3,0.2l-0.5,0.2L87,29.7l-0.3,0.1L86.2,30L86,30.1l-0.1,0.1
		l-0.3,0.2l-0.4,0.2l-0.5,0.2l-0.2,0.1l-0.3,0.2L84,31.2l-0.3,0.1l-0.1,0l-0.2,0.2l-0.2,0.1l-0.2,0l-0.3,0.2l-0.1,0.1l-0.2,0l-0.2,0
		L82,32l-0.6,0.3l-0.3,0.2l-0.4,0.2h-0.1l-0.4,0.2l-0.4,0.3l-0.3,0.2l-0.2,0h0l0,0.1l0,0.1l-0.1,0h-0.2l0.1-0.1l-0.1,0l-0.3,0.2
		l-0.1,0.1l-0.9,0.3l-1.1,0.3l-0.4,0l-0.1,0l-0.2-0.1l-0.1,0l-0.2-0.1l-0.1-0.2l-0.1-0.3c0-0.1,0-0.4,0-0.5c0-0.2,0.1-0.6,0.3-0.9
		v-0.1l0.1-0.2l0.1-0.2l0.1-0.1v-0.2l0.1-0.1l0.2-0.2l0.1-0.1l0.2-0.2l0.3-0.6l0.1-0.1l0.1-0.2l0.1-0.2l0.1-0.1l0.2-0.2l0.2-0.3
		l0.1-0.2l0.1-0.2l0.2-0.1l0-0.1l0.2-0.2l0.3-0.2l0.2-0.2l0-0.1l0.1-0.2l0.2-0.1l0.4-0.6l0-0.1l0.1-0.1c0.1-0.2,0.2-0.3,0.4-0.5
		l0.2-0.3l0.2-0.3l0.2-0.3l0.2-0.2l0.1-0.1l0.1-0.1l0.1-0.2l0,0c0.1-0.1,0.2-0.2,0.2-0.2l0-0.1l0.1-0.1l0.1-0.1l0.1-0.1v-0.1
		l0.1-0.1v-0.2l0.5-0.6l0.1-0.1c0,0,0,0,0,0l0-0.2l0.3-0.4l0.1-0.1l0.1-0.2l0.2-0.2l1.1-1.6l0.2-0.1l0.5-0.6l0.1-0.1
		c0.1-0.1,0.2-0.3,0.4-0.5l0,0l0.1-0.1h0l0.5-0.6v-0.2l0.5-0.6l0.1-0.1l0.2-0.2l0-0.1l0.7-1l0.2-0.1l0.2-0.2v0l0.1-0.1V16l0.1-0.1
		l0.1,0l0.1-0.1v0l0.1-0.1l0-0.1l0.3-0.4h-0.1L88,15.2l-0.6,0.1L87,15.3l-0.9,0.1l-1,0.1l-0.2,0l-0.3,0l-0.8,0.1l-0.2,0.1L82,16.2
		l-0.3,0.2l-0.1,0.1l-0.4,0.1l-0.4,0l-0.6,0.4L80,16.9l-0.6,0.1l-0.7-0.2l-0.2-0.3l0-0.3l0.1-0.2h0c0-0.1,0-0.1,0.1-0.2h0.1l0-0.1
		v-0.1l0.1,0.1c0.5-0.2,1.1-0.4,1.9-0.6l0.5-0.2l0.5,0l0.2,0.1L83,15l0.1,0h0l0.8-0.1l0,0H84l0.6-0.1l0.1,0h0.2l0,0H85l0.8-0.2
		l0.1,0l0.2-0.1h0.2l0.5-0.1l0.1,0l0.2,0c0.2,0,0.3-0.1,0.5-0.1l0,0h0.1h0.3L88.4,14.4z"/>
	<path class="st0" d="M97.9,29.6L97.9,29.6l0.1-0.2l0.6-0.7l0.1-0.2l0.1-0.1l0-0.1l0.1-0.1l0.4-0.4l0.1-0.2v-0.1l0,0l0.1-0.3l0,0
		l-0.2,0H99l-0.4,0.1l-0.9,0.3l-0.2,0.1l-0.2,0l-0.9,0.6h0l-0.2,0.2L96,28.6l-0.2,0.1l-0.7,0.3l-0.7,0.4l-0.3,0.1l-0.5,0.2l-0.2,0.1
		l-0.4,0.2l-0.2,0.1l-0.6,0.3l-0.2,0.1L92,30.8l-0.3,0.1L91.4,31l-0.7,0.4l-0.1,0.1l-0.3,0.2h-0.1v0H90l-0.4,0.2h-0.2
		c-0.1,0.1-0.2,0.1-0.3,0.1L89,32.1l-0.6,0.2l-0.1,0l-0.5,0.2l-0.1,0l-0.1,0h-0.1l-0.2,0h0c-0.5,0.1-0.9,0-1-0.4
		c-0.1-0.4,0-0.9,0.2-1.4l0.1-0.4l0.1,0l0-0.1l0.1-0.2l0.1-0.1l0.1,0v0l0.1-0.2l0.2-0.3l0.3-0.2l0.1-0.1l0.2-0.4l0.1-0.2l0.2-0.2
		l0.4-0.3l1.4-1.2v0h0l0.4-0.3l0.1-0.1l0.5-0.4l0.2-0.2l0.8-0.6l0,0l0.4-0.4l0.2-0.2l0.1-0.2l0.1,0l0.2,0l0.1-0.1l0.2-0.1l0.1,0
		l0.2,0l0.1-0.1v-0.1l0.2-0.1l1-0.5l0.2-0.2l0.1-0.1l0.2-0.1l0.1,0l0.1,0l0.3-0.1h0.1l0.2-0.1l0.2,0l0.2-0.1l0.2-0.1l0.1,0l0.3,0.1
		l0.2,0h0.2l0.1,0h0.1v0h0.1l0.1,0.1l0,0.1l0.1,0l0.1,0.2v0.3l-0.1,0.1c0,0.1-0.1,0.2-0.3,0.4c-0.1,0.1-0.2,0-0.2,0l-0.3,0.1l-0.2,0
		h-0.6L96,24.1v0h-0.1v0h-0.1l-0.2,0h-0.2L95,24.4l-0.5,0.2l-0.7,0.3l-0.5,0.2c-0.2,0.1-0.3,0.2-0.5,0.3c0,0,0,0,0,0l-0.3,0.2l0,0
		l-0.1,0l-1.4,1l-0.1,0.1l-0.3,0.3l-0.2,0.2l-0.2,0.1l-0.3,0.2l-0.1,0.1l-0.3,0.3l-0.1,0.1l-0.1,0.1L89,28.7l-0.1,0.1l-0.1,0.1
		l-0.1,0.1L88.7,29l-0.1,0.1h-0.1l-0.1,0.2l-0.1,0.2l-0.1,0.1l-0.2,0.2L88,29.9l-0.3,0.4v0.1l0,0.2l0,0.1v0.1l-0.1,0.1l-0.1,0.1
		l-0.1,0.1l-0.2,0.2l-0.1,0.2v0.1l0,0.1v0.2l0.1,0.1l0.1,0.2l0.1,0.1l0.6-0.2l0.3-0.1l0.4-0.2h0l0.2,0c0.4-0.2,0.8-0.3,1.2-0.5
		l0.2-0.1l0.2-0.1l0.2-0.1h0.2c0.3-0.2,0.7-0.3,1-0.5l0.2-0.1l0.2-0.1v0l0.1,0l0.1-0.1l0.1,0l0.5-0.2l0.2-0.1l0.2-0.1l0.8-0.4
		l0.2-0.2l0.9-0.4l0.2-0.1l0.6-0.3l0.3-0.2l0.6-0.3l0.2-0.1l0.2-0.2l0.2-0.1l0.4-0.2l0.4-0.2l1-0.2h0.4l0.3,0.1l0.2,0.1l0.1,0.1
		c0.1,0,0.2,0.1,0.2,0.2v0l0.1,0v0.1l0,0.1h0.1l0,0.1l0,0l-0.1,0.1l-0.1,0.1l-0.1,0.1l-0.2,0.2c0,0.1-0.1,0.1-0.2,0.2L99.7,28
		l-0.2,0.2l-0.1,0l-0.4,0.4L99,28.7v0l-0.1,0L98.8,29l-0.1,0.1l-0.1,0.1l-0.2,0.3c-0.1,0.1-0.1,0.2-0.1,0.2L98.2,30l0,0
		c-0.1,0.1-0.1,0.2-0.1,0.3c0,0.1,0,0,0.1,0.1c0,0,0.1,0,0.1,0l0.2,0h0.2l0.1,0h0.2l0.2,0l0.1,0c0.2,0,0.4-0.1,0.7-0.2l0.2-0.1
		l0.2-0.1h0.2l1.1-0.3l0.1-0.1l0.3-0.1v0l0.4-0.1l0.2-0.1l0.1,0l0.1-0.1l1-0.3v-0.1L104,29l0.3-0.1l0.1-0.1l1.5-0.4h0.2l0.8-0.2
		c0,0,0.1,0,0.1,0h0.1l0,0.2l-0.1,0.1h-0.2l-0.5,0.1l-0.4,0.2h-0.1l-0.5,0.1l-0.2,0.1l-0.7,0.3l-0.5,0.2l-0.6,0.2l-0.7,0.2l-0.1,0.1
		l-0.3,0.1l-0.2,0.1l-0.2,0.1h0l-0.2,0.1l-0.2,0.2l-0.1,0l-0.1,0.1l-0.8,0.3V31l0,0l-0.2,0.1l0,0.1l-0.5,0.2l-0.5,0.2l-0.2,0.1l0,0
		l0-0.1l-0.1,0l-0.1,0.1l-0.1,0l0,0l-0.2,0.1h-0.3l-0.1,0h-0.2l-0.2-0.1l-0.1-0.1l-0.1-0.1l0-0.2l0-0.1c0-0.1,0-0.2,0-0.4l0.1-0.2
		l0-0.1l0.2-0.3l0.1-0.2l0.2-0.3L97.9,29.6z"/>
	<path class="st0" d="M107.4,27.8c-0.4,0.3-0.7,0.6-1,0.9l-0.1,0.1l-0.2,0.2l-0.2,0.2l-0.1,0.2l-0.2,0l0,0.1l-0.2,0.1l0,0.1h-0.1
		l-0.5,0.6v0.1l-0.1,0.1l-0.1,0.2l-0.1,0.1l-0.1,0.2c-0.1,0.2-0.2,0.5,0,0.6l0.1,0.1l0.2,0.1l0.2,0.1l0,0c0.3,0.1,0.6,0.1,1,0
		l0.4-0.2l0.2,0h0.4l0.5-0.1h0.2l0.3-0.1l0.1,0l0.8-0.2h0.1l0.5-0.2l0.2-0.1l0.3-0.1l0.2-0.2l0.7-0.2l0.2-0.1l0.2-0.1l0.6-0.2
		c0.7-0.2,1.4-0.4,2-0.6l1-0.4h0.1l0.2-0.1l0.2-0.1l0.8-0.3l0.4-0.1c0.4-0.1,0.8-0.2,1.2-0.4l0.9-0.3v-0.1l0.1,0
		c0.1,0,0.1,0,0.2-0.1l0.2-0.1l0-0.1l1.3-0.5c0.5-0.2,1-0.5,1.5-0.8l0.1-0.1l0.1,0h0.2l0.1,0.2l-0.1,0.1l-0.4,0.3l-0.3,0.1
		c-1.2,0.7-1.8,1-2.5,1.3v0.1l-0.1,0.1h-0.2l-0.5,0.2l-0.3,0.2h-0.1l-0.3,0.1l-0.8,0.3l0,0h-0.1l-0.8,0.4l-0.5,0.2h0l-0.1,0.1
		l-0.2,0.1l-0.3,0.1l-0.1,0l-0.2,0l-0.2,0l-0.3,0.1l-1,0.3l-0.3,0.1h-0.1l-1,0.5l-1.4,0.4l-1,0.3l-0.8,0.3l-0.9,0.4l-0.6,0.2
		l-0.7,0.1h-0.2l-0.1,0.1l-0.6-0.1l-0.6-0.2h-0.1l-0.5-0.2l-0.2-0.2V32l-0.1-0.2l0-0.2l0.1-0.2c0-0.2,0-0.3,0-0.5l-0.1-0.1v-0.1
		l0-0.1l0.1,0v-0.2h0v0h0.1l0-0.1v-0.1l0,0v0l0.1-0.2l0.2-0.3l0.1-0.1l0.1,0v0l0.1-0.2v0l0.1-0.1l0.1,0L105,29l0.1-0.1l0.2-0.2
		l0.2-0.3l0.1-0.1l0.2-0.2l0.2-0.1l0.1-0.1l0.1-0.2l0.2-0.1l0.2-0.1c0.2-0.2,0.5-0.3,0.7-0.5l0-0.1l0.1,0l0.2-0.2l0.1,0
		c0.1-0.1,0.2-0.2,0.4-0.2l0.2-0.2l0.2-0.1l0.1-0.1h0l1.5-0.9l0.2-0.2l0.7-0.3l0.2-0.2l0.8-0.4l0.1,0l0.9-0.4l0.2-0.1l0.3-0.2
		l0.2-0.2l0.2-0.1h0.4l0.1-0.1l0.1,0l0-0.1l0-0.1l0.1,0l0-0.1l0,0l0.2-0.1v0l0-0.1l0,0.1h0.1l0.1,0h0.1l0.2,0h0.4l0,0.1l0.4-0.2h0.5
		l0.1,0.1c0.1,0,0.1,0,0.1,0.1l0.2,0.2l0,0.2l0.2,0.2l0,0.2v0.2l-0.2,0.3l-0.4,0.2h-0.1l-0.4-0.1l-0.4-0.2l-0.2,0.1l-0.1,0.3
		l-0.2,0.2l-0.2-0.2l0-0.1l-0.5,0.1l-0.9,0.5l-0.4,0.1l-0.3,0.2l-0.2,0l-0.7,0.4h-0.2l-0.2,0.2h-0.2l-0.4,0.2l-0.6,0.3l-0.1,0.1
		l-0.1-0.1l-0.4,0.2l-0.1,0l-0.3,0.2l-0.2,0.2l-0.2,0.1l-0.3,0.2c0,0,0,0.1-0.1,0.1l-0.4,0.3l-0.3,0.2l-0.2,0.2L107.4,27.8z"/>
	<path class="st0" d="M130.4,14.4h0.5l0.2-0.2l0.8-1.1L132,13l0.4-0.5l0.2-0.2l0.2-0.3l0.1-0.1l0.3-0.5v-0.1l0.1-0.1l0.1-0.1
		l0.1-0.1l-0.1,0.1h0v-0.1l0.1-0.1l0.1,0v0.1l0.1-0.2l0.2-0.2l0.2-0.2l0-0.1l0.1-0.2l0.4-0.3l0.2-0.3l0.1-0.1l0.1,0l0-0.1v0l0,0v0
		l0.2-0.4l0.2-0.2l0.4,0l0.2,0.4l0,0.4l-0.4,0.3l-0.3,0.3l-0.2,0.3l-0.2,0.2l0,0.2l-1,0.9l-0.3,0.2l-1.2,1.3l-0.7,0.8l0.4,0l0.1-0.1
		h0.1l0.1,0.1l0.8-0.1v-0.1h2.1l0.9-0.1h0.9l0.1,0.1h0.2v0.1l0.8,0.1l0.3-0.1l0.4,0.1l0.5-0.1h0.2l0.3,0l0.4,0.1l0.2,0l0.2,0
		l0.8,0.2h0.1l0.2,0.1h0.4l0.2,0.1l0.7,0.1l0.1,0l0.2,0.2c0.1,0,0.2,0.1,0.4,0.1l0,0l0,0l0.8,0.3l0.1,0l0,0.1h0v0l0.5,0.2h0.1
		l0.1,0.1c0,0,0.1,0.1,0.1,0.1l0.2,0l0.4,0.2l0.1,0.2l0.3,0.2h0.1l0.1,0.1l0,0.1c0.2,0.1,0.3,0.3,0.5,0.4c0,0,0,0,0,0.1l0.1,0
		l0.2,0.3v0l0.1,0.1l0.2,0.1l0.1,0.1l0,0.2l0.1,0.2l0.2,0.6l0,0.2c0,0,0,0.1,0.1,0.1c0,0.1,0,0.2,0,0.2l0,0l-0.1,0.2l-0.2-0.2l0-0.1
		c0-0.1,0-0.1,0-0.2l-0.2-0.4l-0.2-0.6l-0.1-0.1l0,0l-0.2-0.3l-0.2-0.2c0,0,0,0,0-0.1l-0.3-0.3l-0.1-0.1l-0.4-0.3l0,0
		c-0.1,0-0.2-0.1-0.2-0.1l-0.1,0l-0.1,0l-0.2-0.2l-0.2-0.1l-0.2-0.1l-0.1-0.1l0,0h-0.1l-0.1-0.1l-0.5-0.2l-0.6-0.1l-0.2-0.1
		l-0.4-0.2l-0.5-0.1c-0.5-0.1-1-0.2-1.5-0.3l-0.1,0l-0.5-0.1l-0.2,0H140l-0.2,0l-0.6-0.1l-0.3,0l-0.2,0l-0.1,0l-0.4-0.1
		c-0.2,0-0.5,0-0.7,0l-0.1,0l-0.1,0c-0.2,0-0.3,0-0.5,0c-1,0-2,0-3,0l-0.2,0l-0.2,0.1V15h-0.1l-0.3,0.2h-0.1v0.1h-0.1l-0.5,0.2h-1.5
		c-0.2,0.2-0.4,0.5-0.6,0.7l-0.1,0.2l-0.2,0.2c-0.2,0.2-0.4,0.4-0.5,0.6l0,0.1l-0.4,0.5l-0.5,0.7l-0.3,0.3l-0.5,0.6l-0.1,0.1l-1,1.3
		l-0.2,0.3l-0.6,0.8l-0.1,0.2l-0.2,0.2l-0.2,0.3l-0.2,0.4l-0.1,0.2l-0.2,0.2l-0.2,0.2l-0.2,0.2l0,0l-0.1,0.1l-0.1,0.2l-0.5,0.6
		l-0.1,0.4l-1.4,2l-0.5,0.6l-0.6,0.7l-0.2,0.2l-0.3,0.3l-0.2,0.3l-0.1,0.2l-0.3,0.4l-0.2,0.6l-0.2,0.3l-0.4,0.6l-0.2,0.6V32l0,0.2
		l-0.2,0.4l0,0.4l-0.1,0.3l-0.1,0.2l0.1,0.1l0.2,0.1l0.2,0l0.6-0.1l0.2-0.1l0.1-0.1l0.5-0.1l0.3-0.1l0.2-0.1l0.2-0.1l0.2,0l0.3-0.1
		l0.2-0.1h0.1l0.1,0l0.8-0.4l0.6-0.2v0h0.1l0.1-0.2h0.1l0.2-0.1h0.1l0.1-0.1h0.1l0.9-0.4l0.3-0.2l0.1,0l1.4-0.7l0.3-0.2l0.2-0.1
		l0.4-0.2l0.5-0.2h0l0.2-0.2l0.3-0.2l0.4-0.1l0.4-0.2l0.8-0.4v0h0l0.2-0.1l0.1-0.1l0.4-0.2h0.1v-0.1l0.2,0l0.2-0.1l0.1-0.1l0.2,0
		l0.1,0.2l0,0.1l0,0.1l-0.1,0.1l-0.2,0l-0.1,0.1l-0.8,0.6l-0.2,0.1l-0.3,0.2l-0.5,0.2l-0.3,0.2l-0.3,0.1l-0.4,0.2l-0.2,0.1l-0.1,0.1
		l-0.3,0.2l-0.4,0.2l-0.5,0.2l-0.2,0.1l-0.3,0.2l-0.3,0.1l-0.3,0.1l-0.1,0l-0.2,0.2l-0.2,0.1l-0.2,0l-0.3,0.2l-0.1,0.1l-0.2,0
		l-0.2,0l-0.2,0.1l-0.6,0.3l-0.3,0.2l-0.4,0.2h-0.1l-0.4,0.2l-0.4,0.3l-0.3,0.2l-0.2,0h0l0,0.1l0,0.1l-0.1,0h-0.2l0.1-0.1l-0.1,0
		l-0.3,0.2l-0.1,0.1l-0.9,0.3l-1.1,0.3l-0.4,0l-0.1,0l-0.2-0.1l-0.1,0l-0.2-0.1l-0.1-0.2l-0.1-0.3c0-0.1,0-0.4,0-0.5
		c0-0.2,0.1-0.6,0.3-0.9v-0.1l0.1-0.2l0.1-0.2l0.1-0.1v-0.2l0.1-0.1l0.2-0.2l0.1-0.1l0.2-0.2l0.3-0.6l0.1-0.1l0.1-0.2L119,30
		l0.1-0.1l0.2-0.2l0.2-0.3l0.1-0.2l0.1-0.2l0.2-0.1l0-0.1l0.2-0.2l0.3-0.2l0.2-0.2l0-0.1l0.1-0.2l0.2-0.1l0.4-0.6l0-0.1l0.1-0.1
		c0.1-0.2,0.2-0.3,0.4-0.5l0.2-0.3l0.2-0.3l0.2-0.3l0.2-0.2l0.1-0.1l0.1-0.1l0.1-0.2l0,0c0.1-0.1,0.2-0.2,0.2-0.2l0-0.1l0.1-0.1
		l0.1-0.1l0.1-0.1v-0.1l0.1-0.1v-0.2l0.5-0.6l0.1-0.1c0,0,0,0,0,0l0-0.2l0.3-0.4l0.1-0.1l0.1-0.2l0.2-0.2l1.1-1.6l0.2-0.1l0.5-0.6
		l0.1-0.1c0.1-0.1,0.2-0.3,0.4-0.5l0,0l0.1-0.1h0l0.5-0.6v-0.2l0.5-0.6l0.1-0.1l0.2-0.2l0-0.1l0.7-1l0.2-0.1l0.2-0.2v0l0.1-0.1V16
		l0.1-0.1l0.1,0l0.1-0.1v0l0.1-0.1l0-0.1l0.3-0.4h-0.1l-0.2,0.1l-0.6,0.1l-0.4,0.1l-0.9,0.1l-1,0.1l-0.2,0l-0.3,0l-0.8,0.1l-0.2,0.1
		l-1.6,0.5l-0.3,0.2l-0.1,0.1l-0.4,0.1l-0.4,0l-0.6,0.4l-0.2,0.1l-0.6,0.1l-0.7-0.2l-0.2-0.3l0-0.3l0.1-0.2h0c0-0.1,0-0.1,0.1-0.2
		h0.1l0-0.1v-0.1l0.1,0.1c0.5-0.2,1.1-0.4,1.9-0.6l0.5-0.2l0.5,0l0.2,0.1l1.3-0.2l0.1,0h0l0.8-0.1l0,0h0.1l0.6-0.1l0.1,0h0.2l0,0
		h0.2l0.8-0.2l0.1,0l0.2-0.1h0.2l0.5-0.1l0.1,0l0.2,0c0.2,0,0.3-0.1,0.5-0.1l0,0h0.1h0.3L130.4,14.4z"/>
	<path class="st0" d="M156.4,31.3c0-0.1,0-0.2,0.1-0.4v-0.1l0-0.1l0.2-0.3l0-0.1l0.1-0.1c0,0,0.1-0.1,0.1-0.1l0-0.1
		c0.2-0.4,0.4-0.7,0.6-1.1l0.1-0.2l0.1-0.1l0.2-0.3l0-0.1L158,28l0-0.2l0.1-0.2v-0.2l-0.1-0.1l-0.1-0.2l-0.1,0.1h-0.1l-0.4,0.2
		l-0.6,0.2l-0.1,0.1l-0.2,0.1l-0.3,0.2l-0.8,0.4l-0.6,0.3l-0.2,0.1l-1.8,1l-0.2,0.2h-0.1l-0.1,0.1l-0.9,0.5l-0.3,0.1l-0.1,0.1
		l-1.2,0.7l-0.1,0.1l-0.1,0l-0.1,0.2l-0.1,0v0l-0.3,0.1l-0.1,0.1h-0.1l-0.2,0.1l-0.1,0l0,0l-0.1,0l-0.1,0l-0.1,0.1l-0.2,0.2l-0.1,0
		l-0.2,0.1l-0.2,0.1l-0.1,0.1l-0.2,0.1l-0.5,0.1L147,33v0l-0.1,0.1l0,0h0l-0.2,0.1h-0.1l0,0.1l0,0l0,0l0,0h-0.1l-0.9-0.1v0h-0.2
		l-0.2-0.1l-0.3-0.2c-0.1,0-0.1,0-0.2,0v0l0,0l-0.1-0.2c0-0.2,0-0.3,0-0.4V32l0.1-0.6l0.1-0.2l0.1-0.2l0.1-0.2l0-0.1l0.2-0.2
		l0.1-0.1l0.2-0.2l0.4-0.6l0.1-0.2l0.2-0.2l0.2-0.2l0.1-0.3l0.2-0.3l0.1-0.2l0.2-0.2l0-0.1l0.1-0.1l0.2-0.2v-0.1h0l0.2-0.2l0.4-0.5
		l0.1-0.2l0.1-0.1l0-0.1l0.1-0.3v-0.3l0.1-0.2l-0.1-0.2v-0.1l0.1-0.2l0.2-0.2l0.3-0.4l0.3-0.2h0.2l0.2,0.1v0c0,0,0,0,0,0
		c0.1,0.1,0.1,0.3,0.1,0.4l0,0l0.1,0.5l-0.1,0.4l-0.2,0.2l-0.3,0.3l-0.2,0.6l-0.2,0.2l-0.1,0.1l-0.2,0.2l-0.2,0.2l-0.1,0.1l0,0.1
		l-0.1,0.2l-0.2,0.2l0,0.1h0l-0.1,0l-0.6,0.8l-0.1,0.1l-0.1,0.2l-0.1,0.1c-0.2,0.2-0.3,0.4-0.4,0.6l-0.3,0.4
		c-0.1,0.1-0.1,0.2-0.2,0.3l-0.1,0.2l0,0.2l-0.1,0.3l-0.2,0.2l0,0.2l0,0c0,0.1,0,0.2,0,0.2c0.2,0.2,1,0.1,1.7-0.2l0.2-0.2l0.3,0
		l0.5-0.2l0.2-0.1l0.2-0.1c0.4-0.2,0.8-0.4,1.3-0.6l0.2-0.2l0.2-0.1l0.3-0.1l0.2-0.1l0.2-0.2l0.8-0.3c0,0,0.1-0.1,0.1-0.1l0.1-0.1
		l0.2-0.1l0.7-0.4l0,0l0.1-0.2l0.1,0l0.1-0.1l0.2-0.1l0.1-0.1l0.4-0.1l0.9-0.6l0.3-0.2l0.4-0.2l0.4-0.4l0.2-0.1l0.3-0.2l0.4-0.2
		l0.2-0.1l0.2-0.2l0.7-0.3l0.1-0.1l0.3-0.2l0.2-0.2l0-0.1l0.1,0l0.1,0.1c0.2-0.1,0.3-0.2,0.5-0.2l0,0l0.3-0.1l0.1,0
		c0.1,0,0.2,0.1,0.2,0.2l0.1,0l0.2,0.1l0.2,0.1V26l-0.1,0.1h0.1v0.1l-0.1,0v0.1l-0.1,0.1l-0.1,0.2l-0.2,0.3l-0.2,0.2v0.2l-0.3,0.4
		l-0.1,0.2l-0.1,0.2l-0.2,0.2l-0.1,0.1l-0.1,0.3l-0.1,0.3l-0.2,0.2l0,0.1l-0.2,0.4l0,0.1l-0.1,0.3l0,0.2l-0.2,0.3l-0.1,0.1
		c-0.2,0.4-0.2,0.7-0.1,0.8c0.2,0.2,0.3,0.2,0.6,0.3l0.3,0h0.2l0.2,0h0.2c0.3,0,0.7-0.1,1.1-0.1l0,0h0.2l0.4-0.1l0.2,0l0.7-0.1l0,0
		h0l0.2-0.1l0.4,0l0.3,0h0c0,0,0.1,0,0.1,0h0l0.2,0l0.2,0.1l0.1,0.1l-0.1,0.1l-0.1,0l-0.1,0l-0.6,0l-0.1,0.1l-0.1,0.1l-0.1-0.1
		l-0.4,0.1l-1,0.3l-0.3,0l-0.2,0l-0.4,0.1l-0.3,0l-0.2,0h-0.1c0,0-0.1,0-0.1,0h-0.1l-0.4,0.1l-0.5,0.1h-0.2c-0.4,0-0.7,0.1-0.9,0.1
		l-0.1,0l-0.1,0c-0.1,0-0.1,0-0.1,0h-0.1l-0.1-0.1l0-0.1v-0.1l0,0v0c-0.1-0.1-0.1-0.3,0-0.4L156.4,31.3L156.4,31.3z"/>
	<path class="st0" d="M177.8,23.9L177.8,23.9l0,0.2l-0.1,0.1l0,0.1l0.1,0.1h0l-0.1,0.4l-0.2,0.2l-0.2,0.1l-0.3-0.2l-0.5-0.2
		l-0.2-0.1l-0.1-0.1h-0.1l0.1-0.2v-0.2l0.1-0.2l0-0.3v-0.3l-0.1-0.1l0-0.1l-0.2-0.1h-0.2l-0.2-0.1l-0.4,0c-1,0.1-0.6-0.2-1.7,0.2
		l-0.4,0.2l-0.1,0l-0.9,0.2l-0.6,0.3l-0.5,0.2l-0.3,0.2l-0.2,0.1l-0.4,0.1l-0.5,0.2l-0.2,0.1l-0.8,0.4l-0.5,0.3l0,0.1l-0.5,0.3
		l-0.2,0.2l-0.1,0.1l-0.2,0.1l-0.2,0.2l-0.2,0.3l-0.2,0.2l-0.2,0.2l-0.3,0.2c-0.2,0.2-0.3,0.4-0.3,0.6c-0.1,0.3,0,0.1,0.2,0.3
		l0.1,0.2l0.2,0.1l0.2,0.2l0.1,0.2h0c0.2,0.1,0.4,0.2,0.5,0.3l0.4,0.2v0.1l0.5,0.2l0.3,0.1l0.2,0.1h0l0,0l0.8,0.3h0.3l0.2,0.1
		l0.2,0.2l0,0l0.1,0.1l0.1,0.1l0.6,0.2l0.3,0l0.2,0.1h0.6l0.2,0.1l0.4,0.1l0.6,0.1l0.2,0.1l0.5,0.2l0.2,0.3l0.1,0.3l0,0.1l0,0.1
		l-0.1,0.2l-0.2,0.2l-0.4,0.2h-0.2l-0.2,0.1l-0.4,0.1l-0.1,0l-0.3,0l-0.7,0.2l-1.4,0.1h-0.4l-1.2,0.1h-0.4l-0.4,0l-0.5,0l-0.4,0.1
		l-0.5,0.1l-0.8-0.2h-0.5l-0.3,0l-0.6,0.1h-0.2l-0.4,0.1H163l-0.6,0.2l-0.5,0.2l-0.2,0l-0.3,0l-0.8,0.2l-0.1,0l-0.3,0.1l-0.1,0l0,0
		h-0.1l-0.1,0.1l-0.1,0l-0.1-0.1v-0.1h0l0,0l0,0l0.1-0.1l0.1,0h0l0.1-0.1l0.9-0.2l0.3-0.1l0.1,0l0.4-0.1l0.3-0.1h0.1l0.9-0.4h0.3
		l0.2-0.1l0.5,0.1l0.3,0l0.2-0.1l0.6-0.1l0.5-0.1l0.5,0l0.6-0.1l0.1,0h0.4l0.2-0.1l0.1,0c0.2,0,0.3,0,0.5,0l0.3-0.1l0.7-0.1l0.5-0.1
		l0.9,0l0.1,0l0.2-0.1h0.3l0.3-0.2l0.5-0.1l-0.2-0.1l-0.1-0.1l-0.3-0.1l-0.4-0.1l-0.5-0.2l0-0.1l-0.1,0h-0.3l-0.2-0.2l-0.8-0.3
		l-0.1-0.1l-0.2-0.1l-0.8-0.4h0l0,0c-0.6-0.2-1.1-0.4-1.3-0.5h0v0l-0.2-0.1l-0.2,0l-0.4-0.2l-0.1,0l-0.1-0.2h-0.2l-0.3-0.2l-0.4-0.6
		l0-0.5l0,0.1c0-0.1,0.1-0.2,0.2-0.4c0.1-0.1,0.2-0.2,0.2-0.3l0,0l0.4-0.6l0.2-0.2h0.1l0.1-0.2l0.2-0.1l0.2-0.2l0.2-0.1l0.1-0.1
		l0.3-0.1h0l0.1-0.1l0.2-0.1h0l0.6-0.4l0.3-0.2l0.3-0.2l0.1-0.1l0.2-0.2l0.1-0.1l0.1-0.2l0.1-0.1h0.2l0.2,0l0.6-0.2l0.4-0.1l0.2,0
		l0.1,0l0.5-0.2l0.1-0.1c0.5-0.1,0.6-0.2,0.7-0.3l0.2-0.2h0.1l0.3,0l0.2-0.1l0.2,0c0.1,0,0.1,0,0.2,0c0.3-0.1,0.6-0.2,1-0.2l0.2-0.1
		l0.2-0.1l0.1-0.1h0.4l0.2-0.1l0.5,0.1l0.2,0.1h0.1l0,0l0.3,0.1l0.1,0l0.4,0.1l0.3,0.2l0.1,0.1l0.1,0.1c0.1,0.2,0.1,0.3,0.2,0.6h0.1
		L177.8,23.9L177.8,23.9z"/>
</g>
</svg>
