<?xml version="1.0" encoding="utf-8"?>
<!-- Generator: Adobe Illustrator 22.1.0, SVG Export Plug-In . SVG Version: 6.00 Build 0)  -->
<svg version="1.1" id="レイヤー_1" xmlns="http://www.w3.org/2000/svg" xmlns:xlink="http://www.w3.org/1999/xlink" x="0px"
	 y="0px" viewBox="0 0 160 50" style="enable-background:new 0 0 160 50;" xml:space="preserve">
<g>
	<path d="M49.4,4.1c0.2,0.1,0.4,0.2,0.6,0.4l0.2,0.1l0.2,0.3l-0.1,0.7l0,0.2V6l-0.1,0.1l0,0.1c-0.1,0.3-0.2,0.6-0.3,1l0,0.3
		l-0.2,0.4l-0.1,0.5l-0.1,0.2l-0.1,0.3l-0.2,0.3L49,9.6l-0.4,0.7l0,0l-0.1,0.2l-0.1,0.4l0.1,0.1l-0.1,0l-0.2,0.1l0,0.1l-0.2,0.5
		l-0.1,0.1l-0.9,2l-0.2,0.5v0.1l-0.1,0.1l-0.2,0.3c-0.1,0.3-0.3,0.6-0.4,0.9l-0.1,0.2L45.3,17l-0.1,0.2l-0.1,0.3l-0.1,0.1l0,0.2
		L45,18l0.1,0.2l0,0.1l-0.2,0.1l-0.1,0.2l-0.4,0.4l0,0l-0.7,1.4l0,0.3l-0.3,0.4l-0.1,0.1L43,21.7L42.9,22l-0.2,0.4l-0.2,0.2l0.1,0.1
		l0.2,0l0.1,0h0.3l0.2-0.1l0.2,0l0.3,0l0.2,0.1h0.3l0,0h0.1l0.1,0v0l0,0v0l0.1,0l0.2,0h0v0h0.3v0l0.1,0h0.2c0.2,0,0.4,0,0.6,0
		c0.2,0,0.5,0.1,0.7,0.1l0.1,0l0.2,0l0.2,0l0.2,0.1l0.1,0h0.2l0.1,0l0.3,0.1h0.2l0.2,0l0.2,0l0.1,0h0.2l0.1,0c0.1,0,0.2,0,0.4,0
		l0.2,0h0.1l0.1,0h0.2l0.3,0.1l0.1,0c0.1,0,0.1,0,0.2,0h0l0.3,0h0.2l0.1,0l0,0h0.3c0.2,0,0.4,0.1,0.7,0.1c0,0,0,0,0.1,0h0.1l0.1,0.1
		v0.2h-0.2l-0.2-0.1l-0.2,0l-0.4-0.1h-0.1l-0.6-0.1h-0.2c-0.6-0.1-1.3-0.1-1.8-0.1l-0.1,0l-0.3,0c-0.3,0-0.6,0-0.9,0h-0.6l0,0
		l-1.1,0l-0.2,0h-0.2l0,0l-0.2,0l-0.2,0L45,23.3l-0.5,0h-0.2l-0.4,0h-0.1l-1.7,0l-0.2,0.3l-0.6,1.2l-0.7,1.4
		c-0.1,0.4-0.4,0.9-0.6,1.3c-0.1,0.2-0.2,0.3-0.4,0.5l-1.1,2.2c-0.1,0.2-0.2,0.4-0.2,0.6l-0.3,0.4c-0.2,0.4-0.4,0.8-0.6,1.2v0.1
		l-0.2,0.2l-0.2,0.5l-0.3,0.6l-0.2,0.5l-0.1,0.1l-0.2,0.3l-0.5,1.1c-0.1,0.3-0.2,0.4-0.2,0.4v0.1l-0.1,0.1l-0.3,0.9l-0.1,0l-0.2,0.5
		l-0.1,0.4v0.1l-0.2,0.5l-0.2,0.3l-0.2,0.4l-0.1,0.1l0,0.2l-0.2,0.7c0,0.2-0.2,0.6-0.2,0.8c-0.1,0.3-0.2,0.7-0.2,1l-0.1,0.2
		c-0.1,0.8-0.4,1.5-0.6,2.2c-0.1,0.4,0,0.8-0.1,1.2c-0.2,0.2-0.2,0.4-0.3,0.6c-0.2,0.1-0.4,0.4-0.6,0.2c-0.2-0.6,0.2-1.3,0.4-1.9
		c0.2-0.5,0.5-1,0.5-1.6l0.3-0.8c0.3-1,0.6-1.9,0.9-2.8l0.2-0.7l0.4-1l0.3-1l0.2-0.4l0.7-1.4l0.2-0.6l0.3-0.6l0.1-0.2
		c0-0.1,0-0.1,0.1-0.2l0.5-1l0.1-0.2v-0.2L37,32l0.1-0.1c0-0.1,0-0.1,0.1-0.1c0-0.2,0.1-0.3,0.1-0.4l0.1,0c0.3-0.6,0.6-1.1,0.8-1.7
		c0.4-0.6,0.7-1.4,1-2c0.3-0.6,0.3-0.6,0.6-1.2l0.3-0.7l0.2-0.3l0.2-0.5l0.2-0.3l0.3-0.3c0.1-0.2,0.2-0.5,0.4-0.7
		c-0.5,0.2-1,0.2-1.5,0.3c-0.3-0.1-0.6-0.1-0.9-0.1l-2.6,0.2c-0.2,0.1-0.4,0.1-0.6,0l0,0c-0.4,0.2-0.8,0.1-1.3,0.1h-0.1
		c-0.2,0.1-0.3,0-0.5,0.1l-0.5,0l-2.3,0.2l0,0.1l-0.5,0.1l-0.7,0.1l-0.5,0.1h-0.4l-0.3,0c-1.8,0.2-3.7,0.5-5.5,0.8l0,0l-0.8,0.2
		l-0.5,0.1l-0.7,0l-0.9,0.1l-1,1.1c-0.6,0.9-1.5,1.9-2.3,2.6l-0.4,0.4c0,0.4-0.3,0.6-0.5,1c-0.2,0-0.4,0.2-0.5,0.3l-1.2,1.5
		c-0.1,0.2-0.3,0.3-0.4,0.5c-0.5,0.5-0.8,0.9-1.2,1.4L12.4,35l-0.1,0.3l-0.2,0.3L11.8,36L11.6,36l-0.2,0.2l-0.1,0.3L11,36.7
		l-0.2,0.4l0,0.2l-0.1,0.2l-0.2,0.2L10.3,38c0,0.1,0,0.1,0,0.3c-0.4,1-0.8,1.3-1.5,2l-0.8,0.8L8,41.2H7.9l-0.1,0.1l-0.2,0.2
		l-0.2,0.2l-0.2,0l-0.1-0.1l-0.1-0.2l0-0.2h0v-0.1l0-0.2l0-0.1l0-0.1l0-0.2l0.1-0.2v-0.1l0.1-0.1l0-0.1l-0.1,0l0,0l0,0l0.1-0.1
		l0-0.1l0-0.3l0.1-0.3v-0.1l0.1-0.1L7.8,39L7.7,39v0l0.1,0l0.2-0.2H8l0.1,0l0.1-0.1l0.1,0l0.1-0.1l0.3-0.3l0.2-0.4L9,37.7v-0.1l0,0
		l0,0h0l0.1-0.2l0.2-0.3L9.4,37l0.2-0.2l0.3-0.1l0.7-1l0.3-0.2l0.8-1l0.2-0.2L12,34l0-0.2l0.3-0.3l0.3-0.2l0.4-0.3l0.2-0.3l0.3-0.2
		l0.3-0.3l0.1-0.1l0.3-0.4l0.3-0.3l0.3-0.3c0.2-0.2,0.3-0.4,0.5-0.6l0.3-0.4l0.1-0.2l0.1-0.1l0.1-0.2l0.3-0.2l0.4-0.5l0.1-0.1
		l0.8-0.9l0.2-0.3l0.2-0.1l0.4-0.5l0.2-0.3l0.2-0.1l0.4-0.6l0,0l-1.8,0.3l-0.2,0.1l-0.6,0.1l-0.7,0.1l-1.2,0.2l-0.9,0.3
		c-0.6,0.2-1.2,0.2-1.7,0.4c-1.1,0-2.1,0.5-3.2,0.8l-0.2-0.1c-0.5,0.5-1,0.9-1.7,0.9h0c-0.1,0.2-0.2,0.5-0.3,0.8
		c-0.3,0.4-0.9,0.5-1.3,0.3l-0.2-0.2l0.1-0.2v-0.1c-0.3,0.2-0.7,0.3-1.1,0.1c0,0.1-0.2,0.1-0.3,0l-0.1-0.4c0-0.1,0-0.1,0.1-0.2
		c0.2-0.3,0.5-0.5,0.9-0.7l0.6-0.2L5.7,28l0.2,0.1c1-0.4,2.1-0.7,3.3-1l0.1-0.1l0.4-0.2l0.2-0.1l0.4,0l0.3-0.1l0.1-0.1h0.1
		c0.7-0.2,1.4-0.3,2.2-0.4l0.2-0.1l0.6-0.2l0.4-0.2l0.2,0h0.8l0.3,0c1.6-0.2,3.1-0.4,4.2-0.6l0.2-0.2l0.2-0.1l0.2-0.3l0.3-0.4
		l0.6-0.6l0.8-0.9l0.7-0.6l0.1-0.2l0.8-0.6l0.4-0.4v0l0.5-0.7l0.7-0.6l0.2-0.2l0.8-0.5l0.2-0.2l0.4-0.2l0.8-0.7l0.1-0.1l0.2-0.3
		l0.4-0.2l0,0l0.3-0.4l0.2-0.1l0.3-0.2l0.2-0.2l1-0.9l0.5-0.5l0.3-0.2c0.3-0.2,0.6-0.5,0.8-0.7l0-0.1l0.2-0.1l0.1-0.2l0.2-0.2
		l0.1-0.1l0.3-0.1l0.1-0.1l0.3-0.2l0.8-0.7l0.1-0.1l0.1-0.1l0.1-0.2l0.1-0.1l0.1-0.1l0.1,0l0.1-0.1c0.3-0.2,0.6-0.4,0.9-0.7l0.1-0.1
		l0.3-0.2l0.3-0.3l0.4-0.3l0.5-0.4l0.1-0.1l0.2-0.2l0.1-0.1l0.2-0.2l0.1-0.2l0.1-0.1H38l0.2-0.1h0L39,8.6l0.2-0.2l0.2-0.1l0.3-0.2
		l0.3-0.2l0.2-0.1l0.2-0.2l0.4-0.2h0l0.7-0.5l0.1-0.1l0.1-0.1l0.1,0l0,0h0c0.2-0.2,0.4-0.3,0.6-0.4l0.2-0.2L42.7,6l0.2-0.2l0.3-0.1
		l0.2-0.2l0.2-0.1l0.2-0.1c0.3-0.2,0.6-0.3,0.9-0.5l0.3-0.1l0.5-0.2l0.2-0.1l0.1,0l0,0l0.4-0.2l0.2-0.2L46.9,4l0.2,0l0.1,0h0.2
		l0.1-0.1h0.4L48,3.7l0.2,0.1h0.1l0.2-0.1l0.1,0l0,0.1c0.2,0,0.5,0,0.7,0.1L49.4,4.1L49.4,4.1z M33.1,14.2c-0.2,0.2-0.3,0.3-0.5,0.4
		h-0.1c-0.2,0.3-0.5,0.4-0.6,0.7l-0.5,0.4l-0.2,0.1L31,16l-0.1,0c-0.8,0.6-1.5,1.3-2.3,1.8c-0.2,0.3-0.5,0.5-0.8,0.8
		c-0.1,0.2-0.1,0.3-0.2,0.4h-0.2c-0.4,0.6-1.1,1-1.6,1.7L25,21.3h-0.1c-0.2,0.3-0.5,0.4-0.6,0.7c-0.6,0.4-1.2,1-1.7,1.5
		C22,24,21.4,24.5,21,25.1l1.4-0.2l0.1,0l0.6-0.2l0.8,0l0.8-0.2l0.3,0l0.5-0.1l0.6,0l0.2,0c0.5-0.1,1-0.1,1.4-0.2l0.1-0.1l0.4-0.1
		l0.5,0l0.7-0.2l0.3,0l0.4,0l0.2,0l0.2,0l0.1,0l3-0.4l0.5-0.1l0.5-0.2l0.2-0.1l0.3,0h0.4l0.2,0l0.2,0H37l0.4-0.1l0-0.1l0.1,0.1
		l0.2,0.1l0.6-0.1l0.2,0l0.1,0.1c0.3,0,0.6,0,0.9-0.1l0.2-0.1h0.1l0.1,0.1l0.7-0.1l0.1,0h0.3l0.3,0l0.2,0l0.1-0.2l0.2-0.3l0.1-0.1
		l0.2-0.4l0.2-0.4l0.1-0.1v-0.1l0.1-0.1l0.2-0.6l0.2-0.3l0.1-0.2l0-0.2l0.2-0.3l0.1-0.2l0.1-0.1l0.1,0V19l0.2-0.2v-0.2l0.2-0.3
		l0.7-1.5l0.5-0.9l0.1-0.2l0.5-0.9v-0.2l0.1-0.1l0-0.1l0.1-0.2l0.2-0.2l0.3-0.5l0.1-0.1l0.6-1.4v-0.1l0.1-0.1l0.3-0.8
		c0.2-0.4,0.3-0.8,0.4-1.2l0.3-0.8c0.2-0.3,0.2-0.8,0.5-1.2c-0.1-0.2,0-0.4,0-0.6c0.2-0.3,0.2-0.6,0.5-0.9L49,6.4l-0.1-0.2l0-0.2
		l0.1-0.2V5.6l0.1-0.2l-0.1-0.2V4.8l-0.1-0.2c-0.2-0.1-0.3-0.2-0.5-0.2l-0.7,0.2l-1,0.4l-0.2,0.1L46,5.3l-0.5,0.1l-0.4,0.1l-0.2,0.1
		h0L44.1,6l0,0l-0.2,0.1l-0.8,0.5L43,6.7l-0.3,0.1l-0.2,0.1h-0.1l-0.7,0.5l-0.2,0.1l-0.2,0.2l-0.2,0.1l-1.7,1.1l-0.2,0.2l-0.2,0.1
		l-0.6,0.5l-0.1,0.1l-0.1,0l-0.4,0.2l-0.3,0.2L36.6,11l-0.2,0.2l-0.2,0.1l-0.2,0.1L36,11.6L36,11.7l-0.2,0.2L35.5,12
		c-0.1,0.2-0.2,0.4-0.5,0.3l-0.9,0.9l-0.4,0.2l-0.2,0.3L33.4,14L33.1,14.2L33.1,14.2z"/>
	<path d="M53.4,26l-0.7,0.7l0,0l-0.4,0.5l-0.4,0.4l-0.2,0.1l-0.7,0.7l-0.2,0.3L50.5,29l-0.2,0.2l-0.4,0.6l0,0.1L49.6,30
		c0,0,0,0,0,0.1l-0.1,0.2l-0.1,0.2l-0.1,0c0,0,0,0,0,0.1l0,0.1L49,30.7L49,30.8h0l-0.1,0.1l0,0.1L48.8,31v0.1l0,0h-0.1v0.3l-0.1,0.3
		l-0.1,0.1l-0.2,0.3l-0.3,0.2l-0.2,0l-0.1-0.1l0,0.1l-0.4-0.1L47.4,32l0-0.2l0-0.2l0-0.1v0c0,0,0-0.1,0-0.1l0-0.3l0-0.1V31l0.1-0.3
		l0.2-0.3l0.2-0.5l0.1-0.1v-0.1l0.6-0.9l0.1-0.2l0.1-0.1l0.1-0.1l0.1-0.1l0.3-0.6l0-0.2l0.1-0.4l0.3-0.3l0.1,0l1.2-2l0.2-0.4v-0.2
		l0.1-0.1l0.1-0.2l0.1-0.2h0.1v-0.2l0.3-0.4l0.1-0.1l0.2-0.3l1-1.5l0,0l0.2-0.3c0.5-0.7,0.8-1.2,1.4-2.1l0.1-0.2l0.6-1l0.2-0.3
		l0.2-0.4l0.4-0.4l0.1-0.3l0.3-0.3l0.2-0.3l0.7-1l0.1-0.3l0.4-0.7l0.1-0.3l0.6-0.8l0.2-0.5l0.8-1.3l0.8-1.3L60.9,9l0.3-0.4l0.7-1.1
		l0.4-0.7l0.2-0.6l0.1-0.4V5.7l0.1-0.2V5.3l0.1-0.6V4.2L62.9,4l0.2-0.6l0.5-0.4H64l0,0l0.1-0.2v0c0.1-0.1,0.3-0.1,0.3,0.1l-0.1,0.3
		v0.2l0.1-0.1v0.1h-0.1l-0.1,0.1l-0.1,0.2l-0.1,0.3L64,4.7l-0.2,0.9L63.5,6l-0.1,0.1l-0.3,0.4L63,6.8l-0.1,0.1l-0.1,0.2l-0.1,0.3
		c0,0.1-0.1,0.1-0.1,0.2v0.1h0l0,0.1h-0.1l0,0l0,0.1l0,0.2l-0.2,0.3l-0.1,0.5l-0.2,0.2L62,9.1l-0.2,0.2l-0.1,0.2l-0.1,0.2l0.1,0
		l0,0.1l-0.1,0.1h-0.1v0l0-0.1l-0.1,0.1L61.5,10l0,0.1l-0.1,0l-0.3,0.5L61,10.7L60.8,11l-0.1,0.2l-0.4,0.5l0,0.1l-0.5,0.7l-0.6,0.9
		L59,13.9l-0.3,0.5l-0.1,0.1c-0.2,0.2-0.4,0.5-0.5,0.8l0,0.1l-0.2,0.2l-0.1,0.1l-0.6,0.8l-0.1,0.2l0,0l-0.1,0c0,0-0.1,0.1-0.1,0.1
		l-0.3,0.5l-0.2,0.2l-0.3,0.4l-0.1,0.1l-0.1,0.2l-0.1,0.1L56,18.3l-0.1,0.2l0,0.1l-0.1,0.2l-0.1,0l-0.2,0.3L55,20l-0.7,0.7l-1.4,2.1
		L52.7,23l-0.1,0.2l-0.1,0.3l-0.1,0.2L52.4,24l-0.9,0.8l-0.2,0.3l-0.9,1.7l-0.3,0.6l-0.2,0.5l-0.2,0.2l-0.1,0.3l-0.3,0.4v0.2
		L49.3,29l-0.1,0.4l0.4-0.5l0.1-0.1l0.3-0.4l0.3-0.3l0.1-0.2l0.1-0.1l0.2-0.2l0.1-0.2l0.6-0.4l0.5-0.4l0.6-0.6l0.1-0.2l0.1-0.3
		l0.1-0.1l0.3,0l0.1-0.1l0.6-0.7l0.2-0.2l0.3-0.2l0.4-0.3l0.3-0.2l0.2-0.2l0.3-0.2l0.1-0.1l0.2-0.1l0.3-0.2h0l0.8-0.5v0l0.3-0.2
		l0.2-0.2l0.2-0.2l0.3-0.2l0.1-0.1l0-0.2l0.1,0l0.2,0l0.2-0.1l0.6-0.1h0.1l0.2-0.1l0-0.1l1-0.4l0.2-0.1H61c0.3-0.1,0.6-0.2,1-0.2
		l0.1,0h0.7l0.1,0.1c0.4,0.1,0.7,0.2,1.1,0.5c0.1,0.1,0.1,0.2,0.1,0.3L64,21.9l0,0.2l-0.2,0.5L63.7,23l-0.2,0.3l-0.2,0.2l-0.4,0.5
		l0,0.1l-0.1,0.2l-0.2,0.2l-0.1,0.1c-0.5,0.5-1,1-1.6,1.5l-0.1,0.1l-0.1,0.1l-1.1,0.9l-0.4,0.4l-0.2,0l-0.4,0.3l-0.1,0.1l-0.3,0.2
		l-0.3,0.1l-0.3,0.2l-0.2,0.1l-0.2,0.1l-0.3,0.2L56.7,29l-0.1,0c-0.6,0.3-1.2,0.6-1.8,0.8c0,0-0.1,0-0.1,0h0L54.5,30h-0.1l-0.2,0.1
		l-0.1,0.1l-0.2,0l-0.2,0l-0.3,0l-0.3,0.1L53,30.5l-0.3,0.1l-0.3,0.1L52,30.7l-0.3,0.1l0-0.1h-0.2l-0.2,0L51,30.7l-0.1,0l-0.1-0.1h0
		l-0.2-0.1h0l-0.1-0.1l-0.1-0.1l-0.1-0.2l0.1-0.1l0.2-0.1l0.4-0.1l0.2-0.1h0.1l0.1,0l0.1,0.1l0.1,0.1l0.2,0.1l0.2,0.1h0.1l0.1,0h0.1
		c0.1,0,0.2,0,0.3,0l0.1,0H53c0,0,0.1,0,0.1,0l0.4-0.1l0.6-0.1l0.1,0h0l0.1,0c0.1,0,0.2-0.1,0.3-0.1l0.1-0.1l0.3-0.1l0.3-0.2
		l0.2-0.1l0.4-0.2l0.3-0.2l0.1-0.1l0.1-0.1l0.2-0.1l0.2-0.2l0.1-0.1h0.2l0.1-0.1l0.2-0.1l0.1-0.1l0.2,0l0.1-0.1l0.7-0.6l0.2-0.1
		L59,27l0.4-0.3l0,0c0.4-0.3,0.8-0.7,1.1-1c0.1-0.1,0.6-0.5,1-1l0.1-0.2l0.2-0.2l0.1-0.2l0.1-0.1l0.3-0.2c0.2-0.3,0.5-0.5,0.6-0.8v0
		l0.1-0.2l0.1-0.1v-0.1l0.1-0.2l0.1-0.2l0-0.2L63.3,22l-0.1-0.1l-0.1-0.1v-0.1l0-0.1l0-0.2l-0.4-0.3l-0.2-0.1l-0.1,0l-0.1-0.1h-0.2
		c-0.4,0.1-0.9,0.2-1.4,0.3l-0.2,0.1l-0.8,0.3L59.6,22l-0.1,0h-0.1l-0.7,0.3l-0.1,0.1l-0.1,0c0,0-0.1,0-0.1,0l-0.5,0.3l-1.1,0.7
		l-0.6,0.4L56,24.1l-0.2,0.2l-0.3,0.1l-0.4,0.3L54.6,25l0,0c-0.2,0.1-0.4,0.3-0.5,0.4l-0.3,0.3L53.4,26z M55.9,18.5l0.1-0.2
		L55.9,18.5z"/>
	<path d="M73.5,25.3l-0.1,0.2c0,0.1,0,0.2,0,0.2l-0.2,0.3L73,26.5l-0.3,0.2l-0.3,0.3l-0.1,0.2l-0.2,0.2l-0.2,0.2l-0.1,0
		c-0.5,0.5-1.2,0.9-1.8,1.3v0.1h-0.1L69.5,29v0l-0.1,0.1h-0.1c0,0,0,0-0.1,0v0.1h-0.1l-0.2,0.2h0l-0.2,0.2l-0.2,0.1l-0.1,0.2
		L68.2,30l-0.1,0l-0.3,0l-0.1,0.1l-0.2,0h-0.1c-0.5,0.2-0.9,0.4-1.4,0.5l-0.1,0.1l-0.1,0l-0.1,0.2l-0.1,0l-0.2-0.1h-0.2l-0.6,0
		L64,30.8v0c0,0-0.1,0-0.1,0c-0.2,0-0.3-0.1-0.5-0.1c-0.1-0.1-0.8-0.4-0.8-0.6v-0.3l-0.1,0l0-0.2l0.2-0.6l0.2-0.5l0.1-0.2l0.4-0.4
		l0.2-0.2l0.1-0.1l0.5-0.4l0.5-0.5l0.1-0.2l0.1-0.1l0.7-0.5l0.2-0.2l0.2,0l0.1-0.1l0.2-0.2l0.1-0.1l0,0.1l0.7-0.6l0.2-0.2l0.1,0
		l0.3-0.2l0.2-0.2l0.3-0.2l0.4-0.2l0.4-0.3l0.2-0.1l0.3-0.2c0.3-0.2,0.6-0.4,0.9-0.6l-0.4-0.1c-0.2,0-0.4,0.1-0.6,0.1l-0.1,0l0,0
		l-0.1,0h-0.4c-0.3,0-0.6,0.1-1,0.1h0l-0.7,0L66.6,23l-0.2-0.1l-0.1-0.2l0-0.2l0.2-0.4l0.2-0.1l0.3-0.1l0.3,0l0.2,0.1l0.5,0.1
		c0.5,0,1,0,1.5,0.1l0.3-0.1l0.5,0l0.6-0.1l0.1,0l0.5-0.1c0.1,0,0.2-0.1,0.3-0.2l0.3-0.2l0.2-0.1l0.1,0l0.2-0.1l0.2,0l0.3,0
		c0.2,0,0.4-0.1,0.6,0l0.2,0l0.1,0.1c0.1,0,0.2,0.1,0.3,0.2l0.9-0.1l0,0l0.4-0.1l0.5,0l0.5-0.2l0.2,0l0.3,0h0.6l0.2,0l0.4,0h0
		c0.1,0,0.3,0,0.4,0c0.2,0,0.3,0,0.5,0l0.1,0l0.1,0h0.1l0.1,0.1h0.2l0.2-0.1h0.2l0.3,0h0.1l0.2,0l0.2,0.1h0.1l0.1,0l0.2,0l0.1,0
		c0.4,0.1,0.7,0.1,0.9,0.2l0.1,0.1h0.1l0.1,0.1c0.2,0.1,0.3,0.2,0.5,0.3h0.1l0.1,0.1l0.2,0.1l0.1,0.2l0.1,0.2v0.1l-0.2,0.2l-0.1,0.2
		l-0.3,0.5l-0.1,0.2v0c0,0-0.1,0.1-0.1,0.1L83,23.9L82.9,24v-0.2l0.1-0.1v-0.1c0-0.1,0.1-0.3,0.2-0.4l0.1-0.2l0.2-0.6
		c0,0,0-0.1,0-0.1l-0.1-0.2L83,22.1l-0.2-0.2l-0.5-0.1c-0.7-0.2-1.5-0.2-2-0.2h-0.5l-0.4,0c-0.3,0-0.5,0.1-0.8,0.1
		c-1.4,0.1-2.3,0.2-3.2,0.3l-0.1,0L75,22.1l-0.2,0.1l-0.5,0c-0.5,0.1-1,0.2-1.5,0.2l-0.2,0.1h-0.2l-0.6,0.1l-0.2,0.1
		c0.3,0.1,0.6,0.2,0.8,0.3h0.1l0.1,0.1l0.1,0l0.1,0.1l0.2,0.2l0.4,0.4l0.1,0.2l0.2,0.4l0,0.6C73.6,25,73.6,25.2,73.5,25.3z
		 M72.8,25.1v-0.2l0.1-0.3l0-0.4v0l-0.2-0.3l-0.2-0.2l-0.2-0.2l-0.2-0.2l-0.2-0.1l-0.3-0.1l-0.2-0.2L71.2,23c0,0-0.1,0-0.1,0
		c-0.4,0.2-0.8,0.6-1.3,0.9l-0.3,0.2l-0.2,0.2l-1.1,0.6l-0.3,0.2l-0.2,0.1l-0.6,0.4l0,0l-0.2,0.1l-0.5,0.2l-0.4,0.2l-0.3,0.2
		l-0.2,0.1L65.1,27l0,0l-0.3,0.4l-0.3,0.4L64.3,28c0,0,0,0-0.1,0c-0.2,0.2-0.4,0.5-0.5,0.8v0.1l0,0.1l-0.1,0.2v0.2l0,0.1l0,0.1
		c0,0.2,0.1,0.5,0.2,0.6h0.1l0.2,0.1c0.1,0,0.1,0,0.2,0c1,0.1,1.2,0,2.2-0.4c0.4-0.1,0.9-0.3,1.3-0.5l0-0.1H68l0.4-0.2l0.2-0.2
		l0.5-0.3l0.1,0h0.1l1-0.6l0.1-0.1l0.1,0c0.2-0.2,0.5-0.4,0.7-0.6l0.1-0.1l0.1-0.1l0.2-0.2l0.2-0.2l0.1-0.2l0.1,0l0.1-0.1l0.1-0.1
		l0.1-0.1h0.1C72.4,25.7,72.6,25.4,72.8,25.1z M74,21.8c-0.2-0.1-0.6,0-0.9,0.2L74,21.8z"/>
	<path d="M91.1,29.3c0-0.1,0-0.2,0.1-0.4v-0.1l0-0.1l0.2-0.3l0-0.1l0.1-0.1c0,0,0.1-0.1,0.1-0.1l0-0.1c0.2-0.4,0.4-0.7,0.6-1.1
		l0.1-0.2l0.1-0.1l0.2-0.3l0-0.1l0.2-0.3l0-0.2l0.1-0.2v-0.2l-0.1-0.1l-0.1-0.2l-0.1,0.1h-0.1l-0.4,0.2l-0.6,0.2l-0.1,0.1l-0.2,0.1
		l-0.3,0.2l-0.8,0.4l-0.6,0.3l-0.2,0.1l-1.8,1l-0.2,0.2h-0.1l-0.1,0.1l-0.9,0.5L86,28.7L86,28.7l-1.2,0.7l-0.1,0.1l-0.1,0l-0.1,0.2
		l-0.1,0v0l-0.3,0.1l-0.1,0.1H84l-0.2,0.1l-0.1,0l0,0l-0.1,0l-0.1,0l-0.1,0.1l-0.2,0.2l-0.1,0l-0.2,0.1l-0.2,0.1l-0.1,0.1l-0.2,0.1
		l-0.5,0.1L81.7,31v0l-0.1,0.1l0,0h0l-0.2,0.1h-0.1l0,0.1l0,0l0,0l0,0h-0.1l-0.9-0.1v0h-0.2l-0.2-0.1l-0.3-0.2c-0.1,0-0.1,0-0.2,0v0
		l0,0l-0.1-0.2c0-0.2,0-0.3,0-0.4V30l0.1-0.6l0.1-0.2l0.1-0.2l0.1-0.2l0-0.1l0.2-0.2l0.1-0.1l0.2-0.2l0.4-0.6l0.1-0.2l0.2-0.2
		l0.2-0.2l0.1-0.3l0.2-0.3l0.1-0.2l0.2-0.2l0-0.1l0.1-0.1l0.2-0.2v-0.1h0l0.2-0.2l0.4-0.5l0.1-0.2l0.1-0.1l0-0.1l0.1-0.3v-0.3
		l0.1-0.2l-0.1-0.2v-0.1l0.1-0.2l0.2-0.2l0.3-0.4l0.3-0.2h0.2l0.2,0.1v0c0,0,0,0,0,0c0.1,0.1,0.1,0.3,0.1,0.4l0,0l0.1,0.5l-0.1,0.4
		l-0.2,0.2l-0.3,0.3L83.4,25l-0.2,0.2l-0.1,0.1l-0.2,0.2l-0.2,0.2l-0.1,0.1l0,0.1L82.4,26l-0.2,0.2l0,0.1h0l-0.1,0l-0.6,0.8
		l-0.1,0.1l-0.1,0.2l-0.1,0.1c-0.2,0.2-0.3,0.4-0.4,0.6l-0.3,0.4c-0.1,0.1-0.1,0.2-0.2,0.3l-0.1,0.2l0,0.2l-0.1,0.3l-0.2,0.2l0,0.2
		l0,0c0,0.1,0,0.2,0,0.2c0.2,0.2,1,0.1,1.7-0.2l0.2-0.2l0.3,0l0.5-0.2l0.2-0.1l0.2-0.1c0.4-0.2,0.8-0.4,1.3-0.6l0.2-0.2l0.2-0.1
		l0.3-0.1l0.2-0.1l0.2-0.2l0.8-0.3c0,0,0.1-0.1,0.1-0.1l0.1-0.1l0.2-0.1l0.7-0.4l0,0l0.1-0.2l0.1,0l0.1-0.1l0.2-0.1l0.1-0.1l0.4-0.1
		l0.9-0.6l0.3-0.2l0.4-0.2l0.4-0.4l0.2-0.1l0.3-0.2l0.4-0.2l0.2-0.1l0.2-0.2l0.7-0.3l0.1-0.1l0.3-0.2l0.2-0.2l0-0.1l0.1,0L93,24
		c0.2-0.1,0.3-0.2,0.5-0.2l0,0l0.3-0.1l0.1,0c0.1,0,0.2,0.1,0.2,0.2l0.1,0l0.2,0.1l0.2,0.1V24l-0.1,0.1h0.1v0.1l-0.1,0v0.1l-0.1,0.1
		l-0.1,0.2l-0.2,0.3L93.9,25v0.2l-0.3,0.4l-0.1,0.2l-0.1,0.2l-0.2,0.2l-0.1,0.1l-0.1,0.3L93,26.7l-0.2,0.2l0,0.1l-0.2,0.4l0,0.1
		l-0.1,0.3l0,0.2l-0.2,0.3l-0.1,0.1c-0.2,0.4-0.2,0.7-0.1,0.8c0.2,0.2,0.3,0.2,0.6,0.3l0.3,0h0.2l0.2,0h0.2c0.3,0,0.7-0.1,1.1-0.1
		l0,0h0.2l0.4-0.1l0.2,0l0.7-0.1l0,0h0l0.2-0.1l0.4,0l0.3,0h0c0,0,0.1,0,0.1,0h0l0.2,0l0.2,0.1l0.1,0.1l-0.1,0.1l-0.1,0l-0.1,0
		l-0.6,0l-0.1,0.1l-0.1,0.1l-0.1-0.1l-0.4,0.1l-1,0.3l-0.3,0l-0.2,0l-0.4,0.1l-0.3,0l-0.2,0h-0.1c0,0-0.1,0-0.1,0h-0.1l-0.4,0.1
		l-0.5,0.1h-0.2c-0.4,0-0.7,0.1-0.9,0.1l-0.1,0l-0.1,0c-0.1,0-0.1,0-0.1,0h-0.1l-0.1-0.1l0-0.1v-0.1l0,0v0c-0.1-0.1-0.1-0.3,0-0.4
		L91.1,29.3L91.1,29.3z"/>
	<path d="M109.5,12.4h0.5l0.2-0.2l0.8-1.1l0.1-0.1l0.4-0.5l0.2-0.2l0.2-0.3l0.1-0.1l0.3-0.5V9.5l0.1-0.1l0.1-0.1l0.1-0.1l-0.1,0.1h0
		V9.1l0.1-0.1l0.1,0v0.1l0.1-0.2l0.2-0.2l0.2-0.2l0-0.1l0.1-0.2l0.4-0.3l0.2-0.3l0.1-0.1l0.1,0l0-0.1v0l0,0v0l0.2-0.4l0.2-0.2l0.4,0
		l0.2,0.4l0,0.4L114.8,8l-0.3,0.3l-0.2,0.3l-0.2,0.2l0,0.2l-1,0.9l-0.3,0.2l-1.2,1.3l-0.7,0.8l0.4,0l0.1-0.1h0.1l0.1,0.1l0.8-0.1
		v-0.1h2.1l0.9-0.1h0.9l0.1,0.1h0.2v0.1l0.8,0.1l0.3-0.1l0.4,0.1l0.5-0.1h0.2l0.3,0l0.4,0.1l0.2,0l0.2,0l0.8,0.2h0.1l0.2,0.1h0.4
		l0.2,0.1l0.7,0.1l0.1,0l0.2,0.2c0.1,0,0.2,0.1,0.4,0.1l0,0l0,0l0.8,0.3l0.1,0l0,0.1h0v0l0.5,0.2h0.1l0.1,0.1c0,0,0.1,0.1,0.1,0.1
		l0.2,0l0.4,0.2l0.1,0.2l0.3,0.2h0.1l0.1,0.1l0,0.1c0.2,0.1,0.3,0.3,0.5,0.4c0,0,0,0,0,0.1l0.1,0l0.2,0.3v0l0.1,0.1l0.2,0.1l0.1,0.1
		l0,0.2l0.1,0.2l0.2,0.6l0,0.2c0,0,0,0.1,0.1,0.1c0,0.1,0,0.2,0,0.2l0,0l-0.1,0.2l-0.2-0.2l0-0.1c0-0.1,0-0.1,0-0.2l-0.2-0.4
		l-0.2-0.6l-0.1-0.1l0,0l-0.2-0.3l-0.2-0.2c0,0,0,0,0-0.1l-0.3-0.3l-0.1-0.1l-0.4-0.3l0,0c-0.1,0-0.2-0.1-0.2-0.1l-0.1,0l-0.1,0
		l-0.2-0.2l-0.2-0.1l-0.2-0.1l-0.1-0.1l0,0H124l-0.1-0.1l-0.5-0.2l-0.6-0.1l-0.2-0.1l-0.4-0.2l-0.5-0.1c-0.5-0.1-1-0.2-1.5-0.3
		l-0.1,0l-0.5-0.1l-0.2,0h-0.3l-0.2,0l-0.6-0.1l-0.3,0l-0.2,0l-0.1,0l-0.4-0.1c-0.2,0-0.5,0-0.7,0l-0.1,0l-0.1,0c-0.2,0-0.3,0-0.5,0
		c-1,0-2,0-3,0l-0.2,0l-0.2,0.1V13h-0.1l-0.3,0.2H112v0.1h-0.1l-0.5,0.2h-1.5c-0.2,0.2-0.4,0.5-0.6,0.7l-0.1,0.2l-0.2,0.2
		c-0.2,0.2-0.4,0.4-0.5,0.6l0,0.1l-0.4,0.5l-0.5,0.7l-0.3,0.3l-0.5,0.6l-0.1,0.1l-1,1.3l-0.2,0.3l-0.6,0.8l-0.1,0.2l-0.2,0.2
		l-0.2,0.3l-0.2,0.4l-0.1,0.2l-0.2,0.2l-0.2,0.2l-0.2,0.2l0,0l-0.1,0.1l-0.1,0.2l-0.5,0.6l-0.1,0.4l-1.4,2l-0.5,0.6l-0.6,0.7
		l-0.2,0.2l-0.3,0.3l-0.2,0.3l-0.1,0.2l-0.3,0.4l-0.2,0.6l-0.2,0.3l-0.4,0.6l-0.2,0.6V30l0,0.2l-0.2,0.4l0,0.4l-0.1,0.3l-0.1,0.2
		l0.1,0.1l0.2,0.1l0.2,0l0.6-0.1l0.2-0.1l0.1-0.1l0.5-0.1l0.3-0.1l0.2-0.1l0.2-0.1l0.2,0l0.3-0.1l0.2-0.1h0.1l0.1,0l0.8-0.4l0.6-0.2
		v0h0.1l0.1-0.2h0.1l0.2-0.1h0.1l0.1-0.1h0.1l0.9-0.4l0.3-0.2l0.1,0l1.4-0.7l0.3-0.2l0.2-0.1l0.4-0.2l0.5-0.2h0l0.2-0.2l0.3-0.2
		l0.4-0.1l0.4-0.2l0.8-0.4v0h0l0.2-0.1l0.1-0.1l0.4-0.2h0.1v-0.1l0.2,0l0.2-0.1l0.1-0.1l0.2,0l0.1,0.2l0,0.1l0,0.1l-0.1,0.1l-0.2,0
		l-0.1,0.1l-0.8,0.6l-0.2,0.1l-0.3,0.2l-0.5,0.2l-0.3,0.2l-0.3,0.1l-0.4,0.2l-0.2,0.1l-0.1,0.1l-0.3,0.2l-0.4,0.2l-0.5,0.2l-0.2,0.1
		l-0.3,0.2l-0.3,0.1l-0.3,0.1l-0.1,0l-0.2,0.2l-0.2,0.1l-0.2,0l-0.3,0.2l-0.1,0.1l-0.2,0l-0.2,0l-0.2,0.1l-0.6,0.3l-0.3,0.2
		l-0.4,0.2h-0.1l-0.4,0.2l-0.4,0.3l-0.3,0.2l-0.2,0h0l0,0.1l0,0.1l-0.1,0h-0.2l0.1-0.1l-0.1,0l-0.3,0.2l-0.1,0.1L99,32.1l-1.1,0.3
		l-0.4,0l-0.1,0l-0.2-0.1l-0.1,0l-0.2-0.1l-0.1-0.2l-0.1-0.3c0-0.1,0-0.4,0-0.5c0-0.2,0.1-0.6,0.3-0.9v-0.1l0.1-0.2l0.1-0.2l0.1-0.1
		v-0.2l0.1-0.1l0.2-0.2l0.1-0.1l0.2-0.2l0.3-0.6l0.1-0.1l0.1-0.2l0.1-0.2l0.1-0.1l0.2-0.2l0.2-0.3l0.1-0.2l0.1-0.2l0.2-0.1l0-0.1
		l0.2-0.2l0.3-0.2l0.2-0.2l0-0.1l0.1-0.2l0.2-0.1l0.4-0.6l0-0.1l0.1-0.1c0.1-0.2,0.2-0.3,0.4-0.5l0.2-0.3l0.2-0.3l0.2-0.3l0.2-0.2
		l0.1-0.1l0.1-0.1l0.1-0.2l0,0c0.1-0.1,0.2-0.2,0.2-0.2l0-0.1l0.1-0.1l0.1-0.1l0.1-0.1v-0.1l0.1-0.1v-0.2l0.5-0.6l0.1-0.1
		c0,0,0,0,0,0l0-0.2l0.3-0.4l0.1-0.1l0.1-0.2l0.2-0.2l1.1-1.6l0.2-0.1l0.5-0.6l0.1-0.1c0.1-0.1,0.2-0.3,0.4-0.5l0,0l0.1-0.1h0
		l0.5-0.6v-0.2l0.5-0.6l0.1-0.1l0.2-0.2l0-0.1l0.7-1l0.2-0.1l0.2-0.2v0l0.1-0.1V14l0.1-0.1l0.1,0l0.1-0.1v0l0.1-0.1l0-0.1l0.3-0.4
		h-0.1l-0.2,0.1l-0.6,0.1l-0.4,0.1l-0.9,0.1l-1,0.1l-0.2,0l-0.3,0l-0.8,0.1l-0.2,0.1l-1.6,0.5l-0.3,0.2l-0.1,0.1l-0.4,0.1l-0.4,0
		l-0.6,0.4l-0.2,0.1l-0.6,0.1l-0.7-0.2l-0.2-0.3l0-0.3l0.1-0.2h0c0-0.1,0-0.1,0.1-0.2h0.1l0-0.1v-0.1l0.1,0.1
		c0.5-0.2,1.1-0.4,1.9-0.6l0.5-0.2l0.5,0l0.2,0.1l1.3-0.2l0.1,0h0l0.8-0.1l0,0h0.1l0.6-0.1l0.1,0h0.2l0,0h0.2l0.8-0.2l0.1,0l0.2-0.1
		h0.2l0.5-0.1l0.1,0l0.2,0c0.2,0,0.3-0.1,0.5-0.1l0,0h0.1h0.3L109.5,12.4z"/>
	<path d="M133.9,29.3c0-0.1,0-0.2,0.1-0.4v-0.1l0-0.1l0.2-0.3l0-0.1l0.1-0.1c0,0,0.1-0.1,0.1-0.1l0-0.1c0.2-0.4,0.4-0.7,0.6-1.1
		l0.1-0.2l0.1-0.1l0.2-0.3l0-0.1l0.2-0.3l0-0.2l0.1-0.2v-0.2l-0.1-0.1l-0.1-0.2l-0.1,0.1h-0.1l-0.4,0.2l-0.6,0.2l-0.1,0.1l-0.2,0.1
		l-0.3,0.2l-0.8,0.4l-0.6,0.3l-0.2,0.1l-1.8,1l-0.2,0.2h-0.1l-0.1,0.1l-0.9,0.5l-0.3,0.1l-0.1,0.1l-1.2,0.7l-0.1,0.1l-0.1,0
		l-0.1,0.2l-0.1,0v0l-0.3,0.1l-0.1,0.1h-0.1l-0.2,0.1l-0.1,0l0,0l-0.1,0l-0.1,0l-0.1,0.1l-0.2,0.2l-0.1,0l-0.2,0.1l-0.2,0.1
		l-0.1,0.1l-0.2,0.1l-0.5,0.1l-0.2,0.1v0l-0.1,0.1l0,0h0l-0.2,0.1h-0.1l0,0.1l0,0l0,0l0,0h-0.1l-0.9-0.1v0h-0.2l-0.2-0.1l-0.3-0.2
		c-0.1,0-0.1,0-0.2,0v0l0,0l-0.1-0.2c0-0.2,0-0.3,0-0.4V30l0.1-0.6l0.1-0.2l0.1-0.2l0.1-0.2l0-0.1l0.2-0.2l0.1-0.1l0.2-0.2l0.4-0.6
		l0.1-0.2l0.2-0.2l0.2-0.2l0.1-0.3l0.2-0.3l0.1-0.2l0.2-0.2l0-0.1l0.1-0.1l0.2-0.2v-0.1h0l0.2-0.2l0.4-0.5l0.1-0.2l0.1-0.1l0-0.1
		l0.1-0.3v-0.3l0.1-0.2l-0.1-0.2v-0.1l0.1-0.2l0.2-0.2l0.3-0.4l0.3-0.2h0.2l0.2,0.1v0c0,0,0,0,0,0c0.1,0.1,0.1,0.3,0.1,0.4l0,0
		l0.1,0.5l-0.1,0.4l-0.2,0.2l-0.3,0.3l-0.2,0.6l-0.2,0.2l-0.1,0.1l-0.2,0.2l-0.2,0.2l-0.1,0.1l0,0.1l-0.1,0.2l-0.2,0.2l0,0.1h0
		l-0.1,0l-0.6,0.8l-0.1,0.1l-0.1,0.2l-0.1,0.1c-0.2,0.2-0.3,0.4-0.4,0.6l-0.3,0.4c-0.1,0.1-0.1,0.2-0.2,0.3l-0.1,0.2l0,0.2l-0.1,0.3
		l-0.2,0.2l0,0.2l0,0c0,0.1,0,0.2,0,0.2c0.2,0.2,1,0.1,1.7-0.2l0.2-0.2l0.3,0l0.5-0.2l0.2-0.1l0.2-0.1c0.4-0.2,0.8-0.4,1.3-0.6
		l0.2-0.2l0.2-0.1l0.3-0.1l0.2-0.1l0.2-0.2l0.8-0.3c0,0,0.1-0.1,0.1-0.1l0.1-0.1l0.2-0.1l0.7-0.4l0,0l0.1-0.2l0.1,0l0.1-0.1l0.2-0.1
		l0.1-0.1l0.4-0.1l0.9-0.6l0.3-0.2l0.4-0.2l0.4-0.4l0.2-0.1l0.3-0.2l0.4-0.2l0.2-0.1l0.2-0.2l0.7-0.3l0.1-0.1l0.3-0.2l0.2-0.2l0-0.1
		l0.1,0l0.1,0.1c0.2-0.1,0.3-0.2,0.5-0.2l0,0l0.3-0.1l0.1,0c0.1,0,0.2,0.1,0.2,0.2l0.1,0l0.2,0.1l0.2,0.1V24l-0.1,0.1h0.1v0.1
		l-0.1,0v0.1l-0.1,0.1l-0.1,0.2l-0.2,0.3l-0.2,0.2v0.2l-0.3,0.4l-0.1,0.2l-0.1,0.2l-0.2,0.2l-0.1,0.1l-0.1,0.3l-0.1,0.3l-0.2,0.2
		l0,0.1l-0.2,0.4l0,0.1l-0.1,0.3l0,0.2l-0.2,0.3l-0.1,0.1c-0.2,0.4-0.2,0.7-0.1,0.8c0.2,0.2,0.3,0.2,0.6,0.3l0.3,0h0.2l0.2,0h0.2
		c0.3,0,0.7-0.1,1.1-0.1l0,0h0.2l0.4-0.1l0.2,0l0.7-0.1l0,0h0l0.2-0.1l0.4,0l0.3,0h0c0,0,0.1,0,0.1,0h0l0.2,0l0.2,0.1l0.1,0.1
		l-0.1,0.1l-0.1,0l-0.1,0l-0.6,0l-0.1,0.1l-0.1,0.1l-0.1-0.1l-0.4,0.1l-1,0.3l-0.3,0l-0.2,0l-0.4,0.1l-0.3,0l-0.2,0h-0.1
		c0,0-0.1,0-0.1,0h-0.1l-0.4,0.1l-0.5,0.1h-0.2c-0.4,0-0.7,0.1-0.9,0.1l-0.1,0l-0.1,0c-0.1,0-0.1,0-0.1,0H134l-0.1-0.1l0-0.1v-0.1
		l0,0v0c-0.1-0.1-0.1-0.3,0-0.4L133.9,29.3L133.9,29.3z"/>
	<path d="M155.3,21.9L155.3,21.9l0,0.2l-0.1,0.1l0,0.1l0.1,0.1h0l-0.1,0.4L155,23l-0.2,0.1l-0.3-0.2l-0.5-0.2l-0.2-0.1l-0.1-0.1
		h-0.1l0.1-0.2v-0.2l0.1-0.2l0-0.3v-0.3l-0.1-0.1l0-0.1l-0.2-0.1h-0.2l-0.2-0.1l-0.4,0c-1,0.1-0.6-0.2-1.7,0.2l-0.4,0.2l-0.1,0
		l-0.9,0.2l-0.6,0.3l-0.5,0.2l-0.3,0.2l-0.2,0.1l-0.4,0.1l-0.5,0.2l-0.2,0.1L146,23l-0.5,0.3l0,0.1l-0.5,0.3l-0.2,0.2l-0.1,0.1
		l-0.2,0.1l-0.2,0.2l-0.2,0.3l-0.2,0.2l-0.2,0.2l-0.3,0.2c-0.2,0.2-0.3,0.4-0.3,0.6c-0.1,0.3,0,0.1,0.2,0.3l0.1,0.2l0.2,0.1l0.2,0.2
		l0.1,0.2h0c0.2,0.1,0.4,0.2,0.5,0.3l0.4,0.2v0.1l0.5,0.2l0.3,0.1l0.2,0.1h0l0,0l0.8,0.3h0.3l0.2,0.1l0.2,0.2l0,0l0.1,0.1l0.1,0.1
		l0.6,0.2l0.3,0l0.2,0.1h0.6l0.2,0.1l0.4,0.1l0.6,0.1l0.2,0.1l0.5,0.2l0.2,0.3l0.1,0.3l0,0.1l0,0.1l-0.1,0.2l-0.2,0.2l-0.4,0.2h-0.2
		l-0.2,0.1l-0.4,0.1l-0.1,0l-0.3,0l-0.7,0.2l-1.4,0.1h-0.4l-1.2,0.1h-0.4l-0.4,0l-0.5,0l-0.4,0.1l-0.5,0.1l-0.8-0.2h-0.5l-0.3,0
		l-0.6,0.1h-0.2l-0.4,0.1h-0.2l-0.6,0.2l-0.5,0.2l-0.2,0l-0.3,0l-0.8,0.2l-0.1,0l-0.3,0.1l-0.1,0l0,0h-0.1l-0.1,0.1l-0.1,0l-0.1-0.1
		v-0.1h0l0,0l0,0l0.1-0.1l0.1,0h0l0.1-0.1l0.9-0.2l0.3-0.1l0.1,0l0.4-0.1l0.3-0.1h0.1l0.9-0.4h0.3l0.2-0.1l0.5,0.1l0.3,0l0.2-0.1
		l0.6-0.1l0.5-0.1l0.5,0l0.6-0.1l0.1,0h0.4l0.2-0.1l0.1,0c0.2,0,0.3,0,0.5,0l0.3-0.1l0.7-0.1L147,30l0.9,0l0.1,0l0.2-0.1h0.3
		l0.3-0.2l0.5-0.1l-0.2-0.1l-0.1-0.1l-0.3-0.1l-0.4-0.1l-0.5-0.2l0-0.1l-0.1,0h-0.3l-0.2-0.2l-0.8-0.3l-0.1-0.1l-0.2-0.1l-0.8-0.4h0
		l0,0c-0.6-0.2-1.1-0.4-1.3-0.5h0v0l-0.2-0.1l-0.2,0l-0.4-0.2l-0.1,0l-0.1-0.2h-0.2l-0.3-0.2l-0.4-0.6l0-0.5l0,0.1
		c0-0.1,0.1-0.2,0.2-0.4c0.1-0.1,0.2-0.2,0.2-0.3l0,0l0.4-0.6l0.2-0.2h0.1l0.1-0.2l0.2-0.1l0.2-0.2l0.2-0.1l0.1-0.1l0.3-0.1h0
		l0.1-0.1l0.2-0.1h0l0.6-0.4l0.3-0.2l0.3-0.2l0.1-0.1l0.2-0.2l0.1-0.1l0.1-0.2l0.1-0.1h0.2l0.2,0l0.6-0.2l0.4-0.1l0.2,0l0.1,0
		l0.5-0.2l0.1-0.1c0.5-0.1,0.6-0.2,0.7-0.3l0.2-0.2h0.1l0.3,0l0.2-0.1l0.2,0c0.1,0,0.1,0,0.2,0c0.3-0.1,0.6-0.2,1-0.2l0.2-0.1
		l0.2-0.1l0.1-0.1h0.4l0.2-0.1l0.5,0.1l0.2,0.1h0.1l0,0l0.3,0.1l0.1,0l0.4,0.1l0.3,0.2l0.1,0.1l0.1,0.1c0.1,0.2,0.1,0.3,0.2,0.6h0.1
		L155.3,21.9L155.3,21.9z"/>
</g>
</svg>
