<?xml version="1.0" encoding="utf-8"?>
<!-- Generator: Adobe Illustrator 22.1.0, SVG Export Plug-In . SVG Version: 6.00 Build 0)  -->
<svg version="1.1" id="レイヤー_1" xmlns="http://www.w3.org/2000/svg" xmlns:xlink="http://www.w3.org/1999/xlink" x="0px"
	 y="0px" viewBox="0 0 120 50" style="enable-background:new 0 0 120 50;" xml:space="preserve">
<g>
	<path d="M5.3,39.4L5.3,39.4l0-0.6v-1l0.2-0.3l0.1-0.3c0.1-0.3,0.2-0.6,0.3-1l0.1-1l0.8-1.4l0-0.2L7,33.1l0.1-0.5l0.1-0.2l0.2-0.3
		l0.2-0.3l0.1-0.2l0.1-0.2l0.4-0.6l0.1-0.1v0l0,0c0-0.1,0.1-0.2,0.2-0.3l0-0.2l0-0.1l0.1,0l0.1,0l0.3-0.6l0-0.1l0.1-0.1L9,29.1L9,29
		v-0.2l0.2-0.1l0.6-1l0.2-0.3l0.2-0.2l0.1-0.2l0,0l0.6-1.1l0-0.1l0.5-0.7h0c0,0,0,0,0,0l0.1-0.2l0.3-0.5l0.1,0l0.2-0.2l0,0l0.6-0.9
		l0.6-0.9l0.1-0.2l0.5-0.7l0.2-0.2l0.2-0.4l0.2-0.2l0.4-0.6v-0.1l0,0l0.1-0.1l0-0.1l0.1-0.2l0.1-0.1l-0.1,0h0v-0.1l0.1-0.2l0.1,0
		v0.1l0.1-0.2l0.2-0.2l0.2-0.3l0-0.2l0.2-0.3l0.5-0.3l0.3-0.5l0.2-0.1l0.1-0.1l0.1,0l0-0.1l0.1-0.1v0.1l0.1-0.1h0.1l0.1-0.2l0,0l0,0
		l0-0.2l0.1-0.1l0.1-0.1l0.1-0.2l0.1,0.1l0-0.1l0.4-0.4l0.1,0l1.1-1.2l0.1-0.1l0.2-0.4l0.3-0.2l0.2-0.2l1.2-1.2l0.1-0.2l0.2-0.2
		l0.5-0.5l0.1-0.1l0.3-0.4l0.6-0.6v0l0.2-0.2l0.2-0.4L24,9.9L24.8,9L25.1,9l0.5-0.3h0.2c0,0,0,0,0.1,0l0.7-0.5l0-0.1L26.6,8h0.1
		l0.1-0.1l0.2-0.1L27,7.7h-0.1V7.6L27,7.5h0.2l-0.1,0.2l0.2-0.1l0.3-0.2L28,7.3l0.1-0.1L28.5,7h0.7l0.5-0.2H30l0.1-0.1V6.6l0.1,0.1
		l-0.1,0.1l0.1,0.1L30.4,7v0.1h0.2c0.2,0,0.4,0.1,0.6,0.2l0.1,0.1l0.3,0.2l0,0.1l0.1,0.3l-0.1,0.5l-0.2,0.2l-0.6,0.2l-0.3-0.1
		l-0.2-0.2L30.5,8l0.1-0.2l-0.1-0.1l-0.1-0.1v0L30,8.2l-0.5,0.2l-0.2,0.1L29,8.3L28.6,8l-0.1,0.1l0-0.1l-0.2,0.1l-0.2,0l-0.6,0.2
		L27,8.7L26.8,9l-0.3,0.1l-0.1,0l-0.3,0.1l-0.2,0.1v0.1l-0.1-0.1l-0.1,0.1l-0.1,0c0,0,0,0-0.1,0l-0.2,0.2l-0.2,0.2L24.8,10l-0.2,0.2
		h0l-0.6,0.6L23.8,11l-0.2,0.1l-1,1l-0.3,0.3l-0.1,0.2l-0.2,0.2l0,0.1l-0.4,0.4l-0.1,0.1l-0.1,0.2l-0.6,0.6l-0.1,0.1l-0.1,0.2
		l-0.1,0.1l-0.1,0.2l-0.2,0.2h0l0,0L19.7,15l-0.2,0.2l-0.1,0.2l-0.2,0.2l-0.1,0.1l-0.6,0.9h-0.1l-0.8,1l0,0L17.4,18l-0.3,0.3
		L17,18.5l-0.2,0.1l-0.3,0.4l-0.3,0.4l0,0.1l-0.3,0.4l-0.1,0.2l-0.2,0.2h0l-0.1,0.2l-0.2,0.2l-0.1,0.1l-0.1,0.1l-0.5,0.6l0,0.1h0
		l-0.2,0.2v0.1l-0.8,0.9l-0.1,0.1l-0.4,0.6v0h0c-0.7,1-1.4,2.1-2,3.1v0.2L11,26.7l-0.2,0.2l-0.1,0.2h-0.1v0.1l-0.3,0.6l-0.1,0.1
		l-0.8,1.4l-0.2,0.5l-0.1,0.5l-0.3,0.4l-0.2,0.2l-0.5,0.9c-0.4,1-0.9,1.9-1.2,2.9v0h0c0,0.1,0,0.1,0,0.2c-0.1,0.2-0.2,0.4-0.2,0.6
		v0.3l-0.4,1.1V37l-0.1,0.3l0,0.6l0.1,0.1L6.1,38l-0.2,0.2v0.9l-0.1,0.1c0.1,0.7,0.2,1.5,0.8,2.2l0.6,0.5l0.1,0l0.1,0.1
		C7.7,42,8,42,8.3,42l0.1-0.1l0.3-0.1l0.1,0l0.3,0l0.3,0.1v0h0l0,0h0l0.1,0h0.1l0.3-0.1l0.3-0.2l0.4-0.2l0.6-0.3l0.2-0.1l0.2-0.1
		l0.7-0.3l0.1-0.1l1.1-0.9l0.6-0.4l0.6-0.4l0.6-0.3l0.2-0.2l0.2-0.2l0.3-0.2l0.2-0.2l0.2-0.1l0.5-0.4l0.3-0.3l0.3-0.2l0.2-0.1l1.2-1
		l0,0l0.2-0.3l0.2-0.1l0.2-0.2l0.3-0.3l0.2-0.2l0.2-0.1l0.2-0.1l1.2-1l0.1-0.1l0.3-0.4l0.3-0.2l0.3-0.2l0.2-0.2l0.7-0.7l0-0.1h0
		l0.1-0.1l0.5-0.5l0.2-0.3l0.6-0.6l0.4-0.4l1-0.9l1-1l0.3-0.2l0.2-0.3l0.3-0.2l0.2-0.4l0.4-0.1c0,0,0-0.1,0-0.1l0.5-0.9l0.7-0.5
		l0.2-0.1l0.2-0.1l0.4-0.5l0.1-0.1c0.2-0.2,0.4-0.4,0.6-0.6l0-0.1l0,0c0,0,0.1-0.1,0.1-0.1l0.9-0.9l0-0.1l0.1-0.2l0-0.2l0.3-0.3
		l0.1-0.3l0.2-0.2l0.2-0.1v-0.1l0.2-0.2l0-0.1h0.2l0.4-0.3v-0.1l0.1,0l0.2-0.2l0.4-0.3v-0.1l0,0l0.1-0.2l0.1-0.2l0.1-0.1L36,19
		l0.3-0.1l0.3-0.2l0.3-0.3v-0.1l0.6-0.6l0.1,0l0.6-0.7v-0.1l0.3-0.3l0-0.2l0.2-0.2l0.2-0.2l0.1-0.1l0-0.1l0.2-0.3l0.2-0.4l0.1-0.3
		l0.3-0.9l0.5-0.5l0.3-0.2l0.3,0.1l0.2,0.2c0.2,0,0.3,0.2,0.2,0.3l0,0l0,0.2l0,0.1v0.2l0,0.3L41,14.7l-0.2,0.2l-0.2,0.3l0,0.2
		l-0.1,0l-0.1,0.2l-0.1,0.1L40.3,16h-0.1l-0.1,0.2L40,16.3l-0.2,0.1l0,0l-0.2,0.4l0,0.3l-0.1,0.2l-0.2,0.2l-0.1,0L39,17.6l-0.1,0.2
		v0.4l-0.1,0.2l-0.2,0.1l-0.2,0.2l-0.1,0l-0.2,0.5v0.2l-0.1,0.1L38,19.5l-0.1,0.2l0,0.2L37.8,20l-0.2,0.3l-0.1,0.1l0,0.1v0.2
		l-0.2,0.2l-0.4,0.8L36.9,22l-0.2,0.5l-0.2,0.4l-0.4,0.5L35.7,24l-0.4,1v0.1l-0.1,0.3l-0.1,0.2l-0.2,0.2l-0.2,0.4v0.1l-0.3,0.8
		l-0.1,0.2c-0.1,0.2-0.1,0.4-0.2,0.6l-0.1,0.5l0,0.4l-0.2,0.4v0.4l-0.1,0.1l-0.2,0.5c0,0.1,0,0.1,0,0.2v0.2l-0.1,0.2
		c-0.1,0.3-0.1,0.6-0.1,0.8l0,0.1l0,0.4l0,0.2v0l0.1,0.4v0.5l0.1,0.2V34l0.1,0.3l0,0.1v0.2h0v0.1l0.2,0.2l0.2,0.3l0,0.1l0.2,0.4
		l0,0.3c0.5,0.6,1.4,1,2.6,0.9c0.3,0,0.6-0.1,0.9-0.2l0.6-0.3l0.3,0l0.5-0.2l0.3-0.1l1.3-0.7l1.2-0.8l0.1-0.1l0.2-0.2l0.2-0.2
		l0.1-0.2h0.2l0.1-0.1l0.2-0.1l0-0.1l0.2,0l0.5-0.3l1.1-0.9l0.1-0.1h0c0,0,0,0,0,0l0,0l0.3-0.2l0.1,0l0,0l0.7-0.6l0.3-0.3l0.2-0.2
		l0.2-0.2l0.1-0.1l0.1-0.1h0.1l0,0l0.1-0.1h0l0.1-0.1l0.2-0.2l0.1,0l0.6-0.6l0.2-0.2l0.2-0.3l0.2-0.1l0.2-0.1l0.2-0.2l1.7-1.8
		l0.1-0.2l0.2-0.3l0.2-0.2l0.2-0.2l0.1-0.1l0.1-0.2l0.2-0.2l0.2-0.2l0.1,0l0.1-0.2l0.4-0.5l0.1-0.2l0.5-0.6l0.2-0.3l0.7-0.9l0.5-0.6
		l0,0l0.1-0.2l0.1-0.1l0.2-0.2l0.2-0.3l0.5-0.6c0.5-0.7,1-1.5,1.4-2.3l0.2-0.6l0.1-0.3v-0.2l0.2-0.5l0-0.5l0.1-0.2l0.2-0.2l0.2-0.5
		L57.9,15v-0.1c-0.1-0.1-0.2-0.3-0.3-0.4l-0.2-0.3L57.3,14l0-0.2h0.2l0.5,0.5l0.1,0.2l0.1,0.1l0.2,0.1l-0.1,0.2l0.1,0.1v0.2l0.2,0.3
		v0.1l-0.6,1.6l-0.1,0.4l-0.1,0.1l-0.2,0.5l-0.1,0.3l-0.2,0.3c-0.2,0.6-0.6,1-0.9,1.5l0,0.1h-0.1l0,0.1l-0.1,0.1l-1.3,1.7l-0.1,0.2
		l-0.2,0.3l-0.3,0.3L54,23.6l-0.1,0.2L53.7,24l-0.3,0.2l-0.2,0.2l-0.2,0.2l0,0c-0.6,0.8-1.3,1.6-1.9,2.3L51,27.1l-0.3,0.3l-0.2,0.2
		L49.2,29l-0.1,0.3l-0.1,0l-0.2,0c-1,0.9-1.9,1.8-2.9,2.6l0,0l-0.1,0.1c-0.2,0.2-0.5,0.4-0.7,0.6l-0.3,0.3l-0.1,0.2h-0.2l0,0
		l-1.8,1.4v0.1l-0.1,0.1c0,0-0.1,0-0.1,0.1l-0.1,0.2L42.1,35l-0.3,0l-0.9,0.7c-0.3,0.2-0.6,0.4-1,0.6l0,0.1l-0.1,0l-0.2,0
		c-0.9,0.4-1.9,0.6-2.8,1c-1,0.4-2-0.7-3-1c-0.1,0-0.2-0.1-0.2-0.1v0l0,0l-0.1-0.1h0l-0.2-0.2l0-0.1c-0.1-0.2-0.2-0.3-0.2-0.5h0
		l-0.1,0v-0.1l0-0.1c-0.1-0.2-0.1-0.5-0.1-0.7l-0.1-0.2l0-0.4v-0.2l0-0.3l0-0.2v-0.2l0-0.1c0-0.1,0-0.1,0-0.2v-0.3l0-0.1l0.1-0.5
		v-0.3l0-0.2l0.1-0.5v-0.2l0-0.2l0.1-0.3v0c0.2-0.8,0.3-1.4,0.4-1.8v-0.2l0.1-1l0-0.4L33.7,26l0.1-0.1l0.3-0.2l0.1-0.2l0.2-0.3
		l0.1-0.2l0.3-0.5l0.3-0.5l0.3-0.6l0.1-0.2l0.1-0.5l0.1-0.3l0.2-0.2l0.1-0.6l0.1-0.2l0.3-0.4l0.3-0.2l0.2-0.3h0l0.8-1.7L37.3,19
		l-0.1,0.1l0,0.1l-0.1,0c-1.1,1.3-2.2,2.3-3.3,3.4l-0.2,0.3L33.4,23l-0.3,0.2l-0.5,0.6l-1.4,1.5l-0.1,0.1L31,25.4l-0.1,0.3l-0.1,0.1
		l-0.2,0l-1.4,1.4h0l-0.5,0.5l-0.1,0.2l-0.3,0.3l-0.2,0.2l-0.1,0.2l-0.5,0.4L27,29.4v0l-0.4,0.3l-1.9,1.8v0l-0.2,0.2L24,32.3
		l-0.1,0.2l-0.2,0.3L23.3,33L23,33.4l-0.2,0.2l-0.2,0.2l-0.3,0.2L22.2,34l-2,1.8l0,0.2v0.1H20l-0.5,0.2l-0.2,0.2l-0.1,0.2l-0.1,0.1
		l-0.9,1L17.9,38l-0.7,0.7L16.8,39l-0.3,0.2l-0.7,0.3l-0.6,0.6l-0.5,0.3l-0.3,0l-1,0.7l-0.6,0.5l-0.7,0.1c-0.8,0.4-1.7,0.7-2.3,0.8
		H9.3l-0.2,0.1l-0.4,0l-0.4,0l-0.4,0l-0.1-0.1c-0.4,0-0.7-0.1-1-0.2l-0.1,0.1l-0.1-0.2c-0.1-0.1-0.2-0.2-0.3-0.2l-0.1-0.2L6,41.5
		l-0.1-0.2c-0.1-0.2-0.2-0.3-0.2-0.5l-0.2-0.2l-0.1-0.2l-0.1-0.3l0-0.4v-0.2L5.3,39.4z"/>
	<path d="M63.2,28.3L63,28.6c0,0.1,0,0.2,0,0.2l-0.2,0.3l-0.2,0.3l-0.3,0.2L62,29.9l-0.1,0.2l-0.2,0.2l-0.2,0.2l-0.1,0
		c-0.5,0.5-1.2,0.9-1.8,1.3v0.1h-0.1L59.2,32v0l-0.1,0.1H59c0,0,0,0-0.1,0v0.1h-0.1l-0.2,0.2h0l-0.2,0.2l-0.2,0.1l-0.1,0.2L57.8,33
		l-0.1,0l-0.3,0l-0.1,0.1l-0.2,0H57c-0.5,0.2-0.9,0.4-1.4,0.5l-0.1,0.1l-0.1,0l-0.1,0.2l-0.1,0L55,33.9h-0.2l-0.6,0l-0.6-0.1v0
		c0,0-0.1,0-0.1,0c-0.2,0-0.3-0.1-0.5-0.1c-0.1-0.1-0.8-0.4-0.8-0.6v-0.3l-0.1,0l0-0.2l0.2-0.6l0.2-0.5l0.1-0.2l0.4-0.4l0.2-0.2
		l0.1-0.1l0.5-0.4l0.5-0.5l0.1-0.2l0.1-0.1l0.7-0.5l0.2-0.2l0.2,0l0.1-0.1l0.2-0.2l0.1-0.1l0,0.1l0.7-0.6l0.2-0.2l0.1,0l0.3-0.2
		l0.2-0.2l0.3-0.2l0.4-0.2l0.4-0.3l0.2-0.1l0.3-0.2c0.3-0.2,0.6-0.4,0.9-0.6l-0.4-0.1c-0.2,0-0.4,0.1-0.6,0.1l-0.1,0l0,0l-0.1,0
		h-0.4c-0.3,0-0.6,0.1-1,0.1h0l-0.7,0L56.3,26l-0.2-0.1L56,25.7l0-0.2l0.2-0.4l0.2-0.1l0.3-0.1l0.3,0l0.2,0.1l0.5,0.1
		c0.5,0,1,0,1.5,0.1l0.3-0.1l0.5,0l0.6-0.1l0.1,0l0.5-0.1c0.1,0,0.2-0.1,0.3-0.2l0.3-0.2l0.2-0.1l0.1,0l0.2-0.1l0.2,0l0.3,0
		c0.2,0,0.4-0.1,0.6,0l0.2,0l0.1,0.1c0.1,0,0.2,0.1,0.3,0.2l0.9-0.1l0,0l0.4-0.1l0.5,0l0.5-0.2l0.2,0l0.3,0h0.6l0.2,0l0.4,0h0
		c0.1,0,0.3,0,0.4,0c0.2,0,0.3,0,0.5,0l0.1,0l0.1,0h0.1l0.1,0.1h0.2l0.2-0.1H70l0.3,0h0.1l0.2,0l0.2,0.1h0.1l0.1,0l0.2,0l0.1,0
		c0.4,0.1,0.7,0.1,0.9,0.2l0.1,0.1h0.1l0.1,0.1c0.2,0.1,0.3,0.2,0.5,0.3h0.1l0.1,0.1l0.2,0.1l0.1,0.2l0.1,0.2v0.1l-0.2,0.2l-0.1,0.2
		L73,26.4l-0.1,0.2v0c0,0-0.1,0.1-0.1,0.1l-0.1,0.2L72.5,27v-0.2l0.1-0.1v-0.1c0-0.1,0.1-0.3,0.2-0.4l0.1-0.2l0.2-0.6
		c0,0,0-0.1,0-0.1l-0.1-0.2l-0.3-0.2l-0.2-0.2l-0.5-0.1c-0.7-0.2-1.5-0.2-2-0.2h-0.5l-0.4,0c-0.3,0-0.5,0.1-0.8,0.1
		c-1.4,0.1-2.3,0.2-3.2,0.3l-0.1,0l-0.3,0.1l-0.2,0.1l-0.5,0c-0.5,0.1-1,0.2-1.5,0.2l-0.2,0.1H62l-0.6,0.1l-0.2,0.1
		c0.3,0.1,0.6,0.2,0.8,0.3h0.1l0.1,0.1l0.1,0l0.1,0.1l0.2,0.2l0.4,0.4l0.1,0.2l0.2,0.4l0,0.6C63.3,28,63.2,28.2,63.2,28.3z
		 M62.4,28.1v-0.2l0.1-0.3l0-0.4v0l-0.2-0.3l-0.2-0.2L62,26.6l-0.2-0.2l-0.2-0.1l-0.3-0.1L61,26.1L60.9,26c0,0-0.1,0-0.1,0
		c-0.4,0.2-0.8,0.6-1.3,0.9l-0.3,0.2L59,27.3l-1.1,0.6l-0.3,0.2l-0.2,0.1l-0.6,0.4l0,0l-0.2,0.1l-0.5,0.2l-0.4,0.2l-0.3,0.2
		l-0.2,0.1L54.8,30l0,0l-0.3,0.4l-0.3,0.4L54,31c0,0,0,0-0.1,0c-0.2,0.2-0.4,0.5-0.5,0.8v0.1l0,0.1l-0.1,0.2v0.2l0,0.1l0,0.1
		c0,0.2,0.1,0.5,0.2,0.6h0.1l0.2,0.1c0.1,0,0.1,0,0.2,0c1,0.1,1.2,0,2.2-0.4c0.4-0.1,0.9-0.3,1.3-0.5l0-0.1h0.1l0.4-0.2l0.2-0.2
		l0.5-0.3l0.1,0H59l1-0.6l0.1-0.1l0.1,0c0.2-0.2,0.5-0.4,0.7-0.6l0.1-0.1l0.1-0.1l0.2-0.2l0.2-0.2l0.1-0.2l0.1,0l0.1-0.1l0.1-0.1
		l0.1-0.1h0.1C62.1,28.7,62.3,28.4,62.4,28.1z M63.6,24.8c-0.2-0.1-0.6,0-0.9,0.2L63.6,24.8z"/>
	<path d="M71.2,30.5l-0.1,0.1l0.2-0.2l0.4-0.3l0.1-0.1l0.1,0h0.1v0l0.2-0.1l-0.1-0.1h0.2l0.6-0.5H73l0.5-0.5l0.6-0.3l0.5-0.4
		l0.1-0.1h0l0.6-0.5l0,0l0.9-0.6v0l0.6-0.4l0.2-0.2l0.1,0l0.3-0.2l0.1-0.1h0l0.6-0.4l0.2-0.2l0.2-0.1l0.5-0.2l0.3-0.3l0.3-0.2
		l0.6-0.2l0.3-0.1c0.2-0.1,0.6-0.3,1-0.5l0.2-0.2l0.6-0.2l0.6-0.2l0.1-0.1l0.3-0.2l0.3-0.1l0.2-0.1l0.4,0c0.5-0.2,1-0.2,1.4-0.2
		l0.2-0.1l0.1,0.1c0.2,0.1,0.3,0.2,0.4,0.2c0,0,0.1,0.1,0.1,0.1l0.2,0.2l-0.1,0.8L86,24.8l-0.4,0.1h-0.3l-0.2-0.2v-0.3L85,24.5v-0.2
		l0.1,0l0-0.2l0-0.2L85,23.6l-0.1-0.2l-0.5,0.1L84,23.7l-0.2,0l-0.2,0l-0.3,0.2l-0.2,0l-1.2,0.2c-0.6,0.2-1.1,0.5-1.3,0.6l-0.2,0.1
		l-0.2,0.2L79,25.6l-0.5,0.3L78.3,26l-0.6,0.3l-0.2,0.1l-0.3,0.2L76.9,27l-0.2,0.2l-0.9,0.6l-1.3,1.1l-0.2,0.3l-0.2,0.2l-0.4,0.4
		l-0.4,0.3l-0.1,0.1l-0.2,0.2l-0.2,0.2l0,0.1l-0.2,0.2l-0.3,0.3L72,31.2l-0.1,0.1l-0.3,0.3l-0.1,0.2l-0.1,0.1l-0.1,0.2l-0.3,0.3
		l-0.5,0.5l-0.2,0.2l-0.1,0.2l-0.2,0.3l-0.1,0.2l0,0.1L69.8,34l-0.2,0.2l-0.5,0.4l-0.3,0.2l-0.3-0.1l-0.2-0.2v0
		c-0.1-0.1-0.1-0.2-0.1-0.3V34l0.1-0.1l0.1-0.4l-0.1,0.1l0-0.1l0.1-0.2l0.1-0.4l0.2-0.3l0-0.1v-0.1l0.1-0.1l0.1-0.2v-0.1l0.3-0.2
		h0.1l0.1-0.1l0.4-0.5l0.2-0.3l0.1,0l0.2-0.3l0.2-0.5l0.2-0.2l0.1-0.2l0.3-0.4l0.1-0.1l0.4-0.6v-0.1l0.5-0.6l0.3-0.5l0.1-0.2
		l0.2-0.3l0-0.1l0.1-0.1l0.2-0.3v-0.1l0.2-0.3l0.2,0l0.1,0.1l0.2-0.2l0.1-0.2l0-0.2v-0.1l-0.1-0.1l0.1-0.1l0,0.1l0.1-0.1l0,0
		l-0.1,0.2c-0.2,0.2-0.3,0-0.3-0.2l0.1-0.1v-0.1l0-0.1l0.1-0.2l0-0.1l-0.1-0.1l0,0l-0.2-0.1v-0.1l0.1-0.1l0.1,0h-0.1l0.1,0h-0.1
		l0-0.1l0.1-0.2l0.2,0.1l0.1-0.2V24l0-0.1l-0.1,0l0.2,0v-0.2l0.1,0h0.1l0.1-0.1h0.2l0.2,0l0.2,0l0.1-0.1v-0.1l0.1-0.1l0.1,0h0.1
		l0.1,0.1l0,0L75,23.6c0.2,0.1,0.4,0.2,0.4,0.4l0,0l0,0.1c0,0.4-0.3,0.8-0.6,1.2l0,0.1l-0.3,0.4l-0.2,0L74,26.2l-0.1,0.2l-0.1,0.2h0
		c-0.2,0.2-0.3,0.5-0.5,0.6c0,0,0,0,0,0l-0.2,0.3L73,27.6l-0.1,0.2l-0.3,0.5l-0.2,0.2l-0.1,0.1L72.2,29l-0.4,0.6L71.6,30l-0.2,0.3
		L71.2,30.5L71.2,30.5z"/>
	<path d="M94.7,19.2l-0.6,0.7v0L94,20.1l-0.2,0.2v0.1l-0.7,0.7L93,21.3l-0.7,0.9L92,22.4l-0.2,0.1l-0.1,0.2l-0.2,0.2l0,0.1l-0.2,0.3
		L91,23.6l-0.1,0.2l-0.2,0.3l-0.4,0.4l-1,1.3L89,26l-0.1,0.1l-0.2,0.1l-0.1,0l-0.3,0.5l0.2,0.1l0.1,0l0.2,0.1l0,0.1l0.2,0.2l0,0.2
		l0.2,0.3l0.2,0.2l0.2,0.2l0-0.1H90l0.1,0.1l0.1,0l0.1-0.1l0.5-0.4h0.1l0.1-0.1H91l0.1-0.1l0.1-0.1h0.1l0.1-0.2l0.2-0.1l0.1-0.1
		l0.2-0.1l0.2-0.1l0.7-0.5l0.2-0.2H93l0.6-0.2l0.5-0.3l0.1-0.2l0.1,0h0.1l0.1-0.1l0.6-0.3h0.1h0l0.1-0.1l0.8-0.3l0.1-0.1l0.2-0.1
		l0.2-0.1l0.8-0.3l0.2-0.1h0.1l0.1,0l0.2,0c0.2-0.1,0.5-0.1,0.7-0.1l0.3-0.1l0.5,0l0.4,0.3l0.3,0.1l0.1,0.3l0,0.1l0.1,0l0.1,0.1
		l0.1,0.2h0l-0.1,0.3l-0.4,0.2L99.7,25h-0.1l-0.3-0.4l-0.2-0.3L99,24.2l-0.2,0.1h0l-0.3-0.1l-1,0L97,24.6l-0.1,0v0h-0.1l-0.2,0h-0.1
		L96,24.7l-0.2,0.1l-0.6,0.1c-0.6,0.3-1.3,0.6-1.9,1L93.3,26l-0.1,0l-0.2,0.1l0,0.1H93c0,0,0,0-0.1,0.1v0l-0.4,0.3l-0.2,0l-1,0.9
		L91,27.9l-0.3,0.3l-0.5,0.3l0.6,0.6l0.1,0.1l0.4,0.3l0.2,0.2l0.6,0.7l0.2,0.1l1.4,1.6l0.2,0.1l0.2,0.2l0.1,0.1l0.3,0.4l0.1,0.2
		l0.1,0.1l0.6,0.6l0.1,0.1l0.1,0.1l0,0.2l0.2,0.1l0.2,0.2v0.1l0.2,0.2l0.2,0.2l0.1,0.1l0.2,0.2l0.2,0.3l0.8,1l0.2,0.2v0.2l-0.1,0.1
		h-0.2l-0.1-0.1l-0.1-0.2l-0.1-0.1l0-0.1l-0.1,0l-0.3-0.3L96.8,36L96,35.1l-0.4-0.3l-0.3-0.2l-0.2-0.3l-0.2-0.3l-0.6-0.7l-0.2-0.2
		l-0.4-0.5l-0.2-0.2L93,31.9l-0.3-0.3l-0.8-0.8l-1-1l-0.3-0.2h0l-0.3-0.3l-0.3-0.3l-0.1-0.1l-0.4,0.3l-0.2,0.2l-0.5,0.4l-0.2,0.2
		l-0.6,0.4l-0.3,0.4l-0.5,0.2c-0.2,0.2-0.4,0.3-0.6,0.4c-0.1,0-0.8,0.9-1.6,1.3v0.1l-0.1,0.1l-0.1,0.2l-0.6,0.4l-0.4-0.1L83.4,33
		l-0.1-0.2l0.1-0.3h-0.1l-0.1-0.1h0.1l0.1-0.1l0.1-0.2l0.1-0.3h0l0-0.3l0.5-0.6l0.3-0.7l0.3-0.4l0.2-0.1l0.3-0.4l0.2-0.3l0.2-0.3
		v-0.2l0.4-0.2l0.1-0.1l0.1-0.2l0.1-0.1l0.1-0.1l0.2-0.3l0.2-0.2L87,27l-0.1-0.1l-0.2-0.5l0.1-0.3l0.2-0.2l0.2,0h0.2v-0.1h0.1l0,0.1
		l0.1,0.1l0.2,0.1l0.2,0.1l1.3-1.6l1.1-1.2l1-1.3l0.9-0.8l0.4-0.3h0l1.1-1.2l0.1-0.2l0.7-0.7l0.3-0.5l1-1.2l0.9-1.3l0.3-0.3l0.2-0.4
		l0.9-1l0.5-0.8l0.4-0.5l0.4-0.6l0.1-0.2v-0.1h-0.1v-0.1h0.1v-0.5l0.1-0.6l0-0.2l0.4-0.6l0.6-0.4l0.3,0.1l0.3,0.1v0.2
		c0.1,0,0.2,0,0.2,0.2c-0.1,0.5-0.5,1-0.8,1.4l-0.3,0.8l-0.3,0.3l-0.1,0.2L99.5,13l-0.1,0.1L99,13.7L98.8,14
		c-0.2,0.2-0.3,0.5-0.5,0.7h0.1v0.1h-0.1l0,0l0,0.1L98.2,15l-0.2,0.3l-0.2,0.5l-0.2,0.2L97.5,16l-0.2,0.2l-0.1,0.2l-0.3,0.4
		l-0.1,0.1l0,0l-0.1,0l-0.4,0.4l-0.1,0.1L96,17.7l-0.1,0.2L95.7,18l-0.3,0.4l-0.2,0.2L94.7,19.2z M86.7,30.4l0.3-0.2l0.1-0.1
		l0.3-0.2l0.2-0.2l0.5-0.3l0.1-0.1l1.2-0.8l0,0L89.2,28l-0.4-0.4l-0.2-0.1l-0.1-0.1h-0.1l0,0.1h0l0-0.1l-0.4,0h0l-0.3,0.4l-0.4,0.5
		l-0.9,1.1l-0.3,0.7l-0.4,0.6L85.4,31l0.1,0.1l0.8-0.6L86.7,30.4z"/>
	<path d="M115.2,24.9L115.2,24.9l0,0.2l-0.1,0.1l0,0.1l0.1,0.1h0l-0.1,0.4l-0.2,0.2l-0.2,0.1l-0.3-0.2l-0.5-0.2l-0.2-0.1l-0.1-0.1
		h-0.1l0.1-0.2v-0.2l0.1-0.2l0-0.3v-0.3l-0.1-0.1l0-0.1l-0.2-0.1h-0.2L113,24l-0.4,0c-1,0.1-0.6-0.2-1.7,0.2l-0.4,0.2l-0.1,0
		l-0.9,0.2l-0.6,0.3l-0.5,0.2l-0.3,0.2l-0.2,0.1l-0.4,0.1l-0.5,0.2l-0.2,0.1l-0.8,0.4l-0.5,0.3l0,0.1l-0.5,0.3l-0.2,0.2l-0.1,0.1
		l-0.2,0.1l-0.2,0.2l-0.2,0.3l-0.2,0.2l-0.2,0.2l-0.3,0.2c-0.2,0.2-0.3,0.4-0.3,0.6c-0.1,0.3,0,0.1,0.2,0.3l0.1,0.2l0.2,0.1l0.2,0.2
		l0.1,0.2h0c0.2,0.1,0.4,0.2,0.5,0.3l0.4,0.2v0.1l0.5,0.2l0.3,0.1l0.2,0.1h0l0,0l0.8,0.3h0.3l0.2,0.1l0.2,0.2l0,0l0.1,0.1l0.1,0.1
		l0.6,0.2l0.3,0l0.2,0.1h0.6l0.2,0.1l0.4,0.1l0.6,0.1l0.2,0.1l0.5,0.2l0.2,0.3l0.1,0.3l0,0.1l0,0.1L111,33l-0.2,0.2l-0.4,0.2h-0.2
		l-0.2,0.1l-0.4,0.1l-0.1,0l-0.3,0l-0.7,0.2l-1.4,0.1h-0.4l-1.2,0.1h-0.4l-0.4,0l-0.5,0l-0.4,0.1l-0.5,0.1l-0.8-0.2H102l-0.3,0
		l-0.6,0.1H101l-0.4,0.1h-0.2l-0.6,0.2l-0.5,0.2l-0.2,0l-0.3,0l-0.8,0.2l-0.1,0l-0.3,0.1l-0.1,0l0,0h-0.1l-0.1,0.1l-0.1,0l-0.1-0.1
		v-0.1h0l0,0l0,0l0.1-0.1l0.1,0h0l0.1-0.1l0.9-0.2l0.3-0.1l0.1,0l0.4-0.1l0.3-0.1h0.1l0.9-0.4h0.3l0.2-0.1l0.5,0.1l0.3,0l0.2-0.1
		l0.6-0.1l0.5-0.1l0.5,0l0.6-0.1l0.1,0h0.4l0.2-0.1l0.1,0c0.2,0,0.3,0,0.5,0l0.3-0.1l0.7-0.1l0.5-0.1l0.9,0l0.1,0l0.2-0.1h0.3
		l0.3-0.2l0.5-0.1l-0.2-0.1l-0.1-0.1l-0.3-0.1l-0.4-0.1l-0.5-0.2l0-0.1l-0.1,0h-0.3l-0.2-0.2l-0.8-0.3l-0.1-0.1l-0.2-0.1l-0.8-0.4h0
		l0,0c-0.6-0.2-1.1-0.4-1.3-0.5h0v0l-0.2-0.1l-0.2,0l-0.4-0.2l-0.1,0l-0.1-0.2h-0.2l-0.3-0.2l-0.4-0.6l0-0.5l0,0.1
		c0-0.1,0.1-0.2,0.2-0.4c0.1-0.1,0.2-0.2,0.2-0.3l0,0l0.4-0.6l0.2-0.2h0.1l0.1-0.2l0.2-0.1l0.2-0.2l0.2-0.1l0.1-0.1l0.3-0.1h0
		l0.1-0.1l0.2-0.1h0l0.6-0.4l0.3-0.2l0.3-0.2l0.1-0.1l0.2-0.2l0.1-0.1l0.1-0.2l0.1-0.1h0.2l0.2,0l0.6-0.2l0.4-0.1l0.2,0l0.1,0
		l0.5-0.2l0.1-0.1c0.5-0.1,0.6-0.2,0.7-0.3l0.2-0.2h0.1l0.3,0l0.2-0.1l0.2,0c0.1,0,0.1,0,0.2,0c0.3-0.1,0.6-0.2,1-0.2l0.2-0.1
		l0.2-0.1l0.1-0.1h0.4l0.2-0.1l0.5,0.1l0.2,0.1h0.1l0,0l0.3,0.1l0.1,0l0.4,0.1l0.3,0.2l0.1,0.1l0.1,0.1c0.1,0.2,0.1,0.3,0.2,0.6h0.1
		L115.2,24.9L115.2,24.9z"/>
</g>
</svg>
