<?xml version="1.0" encoding="utf-8"?>
<!-- Generator: Adobe Illustrator 22.1.0, SVG Export Plug-In . SVG Version: 6.00 Build 0)  -->
<svg version="1.1" id="レイヤー_1" xmlns="http://www.w3.org/2000/svg" xmlns:xlink="http://www.w3.org/1999/xlink" x="0px"
	 y="0px" viewBox="0 0 140 50" style="enable-background:new 0 0 140 50;" xml:space="preserve">
<g>
	<path d="M18.4,18.5l0.1-0.1l1.8-2.2l0.1-0.2l0.7-0.7l0,0l0.3-0.5l0.2-0.1l1-1.3l1.2-1.7c0,0,0-0.1,0.1-0.1l0.2-0.4l0.2-0.4l0.4-0.4
		l0.5-0.8l0.1-0.2l0.3-0.6l0.1-0.3l0.4-0.6l0.2-0.4l0.2-0.4C26.7,6.7,26.8,6.4,27,6l0.1-0.2l0.1-0.1c0.1-0.2,0.1-0.4,0.1-0.6
		l-0.2-0.2V4.7V4.6L27,4.3V4c-0.5-0.3-1.6-0.4-2.1-0.2l-1.1,0.4l-0.3,0.2h-0.1L22,4.7l0,0l-0.3,0.2L21.6,5l-0.3,0.2H21
		c-0.6,0.2-1.1,0.5-1.6,0.8l0,0c-0.1,0.1-0.2,0.1-0.3,0.2l-0.7,0.5l-0.2,0.2h-0.3L17.5,7h-0.1l-0.2,0.1l-0.1,0.1l-1.6,1.2h-0.1
		L15,8.7v0.1l0,0l-1.2,0.8l-0.1,0.1h-0.1L13.2,10l-0.3,0.2v0.1l-0.3,0.3l-0.2,0.1l-0.7,0.6h-0.2l-0.6,0.6l-0.7,0.4L9,13l-0.2,0.3
		l-0.3,0.2l-0.1,0.1L7.8,14v0.1l-0.1,0.3l-0.2,0.1l-0.3,0.2L7,14.8l0,0l-0.2,0.1L6.7,15l-0.2,0.1l-1.4,1.1v0.2L5,16.6l-0.4,0.3H4.2
		L3.9,17v0.1H3.8l-0.2,0.4l-0.1,0.2c0.3,0,0.5,0.5,0.1,0.7l-0.3,0.2l-0.1,0.1v0.1L3,19l-0.5,0.4l-0.3,0.2L2,19.5l-0.1-0.1
		c-0.1,0-0.2,0-0.2,0c-0.2-0.1-0.3-0.3-0.3-0.5c0.1-0.3,0.4-0.7,0.8-1.3l0.3-0.3v-0.1v-0.1L2.7,17h0l-0.1-0.2h0.1l0.2-0.2l0,0v-0.1
		H3l0.2-0.2l0,0l0.1-0.2L3.5,16l0.1-0.2l0.3-0.3l0.3-0.1l0.1-0.1l0.2-0.1l0.2-0.1h0.1L5,15l0-0.1h0.1l0.3-0.2l0.1-0.1l0.1-0.1
		l0.2-0.2l0.1-0.1L6,14l0,0h0.2l1.2-0.9l0,0l0.3-0.3l0.2-0.1H8c0.6-0.5,1.1-0.8,1.4-1l1.3-0.9l0.1-0.1l0.2-0.2l0.2-0.2l0.2-0.1
		l0.1-0.2l0.1-0.1l0.5-0.2l0.4-0.2L13,9.3l0.6-0.4c0.2-0.1,0.4-0.2,0.6-0.3V8.5l0.2-0.2l0.1-0.1l0.3-0.1L14.9,8H15l0.2-0.1l0.7-0.5
		l0.2-0.2l0.1-0.1l0.2-0.2l0.1-0.1l0.1-0.2l0.1-0.1h0.2l0.2-0.1l0,0l0.5-0.3L17.7,6l0.2-0.2H18h0.1c0.3-0.1,0.6-0.3,0.9-0.5l0.1-0.1
		l0.1-0.1h0.2L19.6,5l0,0l0.1-0.1l0,0l0.2-0.1c0.7-0.4,1.5-0.7,2.3-1.1L22.4,4l0.4-0.1h0.1l0.2-0.1l1-0.5l0.5-0.1h0.1
		c0.1,0,0.1,0,0.2,0C25.5,3,27.5,2.6,28,3.5c0.2,0.2,0.2,0.6,0.2,0.9l0.1,0.2v0.2l-0.1,0.3L28,5.5L27.9,6l-0.1,0.2l-0.2,0.3
		l-0.1,0.2v0.2l-0.2,0.2v0.1L27,7.5l-0.6,1v0.1v0.1l-0.2,0.1L26,9.2v0.1l-0.1,0.1l0,0L25.5,10c-0.8,1.4-1.8,2.6-2.8,3.9V14h-0.1
		l-0.2,0.3L22,14.9l0,0l-0.3,0.4l-1.2,1.6l-0.3,0.3l-1,1.3l-0.9,1L18.1,20l-0.7,1l-0.3,0.2l-0.9,1.1l-0.1,0.3H16l-0.5,0.6l-0.1,0.1
		l0,0l-0.2,0.2l-0.1,0.3l-0.4,0.6v0.1l-0.2,0.1L14,25.1l-0.3,0.6l-0.1,0.2l-0.2,0.2l-0.1,0.3l-0.6,0.8l-0.2,0.4L12.2,28L12,28.2
		l0.4-0.4l0,0c0.4-0.5,0.8-1,1.3-1.4l0,0L14,26l0.3-0.3l0.2-0.4l0.2-0.2l0.2-0.2l0.3-0.2l0.3-0.3l0.6-0.5l0,0l0.1-0.1
		c0-0.1,0.1-0.1,0.2-0.2l0.1-0.3l0,0l0.1-0.1h0.2l0.3-0.4l0.1-0.1l0.1-0.1h0.1c0.7-0.7,1.5-1.4,2.2-2.1l0.3-0.4l0.3-0.2V20l1.2-1
		l0,0l0.3-0.3l0,0l0.4-0.3l0.1-0.2l0.7-0.5l0.8-0.6l0.1-0.1l0.4-0.4l0.2-0.1c0.2-0.2,0.4-0.3,0.6-0.5l0,0h0.1l0.2-0.1v-0.1l0.2-0.1
		l0.2-0.2l0.7-0.6l0.1-0.2h0.2l0,0l0.5-0.3l0.3-0.3l0.1-0.2l0.2-0.1l0.1-0.2l0.2-0.2l0.1-0.1l0.9-0.3l0.6-0.4l0.2-0.2l0.1-0.1
		l0.7-0.3l0.2-0.1l0,0c0.1-0.1,0.2-0.2,0.4-0.2l0.1-0.1l0.5-0.2l0.1-0.1h0.1l0.5-0.2l0.1-0.1l0.2-0.2l0.5-0.1l0,0
		c0.6-0.2,1.1-0.3,1.5-0.2c0.2,0.1,0.3,0.1,0.4,0.3c0,0.2,0,0.4,0,0.5l0,0l0.1,0.1l0.1,0.1v0.2l0,0v0.2l0,0V12v0.1v0.2l-0.1,0.2l0,0
		l0,0l-0.1,0.1v0.1l0.1,0.1h-0.1l0,0.2l0,0h-0.1l-0.1,0.1H35h-0.1l-0.2,0.2v0.2l-0.1,0.2l-0.2,0.2l-0.3,0.5v0.1l0,0l0,0v0.1L34,14.8
		L33.7,15l-0.2,0.5l-0.2,0.2l-0.1,0.1L33,16l-0.1,0.2l-0.1,0.2l-0.2,0.2v0.1v0.1l0,0h-0.1l-0.3,0.4l-0.1,0.1l-0.2,0.2l-0.1,0.2
		l-0.4,0.5l-0.1,0.1L31,18.7l-1.4,1.9l-0.1,0.2l0,0l0,0l-0.1,0.1V21l0.1,0.1h-0.1l-0.1,0.1v0.1l-0.2,0.1L29,21.5h-0.1l-0.2,0.2
		c0,0,0,0,0,0.1V22l-0.1,0.2l0-0.2l-0.1,0.1l-0.4,0.6v0.1l0,0L28,23l-0.1,0.3l-0.3,0.6V24l-0.3,0l-0.5,0.9l-0.2,0.6l-0.1,0.2
		l-0.2,0.2l-0.1,0.3l-0.8,1.1l-0.1,0.4L25,28.2l-0.2,0.4L24.3,30h0.2v-0.1l0.2-0.2l0.3-0.4l0.2-0.2l0.3-0.2l0.2-0.2l0.2-0.1
		l-0.1-0.1v-0.1l0.1-0.1l0,0l0,0l-0.1,0.1l0.1-0.1l0.2-0.1l0.1-0.1h0.1l0.4-0.3l0.1-0.1l0.2-0.2l0.2-0.2l0.5-0.4l0.1-0.1l1.1-0.9
		l0.2-0.2l0.2-0.1v-0.1l0.3-0.2l0.2-0.2l0.4-0.3l0.2-0.1l0.1-0.1l0.2-0.2h0.1l0.1-0.2l0.2-0.1l0.1-0.1l0.2-0.1l0.4-0.3l0.1-0.1
		l0.2-0.1v-0.1l0.2-0.2V23l0,0l0,0H32l0.1-0.2l0.2-0.1h0.1h0.1h0.1l0.1-0.1l0.1-0.1v-0.1l0.2-0.1l0,0l0,0l1.6-1.4l0.1-0.1l0.1-0.1
		l0.1-0.2l0.1-0.1v-0.2l0.1-0.1h0.2l0.2-0.1l0.1-0.1l0.2-0.1l0.1-0.1l0.6-0.5l1.6-1.3l0.2-0.2l0.4-0.2v-0.1l0.5-0.5h0.2l0.1-0.1
		l0.1-0.2l0,0l0,0l1.9-1.6l0.4-0.2l0.1-0.2l0.4-0.2l1.6-1.3l0.2-0.4h0.3l1.1-0.9l0,0l0.6-0.5l0.1-0.1l1.3-1l0.2-0.2L48,9.9V9.8
		l0.3-0.3h0.1l0.1-0.1c0.9-0.6,0.9-0.6,1.7-1.4l0.2-0.1l0.8-0.6l0.1-0.2h0.1L51.6,7L52,6.7V6.6L52,7h0.1l0.3-0.1l0.1-0.1l0.2-0.1
		h0.1l0.8-0.5L53.8,6l0.1-0.1l0.2-0.1l0.1-0.1V5.5h0.1h0.2l0.2-0.1l0.5-0.2l0.4-0.1C56,5,56.7,4.8,57.3,5.3h0.1l0.1,0.1l0.1,0.1l0,0
		l0,0l0,0v0.1v0.1l0.1,0.2v0.2c0,0.1,0.1,0.2,0.1,0.3L58,6.7v0.2V7l-0.2,0.4l0,0L57.7,8v0.1v0.2l0,0v0.2l0,0v0.1v0.1v0.2l-0.1,0.2
		l0,0l0,0L57.3,9v0.1l0.1,0.1h-0.1l-0.1,0.1l0,0h-0.1c-0.2,0.6-0.4,1.1-0.6,1.6l-0.1,0.5l-0.2,0.7l-0.5,1.1l-0.2,0.3L55,14.6
		l-0.2,0.3l-0.2,0.3L54,16.3l-0.2,0.4l0,0c-0.6,1.1-1.2,2.3-1.8,3.4l-0.9,1.8L51,22.1h-0.1l-0.2,0.4v0.3l-0.2,0.1L50.4,23l-0.3,0.6
		l-0.3,0.7l-0.1,0.1l-0.2,0.3L49.3,25l-0.2,0.2h0.2v0.2l-0.1,0.2h-0.1L49,25.5v-0.2l0,0.2l-0.3,0.2l0.1,0.2V26h-0.1l-0.5,0.8V27
		l-0.3,0.5l-0.2,0.3l-0.5,0.8v0.2L46,30.7L45.8,31l-0.2,0.3v0.1l-0.3,0.5L45.1,32v0.2L44.6,33h-0.1l-0.2,0.2h-0.1v0.2L44,33.6h-0.1
		L43.8,34l-0.2,0.2l-0.1,0.2l-0.2,0.3L43.1,35l-0.2,0.3l-0.6,1v0.2h-0.1v0.1l0,0L42,37l-0.2,0.3l0,0c-0.6,1.1-1.2,2.2-1.7,3.3v0.2
		V41l0,0L40,41.4l-0.1,0.1v0.1l-0.2,0.6l-0.1,0.1v0.1l0,0v0.1v0.1l-0.1,0.2l-0.1,0.1V43l-0.1,0.3l-0.1,0.2l-0.2,0l-0.2,0.8
		c-0.3,0.8-0.7,1.7-0.9,2.6v0.4v0.3v0.1v0.2l0,0l0,0l0,0l0,0l0.2,0.2l0.2,0.3v0.1v0.2c0.1-0.1,0.2-0.2,0.3-0.4
		c0.3-0.4,1-0.2,0.7,0.3c-0.6,1.1-2.6,1.4-2.5-0.5c0.1-2.6,1.2-4.9,2.2-7.1c0.4-1,1-1.9,1.5-2.9l0.1-0.2l0.1-0.2l0.2-0.4l0,0
		l0.5-1.1l0.1-0.1l0.8-1.2c0.3-0.6,0.6-1.2,1-1.7l0.1-0.3l0.3-0.3l0.9-1.5l0.1-0.2l0.1-0.2l0.2-0.2l0.8-1.3l0.1-0.1V29l0.2-0.4
		l0.6-0.9l0.1-0.2l0.1-0.1l0.2-0.4l0,0l0.2-0.5l0.2-0.4l1.6-2.6l0.4-0.7l0.1-0.2v-0.1l0.3-0.4l0,0l1.2-2.1l0.1-0.1l0.4-1l0.1-0.1
		l0.1-0.3l0,0l0.1-0.1l0.5-1l0.1-0.1l0.1-0.1l0.2-0.3c0,0,0-0.1,0.1-0.1c0,0,0,0,0-0.1v-0.2l0.4-1.1l0.1-0.3l0.2-0.7l0.4-0.6
		l0.6-1.4l0.5-1.3l0.2-0.3l0.1-0.4l0.1-0.1v-0.1l0.1-0.2L56,9.2l0.3-0.7l0.5-0.7l0.1-0.5V7.1L57,6.9l-0.1-0.1h-0.1l-0.1-0.1h0.1
		l-0.2-0.5l-0.2-0.5V6V5.8L56,6h-0.3h-0.3l0,0l0,0l0,0l0,0l-0.2,0.1l-0.4,0.2l-0.1,0.1l-0.3,0.2h-0.1l-1.2,0.8l-0.3,0.2l-0.4,0.2
		l-0.6,0.4l-0.4,0.3l-1.8,1.2L49.1,10L49,10.1l-0.2,0.2h-0.1c-0.6,0.4-1.1,0.8-1.4,1l-0.5,0.4l-0.1,0.1l-0.5,0.4l-0.1,0.1l-0.2,0.1
		l0,0l0,0l0,0l0,0l-0.3,0.2l0,0l-0.8,0.6l-0.2,0.2l-0.2,0.2L44,13.8l-0.5,0.4l-0.1,0.2l-1.7,1.4l-0.6,0.6l-0.2,0.1l-0.3,0.2L39.3,18
		v0.1l-0.2,0.1L39,18.3l-0.2,0.1l0,0l0,0l-0.1,0.1l-0.2,0.2l-0.2,0.2h-0.1V19l-0.1,0.2L38,19.3l0,0l-0.1,0.1l-0.1,0.1l0,0v0.1
		l-0.2,0.2l-0.2,0.1l-0.7,0.6l-0.2,0.2l-0.2,0.2l-0.4,0.2l-0.1,0.1l-2.7,2.4L33,23.7l-0.2,0.1v0.1l-0.2,0.2l-0.2,0.1l-0.8,0.7V25
		h-0.1l0,0l0,0l0,0L31,25.5v0.1l-0.2,0.2l-0.1,0.1l-0.2,0.3l-0.3,0.1l-0.6,0.6c-0.1,0.1-0.3,0.2-0.6,0.4l-0.2,0.4l-0.1,0.2l-0.3,0.4
		l-0.5,0.2l-0.2-0.1l-0.2,0.1L27,29.2l-0.6,0.4L25.7,30l-0.1,0.2l-0.2,0.2v0.1h0.1v0.2h-0.2l-0.7,0.4l-0.4,0.5L24,31.8l-0.6,0.6
		l-0.8,0.3l-0.4,0.1l-0.4-0.2v-0.2l0.2,0.1V32l0.1-0.4H22v-0.2l0.1,0.1l0.1-0.2l0.2-0.2l0.2-0.6l0.6-0.8c0.3-0.6,0.6-1.1,0.9-1.6
		l0.4-0.7c0.1-0.1,0.2-0.2,0.2-0.4v-0.2l0.6-0.9l0.5-0.9l0.2-0.2l0.1-0.3l0.6-0.8l0.3-0.5l0.2-0.3l0.1-0.1c0.2-0.4,0.5-0.7,0.7-1.1
		l0.4-0.7l0.2-0.2l0.4-0.6c0.1-0.1,0.2-0.2,0.2-0.3l0.2-0.2v-0.1l0,0v-0.1l0.1-0.1L30,19l0.2-0.2l1.1-1.5l0.1-0.1l0.1-0.1l0.9-1.3
		l0.2-0.3l0,0l0.2-0.2l0,0v-0.1l0.1-0.2l0.1-0.1l0.3-0.4l0.1-0.3l0.5-0.8L34,13v-0.2l0.1-0.2v-0.3l0.1-0.4c-0.1-0.2-0.3-0.3-0.6-0.2
		c-0.5,0.1-1,0.3-1.4,0.5l-0.1,0.1H32L30.7,13l0,0l-0.2,0.2l-0.2,0.2L30,13.6l-0.1,0.1h-0.3l-0.3,0.2l0,0h-0.1l0,0
		c-0.4,0.2-0.8,0.5-1.2,0.8c-0.1,0.1-0.2,0.2-0.3,0.2h-0.1L27.3,15h-0.1c-0.8,0.5-1.4,0.8-2.2,1.4c-0.2,0.2-0.4,0.3-0.6,0.5
		l-0.2,0.2L24,17.3l-0.2,0.2l-0.3,0.2l-0.1,0.2h-0.1h-0.1l-1.1,1l-0.5,0.6l-0.2,0.2l-0.6,0.5l-0.4,0.3L19.8,21L18,23l0,0l0,0
		l-1.2,1.3l-0.3,0.3c-0.1,0.2-0.2,0.2-0.3,0.3L16,25l-0.3,0.3L15.1,26L15,26.2l-0.4,0.3l-0.2,0.2L14.1,27l-1,1.1l-0.6,0.8l-0.4,0.5
		l-0.2,0.2l0,0.4l-0.2,0.3l-0.3,0.6l-0.6,0.5h-0.3c-0.5,0.6-1,1-1.5,0.9l-0.2,0.1l-0.1-0.2V32c-0.1-0.3-0.1-0.3,0.1-0.4l0,0l0.1-0.2
		L9,30.9l0.2-0.5L9.5,30l0.2-0.5l0.1-0.2L10,29l0.2-0.2l0.2-0.2l0.1-0.2l0.6-0.6l0,0l0.2-0.2l0.1-0.4v-0.1h0.1h0.2l0.3-0.6l0.1-0.1
		h0.1v0.1l0.2-0.2l0.1-0.3l0.2-0.2l0.1-0.2h0.1v-0.1l0.3-0.3l1.5-1.9l0.1-0.2l0.2-0.2l0.4-0.5l0,0l0.1-0.2l0.4-0.3l0.1-0.1v-0.1
		l1.8-2.1L18.4,18.5z"/>
	<path d="M54,25.5v0.2l-0.2,0.2L53.7,26c0,0,0,0,0,0.1v0.1l-0.1,0.2v0.8c0,0-0.1,0.5,0.1,0.6c0.2,0.2,0.1,0.2,0.9,0.5l0.5,0.1h0.4
		l0.5-0.1l2.2-0.5l0.4-0.2l1.2-0.4L60,27l0.1-0.1h0.1l1.8-0.8h0.1l0.2-0.1l0.3-0.1l1-0.4h0.1c1.1-0.5,1.5-0.7,2.6-1.2L67,24v-0.1
		l0.2-0.1l0.6-0.2l0.6-0.2v-0.1h0.1l0.4-0.2V23l1.7-1h0.2c0.2-0.1,0.4-0.3,0.7-0.5c0.1-0.1,0.2,0,0.2,0l0,0l0.1-0.1h0.1l0.1,0.3
		l-0.2,0.1L71.5,22l-0.2,0.1l-0.7,0.5l-0.2,0.2h-0.2l-0.1,0.1c-0.3,0.2-0.6,0.3-0.9,0.5l0,0L69,23.5l-0.1,0.1h-0.1l-1,0.5v0.1h-0.1
		l-0.2,0.1h-0.1L67,24.6l-1.2,0.5c-0.4,0.2-0.7,0.4-1.1,0.6l-0.1,0.1l-1.5,0.7L63,26.6l-0.1-0.1l-0.3,0.2l-0.4,0.1L62,26.9l0,0
		c-0.4,0.2-0.8,0.3-1.2,0.5l-0.5,0.2l-1,0.5l-0.3,0l-0.4,0.1l-0.5,0.2h-0.3l-0.1,0.1l-0.1,0.1l-0.4,0.1h-0.1
		c-0.4,0.1-0.8,0.2-1.2,0.3l-0.1,0h-0.2l0,0L55,29.1L54.8,29l-0.3,0.1L53.8,29l-0.7-0.3l-0.3-0.4l-0.2-0.4l-0.1-0.4V27v-0.1v-0.1
		v-0.2l0.2-0.8l0.2-0.4l0.2-0.6l0.2-0.3l0.1-0.1l0.1-0.2l0.2-0.2l0.1-0.2l0.2-0.3l0.1-0.1l0.3-0.2l0.1-0.2l0.2-0.1l0.2-0.2H55
		l0.3-0.3l0.3-0.2l0.2-0.3L56,22l0.2-0.2l0.1-0.1l0.2-0.1l0.1-0.1l0.2-0.2l0.2-0.1l0.2-0.1c0.7-0.5,1.4-1,2.1-1.4l0.1-0.1l0.3-0.2
		l0.4-0.2h0.1l0.4-0.2l0.2-0.1h0.1l0.4-0.1c0.3-0.1,0.7-0.2,1-0.3l0.3-0.2h0.3l0.2-0.1l0.1,0.1c0.2,0,0.5,0,0.7,0l0,0H64h0.1h0.1
		l0,0l0.2,0.1l0,0l0,0v0.1l0.1,0.1h0.1v0.1l0,0l0.2,0.1l0,0c0.2,0.1,0.3,0.2,0.3,0.4h0.1v0.1l0,0l0,0v0.2v0.1l-0.1,0.2l-0.1,0V20
		l-0.1,0.5l-0.2,0.4l-0.3,0.3L64,21.3l-0.3,0.2l-1.1,0.6l-0.2,0.1l-0.2,0.1c-0.7,0.5-1.5,0.9-2.2,1.3v0.1l-0.9,0.4l-0.4,0.3
		l-0.8,0.3l-0.6,0.2l-0.8,0.2H56h-0.2L55.6,25l-0.1-0.2l0.1-0.1l0.2-0.4l0.4-0.4l0.4-0.2h0.2l0.2,0.1l0.2,0.1h0.4l0.4-0.1l0.4-0.2
		h0.1l0.1-0.1l0.9-0.3l0.8-0.4l0.4-0.2l0.2-0.2l0.4-0.2l0.1-0.1l0.5-0.2l0.1-0.1l0.4-0.3l1.4-1.2l0.1-0.2l0.1-0.2l0,0.1l0.2-0.5l0,0
		v-0.1l-0.1-0.2L63.9,19l-0.2,0l-0.2-0.1h-0.3H63h-0.1c-0.8,0.2-1.7,0.6-2.2,0.9L60.2,20l-0.1,0.1L60,20.2h-0.1c0,0,0,0-0.1,0v0.1
		l-0.2,0.1l-0.1,0.1h-0.1l-0.7,0.4l-0.3,0.3l-0.2,0.2l-0.3,0.1l-0.1,0.1c-0.3,0.2-0.5,0.4-0.8,0.6l-0.2,0.2l-0.4,0.4L56.2,23
		l-0.3,0.3l-0.4,0.4L55,24.1l-0.1,0.1l-0.2,0.3l-0.2,0.3L54.2,25L54,25.5z"/>
	<path d="M83,27.7l-0.1-0.2l-0.1-0.1c-0.1-0.1-0.1-0.3-0.1-0.5v-0.1l0.1-0.3L83,26l0.2-0.3l0.2-0.2l0.3-0.3l0.3-0.5l0.2-0.3l0.1-0.1
		v-0.1l0.3-0.4l0.1-0.2l0.1-0.2v-0.1l-0.1,0.1h-0.1l-0.2,0.1h-0.1l-0.7,0.4l-0.2,0.2L83,24.5l-0.2,0.1l-0.2,0.1L81.9,25l-0.1,0.2
		l-0.4,0.2l-0.2,0.1l-0.6,0.4L80,26.4l0,0.1l-0.1,0.2l-0.2,0.1h-0.1c-0.1,0.1-0.2,0.2-0.3,0.2h-0.2l-0.2,0.1l-0.3,0.2l-0.2,0.1
		C78,27.8,77.6,28,77.3,28l0,0l0,0h-0.2H77l-0.1-0.1l-0.2-0.3c-0.1-0.2-0.1-0.4,0-0.8l0.1-0.6V26l0.2-0.3l0.1-0.1l0.3-0.6l0.1-0.1
		l0.5-0.6l0.2-0.3l0.1-0.1v-0.1l0.3-0.3l0.1-0.2l0.1-0.2l0.6-1l0.6-0.9l0.4-0.5L81,20h-0.5L80,19.7h-0.1h-0.1l0,0L79.3,20l-0.4,0.3
		l-1,0.5L77.6,21l-1.1,0.7L75.9,22h-0.1l-0.2,0.2l0,0l-0.1,0.1l-0.9,0.6l-0.4,0.3l-0.3,0.3l-0.6,0.6l-0.5,0.3
		c-0.1,0.1-0.2,0.2-0.3,0.2L72.3,25l-0.1,0.1L72,25.4l-0.2,0.1l-0.1,0.2h-0.1l-0.1,0.1h-0.1L71.3,26h-0.1l-0.8,0.7v0.1l-0.2,0.1
		L70,27l0,0l-0.4,0.3l-0.2,0.2l0,0L69,27.9V28h-0.1h-0.1l-0.3,0.3l-0.4,0.3L68,28.8v0.1l-0.3,0.3l-0.2,0.2l-0.2,0.3l-0.1,0.2L67,30
		l0,0l0,0v0.1v0.1l-0.2,0.1v0.1v0.1l-0.1,0.1v0.1l-0.1,0.1l0,0h-0.1h-0.1l-0.1,0.1l0,0l0,0l-0.3,0L65.7,31h-0.1l0,0h-0.2h-0.2H65
		l0-0.1L64.8,31h-0.1l-0.1-0.2l-0.1-0.1v-0.2l0.1-0.3l0.1-0.1l0,0V30l0.2-0.1l0.1-0.2l0.3-0.6l0.6-0.7l0,0v-0.1H66l0.3-0.5l0.2-0.2
		l0.2-0.3L67,27l0.1-0.1l0.2-0.3v-0.1l0.2-0.1l0.1-0.2l0.2-0.3l0.6-0.8l0.2-0.2l0.1-0.2l0.6-0.7l0.2-0.2l0.6-0.7l0.4-0.5l0.1-0.2
		l0.1-0.3l0.1-0.2l0.2-0.1l0.2-0.1l0.1-0.2l0.1-0.1v-0.1v-0.1l0.1-0.1V21l0.1-0.2l0,0l0,0l0,0l0.1-0.1v-0.1h0.1l0,0l0.2-0.2h0.1
		l0.2-0.5l0.2-0.2l0.1-0.2h-0.1l0.2-0.2l0.1-0.1l0.1-0.1l0,0l0,0l0,0l0,0v-0.3l0.1-0.3l0.1-0.1l0.2-0.3l0.3-0.2l0.1,0.1v-0.1
		l0.1-0.1h0.1l0.1-0.1h0.2h0.3H74l0.2,0.1l0.1,0.1V18l-0.2,0.2v0.2L74,18.6l-0.2,0.6l-0.5,0.3L73,19.8l0,0l-0.3,0.6v0.1l-0.1,0.2
		v0.2L72.4,21l-0.1,0.1l-0.1,0.1l0,0h-0.1v0.1H72v0.1l-0.1,0.1l-0.2,0.2l-0.2,0.4l-0.2,0.2l-0.1,0.3L71,22.8L70.7,23l-0.4,0.5
		l-0.2,0.1L69.8,24v0.1l-0.2,0.2l-0.3,0.4L69.2,25l-0.1,0.2l-0.2,0.3v0.1l-0.2,0.2l-0.3,0.3L68,26.6l-0.3,0.5l-0.3,0.4l-0.6,0.8
		l-0.2,0.6L66.5,29l0,0h0.1l0.1-0.1h0.1h0.1l0.1-0.1l0.2-0.1v-0.2l0.2-0.2l0.2-0.1l0.3-0.1l0.3-0.2l0.3-0.3l0.1-0.1h0.1l0.2-0.2
		L69,27l0.7-0.6l0.2-0.2l0.6-0.5l0.2-0.2l0.1-0.1l0.2-0.1l0.4-0.3l0.2-0.3h0.1l0.4-0.3l0.3-0.3l0.2-0.1v-0.1l0.6-0.6l0.2-0.1
		l0.3-0.3l0.1-0.1l0.2-0.1l0.3-0.2l0.2-0.2l0.3-0.3l0.8-0.6l0.2-0.2L76,21l0.6-0.2l0.4-0.2l0.1-0.2h0.1l0.1-0.1h0.1l0.2-0.2l0.1-0.1
		l0.2-0.1l0.3-0.2l0.4-0.2l0.5-0.3l0.1-0.1l0.5-0.2l0.9-0.2l0.7-0.3l0.3-0.1l0.2-0.1l0.1-0.1H82h0l-0.1,0.1h0.3h0.1l0.2,0.3
		l-0.1,0.3l-0.1,0.1c-0.2,0.4-0.6,0.8-0.8,1.1c-0.1,0.1-0.1,0.1-0.2,0.2l-0.2,0.2L81,20.9l-0.5,0.5l-0.3,0.4l-0.1,0.1l-0.2,0.3
		L79,23.5l-0.4,0.6l-0.3,0.7l0,0l0,0L78,25.4l-0.1,0.4l-0.1,0.1L77.7,26l-0.1,0.2v0.1v0.2l0.1,0.2v0.2l0.1,0.1v0.1l0,0l0.5-0.2h0.1
		c0.2-0.1,0.4-0.3,0.6-0.5l0.2-0.2l0.2-0.1c0.2-0.2,0.5-0.4,0.7-0.6l0.4-0.3l0.2-0.2l0.7-0.5l1.3-1l0.1-0.2l0.1-0.1l0.2-0.1h0.1
		c0.1-0.1,0.1-0.1,0.2-0.1l0.1-0.1v-0.1l0,0l0.1-0.1v-0.1l0,0l0.2-0.1l0,0l0,0h0.1H84l0.1-0.1H84l0.2-0.1h0.2l0.2-0.1h0.1l0,0h0.2
		l0,0h0.2l0.2,0.1l0.1,0.1v0.2l0,0l0,0L85.2,23L85,23.5v0.1L84.9,24l-0.3,0.4l-0.2,0.5V25l-0.2,0.2l-0.4,0.5L83.7,26l-0.2,0.3
		l-0.1,0.2l-0.1,0.3l0.1,0.3l0.2,0.2c0.2,0.1,0.6,0.2,1.1,0.1h0.2l0,0H85l0,0l0.1-0.1h0.4l0.3-0.1l0.2-0.1l0.2,0.1l0.1-0.1l0,0h0.2
		l0.6-0.3l0.4-0.2h0.2l0.2-0.2H88l0.4-0.2h0.2l0.2-0.1l0.4-0.2l0.4-0.2l0.9-0.4l0.1-0.1l1.1-0.6l0.1-0.1l0.4-0.2l0.2-0.1l0.4-0.2
		l0.2-0.2h0.1l0.1,0.2v0.1L92.8,24h-0.1l-0.2,0.1l-0.1,0.1l-0.1,0.1h-0.2l-0.9,0.6L91,25.1h-0.1l-0.4,0.2l-0.3,0.2L90,25.6l-0.1,0.1
		h-0.1L89.3,26l0.1,0l-0.2,0.1L89,26.2l-0.1,0.1l-0.1,0.1l-0.3,0.2h-0.1l-0.2,0.1l-0.1,0.1l-0.3,0.1L87.5,27l-0.6,0.2l-0.2,0.2h-0.1
		l-0.3,0.1c-0.1,0-0.2,0.1-0.3,0.1h-0.1h-0.2l-0.4,0.1l0,0h-0.1L85,27.8h-0.2h-0.2c0,0.2-0.2,0.2-0.4,0.2h-0.3c-0.1,0-0.2,0-0.4-0.1
		h-0.1L83,27.7z"/>
	<path d="M95.9,24l-0.7,0.7l0,0l-0.4,0.5l-0.4,0.4l-0.2,0.1l-0.7,0.7l-0.2,0.3L92.9,27l-0.2,0.2l-0.4,0.6v0.1L92,28c0,0,0,0,0,0.1
		l-0.1,0.2l-0.1,0.2h-0.1c0,0,0,0,0,0.1v0.1l-0.1,0.1l-0.1,0.1l0,0L91.4,29v0.1L91.2,29v0.1l0,0h-0.1v0.3L91,29.7l-0.1,0.1l-0.2,0.3
		l-0.3,0.2h-0.2l-0.1-0.1v0.1L90,30.2L89.8,30v-0.2v-0.2v-0.1l0,0v-0.1v-0.3V29v0l0.1-0.3l0.2-0.3l0.2-0.5l0.1-0.1v-0.1l0.6-0.9
		l0.1-0.2l0.1-0.1l0.1-0.1l0.1-0.1l0.3-0.6v-0.2l0.1-0.4l0.3-0.3h0.1l1.2-2l0.2-0.4v-0.2l0.1-0.1l0.1-0.2l0.1-0.2H94v-0.2l0.3-0.4
		l0.1-0.1l0.2-0.3l1-1.5l0,0l0.2-0.3c0.5-0.7,0.8-1.2,1.4-2.1l0.1-0.2l0.6-1l0.2-0.3l0.2-0.4l0.4-0.4l0.1-0.3l0.3-0.3l0.2-0.3l0.7-1
		l0.1-0.3l0.4-0.7l0.1-0.3l0.6-0.8l0.2-0.5l0.8-1.3l0.8-1.3l0.2-0.4l0.3-0.4l0.7-1.1l0.4-0.7l0.2-0.6l0.1-0.4V3.7l0.1-0.2V3.3
		l0.1-0.6V2.2l0.1-0.2l0.2-0.6l0.5-0.4h0.4l0,0l0.1-0.2l0,0c0.1-0.1,0.3-0.1,0.3,0.1l-0.1,0.3v0.2l0.1-0.1v0.1h-0.1l-0.1,0.1
		l-0.1,0.2L106.3,2L106,2.6l-0.2,0.9L106,4l-0.1,0.1l-0.3,0.4l-0.2,0.4L105.3,5l-0.1,0.2l-0.1,0.3c0,0.1-0.1,0.1-0.1,0.2v0.1l0,0
		v0.1h-0.1l0,0V6v0.2l-0.2,0.3L104.6,7l-0.2,0.2l-0.1,0.1l-0.2,0.2L104,7.7l-0.1,0.2h0.1V8l-0.1,0.1h-0.1l0,0V8l-0.1,0.1l-0.1,0.1
		v0.1h-0.1l-0.3,0.5l-0.1,0.1l-0.2,0.3l-0.1,0.2l-0.4,0.5V10l-0.5,0.7l-0.6,0.9l-0.3,0.5l-0.3,0.5l-0.1,0.1
		c-0.2,0.2-0.4,0.5-0.5,0.8v0.1l-0.2,0.2l-0.1,0.1l-0.6,0.8l-0.1,0.2l0,0H99L98.9,15l-0.3,0.5l0.4-0.1l-0.3,0.4l-0.1,0.1l-0.1,0.2
		l-0.1,0.1l-0.1,0.1l-0.1,0.2v0.1l-0.1,0.2H98l0,0.3L97.4,18l-0.7,0.7l-1.4,2.1L95.2,21l-0.1,0.2L95,21.5l-0.1,0.2V22L94,22.8
		l-0.2,0.3l-0.9,1.7l-0.3,0.6l-0.2,0.5l-0.2,0.2l-0.1,0.3l-0.3,0.4V27l0,0l-0.1,0.4l0.4-0.5l0.1-0.1l0.3-0.4l0.3-0.3l0.1-0.2
		l0.1-0.1l0.2-0.2l0.1-0.2l0.6-0.4l0.5-0.4L95,24l0.1-0.2l0.1-0.3l0.1-0.1h0.3l0.1-0.1l0.6-0.7l0.2-0.2l0.3-0.2l0.4-0.3l0.3-0.2
		l0.2-0.2l0.3-0.2l0.1-0.1l0.2-0.1l0.3-0.2l0,0l0.8-0.5l0,0l0.3-0.2l0.2-0.2l0.2-0.2l0.3-0.2l0.1-0.1v-0.2h0.1h0.2l0.2-0.1l0.6-0.1
		h0.1l0.2-0.1v-0.1l1-0.4l0.2-0.1h0.2c0.3-0.1,0.6-0.2,1-0.2h0.1h0.7l0.1,0.1c0.4,0.1,0.7,0.2,1.1,0.5c0.1,0.1,0.1,0.2,0.1,0.3
		l-0.1,0.5v0.2l-0.2,0.5l-0.2,0.5l-0.2,0.3l-0.2,0.2l-0.4,0.5v0.1l-0.1,0.2l-0.2,0.2l-0.1,0.1c-0.5,0.5-1,1-1.6,1.5L103,24l-0.1,0.1
		l-1.1,0.9l-0.4,0.4h-0.2l-0.4,0.3l-0.1,0.1l-0.3,0.2l-0.3,0.1l-0.3,0.2l-0.2,0.1l-0.2,0.1l-0.3,0.2l0.1,0.3H99
		c-0.6,0.3-1.2,0.6-1.8,0.8h-0.1l0,0L97,28h-0.1l-0.2,0.1l-0.1,0.1h-0.2h-0.2h-0.3l-0.3,0.1l-0.2,0.1l-0.3,0.1l-0.3,0.1l-0.4,0.1
		l-0.3,0.1v-0.1h-0.2h-0.2l-0.2-0.1h-0.1l-0.1-0.1l0,0l-0.2-0.1l0,0L93,28.3l-0.1-0.1L92.8,28l0.1-0.1l0.2-0.1l0.4-0.1l0.2-0.1h0.1
		h0.1l0.1,0.1l0,0.3l0.2,0.1l0.2,0.1h0.1h0.1h0.1c0.1,0,0.2,0,0.3,0h0.1h0.3h0.1l0.4-0.1l0.6-0.1h0.1l0,0h0.1c0.1,0,0.2-0.1,0.3-0.1
		l0.1-0.1l0.3-0.1l0.3-0.2l0.2-0.1l0.4-0.2l0.3-0.2l0.1-0.1l0.1-0.1l0.2-0.1l0.2-0.2l0.1-0.1h0.2l0.1-0.1l0.2-0.1l0.1-0.1h0.2
		l0.1-0.1l0.7-0.6l0.2-0.1l0.4-0.2l0.4-0.3l0,0c0.4-0.3,0.8-0.7,1.1-1c0.1-0.1,0.6-0.5,1-1l0.1-0.2l0.2-0.2l0.1-0.2l0.1-0.1l0.3-0.2
		c0.2-0.3,0.5-0.5,0.6-0.8l0,0l0.1-0.2l0.1-0.1v-0.1l0.1-0.2l0.1-0.2v-0.2l-0.1-0.2l-0.1-0.1l-0.1-0.1v-0.1v-0.1v-0.2l-0.4-0.3
		l-0.2-0.1h-0.1l-0.1-0.1h-0.2c-0.4,0.1-0.9,0.2-1.4,0.3l-0.2,0.1l-0.8,0.3l-0.2,0.1h-0.1h-0.1l-0.7,0.3l-0.1,0.1h-0.1h-0.1
		l-0.5,0.3L99.1,21l-0.6,0.4l-0.3,0.3L98,21.9l0,0.5l-0.4,0.3L97.1,23l0,0c-0.2,0.1-0.4,0.3-0.5,0.4l-0.3,0.3L95.9,24z M98.4,16.5
		l0.1-0.2L98.4,16.5z"/>
	<path d="M108,25.5v0.2l-0.2,0.2l-0.1,0.1c0,0,0,0,0,0.1v0.1l-0.1,0.2v0.8c0,0-0.1,0.5,0.1,0.6c0.2,0.2,0.1,0.2,0.9,0.5l0.5,0.1h0.4
		l0.5-0.1l2.2-0.5l0.4-0.2l1.2-0.4L114,27l0.1-0.1h0.1l1.8-0.8h0.1l0.2-0.1l0.3-0.1l1-0.4h0.1c1.1-0.5,1.5-0.7,2.6-1.2l0.7-0.2V24
		l0.2-0.1l0.6-0.2l0.6-0.2v-0.1h0.1l0.4-0.2v-0.1l1.7-1h0.2c0.2-0.1,0.4-0.3,0.7-0.5c0.1-0.1,0.2,0,0.2,0l0,0l0.1-0.1h0.1l0.1,0.3
		l-0.2,0.1l-0.3,0.1l-0.2,0.1l-0.7,0.5l-0.2,0.2h-0.2l-0.1,0.1c-0.3,0.2-0.6,0.3-0.9,0.5l0,0l-0.2,0.1l-0.1,0.1h-0.1l-1,0.5v0.1
		h-0.1l-0.2,0.1h-0.1l-0.4,0.3l-1.2,0.5c-0.4,0.2-0.7,0.4-1.1,0.6l-0.1,0.1l-1.5,0.7l-0.1,0.1l-0.1-0.1l-0.3,0.2l-0.4,0.1l-0.2,0.1
		l0,0c-0.4,0.2-0.8,0.3-1.2,0.5l-0.5,0.2l-1,0.5l-0.2,0.1l-0.4,0.1l-0.5,0.2h-0.3l-0.1,0.1l-0.1,0.1l-0.4,0.1h-0.1
		c-0.4,0.1-0.8,0.2-1.2,0.3l-0.1,0.1h-0.2l0,0l-0.6,0.1l-0.2-0.1l-0.3,0.1l-0.7-0.1l-0.7-0.3l-0.3-0.4l-0.2-0.4l-0.1-0.4v-0.5v-0.1
		V27v-0.2l0.2-0.8l0.2-0.4l0.2-0.6l0.2-0.3l0.1-0.1l0.1-0.2l0.2-0.2l0.1-0.2l0.2-0.3l0.1-0.1l0.3-0.2l0.1-0.2l0.2-0.1l0.2-0.2h0.1
		l0.3-0.3l0.3-0.2l0.2-0.3L110,22l0.2-0.2l0.1-0.1l0.2-0.1l0.1-0.1l0.2-0.2l0.2-0.1l0.2-0.1c0.7-0.5,1.4-1,2.1-1.4l0.1-0.1l0.3-0.2
		l0.4-0.2h0.1l0.4-0.2l0.2-0.1h0.1l0.4-0.1c0.3-0.1,0.7-0.2,1-0.3l0.3-0.2h0.3l0.2-0.1l0.1,0.1c0.2,0,0.5,0,0.7,0l0,0h0.1h0.1h0.1
		l0,0l0.2,0.1l0,0l0,0v0.1l0.1,0.1h0.1v0.1l0,0l0.2,0.1l0,0c0.2,0.1,0.3,0.2,0.3,0.4h0.1v0.1l0,0l0,0v0.2v0.1l-0.1,0.2l-0.1,0.1V20
		l-0.1,0.5l-0.2,0.4l-0.3,0.3l-0.3,0.2l-0.3,0.2l-1.1,0.6l-0.2,0.1l-0.2,0.1c-0.7,0.5-1.5,0.9-2.2,1.3v0.1l-0.9,0.4l-0.4,0.3
		l-0.8,0.3l-0.6,0.2l-0.8,0.2h-0.5h-0.2l-0.2-0.1l-0.1-0.2l0.1-0.1l0.2-0.4l0.4-0.4l0.4-0.2h0.2l0.2,0.1l0.2,0.1h0.4l0.4-0.1
		l0.4-0.2h0.1l0.1-0.1l0.9-0.3l0.8-0.4l0.4-0.2l0.2-0.2l0.4-0.2l0.1-0.1L116,22l0.1-0.1l0.4-0.3l1.4-1.2l0.1-0.2l0.1-0.2l0.1-0.1
		l0.2-0.5l0,0v-0.1l-0.1-0.2l-0.2-0.2l-0.2-0.1l-0.2-0.1h-0.3h-0.2h-0.1c-0.8,0.2-1.7,0.6-2.2,0.9l-0.4,0.2l-0.1,0.1l-0.2,0.1h-0.1
		c0,0,0,0-0.1,0v0.1l-0.2,0.1l-0.1,0.1h-0.1l-0.7,0.4l-0.3,0.3l-0.2,0.2l-0.3,0.1l-0.1,0.1c-0.3,0.2-0.5,0.4-0.8,0.6l-0.2,0.2
		l-0.4,0.4l-0.2,0.2l-0.3,0.3l-0.4,0.4l-0.4,0.5l-0.1,0.1l-0.2,0.3l-0.2,0.3l-0.3,0.3L108,25.5z"/>
	<path d="M123.4,25.5l-0.1,0.1l0.2-0.2l0.4-0.3L124,25h0.1h0.1l0,0l0.2-0.1l-0.1-0.1h0.2l0.6-0.5h0.1l0.5-0.5l0.6-0.3l0.5-0.4
		l0.1-0.1l0,0l0.6-0.5l0,0l0.9-0.6l0,0l0.6-0.4l0.2-0.2h0.1l0.3-0.2l0.1-0.1l0,0l0.6-0.4l0.2-0.2l0.2-0.1l0.5-0.2l0.3-0.3l0.3-0.2
		l0.6-0.2l0.3-0.1c0.2-0.1,0.6-0.3,1-0.5l0.2-0.2l0.6-0.2l0.6-0.2l0.1-0.1l0.3-0.2l0.3-0.1l0.2-0.1h0.4c0.5-0.2,1-0.2,1.4-0.2
		l0.2-0.1l0.1,0.1c0.2,0.1,0.3,0.2,0.4,0.2l0.1,0.1l0.2,0.2l-0.1,0.8l-0.4,0.7l-0.4,0.1h-0.3l-0.2-0.2v-0.3l-0.2,0.1V19h0.1v-0.2
		v-0.2l-0.1-0.4l-0.1-0.2l-0.5,0.1l-0.4,0.2H136h-0.2l-0.3,0.2h-0.2l-1.2,0.2c-0.6,0.2-1.1,0.5-1.3,0.6l-0.2,0.1l-0.2,0.2l-1.2,0.6
		l-0.5,0.3l-0.2,0.2l-0.6,0.3l-0.2,0.1l-0.3,0.2L129,22l-0.2,0.2l-0.9,0.6l-1.3,1.1l-0.2,0.3l-0.2,0.2l-0.4,0.4l-0.4,0.3l-0.1,0.1
		l-0.2,0.2l-0.2,0.2v0.1l-0.2,0.2l-0.3,0.3l-0.2,0.2l-0.1,0.1l-0.3,0.3l-0.1,0.2l-0.1,0.1l-0.1,0.2l-0.3,0.3l-0.5,0.5l-0.2,0.2
		l-0.1,0.2l-0.2,0.3l-0.1,0.2v0.1L122,29l-0.2,0.2l-0.5,0.4l-0.3,0.2l-0.3-0.1l-0.2-0.2l0,0c-0.1-0.1-0.1-0.2-0.1-0.3V29l0.1-0.1
		l0.1-0.4l-0.1,0.1v-0.1l0.1-0.2l0.1-0.4l0.2-0.3v-0.1v-0.1l0.1-0.1l0.1-0.2V27l0.3-0.2h0.1l0.1-0.1l0.4-0.5l0.2-0.3h0.1l0.2-0.3
		l0.2-0.5l0.2-0.2l0.1-0.2l0.3-0.4l0.1-0.1l0.4-0.6v-0.1l0.5-0.6l0.3-0.5l0.1-0.2l0.2-0.3v-0.1l0.1-0.1l0.2-0.3v-0.1l0.2-0.3h0.2
		l0.1,0.1l0.2-0.2l0.1-0.2v-0.2v-0.1l-0.1-0.1l0.1-0.1v0.1l0.1-0.1l0,0l-0.1,0.2c-0.2,0.2-0.3,0-0.3-0.2l0.1-0.1V20v-0.1l0.1-0.2
		v-0.1l-0.1-0.1l0,0l-0.2-0.1v-0.1l0.1-0.1h0.1h-0.1h0.1h-0.1v-0.1l0.1-0.2L126,19l0.1-0.2V19v-0.1H126h0.2v-0.2h0.1h0.1l0.1-0.1
		h0.2h0.2h0.2l0.1-0.1v-0.1l0.1-0.1h0.1h0.1l0.1,0.1l0,0l-0.2,0.1c0.2,0.1,0.4,0.2,0.4,0.4l0,0V19c0,0.4-0.3,0.8-0.6,1.2v0.1
		l-0.3,0.4h-0.2l-0.3,0.3l-0.1,0.2l-0.1,0.2l0,0c-0.2,0.2-0.3,0.5-0.5,0.6l0,0l-0.2,0.3l-0.1,0.2l-0.1,0.2l-0.3,0.5l-0.2,0.2
		l-0.1,0.1l-0.2,0.3l-0.4,0.6l-0.2,0.5l-0.2,0.3L123.4,25.5L123.4,25.5z"/>
</g>
</svg>
