<?xml version="1.0" encoding="utf-8"?>
<!-- Generator: Adobe Illustrator 22.1.0, SVG Export Plug-In . SVG Version: 6.00 Build 0)  -->
<svg version="1.1" id="レイヤー_1" xmlns="http://www.w3.org/2000/svg" xmlns:xlink="http://www.w3.org/1999/xlink" x="0px"
	 y="0px" viewBox="0 0 140 54" style="enable-background:new 0 0 140 54;" xml:space="preserve">
<g>
	<path d="M47.5,16.7l0.3-0.5l0.1-0.1l0.2-0.5l0.6-1.2l0.2-0.5v0l0.1-0.2l0.3-0.5c0.2-0.3,0.3-0.5,0.3-0.5L50,12l0.5-0.9l0.1-0.2
		l0.1-0.2l0.1-0.2l0.4-0.6l0.3-0.6l0.4-0.5l-0.1,0c-0.3,0.2-0.7,0.8-0.8,0.8c-0.5,0.3-1,0.6-1.5,1l-0.7,0.6l-0.1,0.1l-0.2,0.2
		l-1.2,0.7L47,12.3l-0.1,0.2l-0.2,0.2l-0.1,0l-0.1,0.1l-0.2,0.1l-0.2,0L46,13l-0.2,0.1l-0.1,0.2l-0.1,0.2l-0.5,0.1l-0.3,0.2
		l-0.4,0.2h-0.1L44.1,14l-0.4,0.3l-0.8,0.4l-0.2,0.1l-0.8,0.4l-0.2,0.1l-0.2,0.2l-0.8,0.4L40.4,16l-0.3,0.2l-0.4,0.2l-0.2,0
		l-0.4,0.2L39,16.7L38.5,17l-0.3,0.2l-0.2,0c-0.2,0.1-0.4,0.2-0.5,0.2l0,0l-0.3,0.1l-0.4,0.2l-0.2,0.1l-0.3,0
		c-1,0.5-2.1,0.9-3.2,1.3c-0.4,0.2-0.9,0.3-1.6,0.6l-0.5,0.2l-1.3,0.5l-1.9,0.4c-1,0.2-1.9,0.5-2.8,0.6l-0.2,0l-0.4,0h0
		c-0.2,0-0.3,0-0.4,0l-0.1,0h-0.3v0h-0.1v-0.1c-0.4,0-0.7-0.1-1-0.2c-0.2-0.1-0.4-0.2-0.6-0.3l-0.1-0.1h-0.1L21.7,21l-0.1-0.1v-0.2
		l0,0c-0.1-0.1-0.2-0.2-0.3-0.4v0c0,0-0.1-0.1-0.1-0.1L21.1,20L21,20L21,19.8l-0.1,0l0-0.1h0l-0.1-0.1l-0.1-0.1c0,0,0,0-0.1,0h-0.1
		l0-0.1c-0.1-0.1-0.1-0.1-0.1-0.2c0-0.3,0.1-0.6,0.1-1l0-0.2v-0.6l0-0.1v-0.2l-0.2-0.1l-0.1-0.1v-0.2l0.1-0.2h0.2l0-0.2l0.1-0.2l0,0
		c0-0.3,0.1-0.6,0.2-0.8L21,15v-0.1l0.1,0l0.2-0.3h0v-0.1l0.1-0.2l0.1-0.3l0.2-0.3h0v-0.1l0.1-0.1l0.1-0.2l-0.1,0l0.1-0.1v0.1
		l0.3-0.2h0.1l0.1-0.1l0.1-0.1v-0.1l0.1,0l0.1-0.1l0.3-0.2l0.1-0.3l0.2-0.3l0.3-0.1l0.5-0.2c0.7-0.6,1.4-1.1,2.1-1.6l0.1-0.1
		l0.2-0.2l0.1,0l0.2-0.2V9.7l0.1-0.1h0.1l1.3-0.8l0,0l0.1-0.1l0.4-0.2l0,0l0.2-0.1L29,8.2h-0.1l0-0.1L29,8h0v0l0,0.1L29.1,8l0.1,0
		l0.1,0l0-0.1l0,0h0.1L30,7.6l0.9-0.5V7L31,7l0.2,0l0.4-0.3l0.2-0.2h0.1l0.4-0.2L32.7,6L32.8,6h0.1l0.2-0.1l0.7-0.4L34,5.5l0.1-0.1
		h0l0.6-0.3h0.1l0.1-0.1L35,4.9l0.1,0l0.6-0.3L36,4.5l0.2-0.2l0.4-0.1c0.8-0.3,1.5-0.6,2-0.9l0.2,0l0.2-0.1h0l0.7-0.4l0.2-0.2
		l0.2-0.1l0.2,0h0.2l0.1-0.1h0.2c0,0,0,0,0.1,0l0.1-0.1L41,2.2l0.2-0.1h0.1l0.1-0.1h0.3L41.9,2l1-0.3l0.5-0.2l0.1,0l0.6-0.1H44
		l0.2-0.1l0.3-0.1l0,0h0.1L45,1.1l0.2-0.1L45.3,1h0.1l0,0l0.1,0l0-0.1l0,0l0.2,0v0l0,0l0,0.1h0.4l0.2-0.1l0.1,0l0.2,0v0l0.1,0l0.1,0
		l0.3,0l0.6,0.1l0.4-0.1l0.2,0.1l0.1,0h0.1l0,0h0l0,0.1l0.1,0L48.9,1v0.1c0.1,0,0.3,0.1,0.4,0.1s0.2,0.1,0.2,0.2v0.1l0.1,0.1
		l0.1,0.2l0.1,0.5l0.2,0.4L50,3.3l-0.1,0.5l-0.6,0.5l-0.2,0.1h-0.2L48.6,4l0.1-0.5V3.4l-0.1-0.1V3.1l0.1-0.4l0-0.3l0-0.3V1.7
		l-0.2-0.1l-0.3-0.1H48l-0.2,0l-0.3-0.1l-0.3-0.2l0,0l-0.1,0v0h0l0,0l-0.2,0.1l-0.3,0.1l-0.2,0.1h-0.1l-0.1,0l-0.1,0L46,1.4l-0.2,0
		l-0.2-0.1l-0.2,0.2l-0.1,0h-0.1l-0.2,0.1L45,1.6l-0.1,0.1l-0.2,0.1l-0.1,0l-0.1-0.1l-1,0.3l-0.1,0.1l-0.1,0l-0.6,0.2l-0.2,0.1
		l-0.1,0L42,2.6l-0.1,0l-0.1,0l0,0l-0.2,0l-0.8,0.2l-0.5,0.2l-0.5,0.1l0,0.1l-0.6,0.2l-0.2,0.1l-0.2,0.1l-0.3,0.1l-0.2,0.1l-0.1,0.1
		l-0.1,0l-0.6,0.2l-0.6,0.3l-0.4,0.3h-0.1L36.1,5l-1.4,0.7L34.1,6l-0.7,0.3l-0.1,0.1l-0.8,0.4L32.4,7l-0.3,0.2L32,7.1l-0.3,0.2
		l-0.4,0.2l-0.1,0l-0.1,0.1L30,8.3c0,0,0,0-0.1,0.1v0.1l0-0.1c0,0-0.1,0.1-0.1,0.1l-1.7,1.1l-0.3,0.3l-0.2,0.1h0l-0.8,0.6l0,0.1
		l-0.2,0.2h-0.1c-0.2,0.2-0.3,0.3-0.5,0.4l-0.3,0.3l-0.2,0l0,0.2v0.1l-0.1,0l0,0.1l-0.2,0.2l-0.3,0.2l-0.1,0.1l-0.3,0.1l-0.1,0.1
		c-0.6,0.6-1.2,1.1-1.7,1.7l0,0.1v0.2l-0.1,0l-0.1,0.2l-0.2,0.1l-0.3,0.4l-0.1,0l-0.4,0.7c0,0,0,0,0,0.1l0,0.1l-0.1,0.2l0,0.2
		l-0.1,0.3L21,16.9L21,17.1l0,0v0l-0.1,0.2l-0.1,0.3c0,0.2-0.1,0.4-0.1,0.5l0,0l0,0.1v0.1l0,0.1v0.2c0,0.3,0.1,0.5,0.3,0.7l0.1,0
		l0.1,0l0.1,0.1h0l0,0l0.1,0.1l0.1,0.1l0.1,0.2l0.1,0.1l0.3,0.2l0-0.1h0.1l0.2,0.1l0,0.1l0,0.1c0.2,0.1,0.4,0.1,0.6,0.2l0.2,0l0.1,0
		h0.1l0.1,0.1l0,0c0.4,0.1,0.8,0.1,1.2,0.1h0.1l0.1-0.2l0.2,0l0.2,0l0.3,0l0.3,0.1c0.1,0,0.1,0,0.2,0l0.5-0.1l0.2,0l0.3,0l0.1,0
		l0.2-0.1c0.6-0.1,1.1-0.2,1.8-0.4l0.1-0.1l0.2,0l0.1-0.1l0.1,0c0.7-0.2,1.4-0.4,2.2-0.6l0.2-0.2L32,19l0.6-0.1l0.4-0.2l0.6-0.2
		c1.1-0.4,2.2-0.9,3.3-1.4l0.1,0l0.1-0.1h0.1l1.2-0.6h0.1l0.2-0.2l0.2-0.1l1.2-0.6l0.5-0.2l0.1-0.1l0.5-0.2l0.1-0.1l0.3-0.1l0.2-0.2
		l0.2-0.2l0.2-0.1l0.8-0.4l0.3-0.2l1-0.6l0.1-0.1l0.5-0.2l0.1-0.1l0.1,0l0.1,0l1.4-0.9l0.2-0.2l0.1,0l1.1-0.7v-0.1l0.1,0l0-0.1
		l0.2-0.1l0.3-0.2c0.2-0.1,0.4-0.3,0.6-0.4l0.2-0.2v-0.1l0.2-0.1l1-0.7L50.6,9l0.2-0.2l0.3-0.1l0.1-0.2L52,7.6l0.2-0.3L52.5,7
		l0.4-0.4l1-1L54.4,5l0.2-0.4L55,4.1l0.3-0.3l0.2-0.1l0.1-0.1l0.2-0.2c0.2-0.2,0.5-0.4,0.7-0.4c0.1,0,0.2,0,0.2,0.1l0-0.1l0.2,0.1
		L57,3.3l-0.2,0.6l-0.3,0.3l0,0.2l-0.1,0.2L56.1,5L56,5.2l-0.1,0l0,0.2h-0.2l-0.1,0.1l-0.1,0.2l-0.1,0.2l-0.2,0l-0.4,0.4l0,0.1
		l-0.4,0.6l-0.2,0l-0.1,0.2l0,0.1l-0.7,1.1v0.1l-0.2,0.2l0,0.2L53.3,9l-0.1,0.1L53,9.2l-0.1,0.2l-0.3,0.2l-0.5,0.8l-0.2,0.4
		l-0.2,0.4l-0.1,0.4L51.3,12L51,12.3l-0.1,0l-0.6,0.9l-0.2,0.2l-0.9,1.3L49,15.4h0l-0.2,0.4l-0.3,0.3c-0.4,0.8-0.9,1.7-1.1,2
		l-0.2,0.4l0,0.2l0,0.1L46.9,19l-0.6,1l-0.1,0.1c-0.1,0.1-0.2,0.2-0.2,0.4l0.3-0.1c1.4-0.3,2.5-0.5,3.2-0.5c0.1,0,0.2,0,0.2,0
		l0.7-0.1h0.4l0.7,0.1l0.1,0l0.9,0h0.2l1.7,0.1h0.4l0.2,0l0.4,0l0.1,0l0,0.1l0,0.1l-0.1,0h-0.6l-0.1,0l-1.3-0.1l0,0l-0.1,0h-0.3
		c-0.1,0-0.2,0-0.2,0l-0.1,0h-0.2l-1.3,0l-0.1,0l-0.3,0l-0.2-0.1c-0.8,0-2,0.2-3.3,0.5l-1.9,0.5l-1,1.6l-1.7,2.3l-0.2,0.2
		c0,0,0,0-0.1,0.1l-0.2,0.2l-0.1,0.1c-0.8,1-1.5,1.9-2.3,2.8l0,0l-0.8,1l-0.2,0.1l-0.8,0.8l-0.2,0.3l-0.1,0.2l-0.4,0.4l-0.2,0.2
		l-0.7,0.6l-0.1,0.2l-0.6,0.5c-1.4,1.3-1.4,1.4-2.2,2.1l-0.7,0.6l-0.2,0.2v0h0L31,37h0l-2.6,2.2l-0.2,0.2L28,39.5h-0.1
		c-1.3,1-2.6,2-3.8,2.9L24,42.6l-0.2,0.1l-1.4,1.1h0v0l-0.1,0.1h-0.1l-0.5,0.3l-0.1,0.1l-0.2,0.2L21,44.6l-0.3,0.2l-0.2,0.1L20.4,45
		L20.4,45h-0.1l0,0h-0.1l-2.9,1.7l-0.2,0c-1.5,0.8-3,1.6-4.6,2.2c-0.5,0.2-1,0.3-1.6,0.5c-0.3,0.1-0.6,0.2-0.8,0.3
		c-0.3,0.1-0.5-0.1-0.8,0c-0.6,0.1-1.4,0.2-2.1,0.1c-0.3,0.1-0.6,0.1-0.9,0c-0.2,0-0.3-0.1-0.4-0.2c-1.2-0.2-2.3-0.7-3.4-1.5L2.4,48
		l-0.1,0L2.2,48l-0.1-0.1v0H2l0,0l0-0.1l0-0.1l-0.1-0.1l-0.1-0.3l-0.3-0.4l-0.1-0.2v-0.1l-0.1-0.4l-0.1-0.2l0,0.1L1.1,46v-0.2l0,0
		l0.1,0l0-0.1l0-0.1l0-0.1l-0.1-0.1l0-0.1l0,0l0.1-0.7l0.1-0.3c0.1-0.5,0.1-0.9,0.2-1.4v-0.2l0.1-0.2l0.1-0.2l0.1-0.2L1.8,42h0
		c0.3-0.9,0.8-1.7,1.3-2.2l0.1-0.2L3.8,39l0.1-0.1l0.2-0.3l0.4-0.2l0.2-0.2L5,37.7l0.2-0.1l1.4-1.4l0.2-0.1l0.2-0.3l0.3-0.3
		c0.2-0.2,0.4-0.4,0.8-0.7l0.3-0.2l0.9-0.6l0.2-0.3l0.3-0.2l0.6-0.2c0.5-0.3,0.6-0.3,0.6-0.3l0.2-0.2l1.5-0.9l0.6-0.3l1.1-0.7l0.1,0
		l0.1-0.1l0.6-0.2c1.4-0.7,1.7-0.9,2.3-1.2l0.2-0.1c0.5-0.2,0.9-0.4,1.3-0.6l2-0.8l0.4-0.2l0.7-0.2l0.4-0.1l1.7-0.6l1.5-0.5
		c0.1,0,0.2-0.1,0.8-0.3l0.4-0.1H27c0.1,0,0.1-0.1,0.6-0.2c0.4-0.1,0.6-0.2,1.2-0.4c0.2-0.1,0.3-0.1,0.5-0.2l0.3-0.2l0.2,0l0.7-0.2
		l3.2-1l0.2-0.2l0.2,0l2.1-0.6l0.9-0.3l0.3-0.1l0.6-0.4l0.5-0.1l0.9-0.3l1.5-0.3l1.4-0.3l0.8-0.2l1.1-0.2c0.1,0,0.2,0,0.2-0.1
		l0.3-0.1l0.3-0.4l0.2-0.4l0.3-0.5l0.5-0.9l0.1-0.2l0.5-0.7l0.1-0.3C47.5,16.7,47.5,16.7,47.5,16.7z M37,23.2l-1.8,0.6l-1.2,0.4
		l-1.2,0.3l-1.1,0.3l-1.4,0.5l-0.6,0.2h-0.2l-0.1,0L29,25.7l-1.2,0.4l-1,0.2L26,26.5c-0.1,0-0.1,0.1-0.4,0.2L24.6,27l-0.2,0.2
		l-1.1,0.2c-0.1,0-0.2,0.1-0.6,0.2l-0.6,0.2L21.9,28l-0.6,0.2c-0.5,0.2-1,0.4-1.5,0.6l-0.6,0.6l-0.1,0l-0.6,0.2l-1,0.5l-2.7,1.4
		l-1,0.6l-0.1,0.3L13,32.5l-1.2,0.6l-1.6,1.2l-0.2,0.2l-0.3,0.1l-0.2,0.2l-0.5,0.2l-0.2,0.1c-0.3,0.2-0.3,0.2-0.7,0.5l-0.6,0.5
		c-0.9,0.7-1.7,1.4-2.5,2.3l0,0.1l-0.2,0.2L4.6,39l-0.2,0.2l-0.1,0l-0.5,0.6c-0.5,0.7-1,1.5-1.3,2.3v0.4v0.1l-0.2,0.2l-0.1,0.1
		c-0.1,0.3-0.2,0.6-0.2,0.8l0.1,0.1v0.3l-0.1,0.1L2,44.3v1.1l0,0.1l0,0.1v0.2c0.1,0.3,0.1,0.5,0.2,0.8l0,0l0.2,0.2l0.2,0.1l0,0.1
		l0,0l0,0.1v0.2l0,0.1l0,0.2l0.4,0.4l0.2,0L3.6,48l0,0.1C4.2,48.6,5,48.9,6,49l0.4,0.1h0.3c0.1-0.1,0.6-0.1,0.7,0
		c0.3-0.1,0.6,0,0.8-0.2c0.2,0.1,0.4-0.1,0.7,0c0.4-0.1,0.7-0.2,1.1-0.2c0.4-0.1,0.7-0.3,1-0.3c0.1,0.2,0.4,0,0.5,0.2
		c0.3-0.3,0.7-0.6,1-0.8c0.6-0.3,1.4-0.4,2.1-0.6l1.2-0.6c0.4-0.1,0.7-0.2,1-0.5c0.2,0,0.3,0,0.4-0.1c0.3-0.2,0.6-0.6,1-0.6
		c0.1-0.1,0.2-0.3,0.4-0.2l1.3-0.8l0.1-0.1l0.3-0.2l0.1-0.1l0.1,0c0.7-0.5,1.5-1,2.5-1.7l2.2-1.6l1.6-1.2l0.7-0.6l0.1,0l1.3-1
		l0.8-0.7c0.2-0.1,0.3-0.2,1.8-1.7l3.4-3.1l1.9-2.1l1.8-1.7l0.4-0.3c0.2-0.3,0.5-0.5,0.7-0.8l1.4-1.6l0.2-0.3l0.1-0.1l0.5-0.6
		l1.4-1.9c0.1-0.1,0.1-0.1,0.2-0.2l0.1-0.1l0.2-0.4l0.1-0.3l0.7-0.8l-1.5,0.3l-1,0.3l-0.7,0.3l-0.2,0.1L41,22.3l-0.4,0.1l-1.7,0.3
		L37,23.2z"/>
	<path d="M61.3,24.8L61.3,24.8l0.1-0.2l0.6-0.7l0.1-0.2l0.1-0.1l0-0.1l0.1-0.1l0.4-0.4l0.1-0.2v-0.1l0,0l0.1-0.3l0,0l-0.2,0h-0.3
		l-0.4,0.1L61.2,23L61,23l-0.2,0l-0.9,0.6h0l-0.2,0.2l-0.2,0.1L59.2,24l-0.7,0.3l-0.7,0.4l-0.3,0.1l-0.5,0.2l-0.2,0.1l-0.4,0.2
		l-0.2,0.1l-0.6,0.3l-0.2,0.1L55.4,26l-0.3,0.1l-0.3,0.1l-0.7,0.4l-0.1,0.1l-0.3,0.2h-0.1v0h-0.3l-0.4,0.2h-0.2
		c-0.1,0.1-0.2,0.1-0.3,0.1l-0.1,0.1l-0.6,0.2l-0.1,0l-0.5,0.2l-0.1,0l-0.1,0H51l-0.2,0h0c-0.5,0.1-0.9,0-1-0.4
		c-0.1-0.4,0-0.9,0.2-1.4l0.1-0.4l0.1,0l0-0.1l0.1-0.2l0.1-0.1l0.1,0v0l0.1-0.2l0.2-0.3l0.3-0.2l0.1-0.1l0.2-0.4l0.1-0.2l0.2-0.2
		l0.4-0.3l1.4-1.2v0h0l0.4-0.3l0.1-0.1l0.5-0.4l0.2-0.2l0.8-0.6l0,0l0.4-0.4l0.2-0.2l0.1-0.2l0.1,0l0.2,0l0.1-0.1l0.2-0.1l0.1,0
		l0.2,0l0.1-0.1v-0.1l0.2-0.1l1-0.5l0.2-0.2l0.1-0.1l0.2-0.1l0.1,0l0.1,0l0.3-0.1h0.1l0.2-0.1l0.2,0l0.2-0.1l0.2-0.1l0.1,0l0.3,0.1
		l0.2,0h0.2l0.1,0h0.1v0h0.1l0.1,0.1l0,0.1l0.1,0l0.1,0.2v0.3l-0.1,0.1c0,0.1-0.1,0.2-0.3,0.4c-0.1,0.1-0.2,0-0.2,0l-0.3,0.1l-0.2,0
		h-0.6l-0.5-0.1v0h-0.1v0h-0.1l-0.2,0h-0.2l-0.4,0.2l-0.5,0.2l-0.7,0.3l-0.5,0.2c-0.2,0.1-0.3,0.2-0.5,0.3c0,0,0,0,0,0l-0.3,0.2l0,0
		l-0.1,0l-1.4,1l-0.1,0.1L54,22.4l-0.2,0.2l-0.2,0.1l-0.3,0.2L53.2,23l-0.3,0.3l-0.1,0.1l-0.1,0.1l-0.4,0.5l-0.1,0.1L52.3,24
		l-0.1,0.1l-0.1,0.1L52,24.3H52l-0.1,0.2l-0.1,0.2l-0.1,0.1l-0.2,0.2l-0.2,0.2l-0.3,0.4v0.1l0,0.2l0,0.1v0.1L51,25.9L50.9,26
		l-0.1,0.1l-0.2,0.2l-0.1,0.2v0.1l0,0.1v0.2l0.1,0.1l0.1,0.2l0.1,0.1l0.6-0.2l0.3-0.1l0.4-0.2h0l0.2,0c0.4-0.2,0.8-0.3,1.2-0.5
		l0.2-0.1l0.2-0.1l0.2-0.1h0.2c0.3-0.2,0.7-0.3,1-0.5l0.2-0.1l0.2-0.1v0l0.1,0l0.1-0.1l0.1,0l0.5-0.2l0.2-0.1l0.2-0.1l0.8-0.4
		l0.2-0.2l0.9-0.4l0.2-0.1l0.6-0.3l0.3-0.2l0.6-0.3l0.2-0.1l0.2-0.2l0.2-0.1l0.4-0.2l0.4-0.2l1-0.2H63l0.3,0.1l0.2,0.1l0.1,0.1
		c0.1,0,0.2,0.1,0.2,0.2v0l0.1,0v0.1l0,0.1H64l0,0.1l0,0l-0.1,0.1l-0.1,0.1l-0.1,0.1l-0.2,0.2c0,0.1-0.1,0.1-0.2,0.2l-0.2,0.3
		L63,23.4l-0.1,0l-0.4,0.4l-0.1,0.1v0l-0.1,0l-0.2,0.2l-0.1,0.1l-0.1,0.1l-0.2,0.3c-0.1,0.1-0.1,0.2-0.1,0.2l-0.1,0.2l0,0
		c-0.1,0.1-0.1,0.2-0.1,0.3c0,0.1,0,0,0.1,0.1c0,0,0.1,0,0.1,0l0.2,0h0.2l0.1,0h0.2l0.2,0l0.1,0c0.2,0,0.4-0.1,0.7-0.2l0.2-0.1
		l0.2-0.1h0.2L65,25l0.1-0.1l0.3-0.1v0l0.4-0.1l0.2-0.1l0.1,0l0.1-0.1l1-0.3v-0.1l0.1,0.1l0.3-0.1l0.1-0.1l1.5-0.4h0.2l0.8-0.2
		c0,0,0.1,0,0.1,0h0.1l0,0.2l-0.1,0.1H70l-0.5,0.1L69.1,24H69l-0.5,0.1l-0.2,0.1l-0.7,0.3L67,24.7l-0.6,0.2l-0.7,0.2l-0.1,0.1
		l-0.3,0.1l-0.2,0.1l-0.2,0.1h0l-0.2,0.1l-0.2,0.2l-0.1,0l-0.1,0.1l-0.8,0.3v0.1l0,0l-0.2,0.1l0,0.1l-0.5,0.2l-0.5,0.2L62,26.8l0,0
		l0-0.1l-0.1,0l-0.1,0.1l-0.1,0l0,0l-0.2,0.1h-0.3l-0.1,0h-0.2l-0.2-0.1l-0.1-0.1l-0.1-0.1l0-0.2l0-0.1c0-0.1,0-0.2,0-0.4l0.1-0.2
		l0-0.1l0.2-0.3l0.1-0.2l0.2-0.3L61.3,24.8z"/>
	<path d="M73.5,27.1c0.4-0.2,0.8-0.4,1.2-0.6l0,0l1.6-0.9l0.2-0.2l0.2-0.2l0.1-0.1l0.4-0.3l0.2,0l0.1-0.1l0.6-0.4h0.2l0.1-0.1l0.1,0
		l0.1-0.1l0.2-0.1l0.1,0l0.2-0.2l0.2-0.1l0.1-0.1l0.2-0.2l0.3-0.1l0.3-0.2c0.2-0.1,0.4-0.3,0.6-0.4c0,0,0.1,0,0.1,0l0.1-0.1h0.1
		l0.1,0l0.1,0.1l0,0.1L81.1,23l-0.1,0l-0.1,0.1l-0.1,0.1h-0.1c-0.6,0.4-1.2,0.7-1.8,1.1l-0.2,0.2l-0.3,0.1l-0.2,0.1
		c-0.2,0.1-0.3,0.2-0.4,0.2c-0.2,0.1-0.4,0.5-0.6,0.6l-0.7,0.4l-0.2,0.2l-0.2,0.1l-0.4,0.2l-0.1,0.1l-0.1,0.1l-0.3,0.2L74.8,27
		l-0.2,0.1l-0.4,0.2L74,27.4l-0.1,0.1l-0.6,0.4l-0.2,0.2L73,28.2l-0.2,0.2l0,0.2l-0.1,0.1l-0.2,0l-0.2,0.1l-0.6,0.1L71.1,29l0,0
		l-0.4,0.2h-0.2l-0.1,0.1l-0.7,0.3h-0.1l-0.1,0.1h-0.2l-0.1,0.1l-0.1,0.1h0l-0.1,0l-0.1,0h-0.1l-0.1-0.1l-0.1-0.1l-0.5-0.2l-0.1,0
		l-0.2-0.3c-0.1-0.2-0.3-0.5-0.3-0.7c0-0.3,0-0.7,0.2-1h-0.1v0h0l0.1-0.1l0-0.1l0.1-0.2l0.3-0.5l0.2-0.7l0.2-0.3l0.2-0.1l0.2-0.3
		l0.2-0.3l0.2-0.5h0.1l0.1-0.1l0-0.1l0.1-0.2l0.1,0l0.5-0.7l0.1-0.2l0.3-0.4l0.2-0.3l0.5-0.7l0.1-0.2l1.2-1.7l0.2-0.3l0.2-0.2v-0.1
		l0.3-0.4l0.1-0.2l0.1-0.1l0.5-0.7l0.2-0.1l0.1-0.2l0.1,0l0.1-0.1l0-0.1l0.1-0.2l0,0l0.1-0.1l0.1-0.1l0.2-0.2v0l0-0.2l0.2-0.2
		l0.2-0.2l0.2-0.2l0.5-0.7v0l0.1-0.1l0.1-0.3l0.1-0.1h0.1c0.1-0.2,0.2-0.3,0.3-0.5l0.1-0.2l0.2-0.3l0.2-0.2l0.1-0.1l0.1-0.2l0.1-0.1
		c0,0,0-0.1,0.1-0.1V13l0.1-0.2l0.1-0.1v-0.1l0.1-0.1v-0.1l0.5-0.6l0.1-0.1l0.1-0.2l0.3-0.4l0.1,0l0.2-0.2l0.2-0.2l1-1.5L80.2,9
		l0.4-0.7l0.2-0.2l0.2-0.4l0.1-0.1l0.4-0.6L81.7,7v0l0.1-0.1l0-0.1l0.1-0.2L82,6.6l-0.1,0.1l0-0.1v0l0.1-0.2l0.2,0v0.1l0.1-0.2
		l0.2-0.2l0.2-0.2l0-0.1l0.2-0.3l0.6-0.4l0.3-0.4l0.2-0.1l0.1-0.1L84,4.4v0h0l0.1,0l0.1,0l0.1-0.1l0.2-0.2L84.7,4l0.1-0.1l0-0.1h0.1
		l0,0.1L85,3.8l0.1,0l0,0c0.1,0,0.1-0.1,0.1-0.1h0.1l0-0.1V3.6h0.1v0l0.2,0l0.2,0l0.1,0.2l0.2,0.3l-0.2,0.6L85.4,5l-0.5,0.3
		l-0.1,0.2l-0.6,0.2L84,5.8l-0.2,0.3l-0.4,0.4l-0.1,0.1l-0.5,0.5l-0.7,1l-0.3,0.2l-0.2,0.3l-0.4,0.4v0l-0.4,0.6l-0.2,0.2L80,10.8
		l-0.4,0.4l-0.5,0.7l-0.6,0.9l-0.2,0.2L77,14.8l-0.2,0.3l-0.2,0.4l-0.3,0.3l-0.3,0.4L75,17.3l0,0.2l-0.3,0.4l-0.1,0v0.1l-0.2,0.1
		l0,0.2l-0.1,0.1l-0.1,0.1h0l-0.6,0.9l-0.3,0.4l-0.1,0.2l0,0.3L73,20.5l-0.2,0.3l-0.2,0.1l-0.1,0.3l-0.2,0.2L72,21.7l-0.3,0.5
		l-0.2,0.1l-0.3,0.4v0.1L71,23.1l-0.4,0.5c0,0,0,0,0,0l-0.3,0.6c0,0-0.1,0.1-0.1,0.1l-0.2,0.3l-0.2,0.4l-0.2,0.2l-0.8,1.4l0,0.3
		l-0.1,0.2l-0.2,0.4l-0.1,0.1l-0.1,0.1l0,0.4l0.1,0.2l0.1,0.1l0.1,0.1l0.1,0l0.3,0.2h0.2l0.4-0.1l0.1-0.1l0.3-0.1l0.1-0.1l0.3-0.2
		l0.6-0.2l0.1-0.1l0.3-0.1l0.2-0.1l0.4-0.2l0.3-0.2l0.6-0.3L73.5,27.1L73.5,27.1z"/>
	<path d="M83.8,27.1c0.4-0.2,0.8-0.4,1.2-0.6l0,0l1.6-0.9l0.2-0.2l0.2-0.2l0.1-0.1l0.4-0.3l0.2,0l0.1-0.1l0.6-0.4h0.2l0.1-0.1l0.1,0
		l0.1-0.1L89,24l0.1,0l0.2-0.2l0.2-0.1l0.1-0.1l0.2-0.2l0.3-0.1l0.3-0.2c0.2-0.1,0.4-0.3,0.6-0.4c0,0,0.1,0,0.1,0l0.1-0.1h0.1l0.1,0
		l0.1,0.1l0,0.1L91.3,23l-0.1,0l-0.1,0.1l-0.1,0.1H91c-0.6,0.4-1.2,0.7-1.8,1.1L89,24.5l-0.3,0.1l-0.2,0.1c-0.2,0.1-0.3,0.2-0.4,0.2
		c-0.2,0.1-0.4,0.5-0.6,0.6l-0.7,0.4l-0.2,0.2l-0.2,0.1l-0.4,0.2l-0.1,0.1l-0.1,0.1l-0.3,0.2L85,27l-0.2,0.1l-0.4,0.2l-0.2,0.2
		l-0.1,0.1l-0.6,0.4l-0.2,0.2l-0.1,0.1L83,28.5l0,0.2l-0.1,0.1l-0.2,0l-0.2,0.1l-0.6,0.1L81.3,29l0,0l-0.4,0.2h-0.2l-0.1,0.1
		l-0.7,0.3h-0.1l-0.1,0.1h-0.2l-0.1,0.1l-0.1,0.1h0l-0.1,0l-0.1,0H79l-0.1-0.1l-0.1-0.1l-0.5-0.2l-0.1,0l-0.2-0.3
		c-0.1-0.2-0.3-0.5-0.3-0.7c0-0.3,0-0.7,0.2-1h-0.1v0h0l0.1-0.1l0-0.1L78,27l0.3-0.5l0.2-0.7l0.2-0.3l0.2-0.1l0.2-0.3l0.2-0.3
		l0.2-0.5h0.1l0.1-0.1l0-0.1l0.1-0.2l0.1,0l0.5-0.7l0.1-0.2l0.3-0.4l0.2-0.3l0.5-0.7l0.1-0.2l1.2-1.7l0.2-0.3l0.2-0.2v-0.1l0.3-0.4
		l0.1-0.2l0.1-0.1l0.5-0.7l0.2-0.1l0.1-0.2l0.1,0l0.1-0.1l0-0.1l0.1-0.2l0,0l0.1-0.1l0.1-0.1l0.2-0.2v0l0-0.2l0.2-0.2l0.2-0.2
		l0.2-0.2l0.5-0.7v0l0.1-0.1l0.1-0.3l0.1-0.1h0.1c0.1-0.2,0.2-0.3,0.3-0.5l0.1-0.2l0.2-0.3l0.2-0.2l0.1-0.1l0.1-0.2l0.1-0.1
		c0,0,0-0.1,0.1-0.1V13l0.1-0.2l0.1-0.1v-0.1l0.1-0.1v-0.1l0.5-0.6l0.1-0.1l0.1-0.2l0.3-0.4l0.1,0l0.2-0.2l0.2-0.2l1-1.5L90.5,9
		l0.4-0.7l0.2-0.2l0.2-0.4l0.1-0.1l0.4-0.6L91.9,7v0L92,6.9l0-0.1l0.1-0.2l0.1-0.1l-0.1,0.1l0-0.1v0l0.1-0.2l0.2,0v0.1l0.1-0.2
		l0.2-0.2l0.2-0.2l0-0.1L93,5.5l0.6-0.4l0.3-0.4l0.2-0.1l0.1-0.1l0.1-0.1v0h0l0.1,0l0.1,0l0.1-0.1l0.2-0.2L94.9,4L95,3.9l0-0.1H95
		l0,0.1l0.2-0.1l0.1,0l0,0c0.1,0,0.1-0.1,0.1-0.1h0.1l0-0.1V3.6h0.1v0l0.2,0l0.2,0l0.1,0.2l0.2,0.3L96,4.6L95.6,5l-0.5,0.3L95,5.5
		l-0.6,0.2l-0.2,0.1L94,6.1l-0.4,0.4l-0.1,0.1L93,7.1l-0.7,1L92,8.3l-0.2,0.3l-0.4,0.4v0L91,9.7l-0.2,0.2l-0.6,0.9l-0.4,0.4
		l-0.5,0.7l-0.6,0.9l-0.2,0.2l-1.3,1.8L87,15.1l-0.2,0.4l-0.3,0.3l-0.3,0.4l-0.9,1.1l0,0.2l-0.3,0.4l-0.1,0v0.1l-0.2,0.1l0,0.2
		l-0.1,0.1l-0.1,0.1h0l-0.6,0.9l-0.3,0.4l-0.1,0.2l0,0.3l-0.1,0.1L83,20.8l-0.2,0.1l-0.1,0.3l-0.2,0.2l-0.3,0.3l-0.3,0.5l-0.2,0.1
		l-0.3,0.4v0.1l-0.2,0.4l-0.4,0.5c0,0,0,0,0,0l-0.3,0.6c0,0-0.1,0.1-0.1,0.1l-0.2,0.3l-0.2,0.4l-0.2,0.2l-0.8,1.4l0,0.3L79,27.2
		l-0.2,0.4l-0.1,0.1l-0.1,0.1l0,0.4l0.1,0.2l0.1,0.1l0.1,0.1l0.1,0l0.3,0.2h0.2l0.4-0.1l0.1-0.1l0.3-0.1l0.1-0.1l0.3-0.2l0.6-0.2
		l0.1-0.1l0.3-0.1l0.2-0.1l0.4-0.2l0.3-0.2l0.6-0.3L83.8,27.1L83.8,27.1z"/>
	<path d="M90.2,24.7v0.2L90.1,25L90,25.1c0,0,0,0,0,0.1v0.1l-0.1,0.2l0,0.8c0,0-0.1,0.5,0.1,0.6c0.2,0.2,0.1,0.2,0.9,0.5l0.5,0.1
		h0.4l0.5-0.1l2.2-0.5l0.4-0.2l1.2-0.4l0.2-0.2l0.1-0.1h0.1l1.8-0.8h0.1l0.2-0.1l0.3-0.1l1-0.4l0.1,0c1.1-0.5,1.5-0.7,2.6-1.2
		l0.7-0.2l0-0.1l0.2-0.1l0.6-0.2l0.6-0.2v-0.1h0.1l0.4-0.2l0-0.1l1.7-1l0.2,0c0.2-0.1,0.4-0.3,0.7-0.5c0.1-0.1,0.2,0,0.2,0v0
		l0.1-0.1l0.1,0l0.1,0.3l-0.2,0.1l-0.3,0.1l-0.2,0.1l-0.7,0.5l-0.2,0.2h-0.2l-0.1,0.1c-0.3,0.2-0.6,0.3-0.9,0.5l0,0l-0.2,0.1
		l-0.1,0.1h-0.1l-1,0.5l0,0.1l-0.1,0l-0.2,0.1l-0.1,0l-0.4,0.3l-1.2,0.5c-0.4,0.2-0.7,0.4-1.1,0.6l-0.1,0.1l-1.5,0.7l-0.1,0.1
		l-0.1-0.1l-0.3,0.2l-0.4,0.1l-0.2,0.1h0c-0.4,0.2-0.8,0.3-1.2,0.5l-0.5,0.2l-1,0.5l-0.2,0.1l-0.4,0.1l-0.5,0.2l-0.3,0L94,27.6
		l-0.1,0.1l-0.4,0.1h-0.1c-0.4,0.1-0.8,0.2-1.2,0.3l-0.1,0.1l-0.2,0h0l-0.6,0.1l-0.2-0.1l-0.3,0.1l-0.7-0.1l-0.7-0.3l-0.3-0.4
		l-0.2-0.4l-0.1-0.4v-0.5l0-0.1l0-0.1v-0.2l0.2-0.8l0.2-0.4l0.2-0.6l0.2-0.3l0.1-0.1l0.1-0.2l0.2-0.2l0.1-0.2l0.2-0.3l0.1-0.1
		l0.3-0.2l0.1-0.2l0.2-0.1l0.2-0.2l0.1,0l0.3-0.3l0.3-0.2l0.2-0.3l0.1-0.1l0.2-0.2l0.1-0.1l0.2-0.1l0.1-0.1l0.2-0.2l0.2-0.1l0.2-0.1
		c0.7-0.5,1.4-1,2.1-1.4l0.1-0.1l0.3-0.2l0.4-0.2c0,0,0.1,0,0.1,0l0.4-0.2l0.2-0.1l0.1,0l0.4-0.1c0.3-0.1,0.7-0.2,1-0.3l0.3-0.2H99
		l0.2-0.1l0.1,0.1c0.2,0,0.5,0,0.7,0l0,0l0.1,0l0.1,0l0.1,0l0,0l0.2,0.1v0h0l0,0.1l0.1,0.1h0.1l0,0.1h0l0.2,0.1l0,0
		c0.2,0.1,0.3,0.2,0.3,0.4l0.1,0l0,0.1h0l0,0v0.2l0,0.1l-0.1,0.2l-0.1,0.1v0.2l-0.1,0.5l-0.2,0.4l-0.3,0.3l-0.3,0.2l-0.3,0.2
		l-1.1,0.6l-0.2,0.1l-0.2,0.1c-0.7,0.5-1.5,0.9-2.2,1.3l0,0.1l-0.9,0.4L95,23.6l-0.8,0.3l-0.6,0.2l-0.8,0.2l-0.5,0H92l-0.2-0.1
		l-0.1-0.2l0.1-0.1l0.2-0.4l0.4-0.4l0.4-0.2h0.2l0.2,0.1l0.2,0.1H94l0.4-0.1l0.4-0.2h0.1l0.1-0.1l0.9-0.3l0.8-0.4l0.4-0.2l0.2-0.2
		l0.4-0.2l0.1-0.1l0.5-0.2l0.1-0.1l0.4-0.3l1.4-1.2l0.1-0.2l0.1-0.2l0.1-0.1l0.2-0.5l0,0l0-0.1l-0.1-0.2l-0.2-0.2l-0.2-0.1l-0.2-0.1
		h-0.3l-0.2,0l-0.1,0c-0.8,0.2-1.7,0.6-2.2,0.9l-0.4,0.2l-0.1,0.1l-0.2,0.1l-0.1,0c0,0,0,0-0.1,0v0.1l-0.2,0.1l-0.1,0.1h-0.1L95,20
		l-0.3,0.3l-0.2,0.2l-0.3,0.1l-0.1,0.1c-0.3,0.2-0.5,0.4-0.8,0.6l-0.2,0.2l-0.4,0.4L92.5,22l-0.3,0.3l-0.4,0.4l-0.4,0.5l-0.1,0.1
		L91,23.6l-0.2,0.3l-0.3,0.3L90.2,24.7z"/>
	<path d="M105.5,24.7l-0.1,0.1l0.2-0.2l0.4-0.3l0.1-0.1l0.1,0h0.1v0l0.2-0.1l-0.1-0.1h0.2l0.6-0.5h0.1l0.5-0.5l0.6-0.3l0.5-0.4
		l0.1-0.1h0l0.6-0.5l0,0l0.9-0.6v0l0.6-0.4l0.2-0.2l0.1,0l0.3-0.2l0.1-0.1h0l0.6-0.4l0.2-0.2l0.2-0.1l0.5-0.2l0.3-0.3l0.3-0.2
		l0.6-0.2l0.3-0.1c0.2-0.1,0.6-0.3,1-0.5l0.2-0.2l0.6-0.2l0.6-0.2l0.1-0.1l0.3-0.2l0.3-0.1l0.2-0.1l0.4,0c0.5-0.2,1-0.2,1.4-0.2
		l0.2-0.1l0.1,0.1c0.2,0.1,0.3,0.2,0.4,0.2c0,0,0.1,0.1,0.1,0.1l0.2,0.2l-0.1,0.8l-0.4,0.7l-0.4,0.1h-0.3l-0.2-0.2v-0.3l-0.2,0.1
		v-0.2l0.1,0l0-0.2l0-0.2l-0.1-0.4l-0.1-0.2l-0.5,0.1l-0.4,0.2l-0.2,0l-0.2,0l-0.3,0.2l-0.2,0l-1.2,0.2c-0.6,0.2-1.1,0.5-1.3,0.6
		l-0.2,0.1l-0.2,0.2l-1.2,0.6l-0.5,0.3l-0.2,0.2l-0.6,0.3l-0.2,0.1l-0.3,0.2l-0.5,0.3l-0.2,0.2l-0.9,0.6l-1.3,1.1l-0.2,0.3l-0.2,0.2
		l-0.4,0.4l-0.4,0.3l-0.1,0.1l-0.2,0.2l-0.2,0.2l0,0.1l-0.2,0.2l-0.3,0.3l-0.2,0.2l-0.1,0.1l-0.3,0.3l-0.1,0.2l-0.1,0.1l-0.1,0.2
		l-0.3,0.3l-0.5,0.5l-0.2,0.2l-0.1,0.2l-0.2,0.3l-0.1,0.2l0,0.1l-0.1,0.2l-0.2,0.2l-0.5,0.4l-0.3,0.2l-0.3-0.1l-0.2-0.2v0
		c-0.1-0.1-0.1-0.2-0.1-0.3v-0.1l0.1-0.1l0.1-0.4l-0.1,0.1l0-0.1l0.1-0.2l0.1-0.4l0.2-0.3l0-0.1v-0.1l0.1-0.1l0.1-0.2v-0.1l0.3-0.2
		h0.1l0.1-0.1l0.4-0.5l0.2-0.3l0.1,0l0.2-0.3l0.2-0.5l0.2-0.2l0.1-0.2l0.3-0.4l0.1-0.1l0.4-0.6v-0.1l0.5-0.6l0.3-0.5l0.1-0.2
		l0.2-0.3l0-0.1l0.1-0.1l0.2-0.3v-0.1l0.2-0.3l0.2,0l0.1,0.1l0.2-0.2l0.1-0.2l0-0.2v-0.1l-0.1-0.1l0.1-0.1l0,0.1l0.1-0.1l0,0
		l-0.1,0.2c-0.2,0.2-0.3,0-0.3-0.2l0.1-0.1v-0.1l0-0.1l0.1-0.2l0-0.1l-0.1-0.1l0,0l-0.2-0.1v-0.1l0.1-0.1l0.1,0h-0.1l0.1,0h-0.1
		l0-0.1l0.1-0.2l0.2,0.1l0.1-0.2v-0.1l0-0.1l-0.1,0l0.2,0v-0.2l0.1,0h0.1l0.1-0.1h0.2l0.2,0l0.2,0l0.1-0.1v-0.1l0.1-0.1l0.1,0h0.1
		l0.1,0.1l0,0l-0.2,0.1c0.2,0.1,0.4,0.2,0.4,0.4l0,0l0,0.1c0,0.4-0.3,0.8-0.6,1.2l0,0.1l-0.3,0.4l-0.2,0l-0.3,0.3l-0.1,0.2l-0.1,0.2
		h0c-0.2,0.2-0.3,0.5-0.5,0.6c0,0,0,0,0,0l-0.2,0.3l-0.1,0.2l-0.1,0.2l-0.3,0.5l-0.2,0.2l-0.1,0.1l-0.2,0.3l-0.4,0.6l-0.2,0.5
		l-0.2,0.3L105.5,24.7L105.5,24.7z"/>
	<path d="M129.2,21.5l0.7-0.4l0.1-0.1l0.1-0.1l0.3-0.1l0.1-0.1l0.1-0.1l0.1,0l0.8-0.4l0.1-0.1l0.2-0.2l0.1,0l0.2-0.1l0.1,0l0.2-0.1
		l0.1-0.1l0.2-0.1l0.2-0.1h0.1l0.3-0.2c0,0,0.2-0.1,0.3-0.1l0-0.1L134,19l0.1,0l0,0l0.2,0l0.2-0.2h0.2l0,0.1c0,0,0.1,0,0.2-0.1
		l0.6-0.3l0.1,0l0.3-0.2l0.2-0.1l0.2,0l0.2-0.1l0.2-0.1l0.1,0L137,18l0.2-0.1h0.2c0.6-0.1,1,0,1.1,0.4v0h0.1l0.2,0.2v0.2h0.1
		l0.1,0.1l-0.1,0.1l-0.1,0l-0.1,0.2v0.3l-0.4,0.6l-0.2,0.8l-0.2,0.4l-0.2,0.1l-0.2,0.3l-0.2,0.4l-0.2,0.2h0.2l0.1,0.2l-0.2,0.2H137
		v-0.2l-0.1,0.1l-0.2,0.1l-0.1,0.2v0.1l-0.1,0c0,0-0.1,0.1-0.1,0.1V23l-0.1,0.1l-0.7,1.1l0,0c-0.1,0.1-0.1,0.2-0.2,0.3l0,0.1h0
		l-0.2,0.3v0l0,0.1l-0.1,0.1v0.1l-0.1,0.1v0.1l-0.3,0.3l-0.3,0.4l-0.2,0.4l-0.1,0l-0.1,0.2l-0.2,0.2l-0.8,1.1l-0.1,0.1l-0.1,0.1
		l-0.3,0.5l-0.2,0.1c0,0,0,0.1-0.1,0.1l-0.2,0.3l-0.1,0.1l-0.1,0.2v0l0,0l-0.1,0.2V30l-0.1,0l-0.1,0.1l-0.1,0.2l-0.2,0.3l-0.2,0.2
		L131,31l0,0.1l-0.4,0.2l-0.5,0.7l-0.1,0.2l-0.2,0.3l-0.3,0.3l-1,1.3l-0.1,0.3l-0.1,0.1l-0.2,0l-0.1,0l-0.2,0.4l-0.3,0.3l-0.1,0
		l-0.5,0.6l-0.3,0.3v0l-0.3,0.4l0,0.1l-0.2,0.4l-0.2,0.2l-0.2,0.1l-0.6,0.8v0l-0.2,0.3l-0.2,0.2c-0.5,0.7-1,1.4-1.4,2.1l0,0.3
		l-0.2,0.2l0,0.2l-0.1,0.1h0l-0.6,1.4l-0.4,0.6l-0.4,0.8l-0.3,0.7l-0.2,0.3L121,46l0,0.1v0.1l0,0.1l0,0.2l0,0.1l0,0.1l0,0.1
		l-0.1,0.1l-0.1,0.6l0,0.1l-0.1,0.3l0,0.1l-0.1,0.4l-0.1,0.2l0,0.2l-0.1,0.2h-0.1v0.8l0.1,0.6l0.1,0.4l0.1,0.4v0.3l-0.1,0.1v0.1
		l0,0.5l-0.3,0.4h-0.1l-0.1-0.1l-0.1-0.2l-0.1,0.1l-0.2,0l-0.1-0.1l0,0l0.1-0.2l0.1-0.7v-0.2l0-0.2l-0.1-0.6v-0.2l0.1-0.4v-0.1
		l0.1-0.2v-0.1l0.1-0.1c0-0.2,0.1-0.5,0.2-0.7c0.1-0.2,0.1-0.3,0.2-0.5v-0.2l0.1-0.2c0,0,0,0,0,0l0-0.3l0-0.1l0.1-0.2l0.1-0.1
		c0.2-0.6,0.4-1.2,0.6-1.8c0.1-0.2,0.1-0.4,0.2-0.6l0.3-0.9l0.1-0.2l0.2-0.3l0.2-0.5l0.1-0.2c0.4-0.7,0.7-1.4,1.1-2l0.2-0.3l0.1-0.2
		l0.3-0.5l0.1-0.1l0.2-0.3l0.3-0.4l0.2-0.3l0.1-0.2c0,0,0,0,0.1-0.1l0.1-0.2l0.1-0.2l0.8-1.1l0,0v-0.1l0.1,0l0.3-0.3v-0.1l0.2-0.2
		l0.1-0.2l0.2-0.2l0.2-0.3l0.2-0.2l0.1-0.1L127,35l0.2-0.3l0.2-0.3l0.2-0.1l1.6-2l0.1-0.2l0.3-0.3l0.1-0.1l0.4-0.6l0.1-0.1l0.1-0.1
		l0.1-0.2l0.3-0.4l0.2-0.2L131,30l0.6-0.9l0,0l0.1-0.2l0.4-0.6l0.2-0.3l0.6-0.8l0.3-0.5l0.9-1.2l0.7-1.2L135,24l0.2-0.4l0.7-1
		l0.4-0.7l0.4-0.5l0-0.1l0.2-0.4l0-0.1l0.1-0.2l0-0.1H137v-0.1h0.1l-0.2-0.5l-0.1-0.5l0.1-0.2l0-0.1l-0.2-0.1l-0.7-0.1l-0.7,0.1
		c-0.7,0.2-1.3,0.6-2,0.8l-2,1l-0.3,0.2l-0.1,0l-0.1,0l0,0.1l-0.4,0.2h-0.1l-0.2,0.2l-0.2,0.1l-0.1,0.1l-0.1,0.1l-0.1,0.1h-0.1
		l-0.1,0v0.1l-0.2,0.1l-0.1,0.1l-0.2,0l-0.1,0.1l-0.6,0.3l-0.2,0l-0.7,0.4l-0.2,0.1l-0.4,0.2l-0.2,0l-0.6,0.3l-0.1,0.1l-0.1,0
		l-0.1,0.1l-0.1,0.1l-0.1,0l-0.1,0l-0.2,0.1l-0.2,0.1l-0.2,0.2l-0.1,0.1l-0.3,0.2l-0.6,0.1l-0.4,0.2l-0.2,0.1h-0.1l-0.1,0V25l-0.1,0
		l0,0h-0.1c-0.2,0.1-0.4,0.1-0.6,0.2l-0.5,0.2l-0.4,0.2l-0.2,0.1h-0.3l-0.1-0.1l-0.1-0.1l-0.3-0.5c0,0,0-0.1,0-0.1
		c-0.1-0.3,0-0.9,0.3-1.8c0.1-0.3,0.3-0.6,0.5-0.9c0.2-0.3,0.2-0.5,0.5-0.8l0.1-0.2l0.1-0.3l0.2-0.4l0.1-0.2l0.2-0.4l0.6-0.6
		l0.4-0.6l0.2-0.2l0.1-0.1l0.1-0.1l-0.1-0.1h0.1v0.1l0.1,0v0l0.1-0.1l0.3-0.2l0.3-0.1l0,0l0.1-0.1c0.1,0,0.1,0,0.2,0
		c0,0,0.1,0.1,0.1,0.1c0,0,0,0.1,0,0.1h0l0,0.3l-0.1,0.3l-0.2,0.3l-0.3,0.4l-0.2,0.4v0l-0.2,0.2l-0.2,0.1l-1.6,1.5l-0.1,0.1
		c-0.2,0.3-0.4,0.6-0.6,0.9l-0.2,0.4l-0.1,0.3l-0.1,0.2l-0.1,0.1l-0.2,0.2l0,0.1l-0.1,0h0c-0.1,0.3-0.1,0.5-0.1,0.7
		c0.1,0.4,0.6,0.6,1.7,0.2l0.3-0.1l0.1-0.1l0.4-0.2l0.2,0h0.1l0.1-0.1h0.1l0.9-0.5l0.2-0.1l0.3-0.1l0.2-0.1l0.4-0.3l0.2-0.1l0.2-0.1
		l0.1-0.1h0.1l1.9-1l0,0l0.2-0.1l0.3-0.1l0.1-0.2h0.1L129.2,21.5z"/>
</g>
</svg>
