<?xml version="1.0" encoding="utf-8"?>
<!-- Generator: Adobe Illustrator 22.1.0, SVG Export Plug-In . SVG Version: 6.00 Build 0)  -->
<svg version="1.1" id="レイヤー_1" xmlns="http://www.w3.org/2000/svg" xmlns:xlink="http://www.w3.org/1999/xlink" x="0px"
	 y="0px" viewBox="0 0 880 200" style="enable-background:new 0 0 880 200;" xml:space="preserve">
<style type="text/css">
	.st0{fill:#FFFFFF;}
</style>
<g>
	<path class="st0" d="M139.6,22.7c0.6,0.3,1.2,0.6,1.7,1.1l0.5,0.2l0.6,1l-0.2,2.2l0.1,0.6v0.6l-0.3,0.4l-0.1,0.3
		c-0.2,0.9-0.6,1.8-0.9,2.9l-0.1,0.8l-0.6,1.3l-0.3,1.5l-0.2,0.6l-0.4,0.8l-0.6,0.9l-0.6,1.3l-1.3,2l-0.1,0.1l-0.4,0.6l-0.2,1.2
		l0.2,0.2l-0.3,0.1l-0.6,0.3l-0.1,0.4l-0.6,1.5l-0.3,0.3l-2.7,6l-0.6,1.6v0.2l-0.2,0.2l-0.6,1c-0.4,0.8-0.8,1.7-1.2,2.6l-0.3,0.5
		l-1.8,3.8l-0.2,0.5l-0.2,0.9l-0.2,0.4l-0.1,0.6l-0.2,0.4l0.2,0.6l-0.1,0.3l-0.6,0.3l-0.4,0.6l-1.2,1.3l-0.1,0.1l-2.2,4.2l-0.1,0.8
		l-1,1.2l-0.2,0.4l-0.3,1.6l-0.5,0.7l-0.6,1.1l-0.5,0.7l0.4,0.2l0.6,0.1l0.2,0.1h0.9l0.6-0.2l0.7-0.1l0.9,0.1l0.7,0.2h0.8l0.1-0.1
		h0.4l0.2,0.1v-0.1l0.1,0.1v-0.1l0.2-0.1l0.5,0.1h0.1v0.1h0.9v-0.1l0.2,0.1h0.6c0.6,0,1.1,0.1,1.7,0.1c0.7,0.1,1.4,0.3,2,0.3
		l0.3-0.1l0.6-0.1l0.6-0.1l0.7,0.3l0.3-0.1h0.7l0.3-0.1l1,0.2h0.5l0.7-0.1l0.5,0.1l0.3,0.1h0.5l0.3,0.1c0.2,0,0.5,0,1.1,0.1l0.7,0.1
		h0.4l0.3-0.1h0.6l0.9,0.3l0.2,0.1c0.2,0.1,0.4,0.1,0.6,0.1h0.1l0.8,0.1h0.6l0.2,0.1l0.1,0.1h1c0.6,0.1,1.3,0.2,2.1,0.2
		c0,0.1,0.1,0.1,0.2,0.1h0.3l0.4,0.3v0.5h-0.6l-0.5-0.2l-0.5,0.1l-1.1-0.2h-0.2l-1.9-0.2h-0.6c-1.9-0.2-3.8-0.3-5.4-0.4l-0.2,0.1
		l-1-0.1c-0.9-0.1-1.8-0.1-2.6-0.1h-1.7l-0.1,0.1l-3.2,0.1l-0.7-0.1h-0.6l-0.1,0.1l-0.6,0.1l-0.7,0.1l-0.6-0.2l-1.6,0.1h-0.6
		l-1.3,0.1h-0.3l-5.1,0.1l-0.7,0.9l-1.9,3.6l-2.2,4.2c-0.3,1.3-1.1,2.7-1.7,4c-0.2,0.6-0.7,1-1.1,1.5l-3.3,6.6
		c-0.3,0.6-0.6,1.1-0.7,1.7l-0.8,1.3c-0.6,1.2-1.2,2.4-1.8,3.6v0.2l-0.5,0.6l-0.6,1.4l-0.8,1.8l-0.5,1.6l-0.3,0.2l-0.5,0.9l-1.5,3.3
		c-0.4,0.9-0.5,1.1-0.5,1.3v0.4l-0.3,0.3l-1,2.7l-0.2,0.1l-0.6,1.4l-0.4,1.2v0.4l-0.6,1.5l-0.5,0.9l-0.5,1.3l-0.3,0.4l-0.1,0.5
		l-0.7,2.2c0.1,0.7-0.6,1.7-0.7,2.5c-0.3,1-0.7,2-0.7,3l-0.4,0.6c-0.4,2.3-1.1,4.4-1.8,6.6c-0.3,1.2-0.1,2.5-0.4,3.6
		c-0.5,0.5-0.6,1.2-1,1.8c-0.6,0.4-1.2,1.3-1.9,0.6c-0.5-1.9,0.7-3.8,1.3-5.6c0.5-1.6,1.6-3,1.6-4.8l0.8-2.3c0.8-3,1.7-5.6,2.7-8.5
		l0.6-2l1.3-3l1-2.9l0.5-1.1l2-4.3l0.7-1.8l0.8-1.9l0.4-0.6c0-0.2,0.1-0.4,0.2-0.5l1.4-3l0.3-0.6v-0.6l0.6-0.9l0.3-0.3
		c0-0.2,0.1-0.3,0.2-0.4c0-0.5,0.2-0.9,0.4-1.3l0.3-0.1c0.8-1.8,1.8-3.4,2.4-5.2c1.2-1.9,2.1-4.1,3.1-6.1c0.8-1.8,0.8-1.8,1.8-3.6
		l0.9-2.2l0.5-1l0.7-1.5l0.5-1l1-1c0.4-0.7,0.7-1.5,1.2-2.2c-1.5,0.5-3,0.6-4.6,0.8c-0.9-0.3-1.8-0.3-2.8-0.3l-7.8,0.6
		c-0.6,0.2-1.3,0.2-1.9,0.1L98.4,82c-1.2,0.5-2.5,0.4-3.8,0.3h-0.2c-0.5,0.2-0.9,0.1-1.4,0.2l-1.6,0.1l-6.8,0.7l-0.1,0.2l-1.6,0.3
		L80.8,84l-1.5,0.3h-1.3l-0.9-0.1c-5.5,0.7-11.1,1.5-16.6,2.3l0.1,0.1l-2.3,0.5l-1.4,0.2l-2,0.1l-2.6,0.4l-3,3.3
		c-1.8,2.7-4.6,5.6-6.8,7.8l-1.1,1.3c0.1,1.1-1,1.9-1.4,3c-0.6,0.1-1.1,0.6-1.6,1l-3.7,4.4c-0.4,0.6-1,0.8-1.2,1.6
		c-1.5,1.4-2.5,2.7-3.7,4.2l-1.2,1.2l-0.2,1l-0.6,1l-0.8,0.8l-0.6,0.3l-0.6,0.6l-0.4,1l-0.9,0.5l-0.7,1.3l0.1,0.7l-0.3,0.6l-0.6,0.6
		l-0.4,0.6c0.1,0.2,0.1,0.4-0.1,0.9c-1.2,3-2.3,3.9-4.4,6.1l-2.3,2.5l-0.2,0.2h-0.2l-0.4,0.2l-0.7,0.7l-0.6,0.5l-0.5-0.1l-0.3-0.3
		l-0.2-0.5l-0.1-0.5h0.1v-0.2l0.1-0.5l-0.1-0.2l0.1-0.4l0.1-0.6l0.4-0.6v-0.2l0.3-0.2l0.1-0.3l-0.2-0.1l0.1-0.1l0.1,0.1l0.2-0.2
		l0.1-0.4l0.1-0.9l0.4-0.9v-0.4l0.3-0.3l0.2-0.5l-0.2-0.2v-0.1l0.2,0.1l0.5-0.6h0.2l0.3-0.1l0.3-0.4l0.4-0.1l0.3-0.2l0.8-0.9
		l0.6-1.2l0.3-0.2v-0.2l-0.1-0.1l0.1-0.1h0.1l0.3-0.7l0.5-0.8l0.3-0.2l0.7-0.7l0.9-0.2l2.2-3l0.8-0.7l2.4-3.1l0.5-0.6l0.5-0.7
		l0.1-0.6l0.8-0.9l0.9-0.7l1.2-1l0.5-1l0.9-0.5l0.9-1l0.3-0.2l0.9-1.2l0.8-0.8l0.9-1c0.5-0.6,1-1.3,1.6-1.8l1-1.3l0.2-0.5l0.4-0.2
		l0.4-0.6l0.9-0.7l1.1-1.5l0.4-0.4l2.3-2.8l0.6-1l0.6-0.3l1.2-1.4l0.6-0.8l0.6-0.4l1.2-1.7l0.1-0.1l-5.3,0.8l-0.7,0.4L41,89.8
		l-2.1,0.3l-3.6,0.7l-2.6,1c-1.7,0.6-3.5,0.6-5.2,1.2c-3.3,0.1-6.4,1.4-9.5,2.3l-0.6-0.2c-1.4,1.5-3,2.7-5.2,2.7h-0.1
		c-0.4,0.7-0.6,1.5-0.8,2.3c-1,1.1-2.7,1.5-4,0.8l-0.6-0.6l0.3-0.6v-0.4c-1,0.6-2.1,0.9-3.2,0.4c-0.1,0.3-0.6,0.3-0.8,0l-0.4-1.2
		c0-0.3,0-0.4,0.2-0.6c0.6-0.8,1.6-1.6,2.6-2l1.9-0.6l1-0.7L8.8,95c2.9-1.1,6.3-2.1,9.9-3l0.2-0.2l1.3-0.6l0.6-0.2l1.3,0.1l1-0.2
		l0.3-0.2h0.4c2.1-0.5,4.3-0.8,6.6-1.2l0.7-0.4l1.8-0.5l1.1-0.5l0.6-0.1h2.5l0.8,0.1c4.8-0.7,9.3-1.3,12.6-1.8l0.5-0.6l0.5-0.2
		l0.6-0.8l0.8-1.1l1.8-1.7l2.4-2.7l2.1-1.8l0.4-0.5l2.5-1.8l1.1-1.2v-0.1l1.4-2l2.1-1.9l0.5-0.5l2.3-1.5l0.6-0.5l1.2-0.6l2.4-2.1
		l0.2-0.3l0.7-0.9l1.1-0.6l0.1-0.1l0.9-1.2l0.5-0.4l0.8-0.6l0.7-0.5l3-2.7l1.5-1.4l0.8-0.6c0.8-0.6,1.7-1.4,2.5-2.1l0.1-0.2l0.5-0.4
		l0.3-0.6l0.5-0.6l0.3-0.2l0.9-0.4l0.3-0.4l0.9-0.5l2.4-2l0.2-0.2l0.4-0.3l0.4-0.5l0.4-0.2l0.4-0.4l0.2-0.1l0.3-0.2
		c0.8-0.6,1.8-1.3,2.6-2l0.3-0.3l1-0.6l0.9-1l1.3-0.8l1.6-1.1l0.4-0.4l0.6-0.7l0.3-0.2l0.7-0.7l0.2-0.6l0.2-0.2h0.7L106,38h0.1
		l2.3-1.8l0.5-0.6l0.5-0.4l0.8-0.6l1-0.6l0.6-0.3l0.5-0.6l1.3-0.6h0.1l2.1-1.4l0.2-0.3l0.3-0.3l0.2,0.1l0.1-0.1h0.1
		c0.6-0.5,1.2-0.8,1.8-1.2l0.5-0.5l0.6-0.5l0.7-0.5l1-0.4l0.6-0.5l0.6-0.3l0.7-0.3c0.9-0.6,1.8-1,2.8-1.5l0.8-0.4l1.6-0.7l0.6-0.4
		l0.4-0.1l0.1,0.1l1.3-0.6l0.6-0.5l0.7-0.4l0.6-0.1l0.2-0.1h0.6l0.4-0.3h1.2l0.5-0.2l0.6,0.4h0.2l0.6-0.2l0.3,0.1l0.1,0.2
		c0.7,0,1.5,0.1,2.1,0.3h0.3L139.6,22.7z M90.6,53.1c-0.5,0.5-1,0.8-1.6,1.2h-0.4c-0.5,0.8-1.5,1.2-1.8,2.1l-1.5,1.1l-0.5,0.4
		l-0.6,0.6l-0.2,0.1c-2.3,1.8-4.5,3.8-6.9,5.4c-0.6,0.9-1.6,1.6-2.3,2.3c-0.2,0.5-0.4,0.8-0.7,1.1h-0.6c-1.3,1.9-3.4,3-4.7,5l-2.4,2
		H66c-0.5,0.8-1.4,1.3-1.7,2.2c-1.9,1.2-3.5,3-5.2,4.5c-1.7,1.5-3.5,2.8-4.7,4.7l4.2-0.6l0.2-0.1l1.8-0.6l2.3-0.1l2.3-0.6l1-0.1
		l1.6-0.3l1.8-0.1l0.5,0.1c1.5-0.2,2.9-0.4,4.3-0.6l0.4-0.2l1.1-0.3l1.4-0.1l2.2-0.6l0.8-0.1l1.1,0.1l0.6-0.1l0.7-0.1l0.4,0.1
		l9.1-1.1l1.4-0.2l1.5-0.5l0.6-0.2l0.9-0.1h1.1l0.6-0.1l0.7-0.1h3.2l1.2-0.4l0.1-0.3l0.3,0.2l0.6,0.3l1.8-0.4l0.5,0.1l0.3,0.2
		c0.8,0,1.8-0.1,2.6-0.2l0.6-0.2h0.4l0.4,0.2l2.2-0.2l0.4-0.1h1l0.9-0.1l0.7,0.1l0.2-0.5l0.5-0.8l0.3-0.4l0.7-1.2l0.5-1.2l0.4-0.3
		V74l0.3-0.4l0.7-1.8l0.6-1l0.2-0.6l0.1-0.6l0.5-0.9l0.2-0.7l0.2-0.2l0.2,0.1v-0.2l0.6-0.5v-0.5l0.6-1l2.2-4.4l1.5-2.8l0.3-0.7
		l1.5-2.6v-0.6l0.3-0.3l-0.1-0.3l0.3-0.6l0.5-0.6l0.9-1.4l0.2-0.2l1.9-4.2v-0.2l0.2-0.2l1-2.4c0.6-1.1,1-2.3,1.3-3.5l1-2.5
		c0.7-0.9,0.6-2.5,1.4-3.5c-0.2-0.6,0.1-1.3-0.1-1.9c0.5-0.8,0.6-1.8,1.4-2.6l-0.3-0.6l-0.4-0.6l-0.1-0.5l0.2-0.6v-0.7l0.2-0.6
		L138,26V25l-0.2-0.6c-0.5-0.4-0.9-0.6-1.4-0.6l-2.2,0.7l-2.9,1.3l-0.7,0.2l-1.1,0.2l-1.6,0.4l-1.1,0.2l-0.6,0.3h-0.1l-2.4,1.3
		l-0.1,0.1l-0.6,0.3l-2.3,1.4l-0.4,0.6l-0.8,0.4l-0.7,0.3h-0.2l-2.1,1.4l-0.5,0.4l-0.6,0.5l-0.6,0.3l-5,3.4l-0.5,0.6l-0.7,0.3
		l-1.9,1.5l-0.2,0.4l-0.4,0.1l-1.1,0.7l-0.9,0.7l-2.8,2l-0.6,0.7l-0.6,0.4l-0.5,0.3l-0.3,0.2l-0.2,0.3L98.7,46L98,46.6
		c-0.2,0.6-0.7,1.1-1.4,0.9l-2.8,2.8l-1.1,0.7L92,51.9l-0.6,0.6L90.6,53.1L90.6,53.1z"/>
	<path class="st0" d="M149.4,93.2l-0.2,0.4l0.7-0.6l1.3-0.9l0.4-0.3l0.2-0.1h0.2v-0.1l0.7-0.3l-0.4-0.4h0.6l1.7-1.6h0.3l1.5-1.5
		l1.7-1l1.6-1.2l0.2-0.2h0.1l1.8-1.4l0.1-0.1l2.6-1.8v0.1l1.7-1.1l0.5-0.5l0.4-0.1l0.8-0.6l0.2-0.2h0.1l1.8-1.1l0.7-0.7l0.6-0.4
		l1.4-0.6l1-0.9l1-0.6l1.9-0.6l0.8-0.4c0.6-0.4,1.8-0.9,3-1.5l0.6-0.5l1.7-0.6l1.7-0.6l0.3-0.2l0.8-0.5l1-0.4l0.6-0.3l1.2-0.1
		c1.6-0.5,3-0.7,4.2-0.6l0.6-0.2l0.4,0.4c0.5,0.2,0.8,0.5,1.1,0.7c0.1,0.1,0.2,0.2,0.2,0.4l0.6,0.7l-0.2,2.4l-1.1,2.2l-1.1,0.4h-1
		l-0.6-0.6v-0.9l-0.5,0.4v-0.5l0.2-0.1l0.1-0.5l-0.1-0.6l-0.2-1.2l-0.4-0.5L189,72l-1.3,0.6l-0.5,0.1l-0.7-0.1l-1,0.5l-0.6,0.1
		l-3.7,0.7c-1.8,0.7-3.2,1.5-3.8,1.8l-0.6,0.3l-0.5,0.5l-3.7,1.9l-1.4,0.8l-0.6,0.6l-1.8,0.9l-0.5,0.3l-0.8,0.6l-1.4,0.9l-0.6,0.6
		l-2.7,1.8l-4,3.3l-0.6,0.8l-0.6,0.5l-1.2,1.3l-1.1,1l-0.4,0.2l-0.7,0.5l-0.6,0.6l-0.1,0.2l-0.7,0.6l-0.8,0.9l-0.5,0.5l-0.4,0.3
		l-0.9,0.9l-0.4,0.6l-0.4,0.3l-0.4,0.5l-0.9,0.8l-1.6,1.6l-0.5,0.7l-0.4,0.5l-0.5,0.8l-0.2,0.6l-0.1,0.2l-0.2,0.5l-0.6,0.6l-1.5,1.1
		l-0.9,0.6l-0.8-0.2l-0.5-0.6v-0.1c-0.2-0.3-0.3-0.6-0.2-0.9v-0.4l0.2-0.2l0.3-1.1l-0.2,0.2l-0.1-0.4l0.3-0.6l0.4-1.1l0.6-0.9
		l0.1-0.2v-0.2l0.4-0.3l0.3-0.5v-0.2l0.8-0.6h0.2l0.3-0.2l1.1-1.6l0.6-0.9l0.3-0.1l0.5-0.9l0.6-1.4l0.6-0.6l0.2-0.6l1-1.3l0.3-0.2
		l1.2-1.8v-0.4l1.6-1.9l0.9-1.6l0.4-0.6l0.5-0.8l0.1-0.3l0.2-0.2l0.6-0.9v-0.3l0.6-0.9L156,80l0.3,0.2l0.6-0.6l0.3-0.6l0.1-0.5v-0.3
		l-0.4-0.2l0.3-0.3l-0.1,0.2l0.3-0.4l-0.1-0.1l-0.4,0.5c-0.5,0.5-0.8,0-0.8-0.5l0.2-0.2v-0.2l0.1-0.3l0.3-0.5l0.1-0.2l-0.2-0.3
		l-0.1,0.1l-0.5-0.2v-0.3l0.2-0.2l0.4-0.1h-0.2l0.2-0.1h-0.2l-0.1-0.4l0.4-0.6l0.5,0.3l0.3-0.5v-0.4l0.1-0.3l-0.2-0.1l0.5-0.1v-0.5
		l0.2-0.1h0.2l0.4-0.4h0.5l0.6,0.1l0.5,0.1l0.4-0.2v-0.2l0.4-0.3l0.4,0.1h0.3l0.2,0.2l-0.1,0.1l-0.5,0.2c0.7,0.3,1.1,0.7,1.2,1.2
		l0.1,0.1l-0.1,0.3c0,1.1-0.9,2.4-1.9,3.6l0.1,0.2l-1,1.3l-0.6,0.1l-0.8,0.9l-0.4,0.5l-0.3,0.6h-0.1c-0.5,0.6-0.9,1.4-1.5,1.9
		c0,0.1-0.1,0-0.1,0l-0.6,0.8l-0.2,0.6l-0.4,0.6l-0.8,1.4l-0.6,0.6l-0.2,0.4l-0.6,0.9l-1.1,1.8l-0.6,1.4l-0.6,0.9l-0.5,0.5
		L149.4,93.2z"/>
	<path class="st0" d="M228.9,47.6h1.5l0.5-0.5l2.5-3.4l0.3-0.3l1.1-1.5l0.5-0.5l0.6-0.8l0.3-0.2l1-1.4V39l0.4-0.4l0.2-0.4l0.2-0.3
		l-0.3,0.2h-0.1V38l0.2-0.3l0.4-0.1v0.3l0.4-0.5l0.5-0.5l0.5-0.6l0.1-0.3l0.4-0.6l1.3-0.8l0.7-0.8l0.4-0.3l0.3-0.1l0.1-0.2v-0.1
		l0.1-0.1v0.1l0.6-1.2l0.6-0.6l1.3-0.1l0.7,1.3l0.1,1.3l-1.3,0.8l-0.9,0.8l-0.6,1l-0.5,0.6l-0.1,0.6l-3,2.8l-0.9,0.6l-3.7,4l-2,2.5
		l1.1-0.1l0.4-0.3h0.3l0.3,0.3l2.3-0.2v-0.2h6.2l2.7-0.3h2.8l0.3,0.3h0.7v0.3l2.4,0.2l0.8-0.2l1.3,0.3l1.6-0.2h0.6l0.8,0.1l1.1,0.3
		l0.6,0.1L260,48l2.3,0.6h0.2l0.7,0.2h1.2l0.7,0.4l2,0.3l0.4,0.1l0.6,0.5c0.4,0.1,0.7,0.2,1.1,0.4l0.1-0.1l0.1,0.1l2.4,0.9l0.2-0.1
		l0.1,0.2h0.1v0.1l1.4,0.6h0.2l0.3,0.2c0.1,0.1,0.2,0.2,0.4,0.2l0.5,0.1l1.1,0.6l0.3,0.5l0.8,0.6h0.4l0.4,0.4l0.1,0.2
		c0.6,0.4,1,0.8,1.5,1.2c0,0.1,0.1,0.1,0.1,0.2l0.3,0.1l0.6,0.9v0.1l0.2,0.2l0.6,0.2l0.2,0.2l-0.1,0.7l0.3,0.6l0.5,1.7l0.1,0.7
		c0,0.1,0.1,0.2,0.2,0.3c0,0.3,0,0.5-0.1,0.6l0.1,0.1l-0.3,0.6l-0.5-0.6l-0.1-0.3c-0.1-0.2-0.1-0.4-0.1-0.6l-0.6-1.3l-0.6-1.7
		l-0.2-0.4l-0.1-0.1l-0.6-0.8l-0.6-0.7c-0.1-0.1-0.1-0.1-0.1-0.2l-1-0.9l-0.4-0.2l-1.1-0.8l-0.1-0.1c-0.2-0.1-0.5-0.2-0.6-0.4
		l-0.3-0.1l-0.2-0.1l-0.7-0.5l-0.7-0.3l-0.6-0.2l-0.2-0.3l-0.1-0.1h-0.2l-0.3-0.2l-1.5-0.6l-1.8-0.2l-0.6-0.2l-1.1-0.6l-1.4-0.4
		c-1.5-0.4-3-0.6-4.6-0.8l-0.2,0.1l-1.6-0.3l-0.7-0.1h-0.9l-0.6,0.1l-1.7-0.3l-0.8-0.1l-0.6,0.1l-0.3-0.1l-1.1-0.2
		c-0.7-0.1-1.6-0.1-2.2-0.1l-0.4,0.1l-0.3-0.1c-0.6,0-1-0.1-1.5-0.1c-3,0-5.9,0-8.9,0.1l-0.6,0.1l-0.6,0.3v0.3h-0.4l-1,0.6h-0.4v0.3
		H236l-1.4,0.6h-4.5c-0.6,0.7-1.2,1.4-1.7,2l-0.3,0.6l-0.6,0.5c-0.6,0.6-1.1,1.3-1.6,1.9l-0.1,0.3l-1.3,1.5l-1.4,2.1l-0.8,1
		l-1.6,1.8l-0.2,0.2l-3,4l-0.6,0.8l-1.8,2.3l-0.3,0.6l-0.5,0.5l-0.6,0.8l-0.6,1.1l-0.4,0.5l-0.6,0.7l-0.7,0.7l-0.6,0.7l-0.1,0.1
		l-0.3,0.4l-0.3,0.6l-1.4,1.9l-0.4,1.1l-4.3,6l-1.5,1.7l-1.9,2l-0.5,0.5l-0.9,1l-0.6,0.9l-0.2,0.6l-0.9,1.3l-0.7,1.7l-0.6,0.9
		l-1.3,1.7l-0.6,1.9v0.6l-0.1,0.5l-0.7,1.2l-0.1,1.2l-0.4,1l-0.2,0.5l0.2,0.4l0.5,0.2l0.6-0.1l1.7-0.4l0.6-0.2l0.2-0.3l1.6-0.4
		l0.8-0.4l0.7-0.3l0.6-0.4l0.7-0.1l0.8-0.3l0.5-0.3h0.4l0.3-0.1l2.4-1.2l1.8-0.7v-0.1h0.2l0.3-0.5h0.3l0.6-0.2h0.3l0.3-0.3h0.3
		l2.7-1.2l0.9-0.6l0.4-0.1l4.3-2l0.9-0.6l0.6-0.3l1.1-0.5l1.5-0.7h0.1l0.5-0.6l1-0.6l1.1-0.4l1.3-0.5l2.5-1.3v-0.1h0.1l0.5-0.3
		l0.4-0.3l1.3-0.7h0.3v-0.2l0.6-0.1l0.5-0.4L232,88l0.5,0.1l0.2,0.5l0.1,0.2l-0.1,0.3l-0.3,0.3l-0.7,0.1l-0.3,0.3l-2.5,1.7l-0.7,0.4
		l-1,0.6l-1.4,0.7l-1,0.5l-0.9,0.3l-1.3,0.6l-0.6,0.4l-0.3,0.3l-1,0.6l-1.2,0.7l-1.6,0.6l-0.5,0.2l-0.8,0.7l-0.8,0.3l-0.9,0.4
		l-0.4,0.1l-0.6,0.5l-0.5,0.3l-0.5,0.1l-0.8,0.6l-0.3,0.2l-0.7,0.1l-0.6-0.1l-0.6,0.3l-1.8,0.9l-0.9,0.5l-1.3,0.6h-0.3l-1.1,0.6
		l-1.1,1l-0.9,0.6l-0.5,0.1h-0.1l0.1,0.2l-0.1,0.3l-0.4,0.1H201l0.2-0.4l-0.4,0.1l-0.8,0.6l-0.3,0.3l-2.6,0.9l-3.4,1l-1.2-0.1
		l-0.3,0.1l-0.6-0.2l-0.4-0.1l-0.6-0.3l-0.3-0.6l-0.2-0.8c-0.1-0.4,0.1-1.1,0.1-1.5c0.1-0.7,0.4-1.7,0.8-2.8v-0.2l0.2-0.6l0.3-0.6
		l0.2-0.2v-0.5l0.2-0.3l0.5-0.6l0.2-0.3l0.6-0.7l0.9-1.7l0.2-0.3l0.2-0.7l0.2-0.6l0.3-0.4l0.6-0.6l0.6-0.8l0.3-0.6l0.4-0.6l0.5-0.4
		l0.1-0.2l0.6-0.6l0.8-0.7l0.5-0.6l0.1-0.4l0.2-0.5l0.6-0.4l1.2-1.7l0.1-0.3l0.3-0.3c0.4-0.5,0.7-1,1.2-1.5l0.6-0.8l0.7-1l0.6-0.8
		l0.6-0.7l0.3-0.2l0.2-0.3l0.4-0.5l0.1-0.1c0.2-0.3,0.5-0.5,0.6-0.7l0.1-0.2l0.3-0.4l0.2-0.2l0.3-0.4v-0.2l0.4-0.4v-0.5l1.5-1.9
		l0.4-0.2c0,0,0.1,0,0.1-0.1l0.1-0.5l1-1.3l0.3-0.2l0.4-0.7l0.7-0.6l3.4-4.9l0.5-0.4l1.5-1.9l0.2-0.2c0.4-0.4,0.7-0.9,1.1-1.5
		l0.1-0.1l0.2-0.3h0.1l1.5-1.9v-0.5l1.5-1.7l0.3-0.2l0.5-0.6l0.1-0.4l2.1-2.9l0.6-0.3l0.6-0.6V53l0.4-0.4v-0.2l0.3-0.4l0.3-0.1
		l0.2-0.3v-0.1l0.2-0.4l0.1-0.3l0.8-1.1h-0.2l-0.6,0.3l-1.8,0.2l-1.1,0.2l-2.8,0.2l-2.9,0.4l-0.7,0.1l-0.8,0.1l-2.4,0.4l-0.7,0.2
		l-4.7,1.4l-0.8,0.5l-0.4,0.2l-1.1,0.2l-1.3-0.1l-1.7,1.2l-0.7,0.3l-1.8,0.4l-2.1-0.5l-0.7-0.8l-0.1-0.9l0.2-0.6h0.1
		c0-0.2,0.1-0.4,0.3-0.6h0.2l-0.1-0.2V52l0.2,0.4c1.6-0.7,3.4-1.3,5.6-1.8L207,50l1.5-0.1L209,50l3.8-0.5l0.2-0.1h0.1l2.5-0.3
		l0.1-0.1h0.2l1.7-0.2l0.3,0.1h0.6l0.1-0.1h0.5l2.3-0.5l0.2-0.1l0.5-0.2h0.6L224,48l0.3-0.1l0.6,0.1c0.5-0.1,0.9-0.2,1.4-0.2
		l0.1-0.1h0.4h0.8L228.9,47.6z"/>
	<path class="st0" d="M384.9,130v-0.1l-0.3-1l-0.6-1.1l-0.2-1.2v-1.7l-0.4-0.6V123l-0.2-1.5l-0.1-0.2l-0.2-0.3v-0.4l-0.1-0.3
		l-0.1-0.4l-0.4-0.5l-0.1-0.6l0.1-0.2l-0.1-0.7l-0.2-0.7l-0.4-1.8l-0.4-0.9l-0.3-0.6l-0.3-0.8l-0.1-0.5l0.1-0.2l-0.1-0.2v-0.9
		l0.3-0.9h0.1c-0.2-0.8-0.4-1.6-0.5-2.4h-0.3l-0.1-0.4l0.2-0.8c-0.1-0.4-0.2-0.8-0.2-1.1l-0.4-0.1l-0.1-0.2l0.1-0.7l-0.1-1.4
		l-0.2-0.9v-0.2c-0.4-2.6-0.8-5.2-1.1-8.2v-0.2l-0.1-1.1l-0.1-0.2V92l-0.1-0.5l-0.1-1l-0.4-2.8v-0.9l-0.2-0.8l-0.1-2.6l-0.3-1.1
		l0.2-2.8l0.1-0.8c-0.1-1.3-0.2-2.7-0.2-4.2v-1.8c-0.1-0.5-0.1-1-0.1-1.6l-0.1-1v-0.2l-0.4-1.8l-0.1-0.7l-0.3-0.7v-0.3l0.5-0.4
		l0.1-0.3l-0.2-3v-0.1l-0.1-0.4l0.1-0.4l-0.1-1.5l-1.9,1.4l-0.4,0.5l-0.7,0.3l-2.6,2l-0.4,0.6l-0.8,0.3l-0.4,0.3l-0.1,0.1l-0.6,0.5
		h-0.2l-1.3,1l-1.8,1.9l-0.6,0.5l-1,0.3l-0.5,0.2c-0.5,0.4-1,0.8-1.5,1.1l-0.1,0.2l-0.5,0.8l-1.2,0.9l-1.6,1.1l-0.4,0.2l-0.9,0.6
		l-0.4,0.5l-0.2,0.4l-0.8,0.7l-3.2,1.9c-1.7,1.4-3.4,2.8-5.1,4.1l-3.6,3.6l-0.7,0.4l-1.1,0.6l-1.1,0.8l-4.1,3.5v0.1l-1.3,1.2
		l-0.5,0.5l-0.7,0.8l-1,0.9l-1.5,1.1l-0.6,0.6l-0.3,0.6l-0.3,0.1l-1.6,0.8l-1.4,1.3c-1,0.9-2.1,1.7-3,2.5l-2.1,2.8l-0.9,0.1l-1,0.7
		l-0.2,0.1l-4.1,3.6l-0.2,0.2l-0.7,0.5l-0.8,0.7l-0.1,0.2v-0.1c-0.1,0.1-0.1,0.1-0.2,0.1l-0.3,0.4l-0.7,0.5v0.2h-0.2l-1.2,0.9
		l-0.3,0.4l-0.2,0.3l-0.4,0.2l-0.2,0.2l-1.1,0.9l-0.2,0.3l-0.6,0.5l-0.4,0.5l-1.4,1.1l-0.7,0.8l-0.4,0.6l-0.6,0.6l-0.4,0.3h-0.2
		l-0.2,0.1l-0.7,0.5l-1,0.1l-0.1-0.1v-0.1l-0.8,0.7l-0.7,0.5l-0.9,0.9l-0.4,0.1c-0.1,0-0.2,0.1-0.3,0.2l-1.4,1.2l-0.1,0.3l-0.1,0.1
		l-0.4,0.1v0.1l-0.3,0.4l-0.2,0.3l0.3-0.2v0.2l-0.3,0.4l-0.5,0.1l0.1-0.3l-0.5,0.3l-0.7,0.5l-0.9,0.9l-0.7,0.6l-1.9,0.6l-1,1
		l-0.6,0.1l-0.3,0.1l-0.2,0.2v0.2l-0.1-0.1v-0.1h-0.8l-0.4-0.6l-0.1-0.8l0.2-0.2c-3.2,0.2-3.3-3.7,0.9-5.5l0.7-0.4l0.9-0.5l1.4-0.3
		l-0.2-0.3l0.6-0.5l0.2-0.5l0.2-0.4l0.2,0.2h0.4l0.5-0.2l1-0.5l2.2-0.4l2.7-1.4l1.4-0.2l0.9-0.6l0.2-0.1l0.9-0.7v-1h0.4l1.2-0.3
		l0.8-0.7l0.4-0.4l0.7-0.5l1.8-1.9l0.8-0.5l0.7-0.6l1.1-1.1l1.1-0.8l0.8-0.5l1.7-0.7l1.2-1l0.5-0.5l0.2-0.1l2.3-2l1.9-1.3l3-2.6
		l1.1-0.6l2.4-2.2l1.1-0.6l1.9-1.5l1.2-1.1l0.9-0.8l0.6-0.9l1.2-1.3l1.7-0.8l0.1-0.1l6.7-5.6l0.2-0.2l1.9-1.7h0.2
		c0.1,0,0.1,0,0.2-0.1v-0.4l0.9-0.3c0-0.1,0.1-0.1,0.1-0.1l0.4-0.7l0.5-0.4l0.6-0.1l2.8-2.2l0.1-0.2l0.6-0.4l0.3-0.6l0.5-0.7
		l0.3-0.2l1-0.4l0.3-0.4l0.5-0.2l0.8-0.4l0.2-0.2l0.8-0.5l0.1-0.1l0.3-0.2l0.5-0.4l0.7-0.8l0.8-0.8l0.3-0.2l0.2-0.6l0.2-0.2h0.8
		l0.6-0.3h0.1l0.6-0.5l0.4-0.3l-0.1-0.3l0.7-0.2l0.2-0.1l0.9-1.3l0.9-0.8l1.4-0.6l1.2-1.1l0.6-0.4l0.9-0.4h0.1l2.7-2.1l-0.2-0.4
		l0.2-0.3l0.2-0.2l0.4-0.1l0.3-0.3h0.1l0.1-0.1l1-0.6l0.3-0.1l2.2-1.5h0.1c0-0.2-0.1-0.4-0.1-0.7l-0.1-0.3l0.1-0.6
		c0-0.2-0.1-0.5-0.1-0.8l-0.2-0.6l-0.1-0.4l0.1-0.8V53l-0.2-0.7l0.2-0.6v-0.2l-0.1-1v-0.3l-0.2-0.6l0.2-0.3V48
		c-0.1-0.7-0.1-1.4-0.1-2.1l-0.2-0.2l-0.1-0.3l-0.1-0.1l-0.2-0.1l-0.1-0.6h-0.1v-0.1h0.2v-0.3l-0.1-0.3l0.1-0.1v-0.9l0.2-0.6
		l0.1-0.5l0.2-0.1c0-0.7,0.1-1.4,0.1-2.1v-0.8l-0.1-0.7v-1.8l-0.2-1l-0.2-0.7l-0.1-0.8v-0.5l0.1-0.2v-0.2L375,32l0.2-0.3v-0.4
		l-0.3-1l-0.1-0.6l0.2-0.6l0.3-0.5l-0.1-0.6v-0.3l-0.1-0.2l-0.2-0.2V27l-0.1-0.2l-0.1-0.1v-0.6h-0.1V26h0.2l0.1-0.3v-0.3l0.1-0.1
		v-0.1l0.2-0.7l0.4-0.6l0.2-0.4h0.1l0.2-1.6l0.7-1v-1.1l0.4,0.7l0.2-0.1h0.5l1.1,1.3l0.2,1.5v0.3l0.2,0.4v0.8l-0.2,1.3l-0.5,1.2
		l-0.4,1.6v1.1l0.2,0.8l0.1,0.3l0.1,1l0.3,1l0.1,0.4l0.2,0.7v0.4l0.5,0.4l0.1,0.3l-0.5,0.7l-0.1,0.7l-0.4,1.8l-0.4,1.2v0.2
		c0,0.2-0.1,0.3-0.2,0.4l-0.5,0.3l-0.1-0.2c-0.1-0.1-0.2-0.3-0.2-0.5v-0.2l-0.1,0.3v1.2l0.3,1.1l0.3,0.6l-0.1,0.2l0.1,0.2l-0.2,0.2
		l-0.3,0.4l-0.1,0.3l-0.2,0.9h0.2l-0.1,0.3l0.5,0.8l0.1,0.9v0.2l0.1,0.2v0.5l-0.1,0.8l-0.2,0.7l-0.2,0.9l0.2,1.7l0.1,0.2v0.3
		l-0.1,1.1l-0.3,0.8v0.4l0.1,0.4v1.5l0.6-0.3l4.5-3.3l0.4-0.6l1.3-1.5l2.3-1.1l1.7-1.8l0.9-0.8l1.3-0.7l1.7-0.8l1-0.6l1-0.8l2.2-0.8
		l4.3-2.9l0.1-0.1v-0.5l0.5,0.2l0.4-0.2V40l0.3-0.4l0.3-0.6l0.4-0.6h0.1l0.5-0.5l-0.1-0.2l0.1-0.1l0.1,0.1l0.5-0.3h0.3l0.3-0.1h0.5
		l0.2-0.2l0.6-0.2l0.3-0.5l0.4-0.5l0.5-0.2l1-0.3l0.9-0.5l1.3-0.8h0.2l0.7-0.4l1.3-1l2.4-1.2l0.8-0.3l2.4-1.5l0.7-0.4l0.8-0.4
		l2.5-1.5l1.9-1.1l1.4-0.7l0.4-0.3l0.9-0.4l0.8,0.1l1.7-1l0.2-0.2l1.8-0.4l2.1-1l0.3-0.3l0.7-0.2l0.4-0.5l1.1-0.6l1.1-0.1l0.4-0.2
		l1.3-0.2c0.9-0.3,1.9-0.6,2.9-1l0.4-0.3l0.3-0.1l0.6-0.4l0.4-0.1l0.5-0.2l0.2-0.1l0.7-0.1h0.9c2.9-0.9,6-1.6,9.1-2.3l0.7-0.3
		l0.5-0.1l0.6,0.1c2.7-0.5,5.4-0.9,8-1.2l0.4-0.2l0.4-0.1l1,0.1c2.2-0.1,5.8-0.1,8.2,0.8h0.1l1.7,0.5l0.4,0.6L477,16l0.6,0.3
		l0.1,0.2l-0.2,0.8l0.1,0.7v1.8c0,0.1,0,0.3,0.1,0.4c0.1,0.3,0,0.5-0.2,0.6v0.9l-0.5,0.5l-0.4-0.7l0.1-1l-0.5-2.5
		c-0.1-0.2-0.2-0.5-0.4-0.7c-2.1-3-7.8-2.4-10.8-2.1l-3,0.4l-0.8,0.2l-0.5,0.1h-0.1c-1.5,0.2-2.9,0.6-4.4,1l-0.3,0.3l-0.5,0.1
		l-1.3,0.3l-1,0.3l-0.7,0.4l-0.6-0.1l-0.4,0.3l-0.9,0.2l-0.4,0.1l-0.3-0.1l-0.9,0.3l-0.2,0.1h-0.1c-0.9,0.3-1.8,0.6-2.7,1l-0.8,0.4
		l-1.3,0.5l-0.9,0.5l-0.9,0.1l-1.2,0.5l-2.7,1l-2.4,0.9l-2.5,1.2l-0.1,0.1l-0.3,0.1l-0.7,0.4l-0.5,0.1h-0.1l-1.7,0.7l-0.4,0.5
		l-0.8,0.2l-0.5,0.4h-0.3l-1.2,0.3l-3.4,1.8l-0.8,0.6l-0.8,0.3l-1.1,0.2l-1.4,0.7c-2.6,1.4-5.1,2.8-7.6,4.3l-0.1,0.1l-0.8,0.7
		l-0.6,0.8l-0.8,0.2l-2,0.8l-0.9,0.9l-1.3,1l-0.2,0.2v0.1l-0.1,0.3l-0.2,0.1l-0.1,0.2l-0.5,0.2l-1.1,0.7l-0.6,0.3h-0.1l-0.1,0.1
		l-1.2,0.6l-1.5,0.5l-2.5,1.7l-0.8,0.8l-0.3,0.1l-0.5,0.7l-1.1,0.6l-1.2,0.6l-2.1,1.5l-0.8,0.8l-0.9,0.8L388,52l-0.5,0.4l-1.3,0.6
		c-0.3,0.2-0.6,0.3-0.8,0.5v0.1l-1.6,1.4l-1.3,0.9l-0.5,0.9h-0.5l-1.6,0.7l-1,0.7l-0.1,0.5l-1.1,0.5l-0.1,0.1l0.2,1l0.1,0.7v0.2
		l0.1,1.2l-0.1,0.2l0.2-0.1L378,63l0.1,0.1L378,65v0.8l-0.1,0.3l0.1,0.3l0.1,0.5l-0.2,0.2l0.1,0.5l0.2,0.6v0.4l-0.1,0.7l0.1,0.8V73
		l0.3,0.5l-0.1,0.2l-0.2,0.3c0,0.6,0,1.1,0.1,1.6l0.8,1.7l-0.2,0.4v0.9l-0.2,0.9l0.2,3.3l0.4,2.1l-0.1,1.5c0,0.3,0.1,0.6,0.1,0.8
		v0.4l0.2,1.2l0.1,0.8l0.2,0.7l0.2,1.1l-0.3,0.1v0.2l0.3,0.9l0.2,1.1v0.4l0.1,0.4l0.4,3.4v0.2l-0.1,0.1l0.2,1.3l-0.1,0.1h0.1
		l0.1,1.6l0.1,0.5c0,0.2,0.1,0.6,0.1,1.2l0.1,0.2v0.3c0,0.4,0.1,0.9,0.1,1.5l0.9,1.4l-0.1,0.6l0.2,1l-0.2,0.8v0.9l0.2,1l0.1,0.8
		l0.3,1.7l-0.1,0.4c0.2,0.7,0.3,1.5,0.4,2.3l0.2,0.5v0.3c0,0.3,0.1,0.6,0.1,0.9l0.3,0.7l0.9,2.7l0.3,0.7l0.5,3.4l-0.1,0.3l0.3,1.2
		l0.4,0.3l0.1,0.6l0.3,0.3l0.7,2.1l0.4,0.5l0.3,1.1l0.7,0.8l0.9,2.6l0.8,1.3l0.6,0.9l0.7,1l0.3,0.6l-0.2,0.6l0.3,0.2l0.2,0.6
		c0.4,0.4,0.9,0.8,1.4,1.1l0.8,0.3h0.3l0.3,0.1l1.5-0.2h0.4l1.1-0.4l0.4-0.3l0.9-0.6h0.4l0.2-0.1c1.7-0.9,3.4-2.1,5.1-2.7l0.5-0.3
		l0.8-0.2l-0.2,0.7l-0.3,0.2c0,0.1,0,0.3-0.2,0.4l-0.5,0.2l-0.4,0.4l-1.5,1.1l-0.5,0.1l-0.9,0.3l-0.5,0.4l-0.4,0.2H400l-0.4,0.1
		h-0.4l-1.7,0.8l-1.5,1l-1,0.3h-0.3l-0.2,0.1c-0.3,0-1.9-0.4-2.6-0.6h-0.5l-0.3-0.3l-0.3-0.1l-0.2-0.4v-0.1l-0.1,0.1h-0.3l-0.3-0.2
		l-0.1,0.1h-0.1v-0.2l-0.1-0.1l-0.2-0.3l-0.4-0.3l-0.5-1.2l-1.1-1.1l-0.3-0.8v-0.3l-0.3-0.8l-0.4-0.6l-0.2-0.5l-0.1,0.3l-0.3-0.2
		l-0.1-0.4v-0.1l0.1-0.1l0.2,0.3l-0.1-0.3l-0.1-0.4l-0.1-0.2l-0.2-0.2v-0.1l0.1-0.2l-0.6-1.4L384.9,130z"/>
	<path class="st0" d="M537.9,129.5c-0.3,0-0.6,0.1-0.8,0.1l-0.5,0.1c-0.8,0.2-1.6,0.3-2.3,0.4l-0.6,0.3h-1.3l-0.7,0.4l-1.2,0.2
		l-0.6,0.1l-1.5-0.1c-0.3,0-0.6,0.1-0.8,0.1l-0.2,0.1H527c-2.6,0.3-5.2,0.6-7.7,0.7h-0.1l-1.8,0.3l-0.5,0.1l-0.7,0.2l-0.5,0.1
		l-1-0.1l-1.4-0.1l-3-0.4l-3-0.2l-0.3-0.1l-7-0.6l-0.4,0.1l-1.5,0.1l-0.2,0.1l-1.5-0.4l-0.2-0.1l-0.5-0.1c-0.6-0.1-1.1-0.1-1.6-0.1
		c-1.2-0.1-2.4-0.4-3.6-0.6h-0.1l-0.4-0.1l-0.7-0.3l-0.1-0.1l-1.4-0.6l-1.6-0.5l-2.1-1.2l-0.2-0.3l-4.1-2.2
		c-0.6-0.3-1.1-1.4-1.7-1.7c-0.6-0.4-1.3-1.3-1.7-2.2c-0.4-1.1-0.6-2.1-0.8-3.1l-0.2-0.5l-0.1-0.8l0.1-0.8v-0.3l-0.1-0.5l0.3-0.9
		l-0.1-0.7l0.2-0.4l0.2-0.8l0.8-2.3l0.2-0.4l0.8-1.8l0.1-0.3l0.1-0.2l0.4-0.4h0.3l0.4,0.1v0.4l-0.2,0.2c0,0,0,0.1-0.1,0.2
		c-0.1,0.3-0.5,0.6-0.6,0.9v0.1c-0.1,0.1-0.1,0.2-0.1,0.3c0,0,0,0.1-0.1,0.2l-0.5,1.4l-0.1,0.1l-0.4,1l0.2,0.5v0.5l-0.1,0.1
		l-0.2,0.5l-0.2,0.3h0.1l-0.1,0.1h-0.1v0.2l-0.1,0.2v0.4l-0.1,1.3l-0.1,0.6v1c0.1,0.9,0.4,1.8,0.6,2.7l0.4,0.7l0.2,0.3l0.2,0.5
		l0.3,0.3l0.2,0.4c0.6,0.8,1.5,1.7,2.3,2.4l0.3,0.1l0.9,0.7l0.7,0.4l0.3,0.2l1,0.6l0.6,0.4c0.6,0.4,1.4,0.6,2.1,0.9l1.9,0.6l2.4,0.6
		l1.4,0.4h0.5l0.6,0.3h0.2l0.4,0.1c3,0.6,6.2,0.9,9.2,1.1l0.8-0.1h0.7l2.1,0.2l1.9-0.1h1.5l0.9,0.2l0.7-0.1h0.8c1.6,0,3-0.1,4-0.1
		l0.5-0.2l0.6,0.1l0.5-0.1l1.1-0.1l0.2,0.1l1.8-0.2h0.1l0.6-0.1c0.4,0,0.7,0,1.1-0.1l0.3-0.1l0.3,0.1l0.4-0.1l1.3-0.1l0.9-0.1
		l0.8-0.3h0.2l0.2-0.1l1.8-0.1l0.6-0.2h0.9l0.5-0.1l0.4-0.2l0.4,0.1l0.5-0.1l0.7-0.4l0.4,0.1l0.2,0.2v0.1l1.5-0.3h0.1l0.3-0.2
		l0.3-0.1h1l1.2-0.2l0.2-0.1l0.1-0.1l1.8-0.2l0.1-0.1l0.8-0.4h1l0.2,0.1l0.4-0.1l0.6-0.3l1.3-0.1l2.3-0.5l1.7-0.3l0.8-0.2l0.4-0.7
		v-0.5l-0.1-0.4v-0.7l0.1-0.4l0.1-0.6l0.4-1.1l0.3-1.8l0.4-0.7l0.2-0.3l0.1-0.2l0.6-1.8v-0.5l0.2-0.3h0.1c0.5-1.3,0.9-2.6,1.5-3.9
		l0.1-0.6l0.4-0.7l0.2-0.3l0.4-0.7l0.3-0.7l0.2-0.6v-0.2l0.2-0.5h0.1l0.2-0.3l0.2-0.2v-0.3l0.1-0.2l0.2-0.1l0.8-1.8l0.2-0.2l0.2-1.5
		l0.1-0.3l0.6-0.5l1.7-2.6l0.4-0.8l0.5-0.6l0.3-0.4l0.3-0.6l0.5-0.4c0-0.1,0.1-0.1,0.1-0.1v-0.2l0.2-0.5l0.3-0.2l0.2-0.2v-0.2
		l0.3-0.5l0.1-0.4l1.1-1.8l0.2-0.2l0.3-0.5l0.7-1.2l0.2-0.1l0.4-0.6l0.5-0.6l0.6-0.9v-0.2l0.1-0.2l0.2-0.1l0.1-0.1l1.8-2.8l0.3-0.4
		l1.3-1.8l0.5-0.6l0.6-1l0.3-0.4l1.2-1.6v-0.5l0.3-0.1l0.1-0.3l0.2-0.5l0.1-0.2l-0.2,0.2l-0.1-0.1v-0.1l0.2-0.5l0.5-0.1v0.3l0.3-0.6
		l0.6-0.6L575,77l0.1-0.3l0.6-0.7l1.3-1l0.8-1l0.1-0.1l3-4l0.2-0.5l0.6-0.6l0.3-0.6h0.1l0.2-0.5l0.9-1.3l0.2-0.3l2.3-3.6l0.8-1.3
		l0.5-1.3l0.8-1l0.7-0.6l1.8-3l0.4-0.7l1.1-1.8l0.4-0.7l1.5-2.1l0.8-1.5l0.9-1.6v-0.7l0.3-1.9l1.6-3.1l1.9-1.3h1.3l0.6-0.4
		c0.3-0.2,0.6-0.1,0.6,0.2c0.1,0.5,0.1,0.9,0,1.4l0.1,0.1l-0.2,0.9h0.5v0.2H602l-0.5,0.5l-0.1,0.6l-0.3,1.1l-1.6,2.2l-1.1,3.2
		l-1.1,1.3l-0.7,0.6l-1.1,1.3l-0.8,1.3l-1,1.1h0.7V56l-0.7,0.6h-0.4l0.3-0.6l-0.5,0.5l-0.7,0.6l-0.3,0.2L592,58l-0.3,0.3l-0.5,0.3
		l-0.2,0.2l-5,7L580,74l0.1,0.1l-0.4,1.3l-0.8,0.9l-0.4,0.2l-0.6,0.4l-4.4,6l-0.2,0.5l-1.8,2.3l-1.5,1.9l-0.9,1.3l-0.1,0.1l-1.7,2.4
		l-0.1,0.4v-0.1l-0.7,1.5l-0.7,1.6l-0.5,0.7l-1,1.4l-1.2,1c-1.8,2.8-3.5,5.5-5,8.4l-0.6,1.3l-1.8,4.9l-0.6,1.5v0.5l-0.1,0.5
		l-0.3,1.2l-0.6,0.6l-0.3,0.7l-0.9,5.1l0.1,2.4l-0.1,0.3l0.7-0.2l0.6-0.1l1.2-0.3h0.1l2-0.6l1.6-0.4l1.7-0.6l2-0.4l1-0.4h0.6
		c0.5-0.2,0.9-0.3,1.4-0.4l0.3-0.1l0.6-0.2c1.8-0.5,3.7-1.1,5.5-1.7l0.5-0.2l2.2-0.6l0.8-0.3l2.9-0.9l1.5-0.6l3.4-1l2.2-0.8l2.6-0.9
		l0.6-0.2l0.7-0.3l1-0.5l0.5-0.1c0.3-0.2,0.6-0.3,1-0.4l0.2-0.2l5.1-2.4h0.3l0.9-0.4l0.1-0.2h0.2l3.4-1.6h0.4l0.6-0.1l1.1-0.6
		l1.1-0.2l0.1-0.2l1.1-0.5l0.7-0.4l2.3-0.9h0.3l2-1.2l2-0.8l2.7-1.1c0.8-0.5,1.7-0.8,2.5-1.2l0.2-0.2l0.4-0.2l0.1,0.1l2.1-1.1
		l-0.1-0.7l0.1-0.2h0.1l0.2,0.1l0.3-0.1h0.2v0.1l0.4,0.3c1.4-0.6,2.7-1.5,4.1-2.2l1-0.6l0.7-0.6l1.8-1l0.6-0.6l2.2-1.4l1.2-0.9
		l3.2-1.9l3.1-2.5l0.9-0.5l1-0.7l2.9-1.8l0.5-0.4l0.1-0.3l0.4-0.7l0.2-0.3l0.6-0.6l1-0.4l0.5,0.2l0.2,0.1l0.7-0.6l0.3-0.4l0.5-0.5
		V80l0.4,0.1l0.3-1.3l0.7-1.4l0.5-0.4l1.2-1.2l1.6-0.5v0.1l0.5-0.7l0.2-0.3v-0.2l0.8-1.4l0.3-0.6l0.6-0.7l0.2-0.5l0.1-0.4l0.3-0.3
		l0.2-0.5v-0.4l0.2-0.4l0.3-0.2h0.3c0.2-0.5,0.5-0.9,0.7-1.4l-0.1-0.2l-0.1-0.1l0.1-0.1h0.1l0.1-0.3l-0.2-0.3l-0.1,0.1h-0.3v-0.3
		l0.3-0.4l-0.1-0.2v-0.2h-0.1l-0.2-0.1l-0.1-0.2l0.1-0.1l0.2-0.1l-0.1-0.1h0.2l-0.1-0.1l-0.1-0.2l0.3-0.3v-0.1l0.3,0.2l0.1-0.4
		l0.1-0.3v-0.2l-0.1-0.1h0.1v-0.7l-0.2-1.5l-0.3-1.8l-0.1-0.4l-0.1-0.5l-0.1-0.1l-0.2-0.9l-0.7-1.2l-0.5-1.7l-0.1-0.3l-0.6-1
		l-0.4-0.6c-0.4-0.5-0.6-0.9-1-1.3l-0.5-0.5l-0.4-0.5l-0.5-0.6l-1.7-1.4l-0.7-0.6l-0.8-0.8l-1.2-0.9h-0.1l-0.3-0.1l-0.7-0.6
		l-0.7-0.2l-0.6-0.2l-0.2-0.4l-0.3-0.1l-0.5-0.3l-0.3-0.1l-0.1-0.4c-2.5-1.4-5-2.5-7.4-3.5l-0.5-0.1l-1.7-0.7l-0.3-0.1l-3.7-1.5
		l-0.2-0.1l-3.4-1.2l-0.8-0.1L628,37l-1-0.6l-1.6-0.4l-2-0.6l-0.4-0.1l-1-0.4l-0.7-0.1l-0.5-0.1l-1.2-0.4l-1.6-0.2l-2.3-0.6
		l-1.5-0.2l-0.9-0.2l-0.9-0.1l-1.7-0.1l-0.4-0.3l-1.1-0.1l-0.7-0.3c-0.1-0.2-0.5-0.3-0.8-0.3h-0.2l-1.1-0.2l-0.6,0.2l-1.8-0.5h-0.3
		l-1.9-0.2l-5.1-0.4h-1.3l-0.6,0.1h-0.6l-1.3-0.1h-3l-0.5,0.1l-2.1-0.3c-1.1,0-2.1,0.1-3.1,0.1l-0.9,0.6l-0.7,0.5l-0.4,0.1l-1,0.2
		l-1-0.3l-0.3-0.6l-0.1-0.3c-0.9,0-1.8,0.1-2.7,0.2l-0.8,0.4L576,32l-1.2,0.2l-0.8-0.4l-6.9,0.8l-6.6,1.1l-0.1,0.2l-4,1.1l-0.6,0.5
		v-0.2l-1.3,0.6l-1.6,0.5l-0.3,0.5l-0.4-0.3l-2.1,1.4l-1.7,0.3l-0.4,0.5h-0.8l-0.6,0.5l-2.2,0.7h-0.1l-0.3,0.1l-0.8,0.5l-1.4,0.5
		l-1.1,1.3l-3.4,1.4l-1.8,1.1l-1.2,1l-0.2,0.1l0.1,0.2v0.2h0.2l-0.2,0.2l0.2,0.4v0.1l-0.1,0.1c0.3,0.3,0.2,0.7-0.3,0.7h-0.3
		l-0.5,0.2V48l-0.1-0.1h-0.1l-0.1-0.1l-0.2-0.1l-0.2,0.3l-0.1,0.1l-0.6-0.2l-0.2-0.3c-2.2-0.1-3,0.3-3.5-0.6l-0.9-0.4l-0.2-0.5v-0.5
		l0.3-0.4c-0.1-0.2-0.1-0.4,0.2-0.6l1.5-1l1.7-1.5l2.9-1.2l-0.3-0.2l-0.2-0.5l-0.1-0.5l0.4-0.4l0.4-0.2l-0.2-0.1h0.1l0.2,0.1
		l0.2-0.1h0.4l0.6-0.2h1.2l1.7-0.5l0.8,0.1h0.6c0.1-0.1,0.1-0.1,0.2-0.1l0.4-0.4l1.9-0.6l2.3-0.9l1.2-0.4l2.4-0.6l0.2-0.1l0.2,0.1
		l0.4-0.2c0.5-0.1,0.9-0.3,1.9-0.6c1.3-0.3,1.5-0.5,1.8-0.5l0.6-0.4l0.9-0.1h0.1l0.8-0.4l0.9-0.3l0.6-0.1h0.6
		c0.6-0.1,1.2-0.2,1.8-0.4l1-0.6h0.8l2.2-0.2c0.4,0,0.7-0.1,1.5-0.4l0.4,0.1c0.2-0.1,0.3-0.1,0.5-0.1l0.5-0.3l1.1-0.1l0.7-0.2
		l1.5-0.1c0.3,0,0.6,0,2.3-0.4l2.9-0.3l0.1-0.1l0.6-0.3h0.4l0.6-0.2h1.2l1.7-0.5l1.2,0.1l0.8,0.1h2.1c1.1,0,2.2-0.1,3.4-0.2l0.6-0.1
		h1.7l0.8-0.1l2.3,0.1l2.6-0.1l0.5,0.1h3.2l0.7,0.1h0.6l0.6,0.1c0.7,0,1.5,0.1,2.2,0.1h0.6l0.2,0.1l3.9,0.3h0.2L607,30h0.6l0.7,0.2
		h2.6l0.6-0.2l0.2,0.1l0.2,0.3v0.4c0.1,0.1,0.3,0,0.5,0.1l0.2-0.1l1.7,0.4h0.8l0.6,0.1l1.5,0.4l1.5,0.3l1.1,0.2l0.6,0.2l0.6,0.1
		l0.8,0.4l0.6,0.1l0.5,0.3l0.6,0.1h-0.2l3.2,1c0.9,0.4,1.8,0.6,2.8,0.9h1.3l0.5,0.3l1.2,0.5l2.6,0.6h0.1l0.4,0.1l0.6,0.1l0.4,0.2
		l0.6-0.2l0.3,0.1l0.3,0.6l0.9,0.4l2.2,1.1h0.1l0.9,0.6l1.9,1.1l1.6,1l0.8,0.5l0.9,0.7c0.4,0.3,0.8,0.5,1.2,0.6l2,1.3l0.5,0.1
		l0.3,0.4c0.2,0.2,0.4,0.3,0.6,0.4l0.4,0.2l0.2,0.2l0.6,0.3l0.4,0.4l0.6,0.4l0.6,0.4l0.3,0.3l0.2,0.6c0.9,0.8,1.8,1.7,2.6,2.6
		l0.5,0.2l0.2,0.2l0.3,0.5l0.4,0.2l0.9,1.4l0.5,0.9c0.6,0.9,1.1,1.9,1.6,3l0.3,0.3l0.1,0.6V58c0.2,0.5,0.4,0.8,0.5,1.3l0.1,0.1v0.1
		l0.2,1.1h0.1l0.2,0.7v0.3c0,0.5,0.1,0.9,0.1,1.4l0.2,0.1l-0.2,0.2c0,0.2-0.1,0.4-0.1,0.6h0.1l0.2,0.1l0.3,0.4l-0.1,0.6l-0.2,0.6
		l-0.3,0.3c0.1,1.5,0.3,3.5-0.3,4.3c-2.1,3.2-3.7,6.3-6,8.9v0.2h-0.2l-0.6,0.6l-0.7,0.7l-0.7,1.1l-0.6,0.4l-0.2,0.1l-0.6,0.4
		l-0.5,0.5l-0.4,0.3h0.3l-0.1,0.3l-0.4,0.2h-0.1l-0.4,0.2l-0.3-0.1l-0.1,0.3h-0.3l-1.4,0.9l-0.3,0.3l-0.7,0.6l-0.5,0.5l-1.2,0.7
		l-0.5,0.5l-2.7,1.8l-0.7,0.6l-0.3,0.3l0.1,0.1v0.5l-0.1,0.5l-0.4,0.5l0.1,0.4l-1.4,1.4l-0.2,0.1l-0.3,0.2l0.1,0.2h-0.1v-0.1
		l-0.6,0.3h-0.1l-0.3-0.1L639,94h-0.3l-0.2-0.1l-0.2,0.1l-0.6,0.2l-0.3,0.4l-0.4,0.4l-0.6,0.2l-0.9,0.1l-0.9,0.3l-0.4,0.2l-1.1,0.7
		l-0.3,0.4l-0.3,0.1l-1.5,0.4l-1.1,0.6l-0.2,0.1l-0.1,0.1l-0.5,0.4l-0.6,0.4l-2,1.4l-0.3,0.4l-0.3,0.1h-0.2l-0.3-0.3v-0.1l-1.8,0.9
		l-0.2,0.3l-0.5,0.4l-0.7,0.1c-0.1,0-0.3,0.1-0.4,0.1v0.1l-0.4,0.2l-0.3,0.3l-0.2,0.3l-1,0.5l-0.2-0.1l-0.6,0.4l-3.9,1.9l-1.5,0.3
		l-2.4,1.1l-0.2,0.2l-0.6,0.4l-0.2,0.1v-0.1l-0.1,0.1l-0.4,0.2l-0.5,0.1l-0.2,0.2l-1.2,0.6l-0.2,0.2l-0.8,0.4l-0.6,0.3h-0.3
		l-0.8,0.4l-0.1,0.2h-0.3l-1.1,0.3l-1.1,0.6l-0.7,0.1c-0.6,0.2-1.3,0.5-1.8,0.7v0.1l-0.2,0.2l-0.6,0.1l-0.6,0.3l-3.1,1.3l-0.9,0.2
		l-2.4,0.9l-0.6,0.3l-1,0.3l-1.3,0.5l-1.9,0.7l-0.3,0.3v-0.2l-3.2,1.1l-0.3,0.1v0.1h-0.1l-4.3,1.4l-0.4,0.3l-0.6,0.3H578
		c-0.2,0-0.4,0.1-0.6,0.2l-0.5,0.4l-1.3,0.1l-1.1,0.3v0.2l-1.8,0.5h-0.1l-8.9,2.5l-0.5,0.3l-0.6,0.2l-1,0.3l-1.4,0.4l-4.5,1.1
		l-0.8,0.5h-0.4l-1.7,0.1c-0.4,0-0.6,0.1-0.9,0.2l-0.1,0.5l-0.8,1.6l-0.3,1.2l-0.8,0.8h-0.6l-0.4-0.1l-0.2-0.5l-0.1-0.2v-0.3
		l-0.1,0.2v-0.2l0.1-0.1l0.5-2.2v-0.1h-0.3l-1.1,0.5h-0.4l-1.1,0.4l-1.2,0.3l-0.9,0.3l-1.5,0.4l-0.6,0.2l-1.9,0.1l-0.6,0.2
		L537.9,129.5z M620,100.9L620,100.9L620,100.9L620,100.9z"/>
	<path class="st0" d="M658.2,93v0.5l-0.5,0.5l-0.3,0.4c-0.1,0-0.1,0.1-0.1,0.2v0.3l-0.4,0.6l-0.1,2.3c-0.1,0.1-0.2,1.4,0.2,1.8
		c0.6,0.6,0.3,0.6,2.6,1.4l1.6,0.4h1.2l1.4-0.2l6.7-1.5l1.3-0.6l3.6-1.2l0.7-0.5l0.4-0.2h0.2l5.5-2.3h0.4l0.6-0.4l0.8-0.2l3-1.1
		l0.4-0.1c3.3-1.4,4.6-2.2,7.8-3.7l2-0.7l0.1-0.2l0.6-0.3l1.7-0.6l1.8-0.7v-0.2h0.3l1.1-0.6L703,86l5-3l0.5-0.1
		c0.6-0.4,1.3-0.8,2-1.4c0.2-0.2,0.5-0.1,0.6,0.1v-0.1l0.4-0.3l0.4,0.1l0.3,0.8l-0.5,0.2l-0.8,0.3l-0.5,0.2l-2.1,1.5l-0.5,0.6h-0.5
		l-0.4,0.2c-0.8,0.6-1.8,1-2.6,1.5l-0.1,0.1l-0.6,0.4l-0.4,0.3h-0.3l-3,1.5l-0.1,0.2l-0.4,0.1l-0.7,0.4l-0.2,0.1l-1.3,0.8l-3.5,1.5
		c-1.1,0.6-2.2,1.2-3.3,1.7l-0.3,0.3l-4.6,2.2l-0.4,0.3l-0.2-0.3l-1,0.6l-1.1,0.2l-0.7,0.4H682c-1.2,0.6-2.4,1-3.6,1.5l-1.4,0.7
		l-2.9,1.4l-0.7,0.2l-1.1,0.2l-1.6,0.5l-0.9,0.1l-0.4,0.2l-0.4,0.3l-1.2,0.3h-0.2c-1.1,0.4-2.4,0.6-3.7,0.8l-0.3,0.3l-0.5,0.1h0.1
		l-1.8,0.4l-0.6-0.2l-1,0.4l-2.2-0.4l-2-1l-0.9-1.3l-0.5-1.2L654,99v-1.6l0.1-0.2L654,97v-0.6l0.6-2.3l0.6-1.1l0.7-1.7l0.6-0.9
		l0.2-0.2l0.3-0.7l0.6-0.5l0.3-0.6l0.6-0.8l0.3-0.3l1-0.5l0.4-0.5l0.6-0.3l0.7-0.6l0.2-0.1l0.9-0.8l0.8-0.6l0.6-0.9l0.4-0.4l0.5-0.6
		l0.4-0.3l0.6-0.2l0.2-0.3l0.5-0.5l0.7-0.3l0.5-0.2c2-1.5,4.2-3,6.4-4.3l0.2-0.2l0.9-0.6l1.2-0.5c0.1,0,0.2,0,0.2-0.1l1.1-0.7
		l0.6-0.4l0.3-0.1l1.3-0.2c1-0.4,2-0.7,3-1l0.8-0.5h0.9l0.6-0.2l0.3,0.2c0.7,0,1.5,0,2.1,0.1l0.1-0.1l0.3-0.1l0.2,0.1l0.3-0.1
		l0.1-0.1l0.6,0.2v-0.1h0.1l-0.1,0.2l0.3,0.2h0.3l0.1,0.2h0.1l0.6,0.3l0.1,0.1c0.5,0.4,0.8,0.6,0.9,1.1l0.3,0.1l-0.1,0.2h0.1
		l-0.1,0.1v0.5l0.1,0.4l-0.2,0.6l-0.2,0.3v0.6l-0.4,1.4l-0.7,1.2l-0.9,0.9l-1,0.6l-0.8,0.6l-3.2,1.7l-0.5,0.4l-0.6,0.2
		c-2.1,1.5-4.4,2.8-6.7,4l-0.1,0.2l-2.7,1.3l-1.2,0.8l-2.4,1l-1.8,0.6l-2.5,0.5l-1.5,0.1h-0.6l-0.6-0.3l-0.2-0.5l0.2-0.3l0.6-1.3
		l1.3-1.2l1.2-0.5h0.7l0.6,0.2l0.7,0.2h1.2l1.1-0.2l1.2-0.5h0.4l0.2-0.3l2.7-0.9l2.5-1.2l1.2-0.6l0.5-0.6l1.2-0.5l0.2-0.4l1.4-0.5
		l0.4-0.4l1.2-0.9l4.2-3.5l0.4-0.5l0.2-0.6l0.2-0.3l0.5-1.4l-0.1-0.1l-0.1-0.2l-0.2-0.5l-0.5-0.6l-0.6-0.3l-0.6-0.2h-1l-0.6,0.1
		l-0.4-0.1c-2.5,0.6-5.2,1.9-6.7,2.7l-1.1,0.6l-0.3,0.3l-0.5,0.4l-0.4-0.1c-0.1,0.1-0.1,0.1-0.2,0.1v0.2l-0.6,0.2l-0.2,0.2h-0.2
		l-2,1.1l-1,0.8l-0.6,0.6l-0.9,0.3l-0.4,0.2c-0.8,0.6-1.6,1.2-2.4,1.8l-0.5,0.6l-1.2,1.1L665,85l-1,0.9l-1.3,1.3l-1.3,1.5l-0.3,0.3
		l-0.6,0.8l-0.6,0.9l-0.9,0.9L658.2,93z"/>
	<path class="st0" d="M744.8,76.4v0.2l0.1,0.3l-0.2,0.3l-0.1,0.4l0.2,0.4h0.1l-0.3,1.3l-0.7,0.5l-0.5,0.3l-0.8-0.5l-1.4-0.7
		l-0.6-0.2l-0.2-0.4H740l0.2-0.5v-0.7l0.2-0.6l-0.1-0.8v-0.9l-0.2-0.2L740,74l-0.6-0.3h-0.5l-0.7-0.3l-1.2-0.1
		c-2.9,0.3-1.7-0.5-5.1,0.5l-1.1,0.6l-0.4-0.1l-2.8,0.6l-1.9,0.9l-1.6,0.6l-1,0.6l-0.7,0.3l-1.1,0.3l-1.6,0.7l-0.5,0.2l-2.5,1.2
		l-1.4,0.9l-0.1,0.2l-1.5,0.8l-0.6,0.5l-0.4,0.3l-0.6,0.4l-0.6,0.6l-0.6,0.8l-0.7,0.5L710,85l-1,0.6c-0.6,0.6-0.8,1.2-0.9,1.8
		c-0.3,0.9,0,0.3,0.5,0.8l0.3,0.5l0.6,0.4l0.5,0.7l0.3,0.5h0.1c0.6,0.4,1.1,0.6,1.6,0.8l1.2,0.5v0.2l1.6,0.6l0.8,0.2l0.5,0.4h0.1
		l0.1,0.1l2.4,0.9h1l0.7,0.2l0.7,0.5l0.1-0.1l0.2,0.2l0.4,0.3l1.8,0.7l0.8,0.1l0.6,0.3h1.8l0.5,0.3l1.3,0.2l1.7,0.4l0.5,0.4l1.6,0.6
		l0.6,0.9l0.2,0.8l-0.1,0.2l-0.1,0.4l-0.4,0.5l-0.6,0.6l-1.3,0.6h-0.5l-0.6,0.4l-1.2,0.4l-0.3-0.1l-1-0.1l-2.2,0.6l-4.1,0.3h-1.2
		l-3.7,0.2h-1.1l-1.2,0.1l-1.6-0.1l-1.1,0.3l-1.4,0.3l-2.4-0.5h-1.5l-0.9,0.1l-1.7,0.3h-0.6l-1.3,0.3h-0.6l-1.8,0.5l-1.4,0.5
		l-0.7-0.1l-1,0.1l-2.5,0.6l-0.3,0.1l-1,0.2l-0.2-0.1l-0.1,0.1H691l-0.4,0.2l-0.4,0.1l-0.2-0.2v-0.2H690l0.1-0.1l-0.1-0.1l0.2-0.2
		l0.2-0.1h0.1l0.4-0.4l2.8-0.6l1-0.3l0.2,0.1l1.3-0.3l0.9-0.2h0.3l2.6-1.1h0.9l0.7-0.2l1.4,0.2l1-0.1l0.7-0.2l1.9-0.2l1.6-0.2
		l1.4-0.1l1.9-0.2l0.3,0.1h1.1l0.6-0.3l0.3,0.1c0.5,0,0.9-0.1,1.5-0.1l0.8-0.4l2.1-0.2l1.6-0.4l2.8-0.1l0.3,0.1l0.6-0.2h1l0.8-0.5
		l1.6-0.3l-0.5-0.2l-0.3-0.3l-1-0.2l-1.2-0.3l-1.4-0.6l-0.1-0.3l-0.4-0.1h-0.9l-0.6-0.6l-2.3-0.9l-0.4-0.2l-0.6-0.3l-2.3-1.1h-0.1
		l-0.1-0.1c-1.8-0.6-3.3-1.1-3.9-1.6h-0.1v-0.1l-0.6-0.3l-0.5-0.1l-1.1-0.5l-0.3,0.1l-0.3-0.6h-0.5l-0.9-0.6l-1.1-1.7l0.1-1.4
		l0.1,0.4c0.1-0.4,0.3-0.7,0.6-1.1c0.2-0.4,0.6-0.6,0.7-1l-0.1-0.1l1.2-1.8l0.6-0.7h0.2l0.4-0.6l0.6-0.4l0.5-0.6l0.6-0.4l0.4-0.4
		l0.9-0.3h0.1l0.3-0.4l0.6-0.3h0.1l1.8-1.1l0.8-0.5l0.8-0.7l0.3-0.2l0.6-0.5l0.4-0.3l0.2-0.5l0.4-0.2h0.6l0.6-0.1l1.8-0.6l1.2-0.2
		l0.6-0.1l0.3-0.1l1.6-0.5l0.3-0.2c1.5-0.2,1.7-0.6,2.1-0.8l0.6-0.5h0.4l1,0.1l0.5-0.2l0.5-0.1c0.2,0,0.4,0,0.6-0.1
		c0.8-0.2,1.9-0.5,3.1-0.6l0.6-0.2l0.7-0.3l0.4-0.2h1.3l0.6-0.2l1.6,0.3l0.6,0.2h0.3l0.1,0.1l0.9,0.2l0.3-0.1l1.2,0.4l0.9,0.6
		l0.3,0.4l0.2,0.4c0.2,0.5,0.3,1,0.5,1.7h0.2L744.8,76.4L744.8,76.4z"/>
	<path class="st0" d="M763.7,97.2l-0.9,0.7l-1.3,0.6l-0.8,0.2l-0.5,0.3l-0.1,0.2l-0.3,0.2l-1.2,0.5l-0.8,0.4l-0.1,0.2l-0.3,0.2
		l-0.6,0.2l-1.4,0.7l-0.6,0.3l-1.4,0.9l-0.7,0.3l-0.6,0.3l-1,0.6l-0.8,0.4l-0.6,0.2l-1.5,0.3l-1.3,0.6l-1.1,0.2l-1.6-0.1l-1,0.3
		l-1.8-0.4c-0.9-0.3-1.7-0.7-2.1-1.5l-0.4-0.4l0.1-0.6c-0.1-0.7-0.1-1.6,0.3-2.5V100l0.6-1.8l0.7-1.8l0.2-0.6l0.6-1.1l0.6-0.7
		l0.2-0.4L743,93c0.2-0.3,0.4-0.6,0.6-0.9l0.7-1.1l0.3-0.6l0.3-0.6l0.3-0.3l0.3-0.9l0.8-0.8l0.6-0.3l0.4-0.6l0.8-0.7l1.8-3l0.5-1.4
		l1-1.3L752,80l0.4-0.7l0.4-0.3l0.2-0.9v-0.5l0.5-0.7l0.6-0.5l0.3-0.2h0.2V76l0.6-0.6l0.6-0.4c0.4-0.5,0.8-0.8,1.5-0.7
		c0.1,0,0.2,0.1,0.3,0.2l0.3-0.2l0.1-0.2l0.6-0.1l0.7,0.1l0.6,0.5V75l-0.2,1l-0.6,1l-0.9,1l-0.3,0.3l-0.4,0.3h-0.2l-0.6,0.2
		l-1.6,1.5l-0.2,0.5l-0.1,0.2l-1.3,1.3c-0.1,0.2-0.3,0.3-0.4,0.4l-0.1,0.6l-0.8,0.7l-0.6,0.9l-0.7,0.7l-0.2,0.4l-0.6,0.5l-0.4,0.6
		l-0.2,0.3l-1.1,1.3l-1.4,1.6l-0.6,0.9l-0.6,0.8l-1,1.8c-0.7,0.8-0.8,0.9-0.9,1.1l-0.6,1.7l-0.2,0.7l-0.7,1.6l-0.6,1.9v0.6l-0.2,1.1
		c0.2,0.8,0.3,0.9,0.3,1l0.4,0.2l0.6-0.1h0.3l0.6,0.1l0.6-0.2l0.6-0.1l0.4,0.2h0.5l1.9-0.5h0.3c0.5-0.2,1-0.3,1.6-0.5l0.5-0.3
		l1.1-0.6l0.8-0.5l1.8-0.5l1.5-0.6l0.8-0.2l3.2-1.6l0.2-0.4h0.6l1.7-0.8l0.1-0.1l0.2-0.3l0.7-0.4h0.3l0.3-0.4l0.6-0.2l0.7-0.4
		l0.9-0.6l0.8-0.5l1-0.7l0.3-0.3l1.1-0.6l0.5-0.2l0.4-0.3l1.9-1.1h0.3l0.6-0.5l0.5-0.2l0.5-0.3c0.2,0,0.2-0.1,0.3-0.1l0.5-0.5
		l0.6-0.3l0.4-0.4l0.6-0.4l0.9-0.5L777,88c0.7-0.5,1.6-1,2.6-1.6l0.2-0.4h0.3l0.3,0.1l0.3,0.6l-0.3,0.4l-0.3,0.2l-0.6,0.3l-0.2,0.3
		l-0.2-0.1H779v0.2l-1.2,0.6h-0.3l-2.9,1.8l-0.8,0.6l-0.8,0.7l-0.8,0.3l-0.6,0.3c-1.8,1.2-3.4,2.3-5,3.2l-0.4,0.5l-0.3,0.2l-1.1,0.4
		l-0.3,0.2l-0.2,0.2L763.7,97.2z M771.6,54.8l-0.7,1.3l-0.4,0.5l-0.3,0.4V57l-0.9,0.2l-0.8,0.2l-0.7,0.3l-0.7,0.6l-0.1,0.1l-0.4,0.2
		l-0.5,0.7l-0.9,0.3l-0.7,1.4l-0.9,0.3l-0.4,0.5l-0.6,0.7v0.2l-1,0.6l-0.1-0.7l0.4-0.3c0-0.1,0.2-0.3,0.2-0.6l1.1-1.6l-0.2-0.7
		l0.6-1.4l0.3-0.6l0.9-1.1l0.6-0.7l0.2-0.1l1-1l0.4-0.5l0.7-0.5l0.6-0.7h0.1l0.4-0.4h-0.2l0.5-0.2v0.2l0.6-0.6l0.9-0.3l0.7,0.7
		l0.9,0.4l-0.3,1l0.2,0.5L771.6,54.8z"/>
	<path class="st0" d="M711.4,184.9L711.4,184.9l0.1-0.8l0.2-0.3v-1.2l0.5-1v-1.2l0.2-1.3l0.3-0.7l1.1-1.2l0.1-0.1
		c0-0.1,0.1-0.2,0.1-0.3l0.1-0.6l0.3-0.6c0.8-1.9,1.8-3.9,2.8-5.8l0.2-0.9l0.4-0.5l0.3-1.2l0.4-0.6l0.5-0.8l0.2-0.6l0.3-0.6l0.8-1
		l1.4-1.2l3-4.5l3.7-4.5c0.4-0.6,0.7-1.1,1.3-1.8l0.1-0.3l0.6-0.9l1.1-0.9l0.7-1.3l1.1-1.1l0.9-0.6l0.5-0.5l0.5-0.6l0.5-0.4
		c1.2-1.3,2.6-2.9,4.2-4.8l0.8-0.6l0.3-0.8l1.1-0.7h0.1l0.8-0.6l2.4-2.5l0.5-0.9l0.6-0.6l0.9-0.8l1.2-1l0.6-0.6l0.6-0.7l1.6-1.1
		l2.5-2.3l0.2-0.5v-0.4h0.3l0.5-0.1c2.1-1.8,4.2-3.6,6-5.1l0.1-0.2l0.5-0.6l0.3-0.2l0.7-0.3c0.3-0.3,0.6-0.5,0.8-0.6l4.4-3.2
		l0.2-0.5l0.2-0.2h0.5l1-0.6l1.2-1.3l2.4-1.4h0.1c2.2-1.6,4.4-3.1,6.6-4.6l0.3-0.5l0.8-0.3l5.4-3.4l0.6-0.6h0.1l0.4-0.3l0.1-0.5
		l0.3-0.2l0.7,0.1l0.4-0.2l0.9-0.8l0.6-0.4l0.8-0.4l1.1-0.4l0.9-0.5l0.1-0.1l1.9-2.7l0.1-0.1c0.4-0.6,0.6-1.2,1.1-2l1.7-3l0.2-0.4
		l0.7-1.4l1.1-2.3h0.1l0.7-1.8l0.6-2.1v-0.4l-0.3-0.5l-0.1-0.1l-0.2,0.1h-0.3l-0.5-0.1l-1,0.5l-0.6-0.1l-0.2,0.2h-0.2l-0.5,0.3
		l-0.2,0.3l-0.3,0.3l-0.7,0.4l-0.4-0.1l-0.3,0.3l-2.7,1.8l-0.2,0.3h-0.3l-3.1,2l-0.3,0.1l-0.6,0.3l-0.6,0.3l-2,1.3l-1.1,0.9
		l-2.9,1.2l-0.2,0.2l-0.3,0.2l-0.6,0.2l-0.6,0.4l-0.1,0.1l-0.3,0.1l-3,1.8l-0.7,0.7l-0.6,0.4l-0.3,0.3l-0.2,0.6l-0.2,0.1h-0.7
		l-0.6,0.2l-1.7,0.3l-0.4,0.1c-1.9,0.7-3.7,1.2-5.1,1.1c-0.4,0-0.6-0.1-0.6-0.4l-0.5-0.6l-0.4-0.7v-0.6l0.2-0.5l0.2-1.3l0.3-0.3
		l0.1-0.2l0.5-0.6c0-0.1,0.1-0.2,0.2-0.3c0.2-0.2,0.4-0.3,0.5-0.6h0.1l1.1-1.5l0.6-0.5l1.8-1.8l0.3-0.4l0.4-0.2l0.9-0.8l0.1-0.1
		l0.6-0.6l0.1-0.2l0.8-0.6l0.9-1.2l0.6-0.5h0.3l0.6-0.5l0.5-0.4l0.8-0.7h0.1l0.4-0.1L778,83l0.2-0.3h0.3c1.2-0.8,1.3-0.9,2.5-1.8
		l0.5-0.5l2-1.3l0.3-0.1l0.4-0.3l1-0.6l0.3-0.2l2.1-1.3l0.7-0.5l0.6-0.6l0.6-0.4l0.6-0.3l1.7-0.2c2.7-1.3,5.3-2.3,6.1-2.1
		c0.4,0.1,1.1,0.2,1.5,0.5s0.6,1,0.9,1.3c0.3,0.2,0.3,2.8,0.1,3l-0.2,0.3l-0.1,0.6l-0.4,0.9l-0.3,0.6l0.6-0.4l2.4-0.6l1.3-0.2h0.7
		l0.6,0.2l0.3,0.3v0.6l-0.2,1.3l-0.6,1l-0.4,0.6l-0.5,0.5l-0.9,1.8l-1.2,1.9l-1.9,4.1l-0.1,0.7l-0.4,1.1l-0.8,1.1l-0.5,1.4l-0.4,0.6
		l-0.5,0.8l-0.1,0.1l5.5-2.6l0.9-0.6l0.6-0.2l1.8-0.6l2.8-1.2c1-0.5,2-0.8,3.1-1.2l0.6-0.4h0.5l0.2-0.3l2.4-0.5h0.2
		c0.1,0,0.2,0,0.4-0.1l0.2-0.1v0.1l1.1-0.3l0.3-0.2l0.1,0.1c0.1-0.1,0.2-0.1,0.4-0.1l0.1-0.1l0.3-0.1l0.6-0.3l0.5-0.3l0.7-0.1l1-0.3
		l1.6-0.1l1.5-0.5c0.2,0,0.3,0.1,0.4,0.2l0.4-0.3h0.3l0.4,0.3l0.1,0.6l-0.3,0.3l-0.3,0.1h-0.6l-0.5,0.3l-0.1-0.1l-0.4,0.2l-1.2,0.3
		h-0.4l-1.2,0.1l-3.2,0.8l-0.7,0.5l-0.9,0.1l-0.8,0.2l-1.9,0.5l-0.6,0.2l-2.2,1.1l-0.6,0.5l-1.9,0.5l-1.2,0.6l-1.8,0.6
		c-1.8,0.8-3,1.5-4.6,2.3l-0.7,0.5l-1.2,0.6l-0.7,0.5l-0.7,0.3h-0.1l-2,1.1l-0.7,0.8l-0.1,0.2l-0.5,0.6l-0.3,1.1l0.1,0.3l-0.3,0.1
		l-0.6,0.5l-0.3,0.2l-0.5,0.6l-0.3,0.6l-0.3,0.3h-0.1l-1.1,1.7l-5.3,7.4v0.1l-1.2,1.7l-0.2,0.1l-0.6,0.7v0.3l-2,2.7h-0.1
		c-0.6,0.9-1.2,1.7-1.8,2.6l-0.9,1.3l-1.9,2.7l-4.1,5.3l-0.1,0.3h-0.1l-2.1,2.8l-0.3,0.4l-1.2,1.8l-4.9,6.2l-2.2,3l-6,7.6
		c-1.9,2.5-4,4.9-6,7.4l-0.2,0.5l-4.2,5.4c-1.4,2.7-3.6,4.8-5.4,7.1c-1.3,1.8-3.2,3.3-4.6,5.3l-1.8,1.5L732,181l-1.1,1.6
		c-1.7,2.1-3.9,3.6-5.3,5.9l-0.5,0.3l-0.8,1.2l-1.1,1.8c-0.1,0-0.1,0.1-0.2,0.1c-1.8,1.4-3.5,2.9-5.7,3.4l-1.8,0.5l-2.5-0.7
		l-0.2-0.4c-0.8-0.6-1.5-1.6-1.9-2.9c0-0.1,0-0.3-0.1-0.6c-0.2-0.9-0.2-1.8-0.1-2.8v-2.2l0.4-0.4
		C711.3,185.5,711.4,185.2,711.4,184.9z M782.1,114.7l0.1-0.3l1.5-1.9h0.1v-0.1l0.5-0.8l1.8-2.5l0.9-1.5l2.9-3.7l1.2-2.2l-0.2,0.1
		c-1.5,0.7-2.9,1.6-4.2,2.4l-0.2,0.4l-0.7,0.4l-0.4,0.5l-1.9,0.8l-3.9,2.5l-0.1,0.2h-0.1l-0.4,0.2v0.2l-0.5,0.3l-0.2,0.3h-0.4
		l-2.9,1.9l-0.6,0.7l-0.6,0.1l-4.5,3.3l-0.7,0.7h-0.2c-4.2,3.2-8.2,6.6-12.1,10l-0.3,0.3l-0.7,0.9l-1.1,0.6c-3.1,2.9-6.2,5.6-9,8.6
		l-0.2,0.2l-0.6,0.9l-0.7,0.5l-1.7,1.7l-0.1,0.4l-0.6,0.6l-0.2,0.2l-1.3,1.5l-0.6,0.6l-0.5,0.3l-1.6,2.2l-3,3.4l-3.3,3.6l-1.8,2.3
		c-1.3,1.5-2.4,2.8-3.2,4l-0.5,1.4l-1.2,1l-1.4,1.9c0,0.1,0,0.2-0.1,0.3c-1,1.6-1.7,3-2.5,4.7c-2.1,4.3-4.2,8.6-6.1,13.1v0.1
		l-0.2,1.3l-0.2,0.9l-0.5,0.6v0.5l-0.3,0.7c0,0.2-0.1,0.4-0.1,0.6v0.3c-0.2,1.6-0.3,3.1-0.1,4.4c0.1,0.2,0.1,0.4,0.2,0.5l1,0.2
		c1.4-0.4,2.6-1,3.8-1.8l1.6-1.1l1.1-1.1l2.5-1.5c2.5-1.9,5.2-3.6,7.6-6.6c2.5-3,6-5.3,13.3-15.6l-0.1,0.2c1.8-2,3.4-4.2,5.1-6.2
		l3.8-4.9c1.2-1.8,2.7-3.5,4.1-5c1.3-1.6,2.6-3.2,3.8-4.9l0.4-0.5l1.7-2l3.1-3.6l1.1-1.6l0.5-0.7l1.3-1.8l1.2-1.8l0.6-0.6l0.2-0.3
		l0.6-0.5l0.1-0.1l0.3-0.6h0.2l0.1-0.1V129l1.2-1.7l0.3-0.3c1-1.5,2-3,3.1-4.4l0.5-0.7l0.6-0.8l0.4-0.7l0.9-1l0.7-0.8L782.1,114.7z
		 M780.4,91L780.4,91l1.7-1.1l0.4-0.5l0.4-0.1h0.1l0.1-0.3l0.5-0.3l0.2-0.3h0.5l2.8-1.8l0.1-0.3h-0.1l0.1-0.1h0.2l0.2-0.1l0.2-0.2
		l0.3-0.4l1-0.5l1.1-1l0.6-0.4h0.4l0.7-0.4l0.9-0.6l-0.1-0.1l0.1-0.3l0.3-0.1l0.1,0.1h0.2l-0.2,0.3l0.2-0.2h0.4l0.3-0.3h0.1l0.3-0.1
		l1.2-0.6v0.1l0.1-0.1l-0.4-0.6v-0.8l0.6-0.9l0.3-0.4l1.1-1l0.8-1l0.4-0.3l0.1-0.5l0.6-0.7l0.1-0.7l-0.2-0.5l-0.3-0.2
		c-1.2,0-3.4,0.7-5.2,1.6l-0.6,0.4l-0.7,0.5l-1.1,0.7l-0.7,0.6l-0.6,0.3l-1.2,0.4l-1.3,0.6c-0.5,0.2-0.8,0.5-1.2,0.7
		c-1.5,0.9-3,1.9-4.6,3l-0.2,0.3l-0.7,0.6l-0.9,0.6l-0.6,0.6L777,86l-1.9,1.5l-1.9,1.7l-1.8,1.7l-0.1,0.2l-0.2,0.3l-0.5,0.7
		l-0.4,0.3l-1.8,2.2l-0.6,1.5l-0.2,0.2l-0.3,0.5l-0.2,0.4l-0.1,0.3l0.1,0.4l0.2,0.1c0.4,0,0.7-0.1,1.2-0.2c0.6-0.1,1.2-0.4,1.8-0.6
		l0.3-0.3l0.7-0.1l0.2-0.2l1.1-0.7l0.9-0.4c0.7-0.5,1.5-0.8,2.1-1.3l0.4-0.3l0.2-0.3l0.5-0.1l0.8-0.5l0.3-0.3L780.4,91z"/>
	<path class="st0" d="M819.5,91.6l0.3-0.5l0.1-0.1l0.6-0.9l0.6-1.1l1-1.5l0.3-0.6l1.9-2.7l0.5-0.7l0.3-0.4l1.1-1.9l0.9-1.5l0.8-1.4
		l0.4-1.1v-0.6h-0.2v-0.2l0.2-0.2l-0.2-1.5l0.2-1.8l0.2-0.6l0.7-2.1l1.7-1.1l1-0.2l0.9,0.6l0.2,0.6V71l0.4-0.2l-0.2,0.3H833
		l-0.2,0.2l-0.2,0.6c0,0.1,0.1,0.2,0.1,0.3c-0.2,1.1-0.8,2.2-1.4,3.2l-0.5,2.5l-0.7,1l-0.6,0.4l-0.9,1.3l-0.6,1.1l-0.5,0.8l-0.4,0.9
		l-0.7,0.6l-0.2,0.4l-0.2,0.6V85l-0.4,0.2l-1.9,2.7l-0.2,0.7l-1.1,1.4l-0.6,1.3l-1.9,3l-0.4,0.7l-1,1.5v0.1l-0.2,0.5l-0.2,0.1
		l-0.3,0.6l-0.4,0.8c0.5-0.4,0.6-0.7,1-1.1l0.3-0.4l0.1-0.1l0.3-0.6l0.6-0.4l0.3-0.3l0.6-0.6l0.6-0.4l0.8-0.8l0.5-0.3
		c1.2-1.1,2.4-2.3,3.7-3.4l0.5-0.6l0.2-0.3l0.8-0.6l0.6-0.5l1.5-1l0.3-0.3l2.1-1.4l0.5-0.2c0.8-0.4,1.6-0.8,2.3-1.2
		c0.6-0.3,1.9-0.8,3-0.7v-0.1l1.8,0.1l0.6,0.7l0.9,0.8l0.3,1.5v0.6l-0.1,0.9l-0.2,1.1l-0.1,0.6v0.7l-0.6,2.3v0.2l0.6,0.8l0.3,1.1
		l0.2,0.2l-0.2,0.2l-0.2,0.6v0.7l0.4,0.6l0.4,0.4l0.7,0.6c1.3,0.1,2.9-0.1,4.5-0.4l1.8-0.7l0.6-0.1l1.2-0.5l0.6-0.1l1.8-0.6l1.3-0.7
		l0.8-0.1l0.8-0.3l1.6-0.6c1.1-0.5,2.2-1,3.3-1.6l0.9-0.6l0.5-0.1l2.2-1.1l0.6-0.5l0.7-0.6l0.8-0.6l2.6-1.1l3.1-1.8l0.4-0.4l1.3-0.7
		h0.3v-0.2h0.3l0.8-0.6l0.2-0.2h0.6l0.3,0.4v0.4l-0.3,0.2l-0.5,0.2c-1.5,0.9-3,1.9-4.5,2.9l-0.7,0.7l-0.6,0.2l-0.6,0.4h-0.2
		l-1.1,0.7l-0.2,0.2l-0.4,0.1c-0.1,0-0.2,0.1-0.3,0.2l-0.2,0.2l-0.5,0.2h-0.1c-0.9,0.6-1.9,1.1-3,1.6l-1.5,0.8l-3.9,1.9l-0.4,0.1
		l-0.1,0.1l-1.2,1l-1,0.6l-1.3,0.2l-1.4,0.7l-0.6,0.3l-0.8,0.2l-1.1,0.2l-0.6,0.1l-0.4,0.2l-0.4,0.1l-0.3,0.1
		c-0.7,0.2-1.5,0.3-2.2,0.4l-1.2,0.1l-0.5,0.3l-0.4,0.1l-0.7-0.2l-0.6,0.2l-0.7-0.1h-0.2c-1.1,0.1-2-0.8-3-1.3
		c-0.6-0.3-1-0.6-1.2-1.2l-0.1-0.4c-0.1-0.5-0.1-0.9-0.1-1.5v-0.9l0.4-1.1l0.5-1.7h-0.1l0.2-0.2l0.9-3.3h-0.1l-0.2-0.2l0.4-0.6
		c0.2-1.4-0.1-2.5-1.3-2.8c-0.6-0.1-0.7-0.4-1.5-0.1l-0.9,0.5l-0.7,0.6c-0.1,0-0.1,0.1-0.2,0.1l-1.9,1.3l-0.2,0.3l-0.3,0.2l-1.5,1.5
		l-0.7,0.4l-0.2,0.6l-2.9,2.1l-0.4,0.1l-0.7,0.5L826,93l-0.4,0.7l-0.7,0.6l-0.3,0.2l-0.7,0.5l-0.6,0.6l-0.4,0.3l-0.4,0.7l-0.9,0.7
		l-0.8,0.6c-1.4,1.4-2.7,2.8-4.2,4.2l-0.4,0.6l-0.1-0.1l-0.8,0.7c-0.1,0-0.1,0-0.2,0.1l-0.1,0.2l-0.3,0.1l0.1,0.2v0.2l-0.3-0.3
		l-0.3,0.4l-0.5,0.1l-0.7-0.3l-0.4-0.8v-1.8l0.6-1.6l0.5-0.6l0.9-0.9l1.1-0.6v-0.3h0.1l0.2,0.1V97l0.3-0.2l0.4-0.7l0.5-1.2l0.5-0.6
		l0.2-0.5l1.4-2L819.5,91.6z"/>
</g>
</svg>
